<svg width="89" height="48" viewBox="0 0 89 48" fill="none" xmlns="http://www.w3.org/2000/svg">
<path d="M1.463 34.905V36.13H3.108V36.907H1.463V38.202H3.318V39H0.483V34.107H3.318V34.905H1.463ZM5.12559 34.66C4.95292 34.66 4.80825 34.6063 4.69159 34.499C4.57959 34.387 4.52359 34.2493 4.52359 34.086C4.52359 33.9227 4.57959 33.7873 4.69159 33.68C4.80825 33.568 4.95292 33.512 5.12559 33.512C5.29825 33.512 5.44059 33.568 5.55259 33.68C5.66925 33.7873 5.72759 33.9227 5.72759 34.086C5.72759 34.2493 5.66925 34.387 5.55259 34.499C5.44059 34.6063 5.29825 34.66 5.12559 34.66ZM5.60859 35.122V39H4.62859V35.122H5.60859ZM8.51583 35.059C8.80516 35.059 9.0595 35.1173 9.27883 35.234C9.49816 35.346 9.67083 35.493 9.79683 35.675V35.122H10.7838V39.028C10.7838 39.3873 10.7115 39.707 10.5668 39.987C10.4222 40.2717 10.2052 40.4957 9.91583 40.659C9.6265 40.827 9.2765 40.911 8.86583 40.911C8.31516 40.911 7.8625 40.7827 7.50783 40.526C7.15783 40.2693 6.95949 39.9193 6.91283 39.476H7.88583C7.93716 39.6533 8.04683 39.7933 8.21483 39.896C8.38749 40.0033 8.59516 40.057 8.83783 40.057C9.1225 40.057 9.3535 39.9707 9.53083 39.798C9.70816 39.63 9.79683 39.3733 9.79683 39.028V38.426C9.67083 38.608 9.49583 38.7597 9.27183 38.881C9.0525 39.0023 8.80049 39.063 8.51583 39.063C8.18916 39.063 7.89049 38.979 7.61983 38.811C7.34916 38.643 7.13449 38.4073 6.97583 38.104C6.82183 37.796 6.74483 37.4437 6.74483 37.047C6.74483 36.655 6.82183 36.3073 6.97583 36.004C7.13449 35.7007 7.34683 35.4673 7.61283 35.304C7.88349 35.1407 8.18449 35.059 8.51583 35.059ZM9.79683 37.061C9.79683 36.823 9.75016 36.62 9.65683 36.452C9.5635 36.2793 9.4375 36.1487 9.27883 36.06C9.12016 35.9667 8.94983 35.92 8.76783 35.92C8.58583 35.92 8.41783 35.9643 8.26383 36.053C8.10983 36.1417 7.98383 36.2723 7.88583 36.445C7.7925 36.613 7.74583 36.8137 7.74583 37.047C7.74583 37.2803 7.7925 37.4857 7.88583 37.663C7.98383 37.8357 8.10983 37.9687 8.26383 38.062C8.42249 38.1553 8.5905 38.202 8.76783 38.202C8.94983 38.202 9.12016 38.1577 9.27883 38.069C9.4375 37.9757 9.5635 37.845 9.65683 37.677C9.75016 37.5043 9.79683 37.299 9.79683 37.061ZM15.766 36.977C15.766 37.117 15.7566 37.243 15.738 37.355H12.903C12.9263 37.635 13.0243 37.8543 13.197 38.013C13.3696 38.1717 13.582 38.251 13.834 38.251C14.198 38.251 14.457 38.0947 14.611 37.782H15.668C15.556 38.1553 15.3413 38.4633 15.024 38.706C14.7066 38.944 14.317 39.063 13.855 39.063C13.4816 39.063 13.1456 38.9813 12.847 38.818C12.553 38.65 12.322 38.4143 12.154 38.111C11.9906 37.8077 11.909 37.4577 11.909 37.061C11.909 36.6597 11.9906 36.3073 12.154 36.004C12.3173 35.7007 12.546 35.4673 12.84 35.304C13.134 35.1407 13.4723 35.059 13.855 35.059C14.2236 35.059 14.5526 35.1383 14.842 35.297C15.136 35.4557 15.3623 35.682 15.521 35.976C15.6843 36.2653 15.766 36.599 15.766 36.977ZM14.751 36.697C14.7463 36.445 14.6553 36.2443 14.478 36.095C14.3006 35.941 14.0836 35.864 13.827 35.864C13.5843 35.864 13.379 35.9387 13.211 36.088C13.0476 36.2327 12.9473 36.4357 12.91 36.697H14.751ZM19.0503 35.066C19.5123 35.066 19.8856 35.213 20.1703 35.507C20.4549 35.7963 20.5973 36.2023 20.5973 36.725V39H19.6173V36.858C19.6173 36.55 19.5403 36.3143 19.3863 36.151C19.2323 35.983 19.0223 35.899 18.7563 35.899C18.4856 35.899 18.2709 35.983 18.1123 36.151C17.9583 36.3143 17.8813 36.55 17.8813 36.858V39H16.9013V35.122H17.8813V35.605C18.0119 35.437 18.1776 35.3063 18.3783 35.213C18.5836 35.115 18.8076 35.066 19.0503 35.066ZM24.1332 35.066C24.4272 35.066 24.6885 35.1313 24.9172 35.262C25.1459 35.388 25.3232 35.577 25.4492 35.829C25.5799 36.0763 25.6452 36.375 25.6452 36.725V39H24.6652V36.858C24.6652 36.55 24.5882 36.3143 24.4342 36.151C24.2802 35.983 24.0702 35.899 23.8042 35.899C23.5335 35.899 23.3189 35.983 23.1602 36.151C23.0062 36.3143 22.9292 36.55 22.9292 36.858V39H21.9492V33.82H22.9292V35.605C23.0552 35.437 23.2232 35.3063 23.4332 35.213C23.6432 35.115 23.8765 35.066 24.1332 35.066ZM30.6021 36.977C30.6021 37.117 30.5928 37.243 30.5741 37.355H27.7391C27.7625 37.635 27.8605 37.8543 28.0331 38.013C28.2058 38.1717 28.4181 38.251 28.6701 38.251C29.0341 38.251 29.2931 38.0947 29.4471 37.782H30.5041C30.3921 38.1553 30.1775 38.4633 29.8601 38.706C29.5428 38.944 29.1531 39.063 28.6911 39.063C28.3178 39.063 27.9818 38.9813 27.6831 38.818C27.3891 38.65 27.1581 38.4143 26.9901 38.111C26.8268 37.8077 26.7451 37.4577 26.7451 37.061C26.7451 36.6597 26.8268 36.3073 26.9901 36.004C27.1535 35.7007 27.3821 35.4673 27.6761 35.304C27.9701 35.1407 28.3085 35.059 28.6911 35.059C29.0598 35.059 29.3888 35.1383 29.6781 35.297C29.9721 35.4557 30.1985 35.682 30.3571 35.976C30.5205 36.2653 30.6021 36.599 30.6021 36.977ZM29.5871 36.697C29.5825 36.445 29.4915 36.2443 29.3141 36.095C29.1368 35.941 28.9198 35.864 28.6631 35.864C28.4205 35.864 28.2151 35.9387 28.0471 36.088C27.8838 36.2327 27.7835 36.4357 27.7461 36.697H29.5871ZM32.2345 34.66C32.0618 34.66 31.9171 34.6063 31.8005 34.499C31.6885 34.387 31.6325 34.2493 31.6325 34.086C31.6325 33.9227 31.6885 33.7873 31.8005 33.68C31.9171 33.568 32.0618 33.512 32.2345 33.512C32.4071 33.512 32.5495 33.568 32.6615 33.68C32.7781 33.7873 32.8365 33.9227 32.8365 34.086C32.8365 34.2493 32.7781 34.387 32.6615 34.499C32.5495 34.6063 32.4071 34.66 32.2345 34.66ZM32.7175 35.122V39H31.7375V35.122H32.7175ZM38.9217 35.066C39.3977 35.066 39.7804 35.213 40.0697 35.507C40.3637 35.7963 40.5107 36.2023 40.5107 36.725V39H39.5307V36.858C39.5307 36.5547 39.4537 36.3237 39.2997 36.165C39.1457 36.0017 38.9357 35.92 38.6697 35.92C38.4037 35.92 38.1914 36.0017 38.0327 36.165C37.8787 36.3237 37.8017 36.5547 37.8017 36.858V39H36.8217V36.858C36.8217 36.5547 36.7447 36.3237 36.5907 36.165C36.4367 36.0017 36.2267 35.92 35.9607 35.92C35.69 35.92 35.4754 36.0017 35.3167 36.165C35.1627 36.3237 35.0857 36.5547 35.0857 36.858V39H34.1057V35.122H35.0857V35.591C35.2117 35.4277 35.3727 35.2993 35.5687 35.206C35.7694 35.1127 35.9887 35.066 36.2267 35.066C36.53 35.066 36.8007 35.1313 37.0387 35.262C37.2767 35.388 37.461 35.57 37.5917 35.808C37.7177 35.584 37.8997 35.4043 38.1377 35.269C38.3804 35.1337 38.6417 35.066 38.9217 35.066ZM45.4237 35.626C45.4237 35.8873 45.3607 36.1323 45.2347 36.361C45.1133 36.5897 44.9197 36.774 44.6537 36.914C44.3923 37.054 44.061 37.124 43.6597 37.124H42.8407V39H41.8607V34.114H43.6597C44.0377 34.114 44.3597 34.1793 44.6257 34.31C44.8917 34.4407 45.09 34.6203 45.2207 34.849C45.356 35.0777 45.4237 35.3367 45.4237 35.626ZM43.6177 36.333C43.8883 36.333 44.089 36.2723 44.2197 36.151C44.3503 36.025 44.4157 35.85 44.4157 35.626C44.4157 35.15 44.1497 34.912 43.6177 34.912H42.8407V36.333H43.6177ZM48.2614 39.063C47.8881 39.063 47.5521 38.9813 47.2534 38.818C46.9548 38.65 46.7191 38.4143 46.5464 38.111C46.3784 37.8077 46.2944 37.4577 46.2944 37.061C46.2944 36.6643 46.3808 36.3143 46.5534 36.011C46.7308 35.7077 46.9711 35.4743 47.2744 35.311C47.5778 35.143 47.9161 35.059 48.2894 35.059C48.6628 35.059 49.0011 35.143 49.3044 35.311C49.6078 35.4743 49.8458 35.7077 50.0184 36.011C50.1958 36.3143 50.2844 36.6643 50.2844 37.061C50.2844 37.4577 50.1934 37.8077 50.0114 38.111C49.8341 38.4143 49.5914 38.65 49.2834 38.818C48.9801 38.9813 48.6394 39.063 48.2614 39.063ZM48.2614 38.209C48.4388 38.209 48.6044 38.167 48.7584 38.083C48.9171 37.9943 49.0431 37.8637 49.1364 37.691C49.2298 37.5183 49.2764 37.3083 49.2764 37.061C49.2764 36.6923 49.1784 36.41 48.9824 36.214C48.7911 36.0133 48.5554 35.913 48.2754 35.913C47.9954 35.913 47.7598 36.0133 47.5684 36.214C47.3818 36.41 47.2884 36.6923 47.2884 37.061C47.2884 37.4297 47.3794 37.7143 47.5614 37.915C47.7481 38.111 47.9814 38.209 48.2614 38.209ZM52.4033 35.724C52.5293 35.5187 52.6926 35.3577 52.8933 35.241C53.0986 35.1243 53.332 35.066 53.5933 35.066V36.095H53.3343C53.0263 36.095 52.793 36.1673 52.6343 36.312C52.4803 36.4567 52.4033 36.7087 52.4033 37.068V39H51.4233V35.122H52.4033V35.724ZM55.8144 35.927V37.803C55.8144 37.9337 55.8447 38.0293 55.9054 38.09C55.9707 38.146 56.0781 38.174 56.2274 38.174H56.6824V39H56.0664C55.2404 39 54.8274 38.5987 54.8274 37.796V35.927H54.3654V35.122H54.8274V34.163H55.8144V35.122H56.6824V35.927H55.8144ZM57.5553 37.047C57.5553 36.655 57.6323 36.3073 57.7863 36.004C57.9449 35.7007 58.1573 35.4673 58.4233 35.304C58.6939 35.1407 58.9949 35.059 59.3263 35.059C59.6156 35.059 59.8676 35.1173 60.0823 35.234C60.3016 35.3507 60.4766 35.4977 60.6073 35.675V35.122H61.5943V39H60.6073V38.433C60.4813 38.615 60.3063 38.7667 60.0823 38.888C59.8629 39.0047 59.6086 39.063 59.3193 39.063C58.9926 39.063 58.6939 38.979 58.4233 38.811C58.1573 38.643 57.9449 38.4073 57.7863 38.104C57.6323 37.796 57.5553 37.4437 57.5553 37.047ZM60.6073 37.061C60.6073 36.823 60.5606 36.62 60.4673 36.452C60.3739 36.2793 60.2479 36.1487 60.0893 36.06C59.9306 35.9667 59.7603 35.92 59.5783 35.92C59.3963 35.92 59.2283 35.9643 59.0743 36.053C58.9203 36.1417 58.7943 36.2723 58.6963 36.445C58.6029 36.613 58.5563 36.8137 58.5563 37.047C58.5563 37.2803 58.6029 37.4857 58.6963 37.663C58.7943 37.8357 58.9203 37.9687 59.0743 38.062C59.2329 38.1553 59.4009 38.202 59.5783 38.202C59.7603 38.202 59.9306 38.1577 60.0893 38.069C60.2479 37.9757 60.3739 37.845 60.4673 37.677C60.5606 37.5043 60.6073 37.299 60.6073 37.061ZM63.9514 33.82V39H62.9714V33.82H63.9514ZM65.7736 39.049C65.5963 39.049 65.4493 38.9953 65.3326 38.888C65.2206 38.776 65.1646 38.6383 65.1646 38.475C65.1646 38.3117 65.2206 38.1763 65.3326 38.069C65.4493 37.957 65.5963 37.901 65.7736 37.901C65.9463 37.901 66.0886 37.957 66.2006 38.069C66.3126 38.1763 66.3686 38.3117 66.3686 38.475C66.3686 38.6383 66.3126 38.776 66.2006 38.888C66.0886 38.9953 65.9463 39.049 65.7736 39.049ZM67.326 37.047C67.326 36.655 67.403 36.3073 67.557 36.004C67.7157 35.7007 67.9303 35.4673 68.201 35.304C68.4717 35.1407 68.7727 35.059 69.104 35.059C69.356 35.059 69.5963 35.115 69.825 35.227C70.0537 35.3343 70.2357 35.479 70.371 35.661V33.82H71.365V39H70.371V38.426C70.2497 38.6173 70.0793 38.7713 69.86 38.888C69.6407 39.0047 69.3863 39.063 69.097 39.063C68.7703 39.063 68.4717 38.979 68.201 38.811C67.9303 38.643 67.7157 38.4073 67.557 38.104C67.403 37.796 67.326 37.4437 67.326 37.047ZM70.378 37.061C70.378 36.823 70.3313 36.62 70.238 36.452C70.1447 36.2793 70.0187 36.1487 69.86 36.06C69.7013 35.9667 69.531 35.92 69.349 35.92C69.167 35.92 68.999 35.9643 68.845 36.053C68.691 36.1417 68.565 36.2723 68.467 36.445C68.3737 36.613 68.327 36.8137 68.327 37.047C68.327 37.2803 68.3737 37.4857 68.467 37.663C68.565 37.8357 68.691 37.9687 68.845 38.062C69.0037 38.1553 69.1717 38.202 69.349 38.202C69.531 38.202 69.7013 38.1577 69.86 38.069C70.0187 37.9757 70.1447 37.845 70.238 37.677C70.3313 37.5043 70.378 37.299 70.378 37.061ZM76.3471 36.977C76.3471 37.117 76.3378 37.243 76.3191 37.355H73.4841C73.5075 37.635 73.6055 37.8543 73.7781 38.013C73.9508 38.1717 74.1631 38.251 74.4151 38.251C74.7791 38.251 75.0381 38.0947 75.1921 37.782H76.2491C76.1371 38.1553 75.9225 38.4633 75.6051 38.706C75.2878 38.944 74.8981 39.063 74.4361 39.063C74.0628 39.063 73.7268 38.9813 73.4281 38.818C73.1341 38.65 72.9031 38.4143 72.7351 38.111C72.5718 37.8077 72.4901 37.4577 72.4901 37.061C72.4901 36.6597 72.5718 36.3073 72.7351 36.004C72.8985 35.7007 73.1271 35.4673 73.4211 35.304C73.7151 35.1407 74.0535 35.059 74.4361 35.059C74.8048 35.059 75.1338 35.1383 75.4231 35.297C75.7171 35.4557 75.9435 35.682 76.1021 35.976C76.2655 36.2653 76.3471 36.599 76.3471 36.977ZM75.3321 36.697C75.3275 36.445 75.2365 36.2443 75.0591 36.095C74.8818 35.941 74.6648 35.864 74.4081 35.864C74.1655 35.864 73.9601 35.9387 73.7921 36.088C73.6288 36.2327 73.5285 36.4357 73.4911 36.697H75.3321Z" fill="#CB5F10"/>
<g clip-path="url(#clip0_101_4)">
<path d="M14.3737 10.1196V14.7129L17.6262 11.4832V10.4785L14.3737 10.1196Z" fill="#CB5F10"/>
<path d="M23 6.7464L10.697 19.8086H12.8889V23.6124L2 26.3397L14.0909 24.2584V17.8708L23.4242 7.9665L23 6.7464Z" fill="#CB5F10"/>
<path d="M21.7273 16.579L21.798 14.8565L23.4243 14.9282L23.3536 16.6507L21.7273 16.579Z" fill="#F3B080"/>
<path d="M55.5253 20.0957L55.596 18.6603L56.9394 18.732L56.8687 20.1675L55.5253 20.0957Z" fill="#F3B080"/>
<path d="M21.7273 18.6603L21.798 16.9378L23.4243 17.0096L23.3536 18.7321L21.7273 18.6603Z" fill="#F3B080"/>
<path d="M57.1515 21.9617L57.2222 20.5263L58.5656 20.5981L58.4949 22.0335L57.1515 21.9617Z" fill="#F3B080"/>
<path d="M23.7071 18.7321L23.7778 17.0096L25.4041 17.0814L25.3334 18.7321H23.7071Z" fill="#F3B080"/>
<path d="M55.4545 21.8899L55.5252 20.4545L56.8687 20.5263L56.798 21.9617L55.4545 21.8899Z" fill="#F3B080"/>
<path d="M23.7778 16.6507L23.8485 14.9282L25.4747 15L25.404 16.7225L23.7778 16.6507Z" fill="#F3B080"/>
<path d="M57.2929 20.1674L57.3636 18.732L58.7071 18.8038L58.6363 20.2392L57.2929 20.1674Z" fill="#F3B080"/>
<path d="M23.7778 6.10049L34.5252 10.9091L41.3131 20.6699H41.8788L48.6667 12.7751L57.3636 10.4785L48.4545 20.5263V22.0335L34.3838 21.1723V20.0957L23.7778 6.10049Z" fill="#F3B080"/>
<path d="M43.0808 3.01435L55.8081 0L42.3738 15.6459L38.6263 15.3589L35.7273 11.1244L43.0808 3.01435Z" fill="#F3B080"/>
<path d="M61.7475 6.45935V7.39237L64.5051 11.6986L64.7172 6.8182L61.7475 6.45935Z" fill="#CB5F10"/>
<path d="M56.8687 0.645905L55.8788 1.65069L64.7172 15.5024V17.9426L67.899 18.1579L56.8687 0.645905Z" fill="#CB5F10"/>
<path d="M39.1212 25.1196C38.1313 25.1196 37.0707 25.1196 36.0808 25.1914C17.202 25.8373 2 29.2823 2 29.2823C2 29.2823 17.202 27.1292 36.0808 26.4833C37.4242 26.4115 38.697 26.4115 40.0404 26.4115C57.2929 26.4115 72.0707 30 72.0707 30C72.0707 30 56.7273 25.1196 39.1212 25.1196Z" fill="#CB5F10"/>
<path d="M58.5657 11.0526L57.6465 12.0574L63.9394 21.6746V26.8421L71.4344 29.4258L64.293 26.3397L64.5051 23.6124H66.7677L58.5657 11.0526Z" fill="#CB5F10"/>
</g>
<defs>
<clipPath id="clip0_101_4">
<rect width="70" height="30" fill="white" transform="translate(2)"/>
</clipPath>
</defs>
</svg>
