<svg width="514" height="718" xmlns="http://www.w3.org/2000/svg"><g fill="none" fill-rule="evenodd"><path d="M394.792 19.718L91.72 71.056c-51.692 8.757-87.846 55.95-82.843 108.139L49.574 603.71c3.17 33.065 28.841 59.513 61.797 63.667l288.838 36.406c54.795 6.907 104.814-31.914 111.72-86.71a100 100 0 00.786-12.756l-1.222-486.255c-.138-55.228-45.022-99.887-100.25-99.748a100 100 0 00-16.45 1.404z" stroke="#979797" fill="#629CED"/><path d="M343.038 67.192l-214.99 38.785c-50.973 9.195-86.488 55.79-81.845 107.376l32.17 357.372c2.972 33.023 28.406 59.592 61.268 64.003l208.785 28.026c54.737 7.348 105.067-31.069 112.415-85.806a100 100 0 00.889-13.54l-.939-398.04c-.13-55.229-45.007-99.895-100.235-99.764a100 100 0 00-17.518 1.588z" fill="#FFF"/><g transform="translate(186 118)" fill-rule="nonzero"><path fill="#D14B51" d="M106.31 485.56l2.09 10.47-16.76 5.24v-13.62z"/><path d="M91.64 502.27a1 1 0 01-.59-.19 1 1 0 01-.41-.81v-13.62a1 1 0 01.86-1l14.66-2.09a1 1 0 011.13.79l2.09 10.48a1 1 0 01-.68 1.15l-16.76 5.24a1 1 0 01-.3.05zm1-13.75v11.39l14.6-4.56-1.73-8.67-12.87 1.84z" fill="#365894"/><path d="M96.88 500.22c1.48 0 11.11-4.12 11.11-4.12s31.16 14.72 34.12 14.72c1 0 .75 3.7 0 4.44-3.3 3.32-40-2.85-40-2.85v1.49s-10.36 1.51-11.11.77-.78-14.07 0-14.82 5.88.37 5.88.37z" fill="#0B2E4F"/><path d="M135.69 517.22c-9.47 0-25.41-2.44-32.57-3.62v.29a1 1 0 01-.85 1c-10.86 1.59-11.61.85-12 .5-1.14-1.14-1.18-15.09 0-16.23.28-.28 1.11-1.12 6.69.07 1.08-.14 6.18-2.13 10.65-4a1 1 0 01.82 0c11.92 5.63 31.61 14.58 33.69 14.62a1.5 1.5 0 011.41 1c.52 1.26.25 4.17-.69 5.12-.94.95-3.56 1.25-7.15 1.25zm-33.57-5.81h.16c17.79 3 37.29 5 39.13 3.12a5.39 5.39 0 00.32-2.77C137.44 511 113.83 500 108 497.2c-2.69 1.14-9.61 4-11.09 4a2.06 2.06 0 01-.21 0 21.34 21.34 0 00-4.93-.58 66.58 66.58 0 000 13.24 66.57 66.57 0 009.35-.83v-.61a1 1 0 011-1v-.01z" fill="#365894"/><path fill="#CEDAE8" d="M73.23 215.32h23v25h-23z"/><path fill="#D14B51" d="M59.31 485.56l2.09 10.47-16.76 5.24v-13.62z"/><path d="M44.64 502.27a1 1 0 01-.59-.19 1 1 0 01-.41-.81v-13.62a1 1 0 01.86-1l14.66-2.09a1 1 0 011.13.79l2.09 10.48a1 1 0 01-.68 1.17l-16.76 5.24a1 1 0 01-.3.03zm1-13.75v11.39l14.6-4.56-1.73-8.67-12.87 1.84z" fill="#365894"/><path d="M49.88 500.22c1.48 0 11.11-4.12 11.11-4.12s31.16 14.72 34.12 14.72c1 0 .75 3.7 0 4.44-3.3 3.32-40-2.85-40-2.85v1.49s-10.36 1.51-11.11.77-.78-14.07 0-14.82 5.88.37 5.88.37z" fill="#0B2E4F"/><path d="M88.69 517.22c-9.47 0-25.41-2.44-32.57-3.62v.29a1 1 0 01-.85 1c-10.86 1.59-11.61.85-12 .5-1.14-1.14-1.18-15.09-.05-16.23.28-.28 1.11-1.12 6.69.07 1.08-.14 6.18-2.13 10.65-4a1 1 0 01.82 0c11.92 5.63 31.61 14.58 33.69 14.62a1.5 1.5 0 011.41 1c.52 1.26.25 4.17-.69 5.12-.94.95-3.51 1.25-7.1 1.25zm-33.57-5.81h.16c17.79 3 37.29 5 39.13 3.12a5.39 5.39 0 00.32-2.77C90.44 511 66.83 500 61 497.2c-2.69 1.14-9.61 4-11.09 4a1.65 1.65 0 01-.21 0 21.39 21.39 0 00-4.93-.58 66.58 66.58 0 000 13.24 66.69 66.69 0 009.35-.83v-.61a1 1 0 011-1.01z" fill="#365894"/><path d="M34.23 241.32s5 120 6 141 1 107 1 107l28 1 14-192 1 192 26-1c0-1 18-210 19-250-16 0-95 2-95 2z" fill="#0B2E4F"/><path d="M69.23 491.32l-28-1a1 1 0 01-1-1c0-.86 0-86.22-1-106.95-1-20.73-6-139.81-6-141a1 1 0 01.26-.72 1 1 0 01.71-.32c.79 0 79.2-2 95-2 .27 0 .53.107.72.3a1 1 0 01.28.72c-.84 33.68-13.59 185.49-17.78 235.37-.72 8.61-1.2 14.3-1.22 14.64a1 1 0 01-1 1l-26 1a1.003 1.003 0 01-.73-.28 1.08 1.08 0 01-.31-.72L82.37 324 70.23 490.39a1 1 0 01-1 .93zm-27-3l26.08.93 13.93-191a1 1 0 012 .07l1 191 24.08-.93c.12-1.53.43-5.27 1.15-13.8 4.15-49.38 16.69-198.66 17.75-234.23-16.76.07-83.84 1.74-92.93 2 .48 11.72 5 120.25 5.95 140 .95 19.75.99 96.45.99 105.99v-.03z" fill="#365894"/><path d="M103.66 37.64s4.41-3.38 5.27.85c1.28 6.25-.59 12.6-3.65 14.81l-1.62-15.66z" fill="#F2D1AC"/><path d="M105.28 54.3a1 1 0 01-.81-.42 1 1 0 01.22-1.39c2.55-1.84 4.52-7.63 3.26-13.8-.14-.71-.39-1.13-.75-1.27-.81-.3-2.32.55-2.93 1a1 1 0 11-1.21-1.59c.27-.21 2.78-2.06 4.84-1.29a3.34 3.34 0 012 2.74c1.29 6.31-.49 13.26-4 15.82a1 1 0 01-.62.2z" fill="#365894"/><path d="M55.4 35.24v.49c.22 3.36 3.8 17.59 3.8 17.59l1 36s18.71 15.39 27 13c8.29-2.39 8-11 8-11s-.37-8.25-.56-13.48c2.06-1.12 8.11-7.63 9.94-15s1.26-23.11 1.11-27.3c-.15-4.19-1.69-19.88-2.78-19.84-.22 0-.14-.41.15-1.13 1-2.63 4.71-9.15 4.62-11.62-.11-3.14-.09-3.15-10.45.37s-18.72 1.95-25.1 2c-12.9 0-15 6.73-16.9 12-1.23 3.56.09 15.82.17 17.92z" fill="#F2D1AC"/><path d="M55.4 36.24c0 .12-.18 1.87-.17 2.08 4.37 4.07 7 5 7 5 1.87-6.36 0-22 0-23a144.8 144.8 0 0020 1c6.82-.25 16.13-4.06 20.83-5.75 1-2.63 4.71-9.15 4.62-11.62-.11-3.14.91-4.15-9.45-.63-10.36 3.52-20.89 1-27 2-9.53 1.51-14.09 4.69-16 10-1.23 3.56.09 18.82.17 20.92z" fill="#824E29"/><path d="M85.34 103.56c-9.26 0-25-12.88-25.74-13.47a1 1 0 01-.37-.74l-1-35.9c-.49-2.06-3.8-16.13-3.88-18.22 0-.38-.07-1.14-.14-2.13-.54-7.28-.9-14.4.07-17.12 1.87-5.19 4.18-11.66 17.8-11.74h1.66c6.38 0 16-.06 24.27-1.89 3.54-.78 5.78-1.45 7.11-1.84 1.72-.51 2.36-.7 3-.22a1.87 1.87 0 01.53 1.71 8.33 8.33 0 000 .87c.11 3.06-3.76 11-4.72 12.9a106.77 106.77 0 012.75 19.66c.48 13.29.1 22.57-1.14 27.57a30.52 30.52 0 01-9.89 15.32c.2 5.18.58 12.87.58 13 0 .1.23 9.42-8.72 12a8 8 0 01-2.17.24zM61.22 88.83c5.38 4.36 19.49 14.33 25.78 12.53 7.38-2.13 7.29-9.59 7.27-10-.02-.41-.41-8.43-.6-13.53a1 1 0 01.52-.92c2-1.07 7.74-7.46 9.45-14.39.82-3.32 1.67-10.7 1.08-27a103.61 103.61 0 00-2.78-19.59 1 1 0 01.08-.71c1.32-2.61 4.75-9.9 4.67-12.26v-.8l-.94.27c-1.36.41-3.64 1.08-7.25 1.88-8.5 1.86-18.28 1.9-24.74 1.92H72.1c-12.22.08-14.1 5.34-15.92 10.43-1 2.69-.27 12.22 0 16.29.08 1 .13 1.81.15 2.2 0 1.47 2.33 11.53 3.85 17.94a1.23 1.23 0 010 .2l1.04 35.54z" fill="#365894"/><path d="M60.74 41.2c-.94-1-5.73-6.81-6.7.65-.97 7.46 2.13 11.84 2.88 12.35C59.63 56 61 52.75 61 52.75l-.26-11.55z" fill="#F2D1AC"/><path d="M58.51 55.76a3.79 3.79 0 01-2.15-.76c-1.19-.8-4.31-5.64-3.32-13.3.34-2.59 1.17-4 2.53-4.49 2.2-.7 4.52 1.8 5.64 3l.25.26a1 1 0 11-1.41 1.42l-.29-.3c-2.12-2.3-3.11-2.61-3.56-2.46-.19.06-.84.44-1.15 2.84-.92 7 2 11 2.46 11.4.75.5 1.17.38 1.31.34a2.68 2.68 0 001.29-1.36 1 1 0 011.84.78 4.5 4.5 0 01-2.56 2.49 3.05 3.05 0 01-.88.14zm28.27 24.37c-7.44 0-15-3-19.22-6.94-5.62-5.19-7.1-15.63-7.16-16.07a1 1 0 011.594-.925 1 1 0 01.386.665c0 .1 1.44 10.14 6.54 14.88 5.39 5 16.62 8.39 25.36 5.13a1 1 0 011.29.58 1 1 0 01-.57 1.28 23.41 23.41 0 01-8.22 1.4zm2.76-26.31a1 1 0 010-2 3.2 3.2 0 002.11-.82c.06-.09.24-.37 0-1.08-.93-2.43-3.59-10.35-3.65-11.72a1 1 0 012 0 106.1 106.1 0 003.5 11.02 3 3 0 01-.19 2.89c-1 1.57-3.46 1.7-3.74 1.71h-.03zm-3.32 9.55a16.94 16.94 0 01-10.78-4.09 1.001 1.001 0 011.36-1.47 15.13 15.13 0 009.9 3.55c7.33-.27 8.39-2.78 8.4-2.81a1 1 0 011.26-.6 1 1 0 01.64 1.21c-.11.39-1.39 3.87-10.23 4.2l-.55.01zm-.34 5.25a1 1 0 01-.48-1.87 6 6 0 015.08-.18 1 1 0 11-.83 1.82 4.07 4.07 0 00-3.3.12 1 1 0 01-.47.11z" fill="#365894"/><path d="M76.19 61.64a1 1 0 01-.93-.65c-1.16-3.1.38-4.92 1.35-5.45a1.008 1.008 0 011 1.75c-.14.08-1.25.85-.45 3a1 1 0 01-.97 1.35zm20.94-.76a1 1 0 01-1-1 9.35 9.35 0 00-1-2.66 1.012 1.012 0 111.76-1 10.75 10.75 0 011.28 3.55 1 1 0 01-1 1l-.04.11zM62.8 40h-.13a1 1 0 01-.87-1.11c.79-6.24-.66-18.36-.67-18.49a1 1 0 011.22-1.09c.11 0 11.17 2.61 21 1.27a75.69 75.69 0 0015.85-3.74 1 1 0 11.73 1.86 76.34 76.34 0 01-16.34 3.81c-8.21 1.11-17-.35-20.32-1 .36 3.43 1.19 12.32.52 17.59a1 1 0 01-.99.9zm36.43-13.68a1 1 0 01-.44-.1c-.84-.42-3.05-.21-4.34.07a1 1 0 01-.45-1.95c.39-.08 3.84-.81 5.65.08a1 1 0 01-.42 1.9z" fill="#365894"/><path d="M71.42 26.69a1 1 0 01-.35-1.94 15.37 15.37 0 017.55-.28 1.017 1.017 0 01-.37 2 13.5 13.5 0 00-6.49.19 1 1 0 01-.34.03zm27.29 13.22c.07 1.74-.63 3.17-1.56 3.2-.93.03-1.72-1.34-1.79-3.11-.07-1.77.64-3.16 1.57-3.2.93-.04 1.72 1.38 1.78 3.11z" fill="#365894"/><path d="M96.16 40h-.22a1 1 0 01-.75-1.2A3.05 3.05 0 0197 36.3a3.6 3.6 0 013.09.7 1 1 0 01.18 1.4 1 1 0 01-1.4.18 1.71 1.71 0 00-1.2-.39c-.21.07-.41.45-.53 1a1 1 0 01-.98.81z" fill="#365894"/><ellipse fill="#365894" transform="rotate(-2.07 77.15 40.687)" cx="77.149" cy="40.687" rx="1.68" ry="3.14"/><path d="M76.28 40.67a.9.9 0 01-.23 0 1 1 0 01-.75-1.2A3.05 3.05 0 0177.11 37a3.57 3.57 0 013.09.7 1 1 0 11-1.2 1.6 1.71 1.71 0 00-1.2-.39c-.21.07-.41.44-.53 1a1 1 0 01-.99.76z" fill="#365894"/><path d="M38.23 205.32a266.7 266.7 0 00-10 64c8-1 38-4 38-4 4.19-.57 7.67-5 9-9l13-45 4.91 46.28a8 8 0 006.87 6.46l35.22 5.26-2-68 31-78L137 98a7.41 7.41 0 00-4.26-1.94L96 91.59a17.79 17.79 0 01-8.38 8.93c-6 3-24.54-8.52-26.43-10.2-.07-.06-1 0-1 0-.52-.86-39.95 9.86-41 13-1.05 3.14 19.04 102 19.04 102z" fill="#0B2E4F"/><path d="M135.23 270.32h-.14l-35.23-5.26a9 9 0 01-7.7-7.26l-4.38-41.3-11.58 40.1c-1.42 4.24-5.09 9.06-9.83 9.71-.34 0-30.12 3-38 4a1 1 0 01-.8-.25 1.07 1.07 0 01-.33-.77 271.75 271.75 0 0110-64c-3.46-17.11-20-99.05-18.91-102.27 1.33-4 38-13.33 41.22-13.7.307-.06.623-.06.93 0h.1c.62 0 1 0 1.35.25 2 1.83 20 12.75 25.33 10.07a17 17 0 007.89-8.39 1 1 0 011.06-.65l36.73 4.48a8.38 8.38 0 014.82 2.2l27.2 25.32a1 1 0 01.24 1.1l-30.92 77.8 2 67.8a1 1 0 01-.33.78 1 1 0 01-.72.24zm-115-166.66c-.28 4.21 11.18 62.78 19 101.46a.91.91 0 010 .49 268.52 268.52 0 00-9.92 62.57c9.31-1.1 36.58-3.83 36.86-3.86 3.69-.5 6.9-4.56 8.16-8.32l13-45a1.004 1.004 0 112 .17l4.9 46.28a7 7 0 006 5.58l34.06 5.08-2-66.8c0-.137.028-.273.08-.4l30.74-77.37-26.75-24.81a6.47 6.47 0 00-3.69-1.68l-36-4.38a19 19 0 01-8.56 8.75c-6.42 3.21-24.24-7.8-27.25-10.12h-.22a1.93 1.93 0 01-.72 0c-3.92-.01-37.49 9.77-39.73 12.36h.04zM59.4 90.88z" fill="#365894"/><path d="M131.76 101.19s2.64 16.29 2.46 25.27c-.18 8.98-.88 12.49-.95 11.81l-1.51-37.08z" fill="#2F4869"/><path d="M133.3 139.35a1.11 1.11 0 01-1-1 1 1 0 01.19-.69 81.78 81.78 0 00.76-11.24c.17-8.78-2.42-24.92-2.45-25.09a1 1 0 01.83-1.14 1 1 0 011.14.82c.11.67 2.66 16.48 2.48 25.45-.25 12.81-1.15 12.84-1.88 12.87l-.07.02z" fill="#365894"/><path d="M98 93.45c-.13 4.8-1.77 37-4.63 66.18-1.37 14.56-3.14 28.37-5.14 37.69l-2 6c-.58-3.76-4.83-22.54-9.73-43.69C69.18 128 60.43 91.14 60.43 91.14h.67c1.57 1.38 14.78 9.74 22.62 10.75a8.08 8.08 0 001.59.1 5.3 5.3 0 002.35-.47A17.63 17.63 0 0096 92.66l2 .79z" fill="#CEDAE8"/><rect fill="#E0EEFC" x="127.31" y="124.32" width="77.72" height="96" rx="2.69"/><path d="M202.24 221.32h-72.13a3.75 3.75 0 01-3.88-3.59v-90.82a3.75 3.75 0 013.88-3.59h72.13a3.75 3.75 0 013.88 3.59v90.82a3.75 3.75 0 01-3.88 3.59zm-72.13-96a1.66 1.66 0 00-1.72 1.59v90.82a1.66 1.66 0 001.72 1.59h72.13a1.66 1.66 0 001.72-1.59v-90.82a1.66 1.66 0 00-1.72-1.59h-72.13z" fill="#365894"/><path d="M89 192.41c1-1 14.19-7.09 16.19-5.09 3 2.94 22 3.73 29.77 3.93a2.72 2.72 0 012.6 3.25 2.74 2.74 0 01-2.14 2.16l-16.22 1.63s0 1-1 9c-.23 1.89-4 8-4 8-2.09 1.05-26-2-26-2l.8-20.88z" fill="#F2D1AC"/><path d="M111.87 216.51c-6 0-19.15-1.61-23.76-2.2l-.91-.12.86-22.19.28-.27c1-1 14.83-7.87 17.6-5.1 1.83 1.83 13 3.22 29.09 3.64a3.72 3.72 0 013.55 4.45 3.77 3.77 0 01-2.92 3h-.11l-15.38 1.54c-.1 1.08-.34 3.38-.94 8.21-.25 2-3.5 7.35-4.14 8.4l-.15.25-.26.12a8 8 0 01-2.81.27zm-22.6-4.07c10.67 1.34 22.14 2.41 24.31 2 1.42-2.33 3.52-6.11 3.66-7.28 1-7.63 1-8.84 1-8.89v-.88l.88-.1 16.15-1.62a1.75 1.75 0 001.32-1.36 1.72 1.72 0 00-1.63-2.09c-12.28-.32-27.54-1.31-30.45-4.22-1.42-1.08-12.17 3.28-14.5 4.88l-.74 19.56zm-20.04-31.12a1.001 1.001 0 01-1-.88c-.28-1.27-5.68-16.68-10.45-30.29-9.24-26.39-10.56-30.29-10.56-30.83 0-.54 0-1.52 10.14-8l-9.67-6.16a1 1 0 01-.46-.74 1 1 0 01.29-.81c.06-.06 5.81-5.75 7.81-9.74a1.002 1.002 0 111.79.9c-1.67 3.34-5.56 7.55-7.31 9.37l10 6.33a1 1 0 01.46.85 1 1 0 01-.46.84c-4.5 2.85-9.43 6.23-10.47 7.32.73 2.46 5.84 17 10.38 30 9.24 26.38 10.55 30.28 10.55 30.83a1 1 0 01-1.04 1.01zm31 1.03a1 1 0 01-1-1c0-1 9.71-48.13 12.9-63.59l-8.51-6.62a1 1 0 01-.38-.83 1 1 0 01.44-.79l8-5.33-8.15-8.19a1 1 0 111.41-1.42l9 9a1 1 0 01-.15 1.54l-7.85 5.23 7.91 6.15a1 1 0 01.36 1c-3.55 17.21-12.81 62.22-13 63.86a1 1 0 01-.98.99z" fill="#365894"/><path d="M93.38 159.63C92 174.19 90.23 188 88.23 197.32l-2 6c-.58-3.76-4.83-22.54-9.73-43.69l5.73-48.31s-4.65-1.81-5-2l6.51-7.47.75-.84.84.94 6.44 7.18-4.52 2.19 6.13 48.31z" fill="#D14B51"/><path d="M76.83 112.06c-3.32 0-11.22-6-11.3-6a1 1 0 111.41-1.42c1.06 1.06 8 5.34 9.69 5.51 1-1.18 4.39-6.47 6.44-9.72a1 1 0 011.6-.13l7.33 8.26 3.64-3a1 1 0 011.27 1.54l-4.38 3.63a1 1 0 01-1.39-.11l-7-8c-1.68 2.65-5.25 8.21-6.15 9.11a1.46 1.46 0 01-1.16.33z" fill="#365894"/><path fill="#BFD1E3" d="M89.23 191.32h-6.72l-1.28 24h7z"/><path d="M88.23 216.32h-7a1 1 0 01-1-1.06l1.27-24a1 1 0 011-.94h6.72a1 1 0 01.73.31 1 1 0 01.27.73l-1 24a1 1 0 01-.99.96zm-5.94-2h5l.91-22h-4.74l-1.17 22z" fill="#365894"/><path d="M20.23 102.32s-5 2-7 11c-2.76 12.44-14 66-12 93 .4 5.32 80 12 80 12s2-18 2-28c0-1-43-7-54-9 .17-1 4.57-35.18 3-43-4-20-5-27-5-27l-7-9z" fill="#0B2E4F"/><path d="M81.24 219.32h-.09c-.2 0-20.15-1.69-39.88-4C.54 210.54.34 207.84.24 206.39c-2.12-28.57 10.56-86.75 12-93.29 2.09-9.41 7.38-11.62 7.6-11.71a1 1 0 011.3.56 1 1 0 01-.55 1.29c-.09.05-4.57 2.05-6.4 10.29-1.44 6.51-14 64.29-12 92.61 2.45 3.14 41.78 8 78.13 11.1.4-3.77 1.81-17.67 1.88-26.28-3.17-.91-19.85-3.45-32.22-5.34-8.72-1.33-17-2.59-20.95-3.32a1 1 0 01-.81-1.14c.31-1.91 4.5-35.19 3-42.65-4-19.79-5-27-5-27a1 1 0 011.98-.28c0 .07 1.05 7.22 5 26.94 1.48 7.4-2.12 36.64-2.86 42.38 4.23.74 11.89 1.91 20 3.14 33.92 5.18 33.92 5.35 33.92 6.68 0 10-2 27.93-2 28.11a1 1 0 01-1.02.84zm106.49-5a8.5 8.5 0 118.5-8.5 8.51 8.51 0 01-8.5 8.5zm0-15a6.5 6.5 0 106.5 6.5 6.51 6.51 0 00-6.5-6.5z" fill="#365894"/><path d="M171.06 117.32h1.66a2.51 2.51 0 012.51 2.51v9.66a2.82 2.82 0 01-2.82 2.82h-1.35a2.82 2.82 0 01-2.82-2.82v-9.35a2.82 2.82 0 012.82-2.82z" fill="#F2D1AC"/><path d="M172.41 133.32h-1.35a3.84 3.84 0 01-3.83-3.83v-9.35a3.83 3.83 0 013.83-3.82h1.66a3.51 3.51 0 013.51 3.51v9.66a3.83 3.83 0 01-3.82 3.83zm-1.35-15a1.83 1.83 0 00-1.83 1.82v9.35a1.83 1.83 0 001.83 1.83h1.35a1.82 1.82 0 001.82-1.83v-9.66a1.51 1.51 0 00-1.51-1.51h-1.66z" fill="#365894"/><path d="M191.76 117.32H194a2.25 2.25 0 012.25 2.25v7.23a2.53 2.53 0 01-2.53 2.53h-1.95a2.53 2.53 0 01-2.53-2.53v-6.95a2.53 2.53 0 012.52-2.53z" fill="#F2D1AC"/><path d="M193.71 130.32h-2a3.54 3.54 0 01-3.53-3.53v-7a3.53 3.53 0 013.53-3.52H194a3.25 3.25 0 013.25 3.25v7.22a3.53 3.53 0 01-3.54 3.58zm-2-12a1.53 1.53 0 00-1.53 1.52v7a1.54 1.54 0 001.53 1.53h2a1.53 1.53 0 001.52-1.53v-7.22c0-.69-.56-1.25-1.25-1.25l-2.27-.05z" fill="#365894"/><path d="M178.73 135.32a3.5 3.5 0 01-3.5-3.5v-12.09a2.41 2.41 0 012.42-2.41h2.45a2.13 2.13 0 012.13 2.13v12.37a3.5 3.5 0 01-3.5 3.5z" fill="#F2D1AC"/><path d="M178.73 136.32a4.51 4.51 0 01-4.5-4.5v-12.09a3.42 3.42 0 013.42-3.41h2.45a3.13 3.13 0 013.13 3.13v12.37a4.5 4.5 0 01-4.5 4.5zm-1.08-18c-.78 0-1.415.63-1.42 1.41v12.09a2.51 2.51 0 002.5 2.5 2.5 2.5 0 002.5-2.5v-12.37a1.13 1.13 0 00-1.13-1.13h-2.45z" fill="#365894"/><path d="M185.73 135.32a3.5 3.5 0 01-3.5-3.5v-12.09a2.41 2.41 0 012.42-2.41h2.45a2.13 2.13 0 012.13 2.13v12.37a3.5 3.5 0 01-3.5 3.5z" fill="#F2D1AC"/><path d="M185.73 136.32a4.51 4.51 0 01-4.5-4.5v-12.09a3.42 3.42 0 013.42-3.41h2.45a3.13 3.13 0 013.13 3.13v12.37a4.5 4.5 0 01-4.5 4.5zm-1.08-18c-.78 0-1.415.63-1.42 1.41v12.09a2.51 2.51 0 002.5 2.5 2.5 2.5 0 002.5-2.5v-12.37a1.13 1.13 0 00-1.13-1.13h-2.45zm-65.42 81h-7a1 1 0 110-2h7a1 1 0 110 2zm-.64 6.12a1 1 0 01-.24 0c-.48-.06-3.46-.09-6.12-.09a1 1 0 110-2c6.18 0 6.51.12 6.69.18a1 1 0 01.61 1.28 1 1 0 01-.94.63zm-1.36 5.88h-6a1 1 0 110-2h6a1 1 0 110 2zm-99.99-20a1 1 0 01-.61-1.8l12-9a1 1 0 011.22 0 1 1 0 01.3 1.18 69.59 69.59 0 00-2.92 7.64 1 1 0 01-2-.07 25 25 0 011.67-5l-9.07 6.8a1 1 0 01-.59.25zm57.99 22h-2a1 1 0 110-2h2a1 1 0 110 2zm-37 17a1 1 0 01-.34-1.94l22-8a1.001 1.001 0 11.69 1.88l-22 8c-.113.04-.23.06-.35.06zm91-3a1.12 1.12 0 01-.31 0l-18-6a1 1 0 01.63-1.9l18 6a1 1 0 01.63 1.26 1 1 0 01-.95.64zm-46.16 74.24H83a1 1 0 01-.93-1.07l2.17-30.24a1 1 0 01.77-.91l13-3a1.025 1.025 0 11.45 2l-12.28 2.84-2.11 29.5a1 1 0 01-1 .88zm49.44-139.72v-15.61h3.39a6 6 0 012.75.53 3 3 0 011.44 1.59 7 7 0 01.44 2.64v5.75a7.85 7.85 0 01-.44 2.79 3.35 3.35 0 01-1.4 1.73 5.06 5.06 0 01-2.62.58h-3.56zm2.18-1.56h1.23a2.49 2.49 0 001.7-.46 2.13 2.13 0 00.6-1.35c.078-.71.115-1.425.11-2.14v-5.07a10.52 10.52 0 00-.15-2 1.65 1.65 0 00-.68-1.09 2.94 2.94 0 00-1.64-.35h-1.17v12.46zM144 162a1.88 1.88 0 01-1.16-.38 2.55 2.55 0 01-.79-1 2.82 2.82 0 01-.29-1.24 4 4 0 01.35-1.76c.238-.47.58-.88 1-1.2a6.31 6.31 0 011.41-.86c.53-.25 1.09-.48 1.69-.72v-.79a6.66 6.66 0 00-.08-1.11 1.14 1.14 0 00-.32-.67 1 1 0 00-.72-.22 1.13 1.13 0 00-.69.19 1 1 0 00-.37.55 2.66 2.66 0 00-.12.84v.56l-2-.08a4 4 0 01.85-2.73 3.26 3.26 0 012.5-.87 2.78 2.78 0 012.35.9c.517.776.763 1.7.7 2.63v6.08c0 .31 0 .62.07.89s.06.54.09.78h-1.89c0-.2-.09-.46-.14-.78-.05-.32-.1-.6-.13-.85a3 3 0 01-.74 1.22 2 2 0 01-1.57.62zm.81-1.78a1 1 0 00.57-.17 3.11 3.11 0 00.49-.39 2.82 2.82 0 00.29-.36v-3.16c-.33.18-.63.36-.91.54a5 5 0 00-.74.57 2.14 2.14 0 00-.5.67 1.84 1.84 0 00-.19.86 2 2 0 00.25 1.06.81.81 0 00.76.38h-.02zm4.99 1.62V150.7h2.06v1.58a3.76 3.76 0 011.24-1.37 2.49 2.49 0 011.23-.34h.14a.72.72 0 01.19 0v2.27a3.33 3.33 0 00-.53-.16 2.54 2.54 0 00-.61-.07 1.77 1.77 0 00-.88.22 2.38 2.38 0 00-.78.86v8.13l-2.06.02zm5.84 0v-15.61h2.06v15.61zm6.82.16a3.45 3.45 0 01-2-.51 2.64 2.64 0 01-1-1.51 8.92 8.92 0 01-.28-2.43V155a8.67 8.67 0 01.29-2.47 2.62 2.62 0 011-1.48 3.41 3.41 0 012-.5 3.11 3.11 0 012.08.58 2.83 2.83 0 01.87 1.66 14 14 0 01.22 2.62v.9h-4.4v2.24a3.76 3.76 0 00.13 1.1c.056.248.197.467.4.62.21.146.464.22.72.21a1 1 0 00.71-.23 1.08 1.08 0 00.32-.63 4.67 4.67 0 00.09-1V158h2v.42a4.31 4.31 0 01-.72 2.64 2.8 2.8 0 01-2.43.94zm-1.23-6.81h2.37v-1a6.57 6.57 0 00-.08-1.17 1.26 1.26 0 00-.31-.71 1 1 0 00-.76-.24 1.16 1.16 0 00-.77.23 1.35 1.35 0 00-.35.78 8.62 8.62 0 00-.1 1.52v.59zm5.84 6.65v-15.61h2.06v5.63a6.41 6.41 0 011.26-.93 3.17 3.17 0 011.54-.38c.365-.023.724.1 1 .34.244.238.417.54.5.87.1.345.15.701.15 1.06v9h-2.07v-8.42a2 2 0 00-.17-.93.73.73 0 00-.71-.32 1.59 1.59 0 00-.76.21 3.73 3.73 0 00-.75.52v8.94l-2.05.02zm11.12.16a3.43 3.43 0 01-2-.51 2.59 2.59 0 01-1-1.51 8.92 8.92 0 01-.28-2.43V155a8.67 8.67 0 01.29-2.47 2.62 2.62 0 011-1.48 3.41 3.41 0 012-.5 3.11 3.11 0 012.08.58 2.83 2.83 0 01.87 1.66 14 14 0 01.22 2.62v.9H177v2.24a3.76 3.76 0 00.13 1.1c.056.248.197.467.4.62.21.146.464.22.72.21a1 1 0 00.71-.23 1.08 1.08 0 00.32-.63 4.67 4.67 0 00.09-1V158h2v.42a4.31 4.31 0 01-.72 2.64 2.8 2.8 0 01-2.46.94zm-1.19-6.81h2.37v-1a6.57 6.57 0 00-.08-1.17 1.26 1.26 0 00-.31-.71 1 1 0 00-.76-.24 1.16 1.16 0 00-.77.23 1.35 1.35 0 00-.35.78 8.62 8.62 0 00-.1 1.52v.59zm5.74 6.65V150.7h2.07v1.1a6 6 0 011.23-.89 3.09 3.09 0 011.48-.36 1.45 1.45 0 011 .34 2 2 0 01.5.87c.091.346.138.702.14 1.06v9h-2.06v-8.42a2.11 2.11 0 00-.17-.93.76.76 0 00-.72-.32 1.46 1.46 0 00-.72.2 4.17 4.17 0 00-.72.49v9h-2.03zm10.57.16a2.91 2.91 0 01-2.2-.86 3.54 3.54 0 01-.94-2.26l1.71-.53a3.79 3.79 0 00.52 1.59c.24.358.65.563 1.08.54a1.1 1.1 0 00.85-.32c.2-.24.304-.547.29-.86a1.81 1.81 0 00-.21-.87 3.08 3.08 0 00-.7-.79L191.8 156a4.92 4.92 0 01-1-1.12 2.94 2.94 0 01-.4-1.6 2.88 2.88 0 01.36-1.49 2.34 2.34 0 011-.92 3.31 3.31 0 011.52-.32 2.46 2.46 0 012 .86 3.59 3.59 0 01.8 2.07l-1.39.52a5 5 0 00-.23-1 1.58 1.58 0 00-.42-.68 1 1 0 00-.72-.24 1 1 0 00-.8.34 1.19 1.19 0 00-.29.8c.001.196.042.39.12.57.104.21.25.398.43.55l2 1.81c.27.246.525.51.76.79.25.3.449.637.59 1 .16.4.237.829.23 1.26a3.08 3.08 0 01-.38 1.58 2.43 2.43 0 01-1.08 1 3.93 3.93 0 01-1.59.22zm4.04-5.19v-1.56h4.3v1.56zM145.65 185l-2.19-11.15h2.08l1.37 9 1.39-9h2L148.18 185zm8.58.13a3.43 3.43 0 01-2-.51 2.6 2.6 0 01-1-1.5 9 9 0 01-.28-2.44v-2.55a8.55 8.55 0 01.29-2.46 2.65 2.65 0 011-1.49 3.49 3.49 0 012-.5 3.06 3.06 0 012.07.58 2.79 2.79 0 01.88 1.67 13.9 13.9 0 01.21 2.61v.9H153v2.24c-.01.37.031.74.12 1.1.066.248.21.47.41.63.214.139.465.208.72.2a1.06 1.06 0 00.71-.22 1.11 1.11 0 00.32-.64 4.64 4.64 0 00.09-1v-.68h2v.43a4.35 4.35 0 01-.72 2.64 2.82 2.82 0 01-2.42.99zm-1.23-6.8h2.37v-1a7.43 7.43 0 00-.08-1.16 1.24 1.24 0 00-.32-.72 1 1 0 00-.76-.24 1.15 1.15 0 00-.76.23 1.35 1.35 0 00-.35.79 8.5 8.5 0 00-.1 1.51v.59zm5.84 6.67v-11.17h2.06v1.59a3.6 3.6 0 011.24-1.37 2.5 2.5 0 011.23-.35h.33v2.3a3.33 3.33 0 00-.53-.16 2.48 2.48 0 00-.61-.07 1.88 1.88 0 00-.88.22 2.47 2.47 0 00-.78.86V185h-2.06zm8.62.13a2.61 2.61 0 01-1.4-.33 1.89 1.89 0 01-.77-.92 3.78 3.78 0 01-.24-1.41v-7.27h-1.18v-1.37h1.18v-3.25h2.06v3.25h1.79v1.37h-1.79v7.14a1.6 1.6 0 00.21.93 1 1 0 00.81.28h.75V185l-.71.08c-.17.04-.46.05-.71.05zM170 185v-11.17h2.06v1.59a3.76 3.76 0 011.24-1.37 2.5 2.5 0 011.23-.35h.33v2.3a3 3 0 00-.53-.16 2.48 2.48 0 00-.61-.07 1.81 1.81 0 00-.87.22 2.39 2.39 0 00-.79.86V185H170zm7.66.13a1.87 1.87 0 01-1.16-.37 2.67 2.67 0 01-.79-1 2.79 2.79 0 01-.29-1.24 4 4 0 01.35-1.76 3.59 3.59 0 01.95-1.2 6.7 6.7 0 011.41-.86c.53-.24 1.09-.48 1.68-.71v-.79a6.94 6.94 0 00-.07-1.12 1.14 1.14 0 00-.32-.67 1.07 1.07 0 00-.72-.22 1.13 1.13 0 00-.69.2 1 1 0 00-.37.54 2.66 2.66 0 00-.12.84v.56l-2-.08a4 4 0 01.85-2.72 3.22 3.22 0 012.5-.88 2.75 2.75 0 012.35.91 4.17 4.17 0 01.7 2.62v6.09c0 .32 0 .62.07.9s.06.53.09.78h-1.89c0-.21-.09-.47-.14-.78-.05-.31-.1-.6-.13-.86a2.91 2.91 0 01-.74 1.22 2 2 0 01-1.52.6zm.81-1.77a1 1 0 00.57-.18c.178-.11.343-.24.49-.39a2 2 0 00.28-.36v-3.16c-.32.18-.62.36-.9.54a5 5 0 00-.74.57 2.14 2.14 0 00-.5.67 1.84 1.84 0 00-.19.86 2 2 0 00.25 1.06.82.82 0 00.74.39zm7.8 5.07a7.2 7.2 0 01-1.81-.21 2.81 2.81 0 01-1.27-.68 1.64 1.64 0 01-.47-1.21 1.84 1.84 0 01.24-1 2.47 2.47 0 01.59-.7 4 4 0 01.77-.49 1.61 1.61 0 01-.81-.5 1.13 1.13 0 01-.26-.7 1.73 1.73 0 01.32-1.06c.268-.364.573-.7.91-1a3 3 0 01-1-1.24 5.5 5.5 0 01-.32-2.08 6.05 6.05 0 01.35-2.19 2.89 2.89 0 011.06-1.33 3.16 3.16 0 011.73-.45 3 3 0 011.46.31 2 2 0 01.83.92c.156-.193.33-.37.52-.53a3.69 3.69 0 011-.62l.31-.14.58 1.47a4.26 4.26 0 00-.67.19c-.28.09-.53.19-.77.28a1.37 1.37 0 00-.45.25c.114.304.194.619.24.94.064.363.098.731.1 1.1a6.07 6.07 0 01-.29 2 2.66 2.66 0 01-1 1.36 3 3 0 01-1.84.49h-.54c-.19 0-.37-.06-.52-.1-.08.12-.16.25-.24.4a.91.91 0 00-.13.45.4.4 0 00.22.34 2 2 0 00.71.16l1.73.15a2.93 2.93 0 011.95.79 2.74 2.74 0 01.64 1.93 2.58 2.58 0 01-.43 1.53 2.52 2.52 0 01-1.28.94 6.61 6.61 0 01-2.16.23zm.16-1.62a3.88 3.88 0 001.62-.26.9.9 0 00.52-.84c.003-.2-.041-.4-.13-.58a.86.86 0 00-.45-.37 3.57 3.57 0 00-1-.19l-1.75-.15-.41.42a1.86 1.86 0 00-.3.45 1.2 1.2 0 00-.12.52c-.013.31.15.6.42.75a3.45 3.45 0 001.6.25zm-.1-6.69a1.27 1.27 0 00.7-.17.92.92 0 00.4-.48c.1-.25.16-.512.18-.78v-2.05a3.49 3.49 0 00-.17-.81 1.06 1.06 0 00-.39-.51 1.21 1.21 0 00-.7-.17 1.31 1.31 0 00-.71.17 1.1 1.1 0 00-.41.49 3.05 3.05 0 00-.19.79 8.83 8.83 0 00-.06 1.09c0 .334.016.668.05 1 .02.272.084.539.19.79.094.206.238.385.42.52.213.107.453.148.69.12z" fill="#365894"/></g></g></svg>