<svg width="495" height="699" xmlns="http://www.w3.org/2000/svg"><g fill="none" fill-rule="evenodd"><path d="M71.22 14.228L417.83 78.66c42.966 7.987 72.379 47.924 67.259 91.326l-51.838 439.42c-4.11 34.841-32.424 61.832-67.422 64.27L79.193 693.653C39.525 696.417 5.126 666.5 2.36 626.832a72 72 0 01-.173-4.752L.255 73.43C.138 40.292 26.907 13.335 60.043 13.218a60 60 0 0111.177 1.01z" fill="#629CED"/><path d="M110.21 70.212l273.405 50.769c42.978 7.98 72.4 47.928 67.273 91.34l-41.744 353.477c-4.114 34.84-32.429 61.826-67.426 64.263l-223.895 15.586c-39.668 2.762-74.065-27.157-76.826-66.826a72 72 0 01-.174-4.746l-1.568-444.66C39.14 96.278 65.907 69.32 99.043 69.204a60 60 0 0111.166 1.008z" fill="#FFF"/><g fill-rule="nonzero"><path d="M229.582 147.907a59.34 59.34 0 00-18.04 2.753c.371-2.02.56-4.07.563-6.124 0-24.04-25.034-43.536-56.005-43.536-30.97 0-56.004 19.496-56.004 43.536 0 16.467 11.692 30.754 28.95 38.126a71.56 71.56 0 00-2.859-.057c-32.705 0-59.187 20.01-59.187 44.697S93.482 272 126.159 272c32.676 0 59.159-20.001 59.159-44.698 0-16.944-12.474-31.678-30.866-39.26h1.648a68.644 68.644 0 0027.093-5.428v.486c0 19.458 20.774 35.24 46.408 35.24S276 202.568 276 183.1c0-19.468-20.774-35.24-46.399-35.24l-.019.047z" fill="#FFF"/><path d="M126.144 183.546c-32.112 0-58.237 19.629-58.237 43.765 0 24.135 26.125 43.764 58.237 43.764s58.237-19.638 58.237-43.764c0-15.98-11.603-30.692-30.291-38.4a.953.953 0 01-.572-1.077.953.953 0 01.953-.753h1.631a68.06 68.06 0 0026.696-5.355.954.954 0 011.335.896v.276a1.838 1.838 0 000 .229c0 18.914 20.404 34.303 45.48 34.303 25.076 0 45.47-15.38 45.47-34.303 0-18.924-20.403-34.303-45.47-34.303-6.017-.019-12 .9-17.734 2.725a.954.954 0 01-.954-.19.953.953 0 01-.305-.886 33.72 33.72 0 00.544-5.965c.019-23.488-24.695-42.602-55.062-42.602-30.368 0-55.082 19.114-55.082 42.602 0 15.465 10.88 29.738 28.394 37.266.44.184.676.664.553 1.124a.953.953 0 01-.953.743c-.953 0-1.907-.057-2.86-.057l-.01-.038zm0 89.435C92.983 272.98 66 252.456 66 227.31c0-24.774 26.201-45.07 58.695-45.651-15.885-8.205-25.581-22.126-25.581-37.162 0-24.488 25.562-44.498 56.988-44.498s56.988 20.01 56.988 44.508a35.357 35.357 0 01-.334 4.764 60.36 60.36 0 0116.867-2.354c26.124 0 47.377 16.199 47.377 36.209s-21.253 36.208-47.377 36.208c-25.744 0-46.72-15.722-47.368-35.255a69.783 69.783 0 01-23.417 4.907c17.038 8.376 27.45 22.764 27.45 38.343 0 25.184-26.983 45.67-60.144 45.67v-.02z" fill="#445990"/><path d="M223 233.5c0 4.135-5.141 7.5-11.476 7.5-6.334 0-11.524-3.365-11.524-7.5s5.141-7.5 11.485-7.5c6.345 0 11.476 3.355 11.476 7.5H223z" fill="#FFF"/><path d="M212.005 226.956c-5.498 0-10.135 2.993-10.135 6.544 0 3.55 4.675 6.544 10.135 6.544s10.125-3.003 10.125-6.544c0-3.54-4.675-6.544-10.125-6.544zm0 15.044c-6.62 0-12.005-3.815-12.005-8.5 0-4.685 5.385-8.5 12.005-8.5 6.62 0 11.995 3.805 11.995 8.5s-5.376 8.5-11.995 8.5z" fill="#445990"/><path d="M236 238.5c0 1.933-2.243 3.5-5 3.5s-5-1.567-5-3.5 2.233-3.5 5-3.5 5 1.567 5 3.5z" fill="#FFF"/><path d="M231 235.987c-2.208 0-4.137 1.172-4.137 2.513s1.929 2.513 4.137 2.513c2.208 0 4.137-1.172 4.137-2.513s-1.929-2.513-4.137-2.513zm0 7.013c-3.363 0-6-1.987-6-4.5s2.637-4.5 6-4.5 6 1.987 6 4.5-2.637 4.5-6 4.5zm-20.585-68.953h39.189l-19.595-11.895-19.594 11.895zM253.053 176h-46.106a.952.952 0 01-.913-.718.99.99 0 01.43-1.098l23.062-14.053a.923.923 0 01.948 0l23.062 14.053a.99.99 0 01.43 1.098.952.952 0 01-.913.718z" fill="#445990"/><path d="M256.044 175a.937.937 0 01-.487-.137l-25.62-15.76-25.62 15.76a.943.943 0 01-1.186-.41.992.992 0 01.233-1.26l26.087-16.062a.935.935 0 01.954 0l26.135 16.063a.99.99 0 01.324 1.337.95.95 0 01-.82.469zm-48.134 20h44.18v-1h-44.18v1zm45.135 2h-46.09c-.527 0-.955-.448-.955-1v-3c0-.552.428-1 .955-1h46.09c.527 0 .955.448.955 1v3c0 .552-.428 1-.955 1z" fill="#445990"/><path d="M204.903 198.088h50.194v-1.176h-50.194v1.176zM256.048 200h-52.096a.954.954 0 01-.952-.956v-3.088c0-.528.426-.956.952-.956h52.096c.526 0 .952.428.952.956v3.088a.954.954 0 01-.952.956z" fill="#445990"/><path fill="#C2CFE0" d="M218 178h-8v-3h8v3z"/><path d="M210.87 176.925h6.26v-.84h-6.26v.84zm7.195 2.075h-8.13c-.517 0-.935-.464-.935-1.037v-2.926c0-.573.418-1.037.935-1.037h8.13c.517 0 .935.464.935 1.037v2.926c0 .573-.418 1.037-.935 1.037z" fill="#445990"/><path fill="#C2CFE0" d="M217 193h-6v-15h6v15z"/><path d="M212 192.073h4v-13.146h-4v13.146zm5 1.927h-6c-.552 0-1-.431-1-.964v-15.072c0-.533.448-.964 1-.964h6c.552 0 1 .431 1 .964v15.072c0 .533-.448.964-1 .964z" fill="#445990"/><path fill="#C2CFE0" d="M234 178h-8v-3h8v3z"/><path d="M226.87 176.925h6.26v-.84h-6.26v.84zm7.195 2.075h-8.13c-.517 0-.935-.464-.935-1.037v-2.926c0-.573.418-1.037.935-1.037h8.13c.517 0 .935.464.935 1.037v2.926c0 .573-.418 1.037-.935 1.037z" fill="#445990"/><path fill="#C2CFE0" d="M233 193h-6v-15h6v15z"/><path d="M228 192.073h4v-13.146h-4v13.146zm5 1.927h-6c-.552 0-1-.431-1-.964v-15.072c0-.533.448-.964 1-.964h6c.552 0 1 .431 1 .964v15.072c0 .533-.448.964-1 .964z" fill="#445990"/><path fill="#C2CFE0" d="M250 178h-8v-3h8v3z"/><path d="M242.87 176.925h6.26v-.84h-6.26v.84zm7.195 2.075h-8.13c-.517 0-.935-.464-.935-1.037v-2.926c0-.573.418-1.037.935-1.037h8.13c.517 0 .935.464.935 1.037v2.926c0 .573-.418 1.037-.935 1.037z" fill="#445990"/><path fill="#C2CFE0" d="M249 193h-6v-15h6v15z"/><path d="M244 192.073h4v-13.146h-4v13.146zm5 1.927h-6c-.552 0-1-.431-1-.964v-15.072c0-.533.448-.964 1-.964h6c.552 0 1 .431 1 .964v15.072c0 .533-.448.964-1 .964zm-23.407-22.847H224v-1.25h1.294v-.853H224v-1.25h1.623c.907-1.834 2.913-2.943 5.037-2.785 1.597-.107 3.16.474 4.26 1.582l-1.99 1.09a3.059 3.059 0 00-2.3-.948c-.877-.044-1.712.36-2.19 1.06h3.205v1.251h-3.603v.853h3.603v1.25h-3.215c.489.767 1.39 1.207 2.33 1.137a3.155 3.155 0 002.339-1.013L235 172.28c-1.07 1.15-2.628 1.78-4.24 1.714-2.649 0-4.44-1.146-5.117-2.842h-.05z" fill="#445990"/><path d="M176 119c-.366.448-.723.905-1.098 1.334-4.01 4.653-8.014 9.303-12.011 13.95-.742.856-1.483 1.723-2.234 2.58a.487.487 0 01-.356.136c-1.295-.088-2.6-.205-3.895-.312a.38.38 0 01-.244-.126L153 131.879v-.078c.507-.564 1.004-1.129 1.52-1.694a3458.06 3458.06 0 016.7-7.437.932.932 0 01.441-.273l13.72-3.183c.105-.03.208-.065.31-.107L176 119z" fill="#8099E5"/><path d="M123.049 157.809c.297.02.59-.077.81-.27a1.01 1.01 0 00.35-.747c0-.286-.12-.56-.336-.758a1.131 1.131 0 00-.805-.295 1.102 1.102 0 00-.794.286 1.01 1.01 0 00-.328.749.975.975 0 00.312.75c.21.197.497.3.79.285zm-.976 2.191c0-.047 0-.112-.068-.13l-.761-.308.253-.55c.444.135.897.238 1.357.307.917.066 1.375-.429 1.278-1.38a1.708 1.708 0 01-1.698.616 1.732 1.732 0 01-1.034-.597 1.856 1.856 0 01.097-2.415 1.876 1.876 0 011.327-.543c.502 0 .981.196 1.327.543v-.485H125v3.375c-.024.626-.464 1.167-1.093 1.343l-.146.056a.5.5 0 000 .075l-1.688.093zm71.913-3.32c-.141-.714-.527-1.037-1.135-.951-.511.058-.895.467-.892.95h2.027zm1.014.598h-3.04c.024.387.273.73.648.894a1.602 1.602 0 001.601-.361l.538.456c-.602.696-1.627.926-2.499.56-.872-.365-1.373-1.235-1.221-2.12a1.892 1.892 0 01.947-1.421 2.144 2.144 0 011.78-.166 1.7 1.7 0 011.013 1.103c0 .095.06.2.091.285h.101v.79l.041-.02z" fill="#7F96E2"/><path d="M139.01 126.047l7.487 3.286 4.577 2.026c.173.079.323.2.438.35a1183.05 1183.05 0 017.545 10.501.628.628 0 001.046.057c2.537-2.821 5.075-5.64 7.612-8.455a.628.628 0 01.285-.19l9.905-2.48H178l-.609.662-9.514 10.217a.812.812 0 00-.257.663V144l-16.46-1.032v-.947a.991.991 0 00-.172-.511 6569.358 6569.358 0 00-11.845-15.235c0-.067-.095-.152-.143-.228V126l.01.047z" fill="#8099E5"/><path d="M194 151.957l-.868-.166c-3.321-.548-6.68-1.113-9.973-1.617-2.1-.322-4.218-.557-6.337-.783-2.118-.226-4.046-.417-6.069-.548-3.33-.2-6.68-.356-10.001-.486-3.598-.148-7.196-.053-10.803.07-2.31.086-4.628.19-6.938.295-2.08.095-4.16.2-6.241.33a638.514 638.514 0 00-12.578.94 323.03 323.03 0 00-4.16.39l-5.88.618a.23.23 0 01-.152 0c.697-.122 1.384-.26 2.08-.374 1.642-.27 3.283-.539 4.925-.783 2.357-.33 4.771-.66 7.08-.947 2.31-.287 4.476-.513 6.68-.73 1.91-.192 3.818-.366 5.803-.496a375.26 375.26 0 018.255-.505 133.52 133.52 0 016.165-.165c2.204 0 4.409 0 6.613.096 2.415.113 4.772.313 7.224.504 3.57.278 7.11.765 10.64 1.322 4.772.756 9.458 1.739 14.106 2.887.143 0 .276.087.41.13a.15.15 0 000 .061l.019-.043zm-80-4.034l3.04-.731a1303.3 1303.3 0 018.319-1.993c.237-.057.323-.144.323-.404v-3.647c0-.24-.067-.318-.304-.318h-2.298L137.506 126c.19.51.352.962.494 1.395 0 .058-.085.174-.152.241-.74.77-1.482 1.53-2.232 2.29l-8.33 8.489a.698.698 0 00-.208.539v6.553c0 .308-.105.385-.38.434-3.6.577-7.19 1.174-10.789 1.76l-1.9.299v-.077H114zM177.214 119L190 139l-2.341-.136-1.176-.116c-.21 0-.267-.097-.267-.3v-2.161a1.204 1.204 0 00-.172-.572l-9.9-15.29-.144-.243 1.214-1.182z" fill="#424F73"/><path d="M192.99 151.99l-1.388-.439c-2.044-.655-4.08-1.319-6.134-1.964a.338.338 0 01-.272-.403v-5.117a1.055 1.055 0 00-.178-.58 3602.68 3602.68 0 00-6.884-10.112c-.17-.243-.188-.393 0-.59.187-.196.581-.504.938-.785 3.082 4.577 6.209 9.211 9.379 13.9h-2.382c-.17 0-.235.076-.244.225-.066.861-.14 1.722-.188 2.582a.39.39 0 00.235.271c1.5.637 3.01 1.254 4.52 1.871l2.608 1.076V152l-.01-.01z" fill="#424F73"/><path d="M153 154.02h.071c.923-.055.923-.055 1.196.736l.913 2.612c0 .073 0 .147.101.276l1.339-3.623c.79 0 .79 0 1.014.597.355.984.71 1.977 1.085 3.044.07-.175.111-.267.142-.358.365-1.012.73-2.024 1.074-3.026.071-.184.152-.257.365-.239.213.018.447 0 .7 0-.022.09-.049.18-.081.267-.558 1.471-1.136 2.933-1.673 4.414-.132.35-.385.248-.629.276-.243.027-.345-.074-.426-.286-.334-.92-.71-1.93-1.014-2.905 0-.083-.07-.166-.142-.322-.273.708-.517 1.36-.76 2.004-.162.423-.324.846-.477 1.27-.026.149-.18.251-.344.23-.568 0-.568 0-.74-.488l-1.613-4.147-.101-.295v-.036z" fill="#7F96E2"/><path d="M147.87 158.952H147v-3.863h.9v.55c.298-.385.76-.62 1.258-.637.456-.024.886.204 1.11.589a5.168 5.168 0 01.998-.512 1.355 1.355 0 011.234.21c.348.267.534.685.495 1.113v2.424a.859.859 0 010 .145h-.9v-1.932a2.717 2.717 0 000-.492.716.716 0 00-.257-.512.766.766 0 00-.562-.174.803.803 0 00-.561.227.75.75 0 00-.228.546V159h-.92v-2.289a.756.756 0 00-.196-.6.811.811 0 00-.593-.26.874.874 0 00-.614.25.816.816 0 00-.245.6v2.29l-.05-.04z" fill="#7C94DE"/><path d="M127.02 134.963V130l.732.064c1.004.092 2.007.193 2.94.275.21 0 .26.101.291.294.086.55-.16 1.101-.642 1.44-1.074.872-2.077 1.835-3.11 2.753L127 135l.02-.037z" fill="#424F73"/><path d="M115 156.085h2.63v.773H115v1.368h3V159h-4v-5h3.91v.774h-3v1.32l.09-.01z" fill="#7C94DE"/><path d="M186.684 132l-.75-.985c-.858-1.143-1.684-2.315-2.585-3.439a2.08 2.08 0 01-.305-1.576l1.358.128c.761.079 1.521.168 2.293.237.239 0 .315.098.304.305-.087 1.773-.163 3.547-.25 5.32h-.065v.01z" fill="#424F73"/><path d="M187.988 158.294c.635-.072 1.112-.565 1.112-1.15 0-.583-.477-1.076-1.112-1.148-.636.072-1.113.565-1.113 1.149 0 .584.477 1.077 1.113 1.15zm1.143-2.405V154H190v4.927h-.85v-.49h-.078c-.427.522-1.192.707-1.846.445-.7-.234-1.173-.834-1.192-1.514-.15-.74.21-1.489.908-1.89.648-.363 1.483-.283 2.032.197l.205.187-.048.027z" fill="#7F96E2"/><path d="M180.767 159H180v-5h.767v1.868l.168-.144a1.15 1.15 0 011.348-.316c.437.145.73.584.717 1.074V159h-.725v-2.211a.758.758 0 00-.203-.53.659.659 0 00-.496-.21.663.663 0 00-.521.187.764.764 0 00-.23.535v2.211l-.058.018z" fill="#7C94DE"/><path d="M136 154.009h.737v1.799a4.34 4.34 0 01.78-.45c.332-.115.696-.06.984.15.29.21.47.55.49.92a2.73 2.73 0 010 .459V159h-.772v-1.664c.01-.18.01-.36 0-.54a.75.75 0 00-.221-.538.662.662 0 00-.524-.19.708.708 0 00-.521.233.8.8 0 00-.208.559v1.942a1.48 1.48 0 010 .189H136V154v.009z" fill="#8099E5"/><path d="M128.987 156.7c0-.522-.454-.945-1.014-.945-.528.04-.934.451-.932.944h1.946zm1.013.594h-3.04c.02.36.244.684.588.85.456.236.881.16 1.682-.311l.507.434c-.55.639-1.468.891-2.301.633-.804-.234-1.369-.907-1.419-1.69-.093-.68.194-1.357.76-1.795a2.016 2.016 0 011.908-.297c.647.232 1.108.772 1.204 1.411 0 .246 0 .491.07.775l.041-.01zm13.055-.574a.894.894 0 00-.28-.705 1.09 1.09 0 00-.758-.296 1.09 1.09 0 00-.753.293.895.895 0 00-.285.698l2.076.01zm-2.076.565c.228 1.047 1.1 1.245 2.325.538l.52.433c-.543.647-1.48.906-2.326.642-.792-.217-1.367-.839-1.464-1.585-.137-.702.143-1.419.737-1.886a2.12 2.12 0 012.016-.295c.68.253 1.148.828 1.213 1.493v.67l-3.021-.01z" fill="#7F96E2"/><path d="M164.983 158.893h-.756v-.476a.276.276 0 01-.068-.077 1.166 1.166 0 01-.094.213c-.334.414-.855.556-1.317.36-.437-.132-.744-.581-.748-1.098V155h.756v2.272c0 .621.255.864.689.874a.69.69 0 00.557-.237.91.91 0 00.225-.627v-2.272H165v3.883h-.017z" fill="#7C94DE"/><path d="M131.75 159H131v-3.9h.742v.42a4.3 4.3 0 01.842-.468.985.985 0 01.971.2c.278.24.443.617.445 1.019v2.72h-.758v-2.37a.85.85 0 00-.192-.564.633.633 0 00-.483-.235.621.621 0 00-.525.18.84.84 0 00-.241.57v2.419l-.051.009zm35.998 0H167v-3.903h.74v.439c.26-.197.54-.358.832-.478a.967.967 0 01.972.19c.28.24.447.622.45 1.03.008.136.008.273 0 .41V159h-.757v-2.469a.81.81 0 00-.353-.644.588.588 0 00-.653.01c-.277.158-.445.498-.424.859V159h-.059zm3.262-.606l.328-.49c.47.134.94.26 1.315.365a.673.673 0 00.376-.087.338.338 0 00.176-.298.338.338 0 00-.176-.298 4.083 4.083 0 00-.545-.24c-.216-.087-.45-.144-.657-.25a.964.964 0 01-.63-1.096 1.14 1.14 0 01.94-.962 2.278 2.278 0 011.775.414c-.113.192-.216.394-.3.548-.386-.106-.733-.212-1.09-.289a.377.377 0 00-.254 0 .61.61 0 00-.263.298c0 .129.063.248.17.318.253.134.525.22.798.336a5 5 0 01.507.279c.37.189.575.602.507 1.02a1.034 1.034 0 01-.695.903 2.288 2.288 0 01-2.292-.442l.01-.03zm6.99-2.739l-.46.584c-.251-.38-.67-.551-1.07-.44-.356.132-.628.47-.72.892-.092.422.01.87.269 1.184.402.488.88.46 1.553-.086l.428.517c-.304.409-.738.658-1.202.69-.464.033-.92-.154-1.264-.518a2.225 2.225 0 01-.534-1.47c0-.553.192-1.082.534-1.468.34-.366.79-.56 1.253-.538.463.021.9.256 1.213.653zM136 137v-2h2v2h-2zm4 3h-2v-2h2v2zm-4-2h2v2h-2v-2zm3-3h2v2h-2v-2zm-19.07 24h-.87v-4h.88v4h-.01z" fill="#7F96E2"/><path d="M145.935 159h-.87v-4h.87v4z" fill="#8099E5"/><path d="M179 142.012c0 .706-.068 1.34-.102 1.988l-1.898-.106c0-.635.068-1.282.102-1.894l1.898.012zm-1.092-.012l-1.908-.106c0-.647 0-1.27.092-1.894H178c0 .682-.069 1.318-.103 1.988l.011.012zm.092 0c0-.718.08-1.341.113-2l1.887.094c0 .67-.068 1.294-.102 1.906H178zm-3 1.886c0-.636.068-1.238.114-1.886l1.886.102c0 .637-.068 1.25-.102 1.898l-1.898-.114z" fill="#7F96E2"/><path d="M185 158v1h-1v-1h1zm-66-4.09v-.82h1v.82zm27 .175v.83h-1v-.83h1z" fill="#7C94DE"/><path fill="#8099E5" d="M138.46 125.53v-.06h.08v.05z"/><path fill="#C2CFE0" d="M150 257h-47v-40.235L126.5 202l23.5 14.765V257z"/><path d="M103.888 256.087h44.224v-38.82L126 203.09l-22.112 14.177v38.82zM149.056 258h-46.112a.95.95 0 01-.944-.957v-40.302a.96.96 0 01.434-.813l23.056-14.78a.933.933 0 011.01 0l23.056 14.78a.96.96 0 01.444.813v40.302a.95.95 0 01-.944.957z" fill="#445990"/><path fill="#FFF" d="M134 257h-15v-19h15v19z"/><path d="M119.895 256.06h13.21v-17.12h-13.21v17.12zm14.157 1.94h-15.104a.96.96 0 01-.948-.97v-19.06a.96.96 0 01.948-.97h15.104a.96.96 0 01.948.97v19.06a.96.96 0 01-.948.97zm5.89-49.944h4.116v-10.112h-4.116v10.112zm5.087 1.944h-6.058a.972.972 0 01-.971-.972v-12.056c0-.537.435-.972.97-.972h6.06c.535 0 .97.435.97.972v12.056a.972.972 0 01-.97.972z" fill="#445990"/><path d="M134 226h-15v-6.653c0-4.058 3.257-7.347 7.274-7.347h.452c4.017 0 7.274 3.29 7.274 7.347V226z" fill="#FFF"/><path d="M119.895 225.087h13.21v-5.738c-.005-3.552-2.858-6.431-6.378-6.436h-.454c-3.52.005-6.373 2.884-6.378 6.436v5.738zM134.052 227h-15.104a.952.952 0 01-.948-.956v-6.695c0-4.611 3.704-8.349 8.273-8.349h.454c4.567.005 8.268 3.74 8.273 8.35v6.694a.952.952 0 01-.948.956zM126 257c-.552 0-1-.43-1-.96v-18.08c0-.53.448-.96 1-.96s1 .43 1 .96v18.08c0 .53-.448.96-1 .96z" fill="#445990"/><path d="M126 227c-.552 0-1-.428-1-.956v-14.088c0-.528.448-.956 1-.956s1 .428 1 .956v14.088c0 .528-.448.956-1 .956zm7.048 25h-14.096c-.526 0-.952-.448-.952-1s.426-1 .952-1h14.096c.526 0 .952.448.952 1s-.426 1-.952 1z" fill="#445990"/><path fill="#FFF" d="M157 216.97L126.242 194h-.484L95 216.97l3.88 5.03 27.125-20.25L153.129 222l3.871-5.03z"/><path d="M96.284 217.185l2.766 3.558 26.41-19.772a.96.96 0 011.15 0l26.42 19.772 2.727-3.558-29.717-22.25-29.718 22.25h-.038zm2.547 5.812a.955.955 0 01-.76-.367l-3.877-5.06a.931.931 0 01.18-1.314l30.81-23.068a.958.958 0 01.57-.188h.485a.958.958 0 01.58.188l30.8 23.068c.42.31.506.9.19 1.314l-3.877 5.06a.958.958 0 01-1.33.179l-26.61-19.913-26.61 19.913a.958.958 0 01-.57.188h.02zM195.054 424a.95.95 0 01-.946-.955c0-.076.293-8.19-4.73-13.478-2.903-3.064-7.046-4.61-12.295-4.61-8.769 0-14.245 9.898-14.302 10.003a.949.949 0 01-1.3.358.967.967 0 01-.355-1.312C161.38 413.5 167.17 403 177.073 403c5.817 0 10.405 1.747 13.696 5.212 5.571 5.89 5.24 14.509 5.221 14.872a.95.95 0 01-.945.906l.009.01z" fill="#445990"/><path fill="#B54C52" d="M320.395 589l6.605 7.99L311.756 610 306 598.23l14.395-9.23z"/><path d="M307.245 598.552l4.839 9.912 13.636-11.619-5.478-6.624-12.997 8.331zm4.52 12.42h-.194a.967.967 0 01-.668-.522l-5.806-11.811a.962.962 0 01.338-1.225l14.45-9.256a.97.97 0 011.277.193l6.62 8.022a.962.962 0 01-.117 1.34l-15.262 13.056a.97.97 0 01-.629.231l-.01-.029z" fill="#445990"/><path d="M315.921 606.947c1.259-.624 9.075-12.245 9.075-12.245s13.588 3.678 30.28-5.647c.87-.49 5.233 2.44 4.675 3.275-15.046 22.089-34.52 22.944-34.52 22.944l.615 1.277s-9.462 5.762-10.408 5.436c-.947-.327-7.949-14.886-7.627-15.837.321-.951 7.901.797 7.901.797h.01z" fill="#20324F"/><path d="M309.055 606.823c.95 2.783 5.577 12.363 6.907 14.183a78.224 78.224 0 008.854-4.814l-.237-.482a.974.974 0 010-.962.948.948 0 01.779-.472c.19 0 19.087-1.079 33.69-22.262a8.887 8.887 0 00-3.364-2.148c-14.944 8.3-27.324 6.452-30.298 5.826-3.03 4.477-7.866 11.449-9.11 12.065a.939.939 0 01-.628.077 40.285 40.285 0 00-6.65-1.069l.057.058zM315.648 623a.869.869 0 01-.332-.058c-.38-.135-1.083-.376-4.855-8.194-3.772-7.82-3.534-8.532-3.401-8.907.237-.694.58-1.743 8.55.067 1.207-1.203 5.15-6.74 8.55-11.786a.944.944 0 011.027-.385c.133 0 13.51 3.467 29.69-5.575 1.472-.818 4.75 1.685 5.5 2.561.751.877.723 1.695.438 2.11-13.026 19.151-29.13 22.656-33.975 23.291a.97.97 0 01-.361 1.243c-8.085 4.93-10.166 5.604-10.897 5.604l.066.029z" fill="#445990"/><path fill="#B54C52" d="M207 586.363L204.187 596 185 591.033 191.39 580l15.61 6.363z"/><path d="M186.401 590.407l17.14 4.464 2.345-8.027-14.107-5.776-5.378 9.377v-.038zm17.81 6.564c-.082.01-.166.01-.249 0l-19.255-5.016a.951.951 0 01-.632-.544.92.92 0 01.048-.825l6.412-11.112a.967.967 0 011.197-.403l15.676 6.414c.45.182.689.666.555 1.125l-2.871 9.705a.955.955 0 01-.957.684l.076-.028z" fill="#445990"/><path d="M189.39 591.926c1.232.691 15.113.625 15.113.625s4.74 13.251 21.807 21.77c.891.435.948 5.679 0 5.679-26.548 0-38.276-15.59-38.276-15.59l-.692 1.222s-10.06-4.534-10.335-5.48c-.275-.947 7.585-14.88 8.533-15.145.948-.265 3.85 6.948 3.85 6.948v-.029z" fill="#20324F"/><path d="M187.969 603.482c.3 0 .58.14.76.379.114.151 11.708 15.056 37.214 15.207a8.814 8.814 0 00-.161-3.948c-15.205-7.633-20.765-18.816-21.943-21.61-5.36 0-13.76-.066-14.977-.747a.948.948 0 01-.418-.474 41.711 41.711 0 00-2.85-6.032c-1.73 2.32-6.89 11.486-7.603 13.589a79.76 79.76 0 008.933 4.583l.266-.464a.95.95 0 01.76-.483h.019zM226.333 621c-22.95 0-34.943-11.259-38.212-14.886a.952.952 0 01-1.226.398c-10.453-4.735-10.757-5.682-10.88-6.117-.4-1.43 7.773-15.918 9.208-16.325.703-.2 1.748-.483 4.827 7.102 1.663.312 8.382.464 14.435.445a.95.95 0 01.903.625c0 .123 4.856 13.02 21.382 21.249 1.51.748 1.311 4.81 1.045 5.937-.266 1.127-.95 1.544-1.473 1.544l-.01.028z" fill="#445990"/><path d="M281 367.469c.21-1.058 3.961-18.5 4.774-20.469l1.031.194C286.805 348.057 290 371 290 371h-.164c-.32-.369-5.605-3.133-5.714-3.153-.785.266-1.55.59-2.291.97L281 367.46v.01z" fill="#CFD8E6"/><path d="M214.298 592c1.893 0 29.143-70.082 35.979-79.8C261.638 496.05 273 467.55 273 467.55L247.436 421l-17.042 53.2s-11.362 20.9-18.937 37.05C203.883 527.4 184 576.8 184 576.8c.947.95 30.298 15.2 30.298 15.2z" fill="#20324F"/><path d="M185.116 576.44c3.07 1.75 18.308 9.25 28.931 14.412 1.697-2.72 7.582-16.74 13.325-30.315 8.595-20.4 18.337-43.52 22.137-48.919 10.424-14.83 21.019-40.496 22.469-44.07l-24.308-44.25-16.385 51.133a.847.847 0 01-.075.161c-.114.21-11.448 21.075-18.954 37.026-6.984 14.896-24.639 58.662-27.169 64.822h.029zm29.15 16.56a.933.933 0 01-.408-.095c-8.88-4.316-29.624-14.44-30.58-15.4a.953.953 0 01-.21-1.027c.2-.494 19.996-49.64 27.483-65.592 7.268-15.504 18.157-35.619 18.953-37.073l17.058-53.149a.948.948 0 011.734-.171l25.586 46.58a.953.953 0 01.048.817c-.114.286-11.543 28.804-22.848 44.87-3.677 5.237-13.807 29.259-21.938 48.556C216.208 591.897 215.497 593 214.265 593z" fill="#445990"/><path d="M232.951 396.368l38.04 108.528s8.558 57.12 27.578 97.104c10.46-3.808 30.431-14.28 30.431-14.28l-24.725-96.152-13.314-45.696 11.412-38.08-.951-42.84L242.46 364 232 396.368h.951z" fill="#20324F"/><path d="M233.29 395.383a.952.952 0 01.561.571l38.082 108.57a.922.922 0 010 .182c.086.562 8.655 56.704 27.162 96.084 9.369-3.542 25.401-11.79 28.867-13.58l-24.563-95.466-13.329-45.714a.953.953 0 010-.543l11.425-37.952-.952-41.79-57.41-.952-9.843 30.59zM298.59 603a.95.95 0 01-.856-.543c-18.527-38.933-27.276-94.723-27.676-97.323l-37.825-107.846h-.286a.952.952 0 01-.761-.4.953.953 0 01-.143-.848l10.472-32.38a.954.954 0 01.952-.659l59.028.954c.525 0 .952.426.952.952l.952 42.857a.77.77 0 010 .295l-11.425 37.8 13.243 45.447 24.753 96.19a.952.952 0 01-.476 1.076c-.2.104-20.174 10.552-30.58 14.342a.996.996 0 01-.333.057l.01.029z" fill="#445990"/><path d="M345.004 386.114c3.336 3.225 6.596 11.818 8.13 14.832 3.289 6.421 5.753 18.182 1.918 19.139-1.304.316-6.712 1.866-6.712 1.866s-1.917.957-6.711-5.588c-3.567-4.862-2.876-8.718-2.876-8.718C333 400.554 333 391.377 333 391.377s7.555-9.57 12.004-5.263z" fill="#E8CFAB"/><path d="M333.962 391.629c.077 1.668.673 9.367 5.55 15.34l.279.335-.077.432s-.548 3.576 2.712 7.996c3.741 5.081 5.463 5.254 5.665 5.254.221-.067 5.454-1.563 6.733-1.917.202-.048.51-.183.779-.767 1.414-3.069-.673-11.832-3.338-17.038a82.421 82.421 0 01-1.404-3.03c-1.654-3.681-4.145-9.242-6.56-11.572a2.804 2.804 0 00-2.27-.834c-2.942.192-6.674 3.989-8.136 5.753l.067.048zm14.1 31.342c-1.192 0-3.453-.96-7.184-6.05-3.107-4.219-3.194-7.776-3.107-9.013-5.675-7.229-5.771-16.203-5.771-16.586v-.336l.212-.259c.211-.268 5.136-6.433 9.724-6.71a4.74 4.74 0 013.741 1.37c2.674 2.589 5.165 8.12 6.983 12.167.538 1.208.962 2.243 1.366 2.943 2.625 5.149 5.184 14.756 3.356 18.715a3.046 3.046 0 01-2.068 1.832c-1.212.287-6.05 1.677-6.636 1.84a1.69 1.69 0 01-.645.116l.03-.03z" fill="#445990"/><path fill="#C2CFE0" d="M347 386.18l-2.735-6.18L326 386.817l2.539 7.183L347 386.142z"/><path d="M327.13 387.384l1.879 5.405 16.777-7.144-2.001-4.498-16.692 6.237h.037zm1.362 7.616a.935.935 0 01-.375-.085.943.943 0 01-.508-.548l-2.555-7.229a.947.947 0 01.554-1.2l18.384-6.88a.937.937 0 011.183.502l2.753 6.19a.95.95 0 010 .727.942.942 0 01-.508.529l-18.543 7.918a.935.935 0 01-.366.076h-.019z" fill="#445990"/><path d="M303 316.97s.621 17.932.956 18.955c4.978 14.89 19.11 53.075 19.11 53.075L346 378.575c-.554-.72-12.365-31.627-21.022-54.97-1.911-12.321-7.645-51.18-15.29-61.605" fill="#20324F"/><path d="M324.009 389.972a.962.962 0 01-.89-.627c-.143-.38-14.212-38.417-19.115-53.147-.353-1.034-.822-13.808-1.003-19.247a.952.952 0 01.922-.982.954.954 0 01.99.916c.238 6.729.687 17.766.955 18.744 4.463 13.39 16.516 46.095 18.743 52.131l21.151-9.623c-2.628-6.15-14.337-37.099-20.673-54.248a.632.632 0 01-.048-.18l-.258-1.661c-2.103-13.619-7.646-49.797-14.863-59.62a.945.945 0 01.263-1.247.96.96 0 011.276.137c7.474 10.193 13.094 46.703 15.216 60.445l.24 1.557c9.222 24.922 20.156 53.45 20.902 54.779a.821.821 0 01.143.769.952.952 0 01-.554.607l-22.939 10.44a.973.973 0 01-.401.085l-.057-.028z" fill="#445990"/><path d="M298 208.939s4.163-2.637 4.777.928c.9 5.217-1.023 10.416-3.959 12.133" fill="#E8CFAB"/><path d="M298.833 223c-.452.003-.852-.27-.982-.668-.13-.4.043-.83.423-1.055 2.358-1.424 4.37-6.143 3.486-11.313-.06-.384-.213-.87-.569-1.011-.64-.253-2.033.346-2.592.721-.3.19-.687.22-1.016.076a.944.944 0 01-.58-.773.914.914 0 01.437-.848c.264-.169 2.663-1.648 4.554-.937 1.03.459 1.71 1.393 1.78 2.445.914 5.356-1.017 11.144-4.382 13.176-.167.099-.361.15-.56.15V223z" fill="#445990"/><path d="M257.214 204.492v.42c.067 2.862 2.558 15.132 2.558 15.132l-.544 30.713s15.338 13.845 22.497 12.09c7.158-1.756 7.254-9.056 7.254-9.056v-11.506c1.804-.878 7.216-6.183 9.058-12.404 1.842-6.22 1.975-19.636 2.014-23.214.038-3.578-.668-16.954-1.623-16.964-.19 0-.095-.362.181-.954.955-2.204 4.372-7.633 4.391-9.722 0-2.682 0-2.691-8.924-.096-8.925 2.595-16.036.954-21.467.697-10.995-.477-13.047 5.142-14.88 9.54-1.222 2.987-.534 13.492-.553 15.267l.038.057z" fill="#E8CFAB"/><path d="M257.22 205.742c0 .114-.23 1.581-.22 1.752 3.548 3.616 5.723 4.506 5.723 4.506 1.84-5.302.887-18.565.896-19.446 5.621.93 11.3 1.47 16.996 1.62 5.818.056 13.887-2.841 17.959-4.053.954-2.187 4.378-7.574 4.397-9.647 0-2.66.953-3.474-8.03-.947-8.985 2.528-17.836.067-23.072.644-8.183.947-12.189 3.418-14.01 7.839-1.23 2.954-.668 15.914-.677 17.685l.038.047z" fill="#754F2F"/><path d="M260.05 250.446c4.442 3.905 16.003 12.824 21.344 11.545 6.306-1.498 6.516-7.886 6.526-8.086.01-.199 0-7.156 0-11.478a.947.947 0 01.544-.834c1.376-.673 6.689-5.687 8.6-11.763.83-2.767 1.843-8.966 1.977-22.748a86.352 86.352 0 00-1.662-16.72.941.941 0 01.105-.663c1.71-2.986 4.433-8.389 4.452-10.142v-.55l-.688.161a81.601 81.601 0 01-6.258 1.318c-7.309 1.25-15.64.948-21.153.673l-1.434-.057c-10.366-.398-12.153 3.943-13.892 8.142-.955 2.227-.697 10.303-.602 13.753v1.896c0 1.232 1.529 9.829 2.58 15.307a.62.62 0 010 .19l-.545 30.075.105-.02zM280.333 264c-7.912 0-21.288-11.895-21.88-12.436a.944.944 0 01-.315-.72l.544-30.407c-.344-1.8-2.608-13.8-2.59-15.582v-1.801c-.171-6.199-.2-12.246.746-14.53 1.806-4.351 4.07-9.773 15.736-9.308l1.434.057c5.436.227 13.643.568 20.742-.664 3.048-.521 4.988-.948 6.134-1.28 1.481-.36 2.093-.511 2.647 0 .398.414.556 1 .42 1.555v.73c0 2.606-3.602 9.108-4.529 10.758a89.35 89.35 0 011.577 16.73c-.115 11.278-.803 19.127-2.054 23.316a26.217 26.217 0 01-9.106 12.55v10.919c0 .075-.181 8.056-7.987 9.904a6.518 6.518 0 01-1.51.171l-.01.038z" fill="#445990"/><path d="M261 209.746c-.753-.833-4.612-5.908-5.718.29-1.105 6.199 1.353 9.981 1.973 10.43 2.24 1.649 3.535-1.048 3.535-1.048" fill="#E8CFAB"/><path d="M258.695 221.972a3.415 3.415 0 01-2.017-.725c-.969-.734-3.557-4.959-2.374-11.404.397-2.202 1.192-3.425 2.433-3.764 1.996-.527 3.935 1.703 4.846 2.823l.204.226a.922.922 0 01-.11 1.29.99.99 0 01-1.335-.039l-.232-.263c-1.803-2.07-2.579-2.258-2.908-2.174-.33.085-.747.715-1.037 2.259-1.047 5.768 1.192 9.193 1.647 9.578.27.26.652.379 1.028.32a2.163 2.163 0 001.105-1.035c.23-.47.81-.67 1.294-.447a.93.93 0 01.46 1.256 4.034 4.034 0 01-2.384 2.052 2.756 2.756 0 01-.66.075l.04-.028zm24.725 21.988c-6.582 0-13.39-3.015-16.991-6.743-4.542-4.74-5.388-13.788-5.426-14.173a.957.957 0 01.856-1.04.947.947 0 011.016.867c0 .086.827 8.748 4.89 12.997 4.315 4.509 13.568 7.842 21.005 5.386a.938.938 0 011.185.626.97.97 0 01-.611 1.214 18.895 18.895 0 01-5.924.905v-.038zm1.587-22.96c-.556 0-1.007-.415-1.007-.926 0-.511.45-.926 1.007-.926a2.954 2.954 0 001.873-.555c0-.065.2-.26 0-.815-.725-2.047-2.79-8.713-2.78-9.852 0-.511.451-.926 1.008-.926.556 0 1.006.415 1.006.926a83.515 83.515 0 002.679 9.26c.36.817.246 1.747-.303 2.471-1.006 1.26-3.14 1.315-3.493 1.315l.01.028zm-1.825 9h-.28c-3.588-.115-7.013-1.628-9.627-4.253a1.077 1.077 0 01.014-1.454.921.921 0 011.363.016c2.27 2.23 5.214 3.52 8.298 3.636h.232c5.978 0 6.96-2.136 6.97-2.157.204-.514.755-.76 1.242-.555.472.201.716.759.558 1.274-.116.36-1.338 3.493-8.78 3.493h.01zm1.951 4a.97.97 0 01-.4-.09 3.2 3.2 0 00-2.479 0c-.432.2-.954.03-1.165-.381-.212-.41-.032-.907.4-1.107a5.04 5.04 0 014.036 0c.426.206.597.7.382 1.107a.876.876 0 01-.774.454V234z" fill="#445990"/><path d="M274.157 228c-.405-.001-.762-.248-.883-.609-.865-2.506.52-3.906 1.376-4.298.46-.216 1.02-.043 1.25.387.232.43.046.954-.413 1.17-.177.087-.995.618-.447 2.21.16.457-.107.947-.595 1.096a1.172 1.172 0 01-.288 0V228zm17.828-.03a1.023 1.023 0 01-1.024-1.022 7.998 7.998 0 00-.82-2.41 1.016 1.016 0 01.019-1.064 1.026 1.026 0 011.815.165 9.596 9.596 0 011.025 3.34c0 .564-.459 1.021-1.025 1.021l.01-.03zM262.945 209h-.162a.952.952 0 01-.612-.382.908.908 0 01-.156-.692c.949-5.11.142-15.184.142-15.286a.916.916 0 01.342-.787.967.967 0 01.863-.166c.085 0 9.346 2.573 17.676 1.851a67.139 67.139 0 0013.578-2.435.968.968 0 011.02.094.914.914 0 01.338.946.939.939 0 01-.742.692 66.758 66.758 0 01-14.023 2.527c-6.907.611-14.175-.926-17.078-1.574.18 2.944.512 10.185-.247 14.443a.943.943 0 01-.949.769h.01zm32.125-10a.922.922 0 01-.443-.107 8.473 8.473 0 00-3.532-.074c-.33.05-.665-.06-.88-.29a.763.763 0 01-.156-.823c.116-.28.391-.483.722-.533.536-.082 3.273-.46 4.733.256.374.179.562.561.457.927-.105.366-.476.621-.9.62V199z" fill="#445990"/><path d="M277.035 198h-.222a13.456 13.456 0 00-5.556-.074c-.51.136-1.052-.105-1.212-.539-.16-.434.123-.896.633-1.033a15.453 15.453 0 016.58 0c.25.051.466.185.6.371a.72.72 0 01.114.625c-.105.38-.508.644-.966.634l.03.016zM294 210.518c0 1.379-.7 2.49-1.53 2.482-.83-.009-1.49-1.13-1.47-2.509.02-1.379.7-2.5 1.52-2.49.82.008 1.49 1.129 1.48 2.517z" fill="#445990"/><path d="M292.004 209.965a.974.974 0 01-.27 0 .99.99 0 01-.603-.403.752.752 0 01-.095-.651c.165-.85.846-1.56 1.786-1.86 1.009-.166 2.05.078 2.823.66.273.197.402.505.34.807-.063.301-.309.551-.644.655a1.13 1.13 0 01-.983-.15 1.652 1.652 0 00-.998-.335c-.12 0-.299.232-.449.677-.12.385-.533.648-.997.634l.09-.034zM277 209.509c0 1.388-.7 2.5-1.53 2.49-.83-.008-1.48-1.129-1.47-2.508.01-1.379.7-2.5 1.53-2.49.83.008 1.48 1.129 1.47 2.508z" fill="#445990"/><path d="M274.992 209.965a1.429 1.429 0 01-.267 0 .978.978 0 01-.596-.402.758.758 0 01-.094-.651c.164-.85.837-1.558 1.765-1.859.998-.17 2.03.073 2.79.66.301.188.455.507.398.826-.056.318-.314.582-.667.683-.352.1-.74.02-1.003-.207a1.661 1.661 0 00-.936-.326c-.119 0-.296.231-.444.677-.119.384-.527.647-.986.633l.04-.034z" fill="#445990"/><path d="M237.537 345.056s-7.622 42.782-9.527 56.092C235.632 404 265.167 404 265.167 404c6.67 0 9.528-1.901 11.433-10.458l9.528-49.436 2.63 51.233a7.129 7.129 0 005.993 5.847l11.433-1.901-2.859-61.796s4.86-23.834 5.717-32.324c1.086-10.648.953-43.732.953-43.732-1.02-.95-20.008-8.557-20.008-8.557s0 8.557-8.575 9.507c-5.907.656-19.589-10.58-20.96-12.359-.477-.637-37.159 11.409-38.111 14.26-.391 1.237-1.21 18.245 2.858 35.177 5.716 23.767 12.386 45.634 12.386 45.634l-.048-.039z" fill="#20324F"/><path d="M229.056 400.511c8.394 2.52 35.866 2.559 36.143 2.559 6.162 0 8.68-1.474 10.493-9.72l9.539-49.45a.953.953 0 01.954-.77c.48.033.86.416.887.894l2.623 51.2a6.162 6.162 0 005.046 4.993l10.417-1.779-2.862-60.976a.948.948 0 010-.228c.057-.238 4.865-23.898 5.724-32.247.953-9.757.953-38.99.953-43.136-1.907-1.084-11.57-5.04-18.257-7.713-.42 2.644-2.156 8.312-9.3 9.101-6.077.685-18.974-9.747-21.511-12.362-4.607.684-35.027 11.411-36.85 13.637-.352 1.673-1.058 18.21 2.863 34.624 5.647 23.47 12.314 45.37 12.4 45.59a.89.89 0 010 .447c-.076.418-7.364 41.329-9.424 55.289l.162.047zM265.199 405c-1.211 0-29.828 0-37.536-2.92a.95.95 0 01-.61-1.027c1.822-12.676 8.91-52.54 9.539-55.907-.716-2.358-6.992-23.213-12.353-45.485-3.997-16.604-3.377-34.035-2.862-35.699 1.202-3.737 36.487-14.55 38.461-14.892a1.29 1.29 0 011.364.342c1.47 1.902 14.738 12.581 20.118 11.992 7.631-.847 7.736-8.245 7.736-8.559a.956.956 0 011.316-.884c5.724 2.292 19.288 7.74 20.337 8.758a.95.95 0 01.287.675c0 .333.124 33.284-.954 43.85-.84 8.225-5.304 30.297-5.724 32.332l2.862 61.7a.952.952 0 01-.792.95l-11.408 1.921a.957.957 0 01-.286 0 8.087 8.087 0 01-6.82-6.657.588.588 0 010-.123l-2.252-43.374-8.05 41.738c-1.909 8.616-4.818 11.24-12.402 11.24l.03.029z" fill="#445990"/><path d="M209.5 324v12.992" fill="#3A4968"/><path d="M209.004 338c-.52.002-.955-.374-.997-.863a.591.591 0 010-.187v-13.012c0-.518.447-.938.997-.938s.996.42.996.938v13.031c-.06.937-.279.993-.927 1.022l-.07.009z" fill="#445990"/><path d="M293 256.208c-.075 3.332 0 40.654-2.534 67.845-.77 8.373-1.764 15.782-3.097 20.947h-1.877c-.131-.897-1.99-7.877-4.692-17.71C273.18 299.505 259 249 259 249h.582c1.36 1.26 21.678 8.21 22.157 8.21.788 0 7.507-5.728 7.507-5.728l3.754 4.774v-.048z" fill="#CFD8E6"/><path d="M193.988 395.554c4.264 4.373 3.302 16.952 1.377 14.05-1.926-2.903-4.814 1.79-6.739 7.74-.414 1.297-6.17.271-6.17.271s-.8-.232-6.99-2.903c-1.463-.629-4.168-4.16-4.168-4.16-1.925-4.838 6.094-20.552 6.094-20.552l16.596 5.535v.019z" fill="#E8CFAB"/><path d="M182.68 416.65c2.183.376 4.462.473 5.09.213.88-2.715 3.13-8.665 6.008-9.05.76-.1 1.522.185 2.028.76.531-2.253.425-9.07-2.337-12.102l-15.618-5.122c-2.337 4.68-6.973 15.25-5.795 18.793 1.072 1.377 2.897 3.38 3.7 3.736 5.302 2.253 6.625 2.734 6.876 2.821l.048-.048zm3.545 2.302a24.066 24.066 0 01-3.95-.414h-.097c-.097 0-1.043-.318-7.138-2.888-1.613-.694-4.076-3.852-4.558-4.448l-.126-.222c-2.038-5.074 5.302-19.602 6.143-21.239l.376-.741 17.656 5.844.164.164c3.632 3.677 3.738 11.938 2.82 14.595-.299.867-.772 1.358-1.4 1.435a1.575 1.575 0 01-1.526-.847c-.203-.308-.386-.443-.54-.424-.85.116-2.811 2.638-4.492 7.885-.29.895-1.41 1.348-3.332 1.348v-.048zm92.849-72.981a.94.94 0 01-.936-.808c-.365-1.352-7.346-19.479-13.522-35.484C252.319 277.754 251 274.138 251 273.653c0-.486 0-1.409 6.55-4.844l-6.091-3.873a.96.96 0 01-.375-1.151c.197-.504 4.791-12.456 6.55-16.243a.933.933 0 011.255-.447.964.964 0 01.44 1.275c-1.516 3.187-5.194 12.655-6.242 15.377l6.831 4.339a.956.956 0 01.43.847.953.953 0 01-.514.809 47.707 47.707 0 00-6.888 4.063c.936 2.75 7.552 19.926 13.429 35.208C278.662 340.919 280 344.525 280 345.048a.944.944 0 01-.936.952l.01-.029zM293.983 337c-.543 0-.983-.427-.983-.953 0-.953 6.524-49.481 7.988-60.353l-5.787-6.67a.933.933 0 01.206-1.41l4.962-3.202-6.14-6.813a.932.932 0 01-.21-.948.974.974 0 01.755-.635 1 1 0 01.938.335l6.878 7.623a.933.933 0 01-.197 1.42l-4.981 3.22 5.355 6.203c.177.203.26.47.226.734-2.742 20.381-7.95 59.257-8.028 60.544-.026.507-.458.905-.982.905z" fill="#445990"/><path d="M194.529 397c.234-.824 1.471-5.294 1.471-5.294L177.537 385 176 390.51l18.529 6.49z" fill="#C2CFE0"/><path d="M177.12 389.872l16.855 5.897.943-3.42-16.798-6.084-1.008 3.617.009-.01zM194.579 398a1.016 1.016 0 01-.292-.05l-18.636-6.506c-.483-.164-.754-.7-.612-1.208l1.546-5.524a.975.975 0 01.47-.6.91.91 0 01.746-.058l18.57 6.732c.47.172.731.698.593 1.199l-1.48 5.307a.976.976 0 01-.462.6 1.02 1.02 0 01-.443.108z" fill="#445990"/><path d="M222.723 265s-2.396 4.21-6.681 13.274c-5.517 11.672-4.773 14.222-22.907 52.148C186.358 344.644 175 384.467 175 384.467L198.861 393c0-.948 10.5-33.185 18.135-56.889 5.727-8.533 19.433-32.806 20.998-39.822 3.894-17.408-4.772-29.393-4.772-29.393" fill="#20324F"/><path d="M198.867 394a.933.933 0 01-.316-.057l-23.911-8.54a.947.947 0 01-.603-1.157c.115-.399 11.478-40.137 18.23-54.227 11.803-24.67 15.59-34.282 18.345-41.313 1.492-3.795 2.659-6.756 4.61-10.874 4.256-8.995 6.695-13.284 6.695-13.35a.965.965 0 011.67-.008.95.95 0 01.004.957s-2.439 4.298-6.695 13.217c-1.913 4.061-3.09 7.012-4.553 10.76-2.774 7.06-6.57 16.728-18.402 41.427-6.13 12.819-16.183 47.234-17.876 53.088l22.084 7.885c.957-3.51 4.601-14.764 13.027-40.8a3609.271 3609.271 0 004.897-15.182c.029-.083.067-.163.115-.237 5.959-8.863 19.387-32.745 20.908-39.53 3.759-16.804-4.543-28.54-4.63-28.655a.946.946 0 01-.094-.947.963.963 0 011.654-.163c.363.503 8.876 12.553 4.935 30.174-1.635 7.325-15.743 32.052-21.109 40.06-1.54 4.744-3.185 9.887-4.849 15.03-6.083 18.797-12.97 40.089-13.237 41.57a.947.947 0 01-.402.692.952.952 0 01-.555.18h.058zm-16.043 24.963a.74.74 0 01-.23 0 .848.848 0 01-.492-.44 1.013 1.013 0 01-.069-.7l1.352-5.162a.87.87 0 01.595-.635.77.77 0 01.791.257.995.995 0 01.196.893l-1.352 5.162c-.105.405-.445.678-.824.661l.033-.036zM177.838 417c-.299.001-.575-.187-.725-.493a1.152 1.152 0 01-.001-.992c.142-.396.743-2.733 1.252-4.802.083-.34.313-.6.603-.685.29-.084.595.022.801.278.207.255.282.622.199.961-1.21 4.95-1.361 5.169-1.461 5.327-.156.253-.404.404-.668.406zm-4.956-3.036a1.195 1.195 0 01-.247 0 .882.882 0 01-.6-1.09l1.235-4.24a.883.883 0 011.694.492l-1.235 4.231a.882.882 0 01-.882.642l.035-.035zM237.965 371a.944.944 0 01-.949-.765.935.935 0 01.608-1.051l19.093-7.123a.956.956 0 01.724.021.94.94 0 01.497.522c.09.232.082.49-.021.716a.942.942 0 01-.528.491l-19.093 7.123a.87.87 0 01-.331.066zm53.136 75.999a.943.943 0 01-.941-.672l-12.115-39.071a.977.977 0 01.2-.941.932.932 0 01.9-.293c.329.073.595.32.698.648l12.115 39.08a.964.964 0 01-.621 1.201.923.923 0 01-.283 0l.047.048zm55.242-35.028h-.13c-1.25-.058-2.436-.904-3.521-2.51-3.605-5.064-5.597-11.186-5.692-17.5 0-.53.412-.961.92-.961.507 0 .92.43.92.962.089 5.926 1.961 11.672 5.35 16.423.727 1.067 1.444 1.653 2.088 1.692.286.014.568-.074.8-.25l-.368-3.98-.505-7.02c-.038-.531.342-.994.85-1.034.508-.04.95.359.989.89l.505 7 .451 4.855-.248.308a3.233 3.233 0 01-2.4 1.154l-.01-.029z" fill="#445990"/><path d="M354.008 422c-.554 0-1.002-.434-1.002-.97-.14-.823-2.345-6.455-3.808-10.177a150.37 150.37 0 01-2.155-5.602.963.963 0 01.633-1.198c.51-.17 1.067.081 1.261.568.351.97 1.173 3.092 2.135 5.544 3.156 8.055 3.928 10.187 3.928 10.817 0 .536-.449.97-1.002.97l.01.048zm-4 0a1 1 0 01-.896-.532c-.676-1.292-1.243-2.718-1.9-4.361-.338-.846-.697-1.758-1.114-2.747a.915.915 0 01.1-.978c.221-.284.59-.426.954-.37a.98.98 0 01.786.636c.428.998.786 1.9 1.135 2.784.636 1.596 1.184 2.983 1.82 4.19a.913.913 0 01-.04.925c-.18.28-.5.452-.845.453z" fill="#445990"/><path d="M291 324.021c-.803 8.386-1.84 15.806-3.23 20.979h-1.959c-.137-.899-2.075-7.889-4.895-17.737v-58.701s-3.201-2.869-3.71-3.089a16.304 16.304 0 01-.206-1.692l5.874-4.781 4.895 5.737-2.937 2.869L291 324.078v-.057z" fill="#B54C52"/><path d="M287.066 347a.964.964 0 01-.964-.692l-25.065-87.098a.938.938 0 01.236-.921.979.979 0 01.93-.26.96.96 0 01.695.66l25.064 87.099a.932.932 0 01-.084.722.961.961 0 01-.581.451c-.09.01-.18.01-.27 0l.039.039z" fill="#445990"/><path d="M275.798 265.998c-2.64 0-13.545-5.408-14.531-6.436a.965.965 0 01.019-1.352.934.934 0 011.333.019c1.006.952 11.028 5.712 13.047 5.865 1.277-1.371 6.209-6.741 6.256-6.798a.933.933 0 01.713-.295.934.934 0 01.686.323l4.875 5.77 2.123-2.856a.93.93 0 011.672.436.962.962 0 01-.179.706l-2.818 3.809a.935.935 0 01-1.456.047l-4.959-5.855c-1.53 1.666-5.025 5.474-5.739 6.217a1.37 1.37 0 01-1.042.4zm-.746-9.998a.975.975 0 01-.365-.066l-15.092-6.117a.937.937 0 01-.222-1.62.972.972 0 01.951-.126l15.092 6.117a.94.94 0 01.566 1.051.956.956 0 01-.93.761z" fill="#445990"/><path d="M286.01 348h-.2a1.004 1.004 0 01-.641-.404.91.91 0 01-.15-.716c0-.238 5-23.89 5.73-43.402.501-13.245 1.251-48.177 1.251-48.529 0-.524.448-.949 1-.949s1 .425 1 .95c0 .35-.75 35.292-1.25 48.557-.74 19.664-5.71 43.468-5.76 43.676-.092.453-.514.778-1 .77l.02.047zm-86.121 78h-.1c-.539-.05-.936-.506-.89-1.022.88-9.342-3.117-12.977-4.433-14.198l-.228-.218a.917.917 0 01.052-1.285c.365-.35.95-.371 1.343-.05l.198.18c3.959 3.635 5.68 8.917 5.037 15.722-.046.49-.476.864-.99.862l.01.009zm-33.987-9.001a.714.714 0 01-.282-.06c-.474-.176-.73-.738-.574-1.26.737-2.45 2.568-4.59 5.582-6.54.432-.28.99-.124 1.247.35.122.23.157.503.095.76a.994.994 0 01-.423.61c-2.577 1.67-4.188 3.51-4.78 5.45-.127.43-.5.712-.91.69h.045z" fill="#445990"/><path d="M233.767 441.098l-23.594 86.093a6.548 6.548 0 01-8.039 4.576l-5.986-1.633-99.328-27.191a6.55 6.55 0 01-4.59-8.032l23.595-86.093a6.548 6.548 0 018.039-4.586l16.078 4.406h.057l89.179 24.4a6.54 6.54 0 014.59 8.032v.028z" fill="#94B4FB"/><path d="M122.1 404.88a5.61 5.61 0 00-5.39 4.125l-23.611 86.186a5.607 5.607 0 003.917 6.872L202.412 530.9a5.61 5.61 0 006.875-3.916l23.61-86.186a5.607 5.607 0 00-3.926-6.872l-89.193-24.417h-.105l-16.099-4.439c-.48-.131-.975-.2-1.473-.2v.01zM203.878 533c-.665 0-1.327-.09-1.969-.266l-5.99-1.635-99.406-27.183a7.518 7.518 0 01-5.249-9.21l23.61-86.185a7.503 7.503 0 019.205-5.256l16.051 4.4h.105l89.24 24.426a7.499 7.499 0 015.259 9.21l-23.61 86.186a7.53 7.53 0 01-7.246 5.513z" fill="#445990"/><path d="M119.942 415.96a.709.709 0 01-.246 0c-.501-.145-.797-.684-.664-1.208.519-1.997 1.778-3.697 3.498-4.724a7.188 7.188 0 015.673-.752.96.96 0 01.756.69 1.02 1.02 0 01-.262 1.013.918.918 0 01-.987.198c-2.975-.846-6.044.984-6.857 4.09a.954.954 0 01-.949.732l.038-.04z" fill="#445990"/><path d="M249.78 445.535l-23.586 86.636c-.97 3.496-4.564 5.549-8.046 4.596L202 532.324c3.483.958 7.079-1.103 8.036-4.605l23.586-86.636c.95-3.506-1.103-7.125-4.588-8.083l16.148 4.443c3.482.963 5.533 4.577 4.588 8.082l.01.01z" fill="#7098FB"/><path d="M207.03 531.81l11.392 3.059a5.62 5.62 0 004.253-.532 5.573 5.573 0 002.628-3.37l23.63-85.89c.79-2.962-.963-6.004-3.93-6.82l-11.335-3.088a7.433 7.433 0 01.942 6.043l-23.63 85.89a7.444 7.444 0 01-3.912 4.736l-.038-.029zm12.83 5.19a7.502 7.502 0 01-1.98-.265l-16.18-4.405a.947.947 0 11.505-1.828c2.98.8 6.052-.942 6.88-3.902l23.632-85.89a5.537 5.537 0 00-.543-4.234 5.526 5.526 0 00-3.388-2.614.945.945 0 01-.417-1.588.956.956 0 01.922-.24l16.179 4.404c4 1.089 6.355 5.198 5.263 9.178l-23.631 85.89a7.513 7.513 0 01-7.243 5.494zM98.931 487.99a.767.767 0 01-.252 0 .958.958 0 01-.645-1.175l18.129-66.116a.946.946 0 01.669-.669.922.922 0 01.901.258.973.973 0 01.232.927l-18.128 66.077a.937.937 0 01-.934.698h.028z" fill="#445990"/><path d="M218 532c0-1.043 24-91 24-91" fill="#20324F"/><path d="M217.959 533a.954.954 0 01-.959-.95c0-1.053 16.873-64.274 24.131-91.399a.96.96 0 011.155-.62.95.95 0 01.695 1.104c-8.178 30.571-23.69 88.808-24.073 91.001a.955.955 0 01-.959.864h.01z" fill="#445990"/><path d="M134 412c.667.261 72 20 72 20" fill="#20324F"/><path d="M205.91 432.917a.814.814 0 01-.257 0c-11.915-3.312-71.356-19.834-72.042-20.105a.929.929 0 01-.257-1.604.968.968 0 01.943-.145c1.286.42 47.545 13.293 71.87 20.057.526.07.895.545.824 1.062a.958.958 0 01-1.08.81v-.075zm-50.91 4.11L150.53 454l-3.53-1.027L151.46 436l3.54 1.027zm11.57 8.656a6.844 6.844 0 01.091 4.517l-2.096 7.8-3.54-1.015 1.94-7.24a3.402 3.402 0 00-.046-2.26 2.29 2.29 0 00-1.421-1.224 2.21 2.21 0 00-1.833.276 3.25 3.25 0 00-1.158 1.898l-1.94 7.24L153 454.66l4.744-17.66 3.557 1.015-1.664 6.15a4.08 4.08 0 011.84-.95 4.342 4.342 0 012.251.076 4.118 4.118 0 012.804 2.43l.037-.038zm9.142 1.223a3.928 3.928 0 012.288 0l-1.186 4.183-.99-.278a3.004 3.004 0 00-2.213.083 3.152 3.152 0 00-1.307 2.064l-1.68 6.042-3.624-.99 3.623-13.01 3.623.99-.597 2.165a5.19 5.19 0 012.054-1.249h.01zm9.45 7.437a2.185 2.185 0 00-.192-1.819 2.347 2.347 0 00-1.464-1.026 2.379 2.379 0 00-1.743.159c-.59.324-1.044.84-1.281 1.455l4.68 1.25v-.019zm3.11 3.246l-8.445-2.266a2.89 2.89 0 00.202 2.061c.284.536.793.927 1.397 1.073a2.058 2.058 0 002.301-.746l3.978 1.063a6.417 6.417 0 01-1.772 2.033 5.868 5.868 0 01-2.456 1.082 6.238 6.238 0 01-2.89-.13 6.238 6.238 0 01-2.946-1.68 5.652 5.652 0 01-1.512-2.928 7.933 7.933 0 01.231-3.787 8.304 8.304 0 011.791-3.367 5.98 5.98 0 012.89-1.763 6.436 6.436 0 013.438 0 6.19 6.19 0 012.889 1.641c.777.79 1.3 1.782 1.502 2.855a7.652 7.652 0 01-.212 3.665c-.113.393-.248.779-.404 1.157l.019.037zM136 463.061L127.573 479l-4.372-1.253.634-11.891-5.454 10.513-4.381-1.252.802-18.117 3.868 1.108-1.184 13.019 5.957-11.66 3.98 1.137-.782 13.135 5.472-11.796 3.887 1.118zm7.77 2.959c-.386-.905-.104-1.972.671-2.54a1.456 1.456 0 011.234-.207c.42.12.772.424.964.835.2.441.232.945.092 1.41a1.824 1.824 0 01-.782 1.14 1.452 1.452 0 01-1.225.193 1.538 1.538 0 01-.954-.83zm-4.166-1.207a1.94 1.94 0 01-.1-1.39 1.93 1.93 0 01.772-1.15 1.37 1.37 0 011.223-.212c.406.124.742.427.92.83.204.443.24.95.1 1.42-.11.47-.39.876-.781 1.13a1.403 1.403 0 01-1.232.193 1.466 1.466 0 01-.92-.82h.018zM148 469.42L144.423 483l-3.54-1.033.46-1.864a4.14 4.14 0 01-1.84 1.014 3.965 3.965 0 01-2.207-.049 4.352 4.352 0 01-2.18-1.371 4.948 4.948 0 01-1.057-2.492 8.261 8.261 0 01.258-3.255l2.087-7.93 3.559 1.063-1.94 7.38a3.49 3.49 0 000 2.288c.294.603.814 1.05 1.436 1.234a2.222 2.222 0 001.837-.268 3.306 3.306 0 001.168-1.932l1.94-7.379 3.568 1.034.028-.02zm12.563 5a7.107 7.107 0 01.101 4.613L158.57 487l-3.562-1.066 1.956-7.395a3.46 3.46 0 00-.055-2.307 2.13 2.13 0 00-1.43-1.23 2.046 2.046 0 00-1.845.29 3.359 3.359 0 00-1.163 1.938l-1.891 7.434-3.58-1.037L150.58 470l3.58 1.037-.48 1.812a3.962 3.962 0 011.845-.969 4.18 4.18 0 012.205.078c1.276.317 2.337 1.242 2.87 2.5l-.037-.038zm2.205 13.077a4.984 4.984 0 01-1.509-2.142 4.658 4.658 0 01-.154-2.516l3.691.991c-.094.44.004.897.27 1.263.277.388.69.664 1.162.777a1.81 1.81 0 001.163 0 .944.944 0 00.606-.665.92.92 0 00-.308-.982 10.912 10.912 0 00-1.595-1.075 16.054 16.054 0 01-1.98-1.282 3.844 3.844 0 01-1.183-1.562 3.401 3.401 0 010-2.301c.4-1.52 1.687-2.666 3.278-2.919a6.443 6.443 0 012.826.169 5.212 5.212 0 013.258 2.198 5.035 5.035 0 01.586 3.667l-3.489-.982a1.62 1.62 0 00-.25-1.226 1.847 1.847 0 00-1.114-.739 1.667 1.667 0 00-1.077 0 .942.942 0 00-.557.646.92.92 0 00.307 1c.488.395 1.016.74 1.576 1.03.693.402 1.358.849 1.99 1.337.52.417.917.959 1.153 1.572a3.582 3.582 0 010 2.366 3.895 3.895 0 01-1.182 1.871 4.333 4.333 0 01-2.124.935 6.413 6.413 0 01-2.758-.187 6.57 6.57 0 01-2.663-1.347l.077.103zm12.437-6.494a6.025 6.025 0 012.908-1.772 6.499 6.499 0 013.432 0 5.874 5.874 0 013.441 2.35 6.331 6.331 0 01.97 4.18l-3.994-1.064c.058-.94-.584-1.79-1.532-2.024a1.995 1.995 0 00-1.939.42 4.435 4.435 0 00-1.328 2.294 4.37 4.37 0 00-.087 2.621 1.906 1.906 0 001.405 1.297c.94.268 1.943-.148 2.385-.989l4.004 1.064a6.65 6.65 0 01-3.083 3.078 6.026 6.026 0 01-4.227.289 6.3 6.3 0 01-2.966-1.67 5.673 5.673 0 01-1.493-2.929c-.388-2.552.354-5.144 2.046-7.145h.058zm24.335 4.691a6.415 6.415 0 01.098 4.513L197.396 498l-3.784-1.014 2.074-7.234a3.18 3.18 0 00-.05-2.257 2.245 2.245 0 00-1.523-1.204 2.362 2.362 0 00-1.966.275 3.25 3.25 0 00-1.239 1.896l-2.074 7.244L185 494.7l5.102-17.7 3.804 1.014-1.76 6.144a4.478 4.478 0 011.967-.948 4.958 4.958 0 012.408.076c1.321.323 2.41 1.22 2.95 2.427l.068-.02zm9.612 6.639a2.19 2.19 0 00-.175-1.789 2.3 2.3 0 00-1.469-1.09 2.344 2.344 0 00-1.749.168 2.723 2.723 0 00-1.268 1.459l4.66 1.252zm3.103 3.245l-8.427-2.272a2.945 2.945 0 00.202 2.075c.287.532.794.92 1.393 1.066a2.048 2.048 0 002.297-.748l3.968 1.066a6.424 6.424 0 01-1.768 2.038 5.666 5.666 0 01-2.45 1.085 6.147 6.147 0 01-2.883-.131 6.267 6.267 0 01-2.95-1.674 5.739 5.739 0 01-1.509-2.945 7.995 7.995 0 01.231-3.796 8.253 8.253 0 011.787-3.365 5.913 5.913 0 012.883-1.777c2.271-.562 4.679.077 6.342 1.683a5.557 5.557 0 011.5 2.861 7.703 7.703 0 01-.212 3.674c-.112.394-.246.781-.404 1.16z" fill="#445990"/><path fill="#FFF" d="M153 435.027L148.54 452l-3.54-1.027L149.46 434l3.54 1.027zm11.564 8.661a6.752 6.752 0 01.092 4.515L162.533 456l-3.538-1.015 1.94-7.237a3.4 3.4 0 000-2.257 2.148 2.148 0 00-1.435-1.205 2.04 2.04 0 00-1.837.284 3.249 3.249 0 00-1.158 1.897l-1.949 7.238L151 452.69l4.733-17.69 3.565 1.015-1.645 6.146a4.033 4.033 0 011.838-.948 4.305 4.305 0 012.243.076 4.1 4.1 0 012.756 2.428l.074-.029zm9.148 2.182a3.928 3.928 0 012.288 0l-1.177 4.219-.999-.278a3.004 3.004 0 00-2.213.083 3.18 3.18 0 00-1.298 2.064l-1.69 6.042-3.623-.99 3.632-13.01 3.624.99-.607 2.165a5.219 5.219 0 012.063-1.249v-.037zm9.445 7.473a2.187 2.187 0 00-.183-1.819c-.668-1.06-2.053-1.462-3.212-.932a2.87 2.87 0 00-1.27 1.455l4.665 1.25v.046zm3.117 3.246l-8.446-2.267a2.897 2.897 0 00.202 2.061c.287.534.794.924 1.395 1.073a2.064 2.064 0 002.309-.746l3.972 1.063a6.415 6.415 0 01-1.77 2.033 5.858 5.858 0 01-2.462 1.082c-.959.185-1.95.14-2.886-.13a6.258 6.258 0 01-2.953-1.68 5.801 5.801 0 01-1.51-2.928 7.95 7.95 0 01.24-3.786 8.214 8.214 0 011.79-3.367 5.952 5.952 0 012.885-1.763 6.45 6.45 0 013.444 0 6.23 6.23 0 012.886 1.642 5.666 5.666 0 011.5 2.853 7.66 7.66 0 01-.211 3.666 11.05 11.05 0 01-.404 1.156l.019.038zM135 461.061L126.573 477l-4.381-1.253.633-11.891-5.453 10.513-4.372-1.252.792-18.117 3.869 1.108-1.184 13.019 5.966-11.66 3.971 1.137-.783 13.135 5.482-11.796 3.887 1.118zm7.773 3.991a1.93 1.93 0 01-.102-1.388 1.93 1.93 0 01.774-1.148c.36-.253.806-.33 1.225-.212.423.12.776.426.967.84.19.443.213.946.064 1.407-.109.471-.39.88-.782 1.137a1.463 1.463 0 01-1.228.193 1.538 1.538 0 01-.955-.83h.037zm-4.173-1.205a2.01 2.01 0 01-.11-1.388c.1-.484.374-.908.764-1.186.356-.263.807-.34 1.225-.212.428.108.787.413.976.829.205.441.242.948.102 1.417a1.926 1.926 0 01-.783 1.128 1.418 1.418 0 01-1.234.193 1.466 1.466 0 01-.921-.82l-.019.039zm8.4 4.598L143.426 482l-3.573-1.032.488-1.84a4.186 4.186 0 01-1.842 1.011 3.984 3.984 0 01-2.201-.048 4.371 4.371 0 01-2.174-1.369 4.84 4.84 0 01-1.059-2.468 8.058 8.058 0 01.249-3.249l2.072-7.876 3.555.964-1.943 7.365a3.472 3.472 0 000 2.285 2.106 2.106 0 001.427 1.225 2.04 2.04 0 001.842-.27 3.347 3.347 0 001.17-1.928l1.943-7.366 3.565 1.032.055.01zm12.563 5.003a7.075 7.075 0 01.101 4.603L157.561 486l-3.553-1.035 1.947-7.378a3.518 3.518 0 000-2.301 2.309 2.309 0 00-1.427-1.248 2.19 2.19 0 00-1.839.28 3.35 3.35 0 00-1.162 1.935l-1.947 7.378-3.58-1.035L149.589 469l3.57 1.035-.516 1.847a3.938 3.938 0 011.845-.967 4.224 4.224 0 012.215.077c1.275.316 2.337 1.24 2.869 2.495l-.01-.039zm2.197 12.97a5.032 5.032 0 01-1.497-2.135 4.532 4.532 0 01-.154-2.507l3.678.988c-.091.439.01.895.278 1.258a2 2 0 001.162.774c.376.128.786.128 1.162 0a.94.94 0 00.596-.662.916.916 0 00-.308-.979 9.914 9.914 0 00-1.594-1.072c-.69-.38-1.35-.806-1.978-1.277a3.812 3.812 0 01-1.171-1.557 3.436 3.436 0 010-2.293 4.082 4.082 0 011.161-1.865 4.228 4.228 0 012.123-1.007 6.452 6.452 0 012.823.168 5.256 5.256 0 013.255 2.19 5.053 5.053 0 01.586 3.655l-3.438-.932c.08-.423-.009-.86-.25-1.221a1.923 1.923 0 00-1.113-.737 1.699 1.699 0 00-1.085 0 .94.94 0 00-.557.644.916.916 0 00.317.997 9.115 9.115 0 001.565 1.026c.697.399 1.364.844 1.997 1.333.515.419.912.958 1.153 1.566.278.76.295 1.588.048 2.359a3.835 3.835 0 01-1.191 1.864 4.295 4.295 0 01-2.122.933 6.383 6.383 0 01-2.747-.187 6.62 6.62 0 01-2.67-1.342l-.028.018zm12.45-7.411a6.04 6.04 0 012.852-1.776 6.52 6.52 0 013.442 0 5.911 5.911 0 013.482 2.328 6.354 6.354 0 01.97 4.188l-4.006-1.066c.068-.942-.573-1.796-1.522-2.028a1.993 1.993 0 00-1.94.42 4.51 4.51 0 00-1.318 2.3 4.315 4.315 0 00-.088 2.627 1.91 1.91 0 001.397 1.299c.941.266 1.946-.15 2.395-.991l4.005 1.066a6.659 6.659 0 01-3.093 3.084 6.019 6.019 0 01-4.219.29 6.3 6.3 0 01-2.967-1.673 5.699 5.699 0 01-1.503-2.935c-.38-2.559.366-5.154 2.055-7.16l.059.027zm23.359 4.693a6.822 6.822 0 01.092 4.51l-2.088 7.79-3.542-1.014 1.941-7.23a3.381 3.381 0 00-.046-2.256 2.308 2.308 0 00-1.425-1.214 2.233 2.233 0 00-1.832.266 3.273 3.273 0 00-1.159 1.896l-1.95 7.24-3.56-1.014L188.738 475l3.569 1.014-1.6 6.17a4.04 4.04 0 011.84-.948 4.318 4.318 0 012.244.075 4.1 4.1 0 012.805 2.426l-.027-.038zm9.585 7.632a2.286 2.286 0 00-.785-2.44 2.465 2.465 0 00-2.621-.272 2.83 2.83 0 00-1.274 1.459l4.68 1.253zm3.127 3.245l-8.463-2.272a2.89 2.89 0 00.193 2.076c.29.53.798.918 1.399 1.066a2.072 2.072 0 002.316-.748l3.986 1.066a6.434 6.434 0 01-1.776 2.039 5.81 5.81 0 01-2.46 1.085 6.247 6.247 0 01-2.896-.131 6.349 6.349 0 01-2.963-1.674 5.88 5.88 0 01-1.515-2.946 9.001 9.001 0 012.036-7.165 5.91 5.91 0 012.847-1.777c2.284-.554 4.7.084 6.38 1.684a5.718 5.718 0 011.505 2.862 7.678 7.678 0 01-.213 3.675c-.112.394-.247.782-.405 1.16h.03z"/></g></g></svg>