<svg width="78" height="54" xmlns="http://www.w3.org/2000/svg"><g fill="none"><path d="M73.12 46.31H4.62V5.84A4.83 4.83 0 019.45 1h58.84a4.83 4.83 0 014.83 4.84v40.47z" fill="#FFF"/><path d="M72.12 45.31H5.62V5.84A3.84 3.84 0 019.45 2h58.84a3.84 3.84 0 013.83 3.84v39.47zM68.29 0H9.45a5.84 5.84 0 00-5.83 5.84v40.47a1.23 1.23 0 000 .2H74.1a1.23 1.23 0 000-.2V5.84A5.84 5.84 0 0068.29 0z" fill="#546FBB"/><path d="M71.66 49.72a1 1 0 01-1 1H7.08a1 1 0 010-2h63.58a1 1 0 011 1z" fill="#FFF"/><path d="M72.22 51.54H5.52A3.53 3.53 0 012 48a1.52 1.52 0 011.52-1.51h70.7A1.52 1.52 0 0175.74 48a3.53 3.53 0 01-3.52 3.52v.02zM76 46.25a2.49 2.49 0 00-1.78-.74H3.52A2.52 2.52 0 001 48a4.51 4.51 0 004.52 4.52h66.7A4.52 4.52 0 0076.74 48a2.47 2.47 0 00-.74-1.75z" fill="#FFF"/><path d="M72.22 51.54H5.52A3.53 3.53 0 012 48a1.52 1.52 0 011.52-1.51h70.7A1.52 1.52 0 0175.74 48a3.53 3.53 0 01-3.52 3.52v.02zm2-7H3.52A3.52 3.52 0 000 48a5.52 5.52 0 005.52 5.52h66.7A5.52 5.52 0 0077.74 48a3.52 3.52 0 00-3.52-3.51v.05z" fill="#546FBB"/><path d="M70.66 50.72H7.08a1 1 0 010-2h63.58a1 1 0 010 2zm3.56-4.21H3.52A1.52 1.52 0 002 48a3.53 3.53 0 003.52 3.52h66.7A3.53 3.53 0 0075.74 48a1.52 1.52 0 00-1.52-1.51v.02z" fill="#FFF"/><path d="M71.66 49.72a1 1 0 01-1 1H7.08a1 1 0 010-2h63.58a1 1 0 011 1z" fill="#546FBB"/><path d="M65.33 42H12.41A3.42 3.42 0 019 38.53V9.25a3.42 3.42 0 013.42-3.42h52.91a3.42 3.42 0 013.42 3.42v29.28A3.422 3.422 0 0165.33 42z" fill="#FFF"/><path d="M12.41 6.83A2.43 2.43 0 0010 9.25v29.28A2.423 2.423 0 0012.41 41h52.92a2.42 2.42 0 002.42-2.42V9.25a2.42 2.42 0 00-2.42-2.42H12.41zM65.33 43H12.41A4.42 4.42 0 018 38.53V9.25a4.42 4.42 0 014.42-4.42h52.91a4.42 4.42 0 014.42 4.42v29.28A4.421 4.421 0 0165.33 43z" fill="#546FBB"/><path d="M41.38 4.6h-5a1 1 0 010-2h5a1 1 0 010 2z" fill="#8099E5"/><path d="M62.56 17h-22.4a1 1 0 010-2h22.4a1 1 0 010 2zm0 8.65h-22.4a1 1 0 010-2h22.4a1 1 0 010 2zm0 8.23h-22.4a1 1 0 010-2h22.4a1 1 0 010 2z" fill="#546FBB"/><path fill="#C2CFE0" d="M31.87 32.88H17.75V15.83h14.12v17.05z"/><path d="M18.75 31.88h12.12v-15H18.75v15zm13.12 2H17.75a1 1 0 01-1-1V15.83a1 1 0 011-1h14.12a1 1 0 011 1v17.05a1 1 0 01-1 1z" fill="#546FBB"/></g></svg>