<svg width="86" height="71" xmlns="http://www.w3.org/2000/svg"><g fill="none"><path d="M9.44 32.79a.07.07 0 010-.05.05.05 0 010 .05c.006.09.006.18 0 .27v-.27zm34.68-9.29a3 3 0 01-1-2.69 2.84 2.84 0 011.39-2.29 1 1 0 01.89 1.79 1.21 1.21 0 00-.3.8 1 1 0 00.24.84 1 1 0 11-1.26 1.55h.04z" fill="#FFF"/><path d="M54.45 13.74a10.16 10.16 0 00-6.7 2.35 110 110 0 00-12.35-3.36c-3.54-.56-9.4-2.13-9.46-2.15a1.004 1.004 0 00-.52 1.94c.24.06 6 1.61 9.67 2.18a127.16 127.16 0 0115.15 4.35 4.7 4.7 0 01.5.29.28.28 0 01.09.07 2.88 2.88 0 01.79 1.85 2.66 2.66 0 01-1.09 2.53 32 32 0 01-5.69 1.31l-1.22.21c-8.38 1.44-21.82 3.15-26.24 2.86A25.07 25.07 0 0110.46 27V6.66C13 5.78 22.52 2.67 27.11 3c5.63.43 25 7.94 26.65 9.29.308.458.579.94.81 1.44l-.12.01zm.68 0c-.13-.82-1-2.46-1.92-2.75-1.48-.46-17.13-6.95-18.66-7.25-2.64-.52-8.29-1.54-9.29-1.55-3.11 0-13.32 3.4-14.31 3.54a.68.68 0 01-.49-.09c-.27-.16-.37-.53-.43-1-.1-.83 0-1.9-.57-2.27C8.2 1.54 1 1.45 1 2.42v1c.19 5.88 0 23.91 0 28.37v1c-.27.71 3.21.26 5.79 0a7.78 7.78 0 012.64-.05c-.11-.82-.38-3-.47-4.27v-1l.45.13c.34.11.67.2 1 .29 8 2.06 14.46 0 14 1-.16.34 15.71-2.32 17.43-2.51h.24c.71-.08 1.43-.17 2.13-.29 0-.2.38-.39 1-.58 1.69-.48 4.88-.91 5.28-1.31 1.72-1.75 2.7-3.85 1.13-5.33l-.07-.06-.39-.3a5.37 5.37 0 00-1.4-.68 9.37 9.37 0 00-1.15-.33.28.28 0 01-.18-.17c-.07-.19.12-.47.49-.79l.29-.24.17-.12a10.64 10.64 0 015.39-1.9H55c.15 0 .19-.17.14-.46l-.01-.08z" fill="#FFF"/><path d="M43.16 20.81a2.84 2.84 0 011.39-2.29 1 1 0 01.89 1.79 1.21 1.21 0 00-.3.8 1 1 0 00.24.84 1 1 0 11-1.26 1.55 3 3 0 01-1-2.69h.04zM25.94 10.58s5.92 1.59 9.46 2.15a110 110 0 0112.35 3.36 10.16 10.16 0 016.7-2.35h.12a10.36 10.36 0 00-.81-1.44C52.16 11 32.74 3.45 27.11 3 22.52 2.67 13 5.78 10.46 6.66V27a25.07 25.07 0 006.91 1.2c4.42.29 17.86-1.42 26.24-2.86l1.22-.21a32 32 0 005.69-1.31 2.66 2.66 0 001.09-2.53 2.88 2.88 0 00-.79-1.85.28.28 0 00-.09-.07 4.7 4.7 0 00-.5-.29 127.16 127.16 0 00-15.14-4.38c-3.65-.57-9.43-2.12-9.67-2.18a1.004 1.004 0 01.52-1.94z" fill="#FFF"/><path d="M45.5 26.13a1.16 1.16 0 01-.15.51 1.11 1.11 0 01-.46.42l-.24.13-.15.08a8.28 8.28 0 00-1.92 1.55 8.07 8.07 0 00-1.85 6.9 5.18 5.18 0 001.42 2.53c.127.14.264.27.41.39.27.225.412.57.38.92a.73.73 0 01-.09.35 1.58 1.58 0 01-.15.24.89.89 0 01-.34.27l-.15-.06-.19.11-.08.06h-.07a1 1 0 01-.68-.25c-.12-.1-.23-.19-.33-.29a8 8 0 01-.7-.74l.6-.36-1.16-1.39H39c-.13-.32-.25-.66-.35-1a8.49 8.49 0 01-.22-1 10.48 10.48 0 012.13-7.63c.1-.14.21-.28.32-.41a8 8 0 011.19-1.13 9.9 9.9 0 011.51-1l1.22-.21.18.1a1.1 1.1 0 01.37.43 1.1 1.1 0 01.11.5l.04-.02z" fill="#546FBB"/><path d="M40.74 38.91l-.6.36-5.07 3a1 1 0 00-.42.51l-.24.65a2.41 2.41 0 00-3.34 0L26 48.28a2.42 2.42 0 00-.09 3.43l1.7 1.79a2.41 2.41 0 003 .41l-1.76 4.81a1 1 0 00-.06.34l-6.37.46-4.17-5.18 2-6.64 12.6-10.2h6.75l1.14 1.41z" fill="#FFF"/><path d="M22.4 59.52l-4.17-5.18 2-6.64 12.62-10.2h6.75l1.14 1.41-.6.36-5.07 3a1 1 0 00-.42.51l-.24.65a2.41 2.41 0 00-3.34 0L26 48.28a2.42 2.42 0 00-.09 3.43l1.7 1.79a2.41 2.41 0 003 .41l-1.76 4.81a1 1 0 00-.06.34l-6.37.46h-.02zm20.43-19.6l-.43-.54-.79-1-1.53-1.88H32.5L19.32 47.12l-2.2 7.44 4.83 6L29 60h.7l.27-.21.88-.7.66-1.8L33.8 51l2.2-5.91.45-1.24 5.5-3.3.08-.06.19-.11.15.06 1.28.46-.79-1-.03.02zm1.73 2.14l-.24 1-.76 3.3-.56 1 .14.86L43 49l-.08.36-.52.42-.9.72-4.33 3.5.59-1.77.72-2.13a2.4 2.4 0 012.65-1.62L41 47.36a1 1 0 01.13-.66l2.27-3.93.73-1.27.46.57-.03-.01z" fill="#FFF"/><path d="M42.11 48.22l-.11.47.19.07-.08-.54zm0 0l-.11.47.19.07-.08-.54zm0 0l-.11.47.19.07-.08-.54zm3.31-6.67a.83.83 0 00-.08-.12l-.68-.84-.44-.59L43 38.53l-2.14-2.66a.67.67 0 00-.15-.14 1 1 0 00-.63-.23H32.5a1 1 0 00-.63.22L18.69 46.34a1.1 1.1 0 00-.33.49l-2.2 7.45a1 1 0 00.18.91l4.84 6a1 1 0 00.77.38H22l7.25-.57h.52a1.05 1.05 0 00.46-.16l.09-.06.77-.62-.27-1 .66-1.8L30 58.48l-.67.54h-.54l-6.37.46-4.17-5.18 2-6.64 12.6-10.16h6.75l1.14 1.41.62.78.64.79.19-.11.15.06 1.28.46.68.25-.2.35-.73 1.27-.76 3.31-.49 2.13-.11.47v.12l-.7.56-3.55 2.85-.59 1.8-.59 1.76 5.05-4.07.9-.73.9-.72-.17-1.09-.13-.85-.13-.9.56-1 1.7-3 .27-1.19a1 1 0 00-.11-.73v.07zm-3.31 6.67l-.11.47.19.07-.08-.54zm0 0l-.11.47.19.07-.08-.54z" fill="#546FBB"/><path d="M36 45.09L33.8 51l-1.63 1.54L31 53.59a2.18 2.18 0 01-.43.32 2.41 2.41 0 01-3-.41l-1.7-1.79a2.42 2.42 0 01.13-3.43l5.08-4.82a2.41 2.41 0 013.34 0l.08.07.69.73.77.81.04.02z" fill="#B60015"/><path d="M51.06 48.7l-1.46-4.47-.82-2.51-.3-.11.13 2.8.16 3.65a1 1 0 00.25.62l.37.42a2.79 2.79 0 00-1.48 2.9l.29 1.88.32 2 2-5.52.39-1.07.18-.48v-.16l-.03.05zM38.8 68.1l-6.24-2.29-1.47-5.66-.27-1 .66-1.8L33.8 51l2.2-5.91.45-1.24 5.5-3.3.08-.06.19-.11.15.06 1.28.46.68.25-.2.35-.73 1.27-2.31 3.93a1 1 0 00-.13.66l.17 1.09a2.4 2.4 0 00-2.65 1.62l-.72 2.13-.59 1.8-.59 1.76-.33 1a2.42 2.42 0 001.53 3.07l2.34.78a2.42 2.42 0 002.75-.9l.68 4.42a.94.94 0 00.24.5l-5 3.52.01-.05zm7-27.47l-1-.37-.58-.26-1.3-.47-.52-.19-.32-.12-.72.43-.52.32-5.25 3.16-.41 1.11-3 8.21-2.19 6-.21.58.19.71.27 1 1.49 5.74L39 69.22l5.53-3.9.81-.57.38-1-.2-.22-.27-1.53-1-6.21-.86-5.53-.17-1.09-.13-.85-.09-.92.56-1 1.7-3 .94-1.63.17-.29 1.37-.21-1.93-.71-.01.07z" fill="#FFF"/><path d="M41.09 46.7a1 1 0 00-.13.66l.17 1.09a2.4 2.4 0 00-2.65 1.62l-.72 2.13-.59 1.8-.59 1.76-.33 1a2.42 2.42 0 001.53 3.07l2.34.78a2.42 2.42 0 002.75-.9l.68 4.42a.94.94 0 00.24.5l-5 3.52-6.24-2.29-1.47-5.66-.27-1 .66-1.8L33.8 51l2.2-5.91.45-1.24 5.5-3.3.08-.06.19-.11.15.06 1.28.46.68.25-.2.35-.73 1.27-2.31 3.93z" fill="#FFF"/><path d="M49.79 48l.26.8h.41l-.67-.8zm1.84.57l-.88-1-.16-3.57-.86-2.64a.9.9 0 00-.2-.34l-.08-.02a.83.83 0 00-.32-.2l-.7-.26-.57-.21-1.94-.71L43 38.53l-.57-.21a.801.801 0 00-.3-.06 1.06 1.06 0 00-.52.13l-.83.5-.6.36-5.07 3a1 1 0 00-.42.51l-.24.65-3.86 10.5-1.76 4.81a1 1 0 000 .59L29 60l.26 1 1.5 5.79a1 1 0 00.63.69l7.23 2.65a1 1 0 00.92-.12l5.65-4 .69-.49.13-.1a1 1 0 00.23-.37l.22-.6-.77-.81-.2-.22-.24-1.42-.71 1.94-.08.21-.67.47-5 3.52-6.24-2.29-1.47-5.66-.27-1 .66-1.8L33.8 51l2.2-5.91.45-1.24 5.5-3.3.08-.06.19-.11.15.06 1.28.46.68.25 1 .35.15.06.78.29.17-.29 1.37-.21.72-.11v.38l.13 2.8L49.77 48v.07l.26.8-.25.68-1.58 4.34.32 2 .32 2 2.46-6.7.39-1.07.36-1a.24.24 0 000-.08l-.44-.51.02.04z" fill="#546FBB"/><path d="M44.29 55.74l-.7 2.07-.4 1.2a2.42 2.42 0 01-3.07 1.53l-2.34-.78a2.42 2.42 0 01-1.53-3.07l.33-1 .59-1.69.59-1.77.72-2.13a2.4 2.4 0 012.65-1.62c.139.02.276.05.41.09l.46.15.19.07.81.21.31.1.17 1.09.86 5.53-.05.02z" fill="#E6C848"/><path d="M59.43 52l-1.21-1.27-.93-1a2.43 2.43 0 01.09-3.43l.14-.13.88-.84 1 6.65.03.02zm-2.61 15.47l-6.58 1-3.79-4-.77-.81-.2-.22-.23-1.44-1-6.21-.86-5.53-.17-1.09-.13-.85-.09-.92.56-1 1.7-3 .94-1.63.17-.29 1.37-.21.72-.11v.38l.13 2.8.16 3.65a1 1 0 00.25.62l.37.42A2.79 2.79 0 0047.91 52l.29 1.88.32 2 .32 2v.26a2.77 2.77 0 003.17 2.32l1.74-.27a2.78 2.78 0 002.31-3.18l-.06-.39 3.75 4.26.06.36-3 6.23h.01zm3.91-7l-.28-1.82-1.23-1.4L55.46 53l-3.39-3.84-.44-.51-.88-1-.16-3.65-.14-3.12 1.32-1.17-1.83.29-1.49.23-.59.09-2 .32h-.06l-.44.76-.05.09-.94 1.62-1.77 2.97-.6 1.12.16 1 .08.54.16 1 .18 1.13 1.06 6.89.95 6.07.76.8.7.74 3.88 4.1 7.61-1.18 3.26-6.71.13-.27-.15-1-.05.16z" fill="#FFF"/><path d="M59.84 61.24l-3 6.23-6.58 1-3.79-4-.77-.81-.2-.22-.25-1.44-1-6.21-.86-5.53-.17-1.09-.13-.85-.09-.92.56-1 1.7-3 .94-1.63.17-.29 1.37-.21.72-.11v.38l.13 2.8.16 3.65a1 1 0 00.25.62l.37.42A2.79 2.79 0 0047.91 52l.29 1.88.32 2 .32 2v.26a2.77 2.77 0 003.17 2.32l1.74-.27a2.78 2.78 0 002.31-3.18l-.06-.39 3.75 4.26.06.36h.03z" fill="#FFF"/><path d="M54 39.3a1 1 0 00.94 1.33.93.93 0 00.4-.09L54 39.3zm5.29 5.25a.87.87 0 00-.11.09l-.77.73-.88.84.7 4.54 1.2 1.25 1.21 1.28-1.36-8.75.01.02zm2.54 16.36l-.17-1-.08-.56a.74.74 0 00-.22.33l-.9-1-1.23-1.4.27 1.72.28 1.84.06.36-3 6.23-6.58 1-3.79-4-.77-.81-.2-.22-.25-1.4-1-6.21-.86-5.53-.17-1.09-.13-.85-.09-.92.56-1 1.7-3 .94-1.63.17-.29 1.37-.21.72-.11 1-.16h.07l.92-.14 1.32-1.17L53 38.58a.86.86 0 00-.39 0l-1.32.2-1.83.29-3.58.55h-.32a1 1 0 00-.72.49l-.07.12-.18.3-.33.58-.2.35-.73 1.27-2.24 3.97a1 1 0 00-.13.66l.17 1.09.14.92.18 1.15.18 1.14 1.24 8 .68 4.42a.94.94 0 00.24.5l.67.71.7.73 4 4.19a1 1 0 00.73.32h.15l7.61-1.17a1 1 0 00.75-.56l3.35-6.89v-.09a1 1 0 00.09-.59v-.33l-.01.01z" fill="#546FBB"/><path d="M53.79 60.27l-1.74.27a2.77 2.77 0 01-3.17-2.32v-.26l-.32-2-.32-2-.33-1.96A2.75 2.75 0 0150 48.87h.41l.61-.09.57-.09.44.51 3.43 3.8.28 1.82.26 1.8.07.47a2.78 2.78 0 01-2.31 3.18h.03z" fill="#4D7BCA"/><path d="M82.33 21.17H65.71v-3.32l-3.19 1.84a9.32 9.32 0 00-14.44-2.57 13.42 13.42 0 013.55 1.65c.36.31.91.61 1.08.95a4.39 4.39 0 01-.79 4.28 5.7 5.7 0 01-3.26 1.57c-1.13.27-2.28.49-3.43.66a9.32 9.32 0 0017.31 2.17l3.17 1.83v-3.29h16.62a2.41 2.41 0 002.42-2.41v-.94a2.42 2.42 0 00-2.42-2.42z" fill="#C2CFE0"/><path d="M83.75 24.52a1.41 1.41 0 01-1.42 1.42H65.71a1 1 0 00-1 1v1.56l-1.67-1a1 1 0 00-.78-.1 1 1 0 00-.61.5 8.3 8.3 0 01-6.34 4.38 6.9 6.9 0 01-1 .07A8.26 8.26 0 0146.5 27c.8-.14 1.58-.3 2.32-.47h.06a6.67 6.67 0 003.8-1.9 5.38 5.38 0 00.93-5.32 3.08 3.08 0 00-1-1l-.33-.31h-.05a5.22 5.22 0 00-1.12-.72h-.05a8.75 8.75 0 00-.83-.37 8.3 8.3 0 0111.45 3.33 1 1 0 00.61.49c.262.071.541.039.78-.09l1.69-1v1.6a1 1 0 001 1h16.57c.784 0 1.42.636 1.42 1.42v.93-.07zm-1.42-4.35H66.71v-2.33a1 1 0 00-1.5-.86l-2.34 1.35a10.32 10.32 0 00-7.74-4.56h-.68a10.16 10.16 0 00-6.7 2.35c-.12.09-.23.19-.34.29a1 1 0 00-.32.91 1 1 0 00.6.75c.26.12.58.23.93.35.552.19 1.093.41 1.62.66a4.7 4.7 0 01.5.29.28.28 0 01.09.07l.14.11c.14.12.3.23.46.35l.38.29a3.41 3.41 0 01-.66 3.15 4.84 4.84 0 01-2.65 1.22h-.08c-1.06.25-2.19.46-3.36.64a1 1 0 00-.79.84.92.92 0 000 .37c.07.28.14.56.23.82a.43.43 0 000 .05 10.26 10.26 0 0011.13 7.01 9.5 9.5 0 002-.46 10.27 10.27 0 005.29-4.08l2.32 1.34a1 1 0 001.5-.87v-2.28h15.59a3.42 3.42 0 003.42-3.42v-.93a3.42 3.42 0 00-3.42-3.42z" fill="#546FBB"/><path d="M51.52 25.53a28.75 28.75 0 01-6.05 1.52l-.82.14h-.17c-1.21.21-2.51.42-3.88.64-7.88 1.22-17.8 2.34-22.24 2.34h-1.12a32.83 32.83 0 01-6.77-1.08 8.75 8.75 0 01-1-.38c-.18-.08-.35-.17-.5-.25H9a1 1 0 011.02-1.72c.158.09.322.17.49.24a25.07 25.07 0 006.91 1.2c4.42.29 17.86-1.42 26.24-2.86l1.22-.21a32 32 0 005.69-1.31 2.66 2.66 0 001.09-2.53 2.88 2.88 0 00-.79-1.85.28.28 0 00-.09-.07 1.45 1.45 0 00-.44-.27h-.06a127.16 127.16 0 00-15.19-4.38c-3.65-.57-9.43-2.12-9.67-2.18a1.004 1.004 0 01.52-1.94s5.92 1.59 9.46 2.15a110 110 0 0112.35 3.36l1.15.37h.05c.87.29 1.59.54 2.06.72h.05a3.58 3.58 0 011.12.72 4.81 4.81 0 011.38 3.13 4.55 4.55 0 01-2.09 4.42l.05.08z" fill="#546FBB"/><path d="M45 19.42a2.24 2.24 0 00-.24 3.31l.24-3.31z" fill="#FFF"/><path d="M45.44 20.31a1.21 1.21 0 00-.3.8 1 1 0 00.24.84 1 1 0 11-1.26 1.55 3 3 0 01-1-2.69 2.84 2.84 0 011.39-2.29 1 1 0 01.89 1.79h.04z" fill="#546FBB"/><path d="M63.65 60.34l-.87.52a1 1 0 01-.51.14h-.39a1 1 0 01-.47-1.27.74.74 0 01.22-.33l.08.56 2 .49-.06-.11z" fill="#DC9C42"/><path d="M67.33 53.24l-1.79 1.7a2.43 2.43 0 01-3.43-.09l-1.47-1.55-1.21-1.3-1.21-1.27-.93-1a2.43 2.43 0 01.09-3.43l.14-.13.88-.84.77-.73a.87.87 0 01.11-.09 2.42 2.42 0 013.32.18l4.82 5.08a2.43 2.43 0 01-.09 3.43v.04z" fill="#FFF"/><path d="M68.24 61.47l-4.59-1.13-2-.49-.08-.56a.74.74 0 00-.22.33l-.9-1-1.23-1.4L55.46 53l-3.39-3.84-.44-.51-.88-1-.16-3.65-.14-3.12 1.32-1.17L53 38.58l2-1.79h.1a10.82 10.82 0 01-1.09 2.29.72.72 0 00-.09.2 1 1 0 00.94 1.33.93.93 0 00.4-.09.92.92 0 00.45-.38 12.88 12.88 0 001.38-3l4.51.83L73 49.78l.26 7.22-5 4.44-.02.03zM74 49.36L62.16 37.08l-4.75-.88-2-.36-.66-.12-3.45 3L49.94 40l-.51.45v.63l.14 3.16.2 3.76.66.75.48.55.76.85 4.05 4.59L59.5 59l1.23 1.39.24.27.85.21h.27l6.41 1.59 5.78-5.1-.28-8z" fill="#FFF"/><path d="M63.65 60.34l-2-.49h-.14l-.16-.19-.9-1-1.23-1.4L55.46 53l-3.39-3.84-.44-.51-.88-1-.16-3.65-.14-3.12 1.32-1.17L53 38.58l2-1.79h.1l2 .36 4.51.83L73 49.78l.26 7.22-5 4.44-4.59-1.13-.02.03zM75 49.32a1 1 0 00-.28-.65L62.89 36.38a1.06 1.06 0 00-.54-.29l-4.79-.87-2-.36-.56-.12a1 1 0 00-.85.23l-4.65 4.08-.73.64a1 1 0 00-.32.53.82.82 0 000 .27v1.09l.13 2.8.16 3.65a1 1 0 00.25.62l.37.42.4.45.75.86.76.85L56 56.62l3.75 4.26.44.49a.92.92 0 00.51.3l1 .25 6.52 1.62a1.1 1.1 0 00.91-.23l5.77-5.09a1 1 0 00.34-.79L75 49.32z" fill="#546FBB"/><path d="M67.33 53.24l-1.79 1.7a2.43 2.43 0 01-3.43-.09l-1.47-1.55-1.21-1.3-1.21-1.27-.93-1a2.43 2.43 0 01.09-3.43l.14-.13.88-.84.77-.73a.87.87 0 01.11-.09 2.42 2.42 0 013.32.18l4.82 5.08a2.43 2.43 0 01-.09 3.43v.04zM73 49.78L61.67 38l-4.51-.83a12.88 12.88 0 01-1.38 3 .92.92 0 01-.45.38.93.93 0 01-.4.09A1 1 0 0154 39.3a.72.72 0 01.09-.2 10.82 10.82 0 001.09-2.29h-.1l-2 1.79-1.27 1.13-1.32 1.17.1 3.1.16 3.58.88 1 .44.51L55.46 53l3.76 4.25 1.23 1.4.9 1a.74.74 0 01.22-.33l.08.56 2 .49 4.59 1.13 5-4.44-.24-7.28z" fill="#FFF"/><path d="M56.68 15.06a1.07 1.07 0 01-.39.26 1 1 0 01-1.26-.55 5.32 5.32 0 00-.21-.51l-.23-.47a10.36 10.36 0 00-.81-1.44C52.16 11 32.74 3.45 27.11 3 22.52 2.67 13 5.78 10.46 6.66l-.66.23a1 1 0 01-.34.11 1 1 0 01-1-1 1 1 0 01.66-1l.34-.12.57-.2.43-.14C13.82 3.42 22.57.67 27.26 1c5.25.4 26.8 8.14 28.12 10.1a14.88 14.88 0 011.5 2.9 1 1 0 01-.21 1l.01.06zm.88 20.16c-.03.336-.08.67-.15 1a9.23 9.23 0 01-.25 1 12.88 12.88 0 01-1.38 3 .92.92 0 01-.45.38.932.932 0 01-.4.09 1 1 0 01-.52-.15A1 1 0 0154 39.3a.72.72 0 01.09-.2 10.82 10.82 0 001.09-2.29c.12-.325.21-.66.27-1a6.89 6.89 0 00.16-1v-.57a6.41 6.41 0 00-.07-1 5.5 5.5 0 00-.24-1 1 1 0 00-.05-.16 5.58 5.58 0 00-3.56-3.42 1 1 0 11.62-1.9 7.59 7.59 0 014.82 4.64c0 .12.08.24.11.36.11.325.19.66.24 1 .06.33.097.664.11 1 .05.462.05.928 0 1.39l-.03.07z" fill="#546FBB"/><path d="M67.33 53.24l-1.79 1.7a2.43 2.43 0 01-3.43-.09l-1.47-1.55-1.21-1.3-1.21-1.27-.93-1a2.43 2.43 0 01.09-3.43l.14-.13.88-.84.77-.73a.87.87 0 01.11-.09 2.42 2.42 0 013.32.18l4.82 5.08a2.43 2.43 0 01-.09 3.43v.04z" fill="#4F497A"/><path fill="#FFF" d="M1 2.42h8.46v30.37H1V2.42z"/><path d="M10.46 2.42v30.37a1 1 0 01-1 1H1a1 1 0 010-2h7.46V3.42H1a1 1 0 110-2h8.46a1 1 0 011 1z" fill="#546FBB"/></g></svg>