<svg width="61" height="70" xmlns="http://www.w3.org/2000/svg"><g fill="none"><path d="M35.37 6.16h-8.75A2.59 2.59 0 0124 3.58 2.59 2.59 0 0126.62 1h8.75A2.59 2.59 0 0138 3.58a2.59 2.59 0 01-2.59 2.58h-.04z" fill="#FFF"/><path d="M26.62 2a1.58 1.58 0 000 3.16h8.75a1.58 1.58 0 000-3.16h-8.75zm8.75 5.16h-8.75a3.58 3.58 0 010-7.16h8.75a3.58 3.58 0 010 7.16z" fill="#546FBB"/><path d="M27.43 6.16v5a1.06 1.06 0 01-.05.31c-.59.07-1.17.16-1.75.28a.94.94 0 01-.2-.59v-5a1.01 1.01 0 112 0zm9.14 0v5a.94.94 0 01-.2.59c-.58-.12-1.16-.21-1.75-.28a1.06 1.06 0 010-.31v-5a1.01 1.01 0 112 0h-.05z" fill="#546FBB"/><path d="M12.87 17.91c-.26.21-.51.43-.76.66a26.31 26.31 0 00-2.21 2.27c-.22.25-.43.5-.64.76l-.75-.69-.73-.66-2.14-2a2.58 2.58 0 113.49-3.8l2.26 2.07.72.67.76.69v.03zm2.87 2.66c-.26.21-.51.43-.76.65a22.35 22.35 0 00-2.21 2.25c-.22.25-.44.51-.64.77l-.71-.65-.73-.67c.2-.26.42-.51.65-.76a23.65 23.65 0 012.21-2.27c.25-.22.5-.45.76-.66l.72.67.59.54c.058.052.112.109.16.17l-.04-.04z" fill="#FFF"/><path d="M12.76 23.46l-.76-.68-.72-.66c-.23.25-.45.5-.65.76s-.41.52-.61.79l.73.67.64.59.12.1c.19-.27.39-.53.6-.79.21-.26.42-.52.64-.77l.01-.01zm3.5-3.8l-.46-.43-.74-.67c-.27.2-.53.41-.79.63-.26.22-.51.44-.76.66l.73.67.66.61.08.09c.25-.22.5-.44.76-.65l.79-.63a2.37 2.37 0 00-.27-.28zm-3.37-3.09l-.73-.67-2.35-2.16a3.58 3.58 0 00-6 2.79c.05.95.479 1.84 1.19 2.47l2.19 2 .73.67.75.69c.2-.27.41-.53.62-.79.21-.26.42-.51.64-.76l-.74-.69-.73-.67-2.14-1.91a1.58 1.58 0 01-.1-2.23 1.59 1.59 0 011.17-.51 1.63 1.63 0 011.07.41l2.18 2 .72.66.75.69c.25-.23.5-.45.76-.66a9.46 9.46 0 01.78-.64l-.76-.7v.01z" fill="#546FBB"/><path d="M31 67.22A28 28 0 018.64 22.39c.2-.27.41-.53.62-.79.21-.26.42-.51.64-.76a26.31 26.31 0 012.21-2.27c.25-.23.5-.45.76-.66a9.46 9.46 0 01.78-.64 27.82 27.82 0 0112-5.53c.58-.12 1.16-.21 1.75-.28a27.42 27.42 0 017.24 0c.59.07 1.17.16 1.75.28 14.155 2.767 23.892 15.833 22.498 30.188C57.493 56.282 45.422 67.23 31 67.22zm5.57-56.46a29.08 29.08 0 00-11.14 0 28.72 28.72 0 00-12.54 5.81c-.26.21-.52.42-.78.65-.26.23-.51.43-.75.66a27.66 27.66 0 00-2.2 2.27c-.23.25-.45.5-.65.76s-.42.52-.62.79a29 29 0 1028.68-10.94z" fill="#FFF"/><path d="M32 63.3v-4.77a1 1 0 00-2 0v4.77C17.477 62.771 7.444 52.743 6.91 40.22h4.74a1 1 0 000-2H6.91A23.93 23.93 0 0111.53 25a23.732 23.732 0 011.24-1.56A22.35 22.35 0 0115 21.22c.25-.22.5-.44.76-.65l.79-.63A24 24 0 0130 15.13v4.76a1 1 0 001 1V33a6.23 6.23 0 016.16 5.25h-3.07a3.25 3.25 0 100 2h11.55a1 1 0 001-1h2.71a1 1 0 001 1h4.74C54.54 52.76 44.512 62.772 32 63.3zm-1-50.19a25.92 25.92 0 00-15.94 5.45c-.27.2-.53.41-.79.63-.26.22-.51.44-.76.66a23.65 23.65 0 00-2.21 2.27c-.23.25-.45.5-.65.76s-.41.52-.61.79c-7.2 9.715-6.784 23.102 1.005 32.351 7.788 9.25 20.91 11.938 31.708 6.498C53.55 57.079 59.199 44.933 56.4 33.17 53.603 21.407 43.091 13.106 31 13.11z" fill="#FFF"/><path d="M34.57 11.15v-.71a29.08 29.08 0 00-7.14 0v.71a1.06 1.06 0 01-.05.31 27.42 27.42 0 017.24 0 1.06 1.06 0 010-.31h-.05zM31 67.22A28 28 0 018.64 22.39c.2-.27.41-.53.62-.79.21-.26.42-.51.64-.76a26.31 26.31 0 012.21-2.27c.25-.23.5-.45.76-.66a9.46 9.46 0 01.78-.64 27.82 27.82 0 0112-5.53c.58-.12 1.16-.21 1.75-.28a27.42 27.42 0 017.24 0c.59.07 1.17.16 1.75.28 14.155 2.767 23.892 15.833 22.498 30.188C57.493 56.282 45.422 67.23 31 67.22zm5.57-57.47c-.66-.13-1.32-.24-2-.31a29.08 29.08 0 00-7.14 0c-.68.07-1.34.18-2 .31a29.81 29.81 0 00-13.27 6.15c-.26.21-.52.42-.77.65-.25.23-.51.44-.75.67a27.75 27.75 0 00-2.86 3.03l-.62.75A30 30 0 1036.57 9.75z" fill="#546FBB"/><path d="M31 65.32a26.09 26.09 0 01-20.39-42.44c.21-.26.42-.51.65-.76a23.65 23.65 0 012.21-2.27c.25-.22.5-.45.76-.66.26-.21.52-.43.79-.63A26.1 26.1 0 1131 65.32zm5.37-53.58c-.58-.12-1.16-.21-1.75-.28a27.42 27.42 0 00-7.24 0c-.59.07-1.17.16-1.75.28a27.82 27.82 0 00-12 5.53 9.46 9.46 0 00-.78.64c-.26.21-.51.43-.76.66a26.31 26.31 0 00-2.19 2.27c-.22.25-.43.5-.64.76-.21.26-.42.52-.62.79a28 28 0 1027.73-10.65z" fill="#FFF"/><path d="M32 63.3v-4.77a1 1 0 00-2 0v4.77C17.477 62.771 7.444 52.743 6.91 40.22h4.74a1 1 0 000-2H6.91A23.93 23.93 0 0111.53 25a23.732 23.732 0 011.24-1.56A22.35 22.35 0 0115 21.22c.25-.22.5-.44.76-.65l.79-.63A24 24 0 0130 15.13v4.76a1 1 0 001 1V33a6.23 6.23 0 016.16 5.25h-3.07a3.25 3.25 0 100 2h11.55a1 1 0 001-1h2.71a1 1 0 001 1h4.74C54.54 52.76 44.512 62.772 32 63.3zm24.09-24.84c-.392-13.28-11.07-23.95-24.35-24.33h-1.48a25 25 0 00-14.46 5.1c-.27.2-.54.42-.81.63-.27.21-.5.43-.75.66A23.68 23.68 0 0012 22.78c-.22.25-.44.51-.64.77s-.42.52-.61.79a25 25 0 00-4.84 14.12v1.52c.397 13.28 11.079 23.95 24.36 24.33h1.46C45.004 63.93 55.683 53.273 56.09 40v-1.54z" fill="#FFF"/><path d="M32 63.3h-2C17.477 62.771 7.444 52.743 6.91 40.22v-2A23.93 23.93 0 0111.53 25a23.732 23.732 0 011.24-1.56A22.35 22.35 0 0115 21.22c.25-.22.5-.44.76-.65l.79-.63A24 24 0 0130 15.13h2c12.524.534 22.556 10.566 23.09 23.09v2C54.556 52.743 44.523 62.771 32 63.3zm-1-50.19a25.92 25.92 0 00-15.94 5.45c-.27.2-.53.41-.79.63-.26.22-.51.44-.76.66a23.65 23.65 0 00-2.21 2.27c-.23.25-.45.5-.65.76s-.41.52-.61.79c-7.2 9.715-6.784 23.102 1.005 32.351 7.788 9.25 20.91 11.938 31.708 6.498C53.55 57.079 59.199 44.933 56.4 33.17 53.603 21.407 43.091 13.106 31 13.11z" fill="#546FBB"/><path d="M55.09 40.22C54.556 52.743 44.523 62.771 32 63.3v-4.77a1 1 0 00-2 0v4.77C17.477 62.771 7.444 52.743 6.91 40.22h4.74a1 1 0 000-2H6.91A23.93 23.93 0 0111.53 25a23.732 23.732 0 011.24-1.56A22.35 22.35 0 0115 21.22c.25-.22.5-.44.76-.65l.79-.63A24 24 0 0130 15.13v4.76a1 1 0 001 1V33a6.23 6.23 0 016.16 5.25h-3.07a3.25 3.25 0 100 2h11.55a1 1 0 001-1h2.71a1 1 0 001 1l4.74-.03z" fill="#FFF"/><path d="M51.89 38.22C51.381 27.453 42.767 18.839 32 18.33h-1V33a6.23 6.23 0 016.16 5.25c.06.33.09.665.09 1h14.67v-1l-.03-.03zm-18.64 1a2.25 2.25 0 11-.655-1.557c.422.424.658.999.655 1.597v-.04z" fill="#C2CFE0"/><path d="M29.75 39.22A1.25 1.25 0 1131 40.47a1.26 1.26 0 01-1.25-1.25zm4.34-1a3.21 3.21 0 10-6.1 2.002 3.21 3.21 0 006.1-2.002zM32 58.53v5.1a1 1 0 01-2 0v-5.1a1 1 0 012 0zm0-43.73v5.09a1 1 0 01-2 0V14.8a1 1 0 012 0z" fill="#546FBB"/><path d="M46.64 39.22a1 1 0 01-1 1H33.25a.78.78 0 01-.22 0 1 1 0 01-.78-1 1 1 0 01.79-1h12.6a1 1 0 011 1zm9.8 0a1 1 0 01-1 1h-5.09a1 1 0 010-2h5.09a1 1 0 011 1zm-43.79 0a1 1 0 01-1 1H6.56a1 1 0 01-.65-.22 1 1 0 01.65-1.76h5.09a1 1 0 011 1v-.02z" fill="#546FBB"/></g></svg>