<svg width="80" height="79" xmlns="http://www.w3.org/2000/svg"><g fill="none"><path d="M23 45.38a4.83 4.83 0 01-.32.45 4.52 4.52 0 01-1 .94V44a1 1 0 011 0 1 1 0 01.32 1.38zm36.08-25.12v22.06c-.347.246-.68.51-1 .79a55.39 55.39 0 00-6.14 7.18c-.24.33-.49.66-.75 1H29.57l-.75-1a55.39 55.39 0 00-6.14-7.18 12.24 12.24 0 00-1-.79V20.26l9.75-7.38 9-5.66 8.95 5.66.31.19 1.34 1 8.1 6.13-.05.06zm0 23.74v2.8a4.52 4.52 0 01-1-.94 4.83 4.83 0 01-.32-.45 1 1 0 01.31-1.41 1 1 0 011 0h.01z" fill="#C2CFE0"/><path d="M40.38 7.35L32 13.7l8.39-5.3 8.39 5.3-8.4-6.35zm0 0L32 13.7l8.39-5.3 8.39 5.3-8.4-6.35zM21.68 44a1 1 0 00-.37.34 3.46 3.46 0 01-.63.69v2.23a3.06 3.06 0 001-.47 4.52 4.52 0 001-.94V44a1 1 0 00-1 0zm37.4-23.72L51 14.13l-1.34-1-.31-.19L41 6.55a1 1 0 00-1.2 0l-8.35 6.33-9.75 7.38-1 .76v20.76c.353.14.689.322 1 .54.347.246.68.51 1 .79V19.59L32 13.7l8.39-5.3 8.39 5.3 9.31 5.89v23.52c.32-.28.653-.544 1-.79a4.94 4.94 0 011-.54V21l-1-.76-.01.04zm-30.26 30l.75 1 .57.75c.06.08.13.16.19.25h20.1c.06-.09.13-.17.19-.25l.57-.75c.26-.34.51-.67.75-1H28.82zm30.63-6a1 1 0 00-.37-.35 1 1 0 00-1 0v1.83c.284.362.62.68 1 .94.302.216.64.375 1 .47V45a3.46 3.46 0 01-.63-.69v-.03zm-19.07-37L32 13.7l8.39-5.3 8.39 5.3-8.4-6.35v-.07zm0 0L32 13.7l8.39-5.3 8.39 5.3-8.4-6.35v-.07zm0 0L32 13.7l8.39-5.3 8.39 5.3-8.4-6.35v-.07z" fill="#546FBB"/><path fill="#FFF" d="M46.48 51.29h-12.2V36.26h12.2v15.03z"/><path d="M35.28 50.29h10.2v-13h-10.2v13zm11.2 2h-12.2a1 1 0 01-1-1v-15a1 1 0 011-1h12.2a1 1 0 011 1v15a1 1 0 01-1 1zm8.94-49.62h-4.78a1 1 0 00-1 1v5.46l2 1.51v-6h2.78v7.46h-.82l2.4 1.84a1 1 0 00.42-.81V3.67a1 1 0 00-1-1zm-5.78 10.44a1 1 0 001 1H51l-1.34-1h-.02z" fill="#546FBB"/><path d="M46.48 26.23h-12.2v-5.36A5.92 5.92 0 0140.2 15h.36a5.92 5.92 0 015.92 5.92v5.36-.05z" fill="#FFF"/><path d="M35.28 25.23h10.2v-4.36A4.92 4.92 0 0040.56 16h-.36a4.92 4.92 0 00-4.92 4.92v4.36-.05zm11.2 2h-12.2a1 1 0 01-1-1v-5.36A6.92 6.92 0 0140.2 14h.36a6.92 6.92 0 016.92 6.92v5.36a1 1 0 01-1 1v-.05zm-6.1 24.41a1 1 0 01-1-1V36.26a1 1 0 012 0v14.38a1 1 0 01-1 1z" fill="#546FBB"/><path d="M40.38 27.23a1 1 0 01-1-1V15a1 1 0 012 0v11.23a1 1 0 01-1 1zm5.7 20.5H34.73a1 1 0 010-2h11.35a1 1 0 010 2z" fill="#546FBB"/><path d="M62.07 22.53l-2-1.51-1-.76L51 14.13l-1.34-1-.31-.19L41 6.55a1 1 0 00-1.2 0l-8.35 6.33-9.75 7.38-1 .76-2 1.51L16.77 20 40.38 2.11l9.26 7 2 1.51 2 1.49L56 13.94 64 20l-1.92 2.53h-.01zM56.42 13l-2-1.51-2.78-2.1-2-1.52L40.57 1h-.38L15.37 19.81l3.12 4.12 2.19-1.66 1-.76 1-.75L32 13.7l8.39-6.35 8.39 6.35 9.31 7.06 1 .75 1 .76 2.19 1.66 3.12-4.12-9-6.8.02-.01z" fill="#FFF"/><path d="M60.08 21l-1-.76L51 14.13l-1.34-1-.31-.23L41 6.55a1 1 0 00-1.2 0l-8.35 6.33-9.75 7.38-1 .76-2 1.51L16.77 20 40.38 2.11l9.26 7 2 1.51 2 1.49L56 13.94 64 20l-1.92 2.53-2-1.51V21zM66 19l-9.58-7.26-2-1.52-2.78-2.1-2-1.52L41.18.21a1 1 0 00-.61-.21h-.38a1 1 0 00-.61.21L14.77 19a.93.93 0 00-.39.66 1 1 0 00.19.74l3.13 4.12a1 1 0 001.4.19l1.58-1.2 1-.76 1-.75 17.7-13.4L58.08 22l1 .75 1 .76 1.58 1.2a1 1 0 001.4-.19l3.13-4.12A1 1 0 0066 19z" fill="#546FBB"/><path d="M64 20l-1.92 2.53-2-1.51-1-.76L51 14.13l-1.34-1-.31-.19L41 6.55a1 1 0 00-1.2 0l-8.35 6.33-9.75 7.38-1 .76-2 1.51L16.77 20 40.38 2.11l9.26 7 2 1.51 2 1.49L56 13.94 64 20zM15.65 43.18l-1.07-2.38c-1-4.29-2.35-9.86-2.59-10.67-.61-2.13-1.8-3.91-2.83-4.24a.76.76 0 00-.27-.05 32.65 32.65 0 012 6.8L8 26.23l-.41-.91a2 2 0 01.83-.42c1.82-.46 3.68 2 4.52 5 .27.92 1.93 7.86 3 12.23.42 1.76.73 3.1.82 3.46v.09l-1.11-2.46v-.04z" fill="#FFF"/><path d="M17 46.6h-.23a1 1 0 01-1-.77v-.14c-.15-.59-.6-2.54-1.16-4.88-1-4.29-2.35-9.86-2.59-10.67-.61-2.13-1.8-3.91-2.83-4.24a.76.76 0 00-.27-.05 1.08 1.08 0 00-.67.27.72.72 0 01-.21.12H8a1 1 0 01-1.17-.3 1 1 0 01.17-1.4 3.25 3.25 0 01.88-.54 2.85 2.85 0 011.89 0c2.05.66 3.49 3.32 4.14 5.59.26.88 1.71 7 2.75 11.32.11.46.21.91.31 1.32.42 1.75.72 3 .76 3.19A1 1 0 0117 46.6z" fill="#546FBB"/><path d="M23 45.38a4.83 4.83 0 01-.32.45 4.52 4.52 0 01-1 .94 3.06 3.06 0 01-1 .47 2.57 2.57 0 01-.62.08 2.42 2.42 0 01-.82-.15 1 1 0 11.67-1.88.87.87 0 00.77-.28c.24-.2.452-.433.63-.69a1 1 0 01.37-.34 1 1 0 011 0 1 1 0 01.32 1.4zm10.83 11.45c-1.24-1.57-2.4-3.1-3.5-4.54-.06-.09-.13-.17-.19-.25l-.57-.75-.75-1a55.39 55.39 0 00-6.14-7.18 12.24 12.24 0 00-1-.79 4.94 4.94 0 00-1-.54 2.12 2.12 0 00-2.22.16c-1.81 1.31-.4 5.12.6 7.27a43.68 43.68 0 003.43 5.89l.06.07 2.31 2.67a1 1 0 01-1.52 1.3l-2.29-2.66-.05-.07c-4.37-4.12-9.59-9.29-9.88-10.51-.32-1.38-.61-3.31-.94-5.53-.92-6.18-2.46-16.5-5.8-16.5 0 0-.15 0-.31.21-2.13 2.61-.79 17.73 1.76 30.22.23 1.13 2.78 5.19 17.31 19.7.21.2.69.68.78 3.84h13.64l.11-3.93a11.29 11.29 0 010-1.48c.15-3 .5-10-3.87-15.57l.03-.03z" fill="#FFF"/><path d="M22.69 44a1 1 0 01.31 1.38 4.83 4.83 0 01-.32.45 4.52 4.52 0 01-1 .94 3.06 3.06 0 01-1 .47 2.57 2.57 0 01-.62.08 2.42 2.42 0 01-.82-.15 1 1 0 11.67-1.88.87.87 0 00.77-.28c.24-.2.452-.433.63-.69a1 1 0 01.37-.34 1 1 0 011 0l.01.02z" fill="#FFF"/><path d="M38.67 73.84l-.11 4h-1l.11-3.93a11.29 11.29 0 010-1.48c.15-3 .5-10-3.87-15.57-1.24-1.57-2.4-3.1-3.5-4.54-.06-.09-.13-.17-.19-.25l-.57-.75-.75-1a55.39 55.39 0 00-6.14-7.18 12.24 12.24 0 00-1-.79 4.94 4.94 0 00-1-.54 2.12 2.12 0 00-2.22.16c-1.81 1.31-.4 5.12.6 7.27a43.68 43.68 0 003.43 5.89l.06.07 2.31 2.67a1 1 0 01-1.52 1.3l-2.29-2.66-.02-.1c-4.37-4.12-9.59-9.29-9.88-10.51-.32-1.38-.61-3.31-.94-5.53-.92-6.18-2.46-16.5-5.8-16.5 0 0-.15 0-.31.21-2.13 2.61-.79 17.73 1.76 30.22.23 1.13 2.78 5.19 17.31 19.7.21.2.69.68.78 3.84h-1s-.08-2.76-.48-3.17c-6.55-6.52-17-17.2-17.59-20.17C2.62 43.57 0 23 4.29 22.87A3.27 3.27 0 017 24.52a10 10 0 011 1.72c2.37 5.25 3.11 15.22 4.09 19.43.22 1 6.74 7.3 8.94 9.4l.71.68c-.05-.07-.25-.35-.56-.81A33.58 33.58 0 0117 46.61c-.1-.33-.18-.64-.25-1v-.09a5.31 5.31 0 01.25-3.3 2.79 2.79 0 01.91-1.09 2.93 2.93 0 012.8-.42c.35.11.686.26 1 .45a7 7 0 011 .67c2.12 1.64 4.53 4.71 7.39 8.46l.76 1c.25.33.51.66.76 1 1 1.26 2 2.57 3 3.92 5.59 7.11 3.86 16.28 4.06 17.63h-.01z" fill="#FFF"/><path d="M35.4 55.59a208.362 208.362 0 01-2.55-3.3c-.26-.34-.52-.67-.76-1l-.35-.46-.41-.54c-3.3-4.35-6.1-8-8.65-9.69a7 7 0 00-1-.58 4.75 4.75 0 00-1-.38 3.82 3.82 0 00-3.38.68 3.57 3.57 0 00-.64.58 3.5 3.5 0 00-.74 1.19 3.72 3.72 0 00-.27 1.08 7.41 7.41 0 00.09 2.5v.14a18.51 18.51 0 001.41 4.07 42.16 42.16 0 01-4.14-4.49c-.3-1.31-.58-3.19-.91-5.38-.36-2.4-.74-5-1.24-7.43a32.65 32.65 0 00-2-6.8c-.14-.33-.3-.64-.46-.94-.16-.3-.36-.62-.55-.89a4.28 4.28 0 00-3.51-2.14h-.1a2.35 2.35 0 00-1.82 1C-.87 27 2.35 47.25 3.87 54.7c.31 1.55 2.5 5.37 17.77 20.6a13 13 0 01.28 2.56 1 1 0 002 0c-.09-3.16-.57-3.64-.78-3.84C8.61 59.49 6.06 55.43 5.83 54.3 3.28 41.81 1.94 26.69 4 24.08c.16-.2.26-.21.31-.21 3.34 0 4.88 10.32 5.8 16.5.33 2.22.62 4.15.94 5.53.29 1.22 5.51 6.39 9.88 10.51l.07.07a1 1 0 001.34 0 1 1 0 00.15-1.34l-.06-.07A43.68 43.68 0 0119 49.18c-1-2.15-2.41-6-.6-7.27a2.12 2.12 0 012.22-.16c.353.14.689.322 1 .54.347.246.68.51 1 .79a55.39 55.39 0 016.14 7.18l.75 1 .57.75c.06.08.13.16.19.25 1.1 1.44 2.26 3 3.5 4.54 4.37 5.56 4 12.57 3.87 15.57a11.29 11.29 0 000 1.48l-.11 3.93a1 1 0 002 0l.11-4a1.21 1.21 0 000-.19v-1.18c.16-3.22.54-10.76-4.29-16.91l.05.09z" fill="#546FBB"/><path d="M17.19 49.94a42.16 42.16 0 01-4.14-4.49c-.3-1.31-.58-3.19-.91-5.38-.36-2.4-.74-5-1.24-7.43a32.65 32.65 0 00-2-6.8c.092 0 .184.017.27.05 1 .33 2.22 2.11 2.83 4.24.24.81 1.57 6.38 2.59 10.67.56 2.34 1 4.29 1.16 4.88a1.06 1.06 0 000 .14 18.51 18.51 0 001.41 4.07l.03.05z" fill="#FFF"/><path d="M24.75 59.25a1 1 0 01-1.41-.11l-2.29-2.66-.05-.07a1 1 0 010-1.34l.06-.07.09-.06a1 1 0 011.32.16l.06.07 2.31 2.67a1 1 0 01-.11 1.41h.02z" fill="#546FBB"/><path d="M22.16 44.85s-1.16 1.87-2.59 1.38l2.59-1.38z" fill="#FFF"/><path d="M23 45.38a4.83 4.83 0 01-.32.45 4.52 4.52 0 01-1 .94 3.06 3.06 0 01-1 .47 2.57 2.57 0 01-.62.08 2.42 2.42 0 01-.82-.15 1 1 0 11.67-1.88.87.87 0 00.77-.28c.24-.2.452-.433.63-.69a1 1 0 01.37-.34 1 1 0 011 0 1 1 0 01.32 1.4z" fill="#546FBB"/><path d="M71.89 25.84a31.39 31.39 0 00-2 6.75c-.51 2.45-.9 5-1.26 7.47-.32 2.19-.61 4.07-.88 5.29a37.82 37.82 0 01-4.17 4.57A18.3 18.3 0 0065 45.84a.19.19 0 000-.07.43.43 0 000-.11c.15-.62.6-2.53 1.14-4.81 1-4.29 2.37-9.91 2.61-10.72.61-2.13 1.8-3.91 2.83-4.24a.84.84 0 01.29-.05h.02z" fill="#FFF"/><path d="M73.16 25.32l-.41.91-2.87 6.36a31.39 31.39 0 012-6.75.84.84 0 00-.29.05c-1 .33-2.22 2.11-2.83 4.24-.24.81-1.58 6.43-2.61 10.72l-1 2.32L64 45.64v-.09c.09-.36.4-1.7.82-3.46 1-4.37 2.7-11.31 3-12.23.84-2.94 2.71-5.43 4.53-4.95a2 2 0 01.82.41h-.01z" fill="#FFF"/><path d="M74 25.94a1 1 0 01-1.18.3.72.72 0 01-.21-.12 1 1 0 00-.65-.27.84.84 0 00-.29.05c-1 .33-2.22 2.11-2.83 4.24-.24.81-1.58 6.43-2.61 10.72-.54 2.28-1 4.19-1.14 4.81a.43.43 0 010 .11.19.19 0 010 .07 1 1 0 01-1 .77h-.23a1 1 0 01-.72-1.2.29.29 0 010-.09c.09-.36.37-1.54.74-3.1.1-.41.2-.86.31-1.32 1-4.37 2.49-10.44 2.75-11.32.56-2.28 2-4.94 4.06-5.59a2.84 2.84 0 011.91 0c.306.124.593.293.85.5a1 1 0 01.17 1.4l.07.04z" fill="#546FBB"/><path d="M58.07 44a1 1 0 011 0 1 1 0 01.37.35c.178.257.39.49.63.69.171.167.393.272.63.3a.34.34 0 00.14 0 1 1 0 011.28.61 1 1 0 01-.61 1.27 2.42 2.42 0 01-.82.15 2.57 2.57 0 01-.62-.08 3.06 3.06 0 01-1-.47 4.52 4.52 0 01-1-.94 4.83 4.83 0 01-.32-.45 1 1 0 01.32-1.43zm18.68-19.92c-.16-.2-.26-.21-.31-.21-3.34 0-4.88 10.32-5.8 16.5-.33 2.22-.62 4.15-.94 5.53-.29 1.22-5.51 6.39-9.88 10.51l-2.34 2.71a1 1 0 11-1.52-1.3l2.31-2.67a42.63 42.63 0 003.47-5.94 17.27 17.27 0 001.26-3.8.29.29 0 010-.09c.26-1.41.17-2.71-.75-3.38a2.12 2.12 0 00-2.22-.16 4.94 4.94 0 00-1 .54c-.347.246-.68.51-1 .79a55.39 55.39 0 00-6.14 7.18c-.24.33-.49.66-.75 1l-.57.75c-.06.08-.13.16-.19.25-1.1 1.44-2.26 3-3.5 4.54-4.37 5.56-4 12.57-3.87 15.57.032.493.032.987 0 1.48l.11 3.93h13.72c.09-3.16.57-3.64.78-3.85C72.15 59.48 74.7 55.43 74.93 54.3c2.55-12.49 3.89-27.61 1.82-30.22z" fill="#FFF"/><path d="M58.08 45.83a4.83 4.83 0 01-.32-.45 1 1 0 01.31-1.38 1 1 0 011 0 1 1 0 01.37.35c.178.257.39.49.63.69.171.167.393.272.63.3a.34.34 0 00.14 0 1 1 0 011.28.61 1 1 0 01-.61 1.27 2.42 2.42 0 01-.82.15 2.57 2.57 0 01-.62-.08 3.06 3.06 0 01-1-.47 4.52 4.52 0 01-1-.94l.01-.05z" fill="#FFF"/><path d="M75.91 54.5c-.6 3-11 13.65-17.59 20.17-.4.41-.48 3.17-.48 3.17h-1c.09-3.16.57-3.64.78-3.85C72.15 59.48 74.7 55.43 74.93 54.3c2.55-12.49 3.89-27.61 1.82-30.22-.16-.2-.26-.21-.31-.21-3.34 0-4.88 10.32-5.8 16.5-.33 2.22-.62 4.15-.94 5.53-.29 1.22-5.51 6.39-9.88 10.51l-2.34 2.71a1 1 0 11-1.52-1.3l2.31-2.67a42.63 42.63 0 003.47-5.94 17.27 17.27 0 001.26-3.8.29.29 0 010-.09c.26-1.41.17-2.71-.75-3.38a2.12 2.12 0 00-2.22-.16 4.94 4.94 0 00-1 .54c-.347.246-.68.51-1 .79a55.39 55.39 0 00-6.14 7.18c-.24.33-.49.66-.75 1l-.57.75c-.06.08-.13.16-.19.25-1.1 1.44-2.26 3-3.5 4.54-4.37 5.56-4 12.57-3.87 15.57.032.493.032.987 0 1.48l.11 3.93h-1l-.11-4c.2-1.35-1.53-10.52 4.06-17.63 1.06-1.35 2.06-2.66 3-3.92.25-.34.51-.67.76-1l.76-1c2.86-3.75 5.27-6.82 7.39-8.46a7 7 0 011-.67c.314-.19.65-.34 1-.45.944-.35 2-.192 2.8.42.392.279.706.654.91 1.09a5.39 5.39 0 01.31 3.45c-.07.32-.15.64-.25 1a33.58 33.58 0 01-4.16 8.33c-.35.52-.57.82-.57.82l.72-.69c2.2-2.1 8.72-8.4 8.94-9.4 1-4.21 1.72-14.18 4.09-19.43a10 10 0 011-1.72 3.27 3.27 0 012.72-1.65c4.3.12 1.67 20.7-.56 31.63l-.02-.03z" fill="#FFF"/><path d="M78.31 22.84a2.35 2.35 0 00-1.82-1A4.25 4.25 0 0072.9 24c-.19.28-.38.57-.56.89-.18.32-.31.6-.45.93a31.39 31.39 0 00-2 6.75c-.51 2.45-.9 5-1.26 7.47-.32 2.19-.61 4.07-.88 5.29a37.82 37.82 0 01-4.17 4.57A18.3 18.3 0 0065 45.84a.19.19 0 000-.07.43.43 0 000-.11 7.29 7.29 0 00.09-2.48 3.72 3.72 0 00-.27-1.08 3.5 3.5 0 00-.74-1.19 3.57 3.57 0 00-.64-.58 3.82 3.82 0 00-3.38-.68 4.75 4.75 0 00-1 .38 7 7 0 00-1 .58c-2.55 1.73-5.35 5.34-8.65 9.69l-.41.54-.35.46c-.24.33-.5.66-.76 1a208.361 208.361 0 01-2.55 3.3c-4.83 6.15-4.45 13.69-4.29 16.91v1.18a.59.59 0 000 .19l.11 4a1 1 0 002 0l-.11-3.93a11.29 11.29 0 000-1.48c-.15-3-.5-10 3.87-15.57 1.24-1.57 2.4-3.1 3.5-4.54.06-.09.13-.17.19-.25l.57-.75c.26-.34.51-.67.75-1a55.39 55.39 0 016.14-7.18c.32-.28.653-.544 1-.79a4.94 4.94 0 011-.54 2.12 2.12 0 012.22.16c.92.67 1 2 .75 3.38a.29.29 0 000 .09 17.27 17.27 0 01-1.32 3.78 42.63 42.63 0 01-3.47 5.94 1 1 0 00.16 1.34 1 1 0 001.34 0l.07-.07c4.37-4.12 9.59-9.29 9.88-10.51.32-1.38.61-3.31.94-5.53.92-6.18 2.46-16.5 5.8-16.5 0 0 .15 0 .31.21 2.07 2.61.73 17.73-1.82 30.22-.23 1.07-2.78 5.12-17.31 19.64-.21.21-.69.69-.78 3.85a1 1 0 002 0 13 13 0 01.28-2.56c15.27-15.23 17.46-19 17.77-20.6 1.52-7.45 4.74-27.69 1.42-31.86v.01z" fill="#546FBB"/><path d="M59.78 56.41l-2.34 2.71a1 1 0 11-1.52-1.3l2.31-2.67a1 1 0 011.32-.16l.09.06a.13.13 0 01.06.07 1 1 0 010 1.34l.08-.05z" fill="#546FBB"/><path d="M58.6 44.85s1.18 1.87 2.58 1.38l-2.58-1.38z" fill="#FFF"/><path d="M61.52 47.17a2.42 2.42 0 01-.82.15 2.57 2.57 0 01-.62-.08 3.06 3.06 0 01-1-.47 4.52 4.52 0 01-1-.94 4.83 4.83 0 01-.32-.45 1 1 0 01.31-1.38 1 1 0 011 0 1 1 0 01.37.35c.178.257.39.49.63.69.171.167.393.272.63.3a.34.34 0 00.14 0 1 1 0 011.28.61 1 1 0 01-.61 1.27l.01-.05z" fill="#546FBB"/></g></svg>