<svg width="97" height="53" viewBox="0 0 97 53" fill="none" xmlns="http://www.w3.org/2000/svg">
<rect width="97" height="53" rx="9" fill="#759BE9"/>
<path d="M8.463 39.905V41.13H10.108V41.907H8.463V43.202H10.318V44H7.483V39.107H10.318V39.905H8.463ZM12.1256 39.66C11.9529 39.66 11.8083 39.6063 11.6916 39.499C11.5796 39.387 11.5236 39.2493 11.5236 39.086C11.5236 38.9227 11.5796 38.7873 11.6916 38.68C11.8083 38.568 11.9529 38.512 12.1256 38.512C12.2983 38.512 12.4406 38.568 12.5526 38.68C12.6693 38.7873 12.7276 38.9227 12.7276 39.086C12.7276 39.2493 12.6693 39.387 12.5526 39.499C12.4406 39.6063 12.2983 39.66 12.1256 39.66ZM12.6086 40.122V44H11.6286V40.122H12.6086ZM15.5158 40.059C15.8052 40.059 16.0595 40.1173 16.2788 40.234C16.4982 40.346 16.6708 40.493 16.7968 40.675V40.122H17.7838V44.028C17.7838 44.3873 17.7115 44.707 17.5668 44.987C17.4222 45.2717 17.2052 45.4957 16.9158 45.659C16.6265 45.827 16.2765 45.911 15.8658 45.911C15.3152 45.911 14.8625 45.7827 14.5078 45.526C14.1578 45.2693 13.9595 44.9193 13.9128 44.476H14.8858C14.9372 44.6533 15.0468 44.7933 15.2148 44.896C15.3875 45.0033 15.5952 45.057 15.8378 45.057C16.1225 45.057 16.3535 44.9707 16.5308 44.798C16.7082 44.63 16.7968 44.3733 16.7968 44.028V43.426C16.6708 43.608 16.4958 43.7597 16.2718 43.881C16.0525 44.0023 15.8005 44.063 15.5158 44.063C15.1892 44.063 14.8905 43.979 14.6198 43.811C14.3492 43.643 14.1345 43.4073 13.9758 43.104C13.8218 42.796 13.7448 42.4437 13.7448 42.047C13.7448 41.655 13.8218 41.3073 13.9758 41.004C14.1345 40.7007 14.3468 40.4673 14.6128 40.304C14.8835 40.1407 15.1845 40.059 15.5158 40.059ZM16.7968 42.061C16.7968 41.823 16.7502 41.62 16.6568 41.452C16.5635 41.2793 16.4375 41.1487 16.2788 41.06C16.1202 40.9667 15.9498 40.92 15.7678 40.92C15.5858 40.92 15.4178 40.9643 15.2638 41.053C15.1098 41.1417 14.9838 41.2723 14.8858 41.445C14.7925 41.613 14.7458 41.8137 14.7458 42.047C14.7458 42.2803 14.7925 42.4857 14.8858 42.663C14.9838 42.8357 15.1098 42.9687 15.2638 43.062C15.4225 43.1553 15.5905 43.202 15.7678 43.202C15.9498 43.202 16.1202 43.1577 16.2788 43.069C16.4375 42.9757 16.5635 42.845 16.6568 42.677C16.7502 42.5043 16.7968 42.299 16.7968 42.061ZM22.766 41.977C22.766 42.117 22.7566 42.243 22.738 42.355H19.903C19.9263 42.635 20.0243 42.8543 20.197 43.013C20.3696 43.1717 20.582 43.251 20.834 43.251C21.198 43.251 21.457 43.0947 21.611 42.782H22.668C22.556 43.1553 22.3413 43.4633 22.024 43.706C21.7066 43.944 21.317 44.063 20.855 44.063C20.4816 44.063 20.1456 43.9813 19.847 43.818C19.553 43.65 19.322 43.4143 19.154 43.111C18.9906 42.8077 18.909 42.4577 18.909 42.061C18.909 41.6597 18.9906 41.3073 19.154 41.004C19.3173 40.7007 19.546 40.4673 19.84 40.304C20.134 40.1407 20.4723 40.059 20.855 40.059C21.2236 40.059 21.5526 40.1383 21.842 40.297C22.136 40.4557 22.3623 40.682 22.521 40.976C22.6843 41.2653 22.766 41.599 22.766 41.977ZM21.751 41.697C21.7463 41.445 21.6553 41.2443 21.478 41.095C21.3006 40.941 21.0836 40.864 20.827 40.864C20.5843 40.864 20.379 40.9387 20.211 41.088C20.0476 41.2327 19.9473 41.4357 19.91 41.697H21.751ZM26.0503 40.066C26.5123 40.066 26.8856 40.213 27.1703 40.507C27.4549 40.7963 27.5973 41.2023 27.5973 41.725V44H26.6173V41.858C26.6173 41.55 26.5403 41.3143 26.3863 41.151C26.2323 40.983 26.0223 40.899 25.7563 40.899C25.4856 40.899 25.2709 40.983 25.1123 41.151C24.9583 41.3143 24.8813 41.55 24.8813 41.858V44H23.9013V40.122H24.8813V40.605C25.0119 40.437 25.1776 40.3063 25.3783 40.213C25.5836 40.115 25.8076 40.066 26.0503 40.066ZM31.1332 40.066C31.4272 40.066 31.6885 40.1313 31.9172 40.262C32.1459 40.388 32.3232 40.577 32.4492 40.829C32.5799 41.0763 32.6452 41.375 32.6452 41.725V44H31.6652V41.858C31.6652 41.55 31.5882 41.3143 31.4342 41.151C31.2802 40.983 31.0702 40.899 30.8042 40.899C30.5335 40.899 30.3189 40.983 30.1602 41.151C30.0062 41.3143 29.9292 41.55 29.9292 41.858V44H28.9492V38.82H29.9292V40.605C30.0552 40.437 30.2232 40.3063 30.4332 40.213C30.6432 40.115 30.8765 40.066 31.1332 40.066ZM37.6021 41.977C37.6021 42.117 37.5928 42.243 37.5741 42.355H34.7391C34.7625 42.635 34.8605 42.8543 35.0331 43.013C35.2058 43.1717 35.4181 43.251 35.6701 43.251C36.0341 43.251 36.2931 43.0947 36.4471 42.782H37.5041C37.3921 43.1553 37.1775 43.4633 36.8601 43.706C36.5428 43.944 36.1531 44.063 35.6911 44.063C35.3178 44.063 34.9818 43.9813 34.6831 43.818C34.3891 43.65 34.1581 43.4143 33.9901 43.111C33.8268 42.8077 33.7451 42.4577 33.7451 42.061C33.7451 41.6597 33.8268 41.3073 33.9901 41.004C34.1535 40.7007 34.3821 40.4673 34.6761 40.304C34.9701 40.1407 35.3085 40.059 35.6911 40.059C36.0598 40.059 36.3888 40.1383 36.6781 40.297C36.9721 40.4557 37.1985 40.682 37.3571 40.976C37.5205 41.2653 37.6021 41.599 37.6021 41.977ZM36.5871 41.697C36.5825 41.445 36.4915 41.2443 36.3141 41.095C36.1368 40.941 35.9198 40.864 35.6631 40.864C35.4205 40.864 35.2151 40.9387 35.0471 41.088C34.8838 41.2327 34.7835 41.4357 34.7461 41.697H36.5871ZM39.2345 39.66C39.0618 39.66 38.9171 39.6063 38.8005 39.499C38.6885 39.387 38.6325 39.2493 38.6325 39.086C38.6325 38.9227 38.6885 38.7873 38.8005 38.68C38.9171 38.568 39.0618 38.512 39.2345 38.512C39.4071 38.512 39.5495 38.568 39.6615 38.68C39.7781 38.7873 39.8365 38.9227 39.8365 39.086C39.8365 39.2493 39.7781 39.387 39.6615 39.499C39.5495 39.6063 39.4071 39.66 39.2345 39.66ZM39.7175 40.122V44H38.7375V40.122H39.7175ZM45.9217 40.066C46.3977 40.066 46.7804 40.213 47.0697 40.507C47.3637 40.7963 47.5107 41.2023 47.5107 41.725V44H46.5307V41.858C46.5307 41.5547 46.4537 41.3237 46.2997 41.165C46.1457 41.0017 45.9357 40.92 45.6697 40.92C45.4037 40.92 45.1914 41.0017 45.0327 41.165C44.8787 41.3237 44.8017 41.5547 44.8017 41.858V44H43.8217V41.858C43.8217 41.5547 43.7447 41.3237 43.5907 41.165C43.4367 41.0017 43.2267 40.92 42.9607 40.92C42.69 40.92 42.4754 41.0017 42.3167 41.165C42.1627 41.3237 42.0857 41.5547 42.0857 41.858V44H41.1057V40.122H42.0857V40.591C42.2117 40.4277 42.3727 40.2993 42.5687 40.206C42.7694 40.1127 42.9887 40.066 43.2267 40.066C43.53 40.066 43.8007 40.1313 44.0387 40.262C44.2767 40.388 44.461 40.57 44.5917 40.808C44.7177 40.584 44.8997 40.4043 45.1377 40.269C45.3804 40.1337 45.6417 40.066 45.9217 40.066ZM55.3917 39.114L54.0267 44H52.8717L51.9547 40.521L50.9957 44L49.8477 44.007L48.5317 39.114H49.5817L50.4427 42.908L51.4367 39.114H52.5287L53.4667 42.887L54.3347 39.114H55.3917ZM60.1126 40.122V44H59.1256V43.51C58.9996 43.678 58.8339 43.811 58.6286 43.909C58.4279 44.0023 58.2086 44.049 57.9706 44.049C57.6672 44.049 57.3989 43.986 57.1656 43.86C56.9322 43.7293 56.7479 43.5403 56.6126 43.293C56.4819 43.041 56.4166 42.7423 56.4166 42.397V40.122H57.3966V42.257C57.3966 42.565 57.4736 42.803 57.6276 42.971C57.7816 43.1343 57.9916 43.216 58.2576 43.216C58.5282 43.216 58.7406 43.1343 58.8946 42.971C59.0486 42.803 59.1256 42.565 59.1256 42.257V40.122H60.1126ZM63.6485 40.066C64.1105 40.066 64.4838 40.213 64.7685 40.507C65.0532 40.7963 65.1955 41.2023 65.1955 41.725V44H64.2155V41.858C64.2155 41.55 64.1385 41.3143 63.9845 41.151C63.8305 40.983 63.6205 40.899 63.3545 40.899C63.0838 40.899 62.8692 40.983 62.7105 41.151C62.5565 41.3143 62.4795 41.55 62.4795 41.858V44H61.4995V40.122H62.4795V40.605C62.6102 40.437 62.7758 40.3063 62.9765 40.213C63.1818 40.115 63.4058 40.066 63.6485 40.066ZM68.0314 44.063C67.7141 44.063 67.4294 44.007 67.1774 43.895C66.9254 43.7783 66.7247 43.622 66.5754 43.426C66.4307 43.23 66.3514 43.013 66.3374 42.775H67.3244C67.3431 42.9243 67.4154 43.048 67.5414 43.146C67.6721 43.244 67.8331 43.293 68.0244 43.293C68.2111 43.293 68.3557 43.2557 68.4584 43.181C68.5657 43.1063 68.6194 43.0107 68.6194 42.894C68.6194 42.768 68.5541 42.6747 68.4234 42.614C68.2974 42.5487 68.0944 42.4787 67.8144 42.404C67.5251 42.334 67.2871 42.2617 67.1004 42.187C66.9184 42.1123 66.7597 41.998 66.6244 41.844C66.4937 41.69 66.4284 41.4823 66.4284 41.221C66.4284 41.0063 66.4891 40.8103 66.6104 40.633C66.7364 40.4557 66.9137 40.3157 67.1424 40.213C67.3757 40.1103 67.6487 40.059 67.9614 40.059C68.4234 40.059 68.7921 40.1757 69.0674 40.409C69.3427 40.6377 69.4944 40.948 69.5224 41.34H68.5844C68.5704 41.186 68.5051 41.0647 68.3884 40.976C68.2764 40.8827 68.1247 40.836 67.9334 40.836C67.7561 40.836 67.6184 40.8687 67.5204 40.934C67.4271 40.9993 67.3804 41.0903 67.3804 41.207C67.3804 41.3377 67.4457 41.438 67.5764 41.508C67.7071 41.5733 67.9101 41.641 68.1854 41.711C68.4654 41.781 68.6964 41.8533 68.8784 41.928C69.0604 42.0027 69.2167 42.1193 69.3474 42.278C69.4827 42.432 69.5527 42.6373 69.5574 42.894C69.5574 43.118 69.4944 43.3187 69.3684 43.496C69.2471 43.6733 69.0697 43.8133 68.8364 43.916C68.6077 44.014 68.3394 44.063 68.0314 44.063ZM70.5299 42.061C70.5299 41.6597 70.6115 41.3097 70.7749 41.011C70.9382 40.7077 71.1645 40.4743 71.4539 40.311C71.7432 40.143 72.0745 40.059 72.4479 40.059C72.9285 40.059 73.3252 40.1803 73.6379 40.423C73.9552 40.661 74.1675 40.997 74.2749 41.431H73.2179C73.1619 41.263 73.0662 41.1323 72.9309 41.039C72.8002 40.941 72.6369 40.892 72.4409 40.892C72.1609 40.892 71.9392 40.9947 71.7759 41.2C71.6125 41.4007 71.5309 41.6877 71.5309 42.061C71.5309 42.4297 71.6125 42.7167 71.7759 42.922C71.9392 43.1227 72.1609 43.223 72.4409 43.223C72.8375 43.223 73.0965 43.0457 73.2179 42.691H74.2749C74.1675 43.111 73.9552 43.4447 73.6379 43.692C73.3205 43.9393 72.9239 44.063 72.4479 44.063C72.0745 44.063 71.7432 43.9813 71.4539 43.818C71.1645 43.65 70.9382 43.4167 70.7749 43.118C70.6115 42.8147 70.5299 42.4623 70.5299 42.061ZM77.5968 40.066C77.8908 40.066 78.1521 40.1313 78.3808 40.262C78.6095 40.388 78.7868 40.577 78.9128 40.829C79.0435 41.0763 79.1088 41.375 79.1088 41.725V44H78.1288V41.858C78.1288 41.55 78.0518 41.3143 77.8978 41.151C77.7438 40.983 77.5338 40.899 77.2678 40.899C76.9971 40.899 76.7825 40.983 76.6238 41.151C76.4698 41.3143 76.3928 41.55 76.3928 41.858V44H75.4128V38.82H76.3928V40.605C76.5188 40.437 76.6868 40.3063 76.8968 40.213C77.1068 40.115 77.3401 40.066 77.5968 40.066ZM80.8947 44.049C80.7174 44.049 80.5704 43.9953 80.4537 43.888C80.3417 43.776 80.2857 43.6383 80.2857 43.475C80.2857 43.3117 80.3417 43.1763 80.4537 43.069C80.5704 42.957 80.7174 42.901 80.8947 42.901C81.0674 42.901 81.2097 42.957 81.3217 43.069C81.4337 43.1763 81.4897 43.3117 81.4897 43.475C81.4897 43.6383 81.4337 43.776 81.3217 43.888C81.2097 43.9953 81.0674 44.049 80.8947 44.049ZM82.4471 42.047C82.4471 41.655 82.5241 41.3073 82.6781 41.004C82.8368 40.7007 83.0514 40.4673 83.3221 40.304C83.5928 40.1407 83.8938 40.059 84.2251 40.059C84.4771 40.059 84.7174 40.115 84.9461 40.227C85.1748 40.3343 85.3568 40.479 85.4921 40.661V38.82H86.4861V44H85.4921V43.426C85.3708 43.6173 85.2004 43.7713 84.9811 43.888C84.7618 44.0047 84.5074 44.063 84.2181 44.063C83.8914 44.063 83.5928 43.979 83.3221 43.811C83.0514 43.643 82.8368 43.4073 82.6781 43.104C82.5241 42.796 82.4471 42.4437 82.4471 42.047ZM85.4991 42.061C85.4991 41.823 85.4524 41.62 85.3591 41.452C85.2658 41.2793 85.1398 41.1487 84.9811 41.06C84.8224 40.9667 84.6521 40.92 84.4701 40.92C84.2881 40.92 84.1201 40.9643 83.9661 41.053C83.8121 41.1417 83.6861 41.2723 83.5881 41.445C83.4948 41.613 83.4481 41.8137 83.4481 42.047C83.4481 42.2803 83.4948 42.4857 83.5881 42.663C83.6861 42.8357 83.8121 42.9687 83.9661 43.062C84.1248 43.1553 84.2928 43.202 84.4701 43.202C84.6521 43.202 84.8224 43.1577 84.9811 43.069C85.1398 42.9757 85.2658 42.845 85.3591 42.677C85.4524 42.5043 85.4991 42.299 85.4991 42.061ZM91.4682 41.977C91.4682 42.117 91.4589 42.243 91.4402 42.355H88.6052C88.6286 42.635 88.7266 42.8543 88.8992 43.013C89.0719 43.1717 89.2842 43.251 89.5362 43.251C89.9002 43.251 90.1592 43.0947 90.3132 42.782H91.3702C91.2582 43.1553 91.0436 43.4633 90.7262 43.706C90.4089 43.944 90.0192 44.063 89.5572 44.063C89.1839 44.063 88.8479 43.9813 88.5492 43.818C88.2552 43.65 88.0242 43.4143 87.8562 43.111C87.6929 42.8077 87.6112 42.4577 87.6112 42.061C87.6112 41.6597 87.6929 41.3073 87.8562 41.004C88.0196 40.7007 88.2482 40.4673 88.5422 40.304C88.8362 40.1407 89.1746 40.059 89.5572 40.059C89.9259 40.059 90.2549 40.1383 90.5442 40.297C90.8382 40.4557 91.0646 40.682 91.2232 40.976C91.3866 41.2653 91.4682 41.599 91.4682 41.977ZM90.4532 41.697C90.4486 41.445 90.3576 41.2443 90.1802 41.095C90.0029 40.941 89.7859 40.864 89.5292 40.864C89.2866 40.864 89.0812 40.9387 88.9132 41.088C88.7499 41.2327 88.6496 41.4357 88.6122 41.697H90.4532Z" fill="white"/>
<g clip-path="url(#clip0_601_7)">
<path d="M27.3738 16.1196V20.7129L30.6263 17.4833V16.4785L27.3738 16.1196Z" fill="white"/>
<path d="M36 12.7463L23.697 25.8085H25.8889V29.6124L15 32.3396L27.0909 30.2583V23.8707L36.4242 13.9664L36 12.7463Z" fill="white"/>
<path d="M34.7273 22.5789L34.798 20.8564L36.4243 20.9282L36.3536 22.6507L34.7273 22.5789Z" fill="white"/>
<path d="M68.5253 26.0956L68.596 24.6602L69.9394 24.7319L69.8687 26.1673L68.5253 26.0956Z" fill="white"/>
<path d="M34.7273 24.6602L34.798 22.9377L36.4243 23.0095L36.3536 24.732L34.7273 24.6602Z" fill="white"/>
<path d="M70.1515 27.9618L70.2222 26.5264L71.5656 26.5981L71.4949 28.0335L70.1515 27.9618Z" fill="white"/>
<path d="M36.707 24.732L36.7777 23.0095L38.404 23.0813L38.3333 24.732H36.707Z" fill="white"/>
<path d="M68.4546 27.89L68.5253 26.4546L69.8687 26.5264L69.798 27.9618L68.4546 27.89Z" fill="white"/>
<path d="M36.7778 22.6507L36.8485 20.9282L38.4748 21L38.4041 22.7225L36.7778 22.6507Z" fill="white"/>
<path d="M70.293 26.1673L70.3637 24.7319L71.7071 24.8037L71.6364 26.2391L70.293 26.1673Z" fill="white"/>
<path d="M36.7778 12.1006L47.5253 16.9092L54.3132 26.67H54.8788L61.6667 18.7752L70.3637 16.4786L61.4546 26.5264V28.0336L47.3839 27.1724V26.0958L36.7778 12.1006Z" fill="white"/>
<path d="M56.0808 9.01435L68.8081 6L55.3738 21.6459L51.6263 21.3589L48.7273 17.1244L56.0808 9.01435Z" fill="white"/>
<path d="M74.7474 12.4595V13.3925L77.505 17.6987L77.7171 12.8183L74.7474 12.4595Z" fill="white"/>
<path d="M69.8687 6.646L68.8788 7.65078L77.7172 21.5025V23.9426L80.899 24.158L69.8687 6.646Z" fill="white"/>
<path d="M52.1212 31.1196C51.1313 31.1196 50.0707 31.1196 49.0808 31.1914C30.202 31.8373 15 35.2823 15 35.2823C15 35.2823 30.202 33.1292 49.0808 32.4833C50.4242 32.4115 51.697 32.4115 53.0404 32.4115C70.2929 32.4115 85.0707 36 85.0707 36C85.0707 36 69.7273 31.1196 52.1212 31.1196Z" fill="white"/>
<path d="M71.5657 17.0527L70.6465 18.0575L76.9394 27.6747V32.8422L84.4344 35.4259L77.293 32.3398L77.5051 29.6125H79.7677L71.5657 17.0527Z" fill="white"/>
</g>
<defs>
<clipPath id="clip0_601_7">
<rect width="70" height="30" fill="white" transform="translate(15 6)"/>
</clipPath>
</defs>
</svg>
