<svg width="216" height="31" viewBox="0 0 216 31" fill="none" xmlns="http://www.w3.org/2000/svg">
<path d="M86.508 16.98V19.08H89.328V20.412H86.508V22.632H89.688V24H84.828V15.612H89.688V16.98H86.508ZM92.7867 16.56C92.4907 16.56 92.2427 16.468 92.0427 16.284C91.8507 16.092 91.7547 15.856 91.7547 15.576C91.7547 15.296 91.8507 15.064 92.0427 14.88C92.2427 14.688 92.4907 14.592 92.7867 14.592C93.0827 14.592 93.3267 14.688 93.5187 14.88C93.7187 15.064 93.8187 15.296 93.8187 15.576C93.8187 15.856 93.7187 16.092 93.5187 16.284C93.3267 16.468 93.0827 16.56 92.7867 16.56ZM93.6147 17.352V24H91.9347V17.352H93.6147ZM98.5986 17.244C99.0946 17.244 99.5306 17.344 99.9066 17.544C100.283 17.736 100.579 17.988 100.795 18.3V17.352H102.487V24.048C102.487 24.664 102.363 25.212 102.115 25.692C101.867 26.18 101.495 26.564 100.999 26.844C100.503 27.132 99.9026 27.276 99.1986 27.276C98.2546 27.276 97.4786 27.056 96.8706 26.616C96.2706 26.176 95.9306 25.576 95.8506 24.816H97.5186C97.6066 25.12 97.7946 25.36 98.0826 25.536C98.3786 25.72 98.7346 25.812 99.1506 25.812C99.6386 25.812 100.035 25.664 100.339 25.368C100.643 25.08 100.795 24.64 100.795 24.048V23.016C100.579 23.328 100.279 23.588 99.8946 23.796C99.5186 24.004 99.0866 24.108 98.5986 24.108C98.0386 24.108 97.5266 23.964 97.0626 23.676C96.5986 23.388 96.2306 22.984 95.9586 22.464C95.6946 21.936 95.5626 21.332 95.5626 20.652C95.5626 19.98 95.6946 19.384 95.9586 18.864C96.2306 18.344 96.5946 17.944 97.0506 17.664C97.5146 17.384 98.0306 17.244 98.5986 17.244ZM100.795 20.676C100.795 20.268 100.715 19.92 100.555 19.632C100.395 19.336 100.179 19.112 99.9066 18.96C99.6346 18.8 99.3426 18.72 99.0306 18.72C98.7186 18.72 98.4306 18.796 98.1666 18.948C97.9026 19.1 97.6866 19.324 97.5186 19.62C97.3586 19.908 97.2786 20.252 97.2786 20.652C97.2786 21.052 97.3586 21.404 97.5186 21.708C97.6866 22.004 97.9026 22.232 98.1666 22.392C98.4386 22.552 98.7266 22.632 99.0306 22.632C99.3426 22.632 99.6346 22.556 99.9066 22.404C100.179 22.244 100.395 22.02 100.555 21.732C100.715 21.436 100.795 21.084 100.795 20.676ZM111.027 20.532C111.027 20.772 111.011 20.988 110.979 21.18H106.119C106.159 21.66 106.327 22.036 106.623 22.308C106.919 22.58 107.283 22.716 107.715 22.716C108.339 22.716 108.783 22.448 109.047 21.912H110.859C110.667 22.552 110.299 23.08 109.755 23.496C109.211 23.904 108.543 24.108 107.751 24.108C107.111 24.108 106.535 23.968 106.023 23.688C105.519 23.4 105.123 22.996 104.835 22.476C104.555 21.956 104.415 21.356 104.415 20.676C104.415 19.988 104.555 19.384 104.835 18.864C105.115 18.344 105.507 17.944 106.011 17.664C106.515 17.384 107.095 17.244 107.751 17.244C108.383 17.244 108.947 17.38 109.443 17.652C109.947 17.924 110.335 18.312 110.607 18.816C110.887 19.312 111.027 19.884 111.027 20.532ZM109.287 20.052C109.279 19.62 109.123 19.276 108.819 19.02C108.515 18.756 108.143 18.624 107.703 18.624C107.287 18.624 106.935 18.752 106.647 19.008C106.367 19.256 106.195 19.604 106.131 20.052H109.287ZM116.658 17.256C117.45 17.256 118.09 17.508 118.578 18.012C119.066 18.508 119.31 19.204 119.31 20.1V24H117.63V20.328C117.63 19.8 117.498 19.396 117.234 19.116C116.97 18.828 116.61 18.684 116.154 18.684C115.69 18.684 115.322 18.828 115.05 19.116C114.786 19.396 114.654 19.8 114.654 20.328V24H112.974V17.352H114.654V18.18C114.878 17.892 115.162 17.668 115.506 17.508C115.858 17.34 116.242 17.256 116.658 17.256ZM125.371 17.256C125.875 17.256 126.323 17.368 126.715 17.592C127.107 17.808 127.411 18.132 127.627 18.564C127.851 18.988 127.963 19.5 127.963 20.1V24H126.283V20.328C126.283 19.8 126.151 19.396 125.887 19.116C125.623 18.828 125.263 18.684 124.807 18.684C124.343 18.684 123.975 18.828 123.703 19.116C123.439 19.396 123.307 19.8 123.307 20.328V24H121.627V15.12H123.307V18.18C123.523 17.892 123.811 17.668 124.171 17.508C124.531 17.34 124.931 17.256 125.371 17.256ZM136.461 20.532C136.461 20.772 136.445 20.988 136.413 21.18H131.553C131.593 21.66 131.761 22.036 132.057 22.308C132.353 22.58 132.717 22.716 133.149 22.716C133.773 22.716 134.217 22.448 134.481 21.912H136.293C136.101 22.552 135.733 23.08 135.189 23.496C134.645 23.904 133.977 24.108 133.185 24.108C132.545 24.108 131.969 23.968 131.457 23.688C130.953 23.4 130.557 22.996 130.269 22.476C129.989 21.956 129.849 21.356 129.849 20.676C129.849 19.988 129.989 19.384 130.269 18.864C130.549 18.344 130.941 17.944 131.445 17.664C131.949 17.384 132.529 17.244 133.185 17.244C133.817 17.244 134.381 17.38 134.877 17.652C135.381 17.924 135.769 18.312 136.041 18.816C136.321 19.312 136.461 19.884 136.461 20.532ZM134.721 20.052C134.713 19.62 134.557 19.276 134.253 19.02C133.949 18.756 133.577 18.624 133.137 18.624C132.721 18.624 132.369 18.752 132.081 19.008C131.801 19.256 131.629 19.604 131.565 20.052H134.721ZM139.259 16.56C138.963 16.56 138.715 16.468 138.515 16.284C138.323 16.092 138.227 15.856 138.227 15.576C138.227 15.296 138.323 15.064 138.515 14.88C138.715 14.688 138.963 14.592 139.259 14.592C139.555 14.592 139.799 14.688 139.991 14.88C140.191 15.064 140.291 15.296 140.291 15.576C140.291 15.856 140.191 16.092 139.991 16.284C139.799 16.468 139.555 16.56 139.259 16.56ZM140.087 17.352V24H138.407V17.352H140.087ZM150.723 17.256C151.539 17.256 152.195 17.508 152.691 18.012C153.195 18.508 153.447 19.204 153.447 20.1V24H151.767V20.328C151.767 19.808 151.635 19.412 151.371 19.14C151.107 18.86 150.747 18.72 150.291 18.72C149.835 18.72 149.471 18.86 149.199 19.14C148.935 19.412 148.803 19.808 148.803 20.328V24H147.123V20.328C147.123 19.808 146.991 19.412 146.727 19.14C146.463 18.86 146.103 18.72 145.647 18.72C145.183 18.72 144.815 18.86 144.543 19.14C144.279 19.412 144.147 19.808 144.147 20.328V24H142.467V17.352H144.147V18.156C144.363 17.876 144.639 17.656 144.975 17.496C145.319 17.336 145.695 17.256 146.103 17.256C146.623 17.256 147.087 17.368 147.495 17.592C147.903 17.808 148.219 18.12 148.443 18.528C148.659 18.144 148.971 17.836 149.379 17.604C149.795 17.372 150.243 17.256 150.723 17.256ZM161.869 18.216C161.869 18.664 161.761 19.084 161.545 19.476C161.337 19.868 161.005 20.184 160.549 20.424C160.101 20.664 159.533 20.784 158.845 20.784H157.441V24H155.761V15.624H158.845C159.493 15.624 160.045 15.736 160.501 15.96C160.957 16.184 161.297 16.492 161.521 16.884C161.753 17.276 161.869 17.72 161.869 18.216ZM158.773 19.428C159.237 19.428 159.581 19.324 159.805 19.116C160.029 18.9 160.141 18.6 160.141 18.216C160.141 17.4 159.685 16.992 158.773 16.992H157.441V19.428H158.773ZM166.734 24.108C166.094 24.108 165.518 23.968 165.006 23.688C164.494 23.4 164.09 22.996 163.794 22.476C163.506 21.956 163.362 21.356 163.362 20.676C163.362 19.996 163.51 19.396 163.806 18.876C164.11 18.356 164.522 17.956 165.042 17.676C165.562 17.388 166.142 17.244 166.782 17.244C167.422 17.244 168.002 17.388 168.522 17.676C169.042 17.956 169.45 18.356 169.746 18.876C170.05 19.396 170.202 19.996 170.202 20.676C170.202 21.356 170.046 21.956 169.734 22.476C169.43 22.996 169.014 23.4 168.486 23.688C167.966 23.968 167.382 24.108 166.734 24.108ZM166.734 22.644C167.038 22.644 167.322 22.572 167.586 22.428C167.858 22.276 168.074 22.052 168.234 21.756C168.394 21.46 168.474 21.1 168.474 20.676C168.474 20.044 168.306 19.56 167.97 19.224C167.642 18.88 167.238 18.708 166.758 18.708C166.278 18.708 165.874 18.88 165.546 19.224C165.226 19.56 165.066 20.044 165.066 20.676C165.066 21.308 165.222 21.796 165.534 22.14C165.854 22.476 166.254 22.644 166.734 22.644ZM173.834 18.384C174.05 18.032 174.33 17.756 174.674 17.556C175.026 17.356 175.426 17.256 175.874 17.256V19.02H175.43C174.902 19.02 174.502 19.144 174.23 19.392C173.966 19.64 173.834 20.072 173.834 20.688V24H172.154V17.352H173.834V18.384ZM179.682 18.732V21.948C179.682 22.172 179.734 22.336 179.838 22.44C179.95 22.536 180.134 22.584 180.39 22.584H181.17V24H180.114C178.698 24 177.99 23.312 177.99 21.936V18.732H177.198V17.352H177.99V15.708H179.682V17.352H181.17V18.732H179.682ZM182.666 20.652C182.666 19.98 182.798 19.384 183.062 18.864C183.334 18.344 183.698 17.944 184.154 17.664C184.618 17.384 185.134 17.244 185.702 17.244C186.198 17.244 186.63 17.344 186.998 17.544C187.374 17.744 187.674 17.996 187.898 18.3V17.352H189.59V24H187.898V23.028C187.682 23.34 187.382 23.6 186.998 23.808C186.622 24.008 186.186 24.108 185.69 24.108C185.13 24.108 184.618 23.964 184.154 23.676C183.698 23.388 183.334 22.984 183.062 22.464C182.798 21.936 182.666 21.332 182.666 20.652ZM187.898 20.676C187.898 20.268 187.818 19.92 187.658 19.632C187.498 19.336 187.282 19.112 187.01 18.96C186.738 18.8 186.446 18.72 186.134 18.72C185.822 18.72 185.534 18.796 185.27 18.948C185.006 19.1 184.79 19.324 184.622 19.62C184.462 19.908 184.382 20.252 184.382 20.652C184.382 21.052 184.462 21.404 184.622 21.708C184.79 22.004 185.006 22.232 185.27 22.392C185.542 22.552 185.83 22.632 186.134 22.632C186.446 22.632 186.738 22.556 187.01 22.404C187.282 22.244 187.498 22.02 187.658 21.732C187.818 21.436 187.898 21.084 187.898 20.676ZM193.631 15.12V24H191.951V15.12H193.631ZM196.755 24.084C196.451 24.084 196.199 23.992 195.999 23.808C195.807 23.616 195.711 23.38 195.711 23.1C195.711 22.82 195.807 22.588 195.999 22.404C196.199 22.212 196.451 22.116 196.755 22.116C197.051 22.116 197.295 22.212 197.487 22.404C197.679 22.588 197.775 22.82 197.775 23.1C197.775 23.38 197.679 23.616 197.487 23.808C197.295 23.992 197.051 24.084 196.755 24.084ZM199.416 20.652C199.416 19.98 199.548 19.384 199.812 18.864C200.084 18.344 200.452 17.944 200.916 17.664C201.38 17.384 201.896 17.244 202.464 17.244C202.896 17.244 203.308 17.34 203.7 17.532C204.092 17.716 204.404 17.964 204.636 18.276V15.12H206.34V24H204.636V23.016C204.428 23.344 204.136 23.608 203.76 23.808C203.384 24.008 202.948 24.108 202.452 24.108C201.892 24.108 201.38 23.964 200.916 23.676C200.452 23.388 200.084 22.984 199.812 22.464C199.548 21.936 199.416 21.332 199.416 20.652ZM204.648 20.676C204.648 20.268 204.568 19.92 204.408 19.632C204.248 19.336 204.032 19.112 203.76 18.96C203.488 18.8 203.196 18.72 202.884 18.72C202.572 18.72 202.284 18.796 202.02 18.948C201.756 19.1 201.54 19.324 201.372 19.62C201.212 19.908 201.132 20.252 201.132 20.652C201.132 21.052 201.212 21.404 201.372 21.708C201.54 22.004 201.756 22.232 202.02 22.392C202.292 22.552 202.58 22.632 202.884 22.632C203.196 22.632 203.488 22.556 203.76 22.404C204.032 22.244 204.248 22.02 204.408 21.732C204.568 21.436 204.648 21.084 204.648 20.676ZM214.881 20.532C214.881 20.772 214.865 20.988 214.833 21.18H209.973C210.013 21.66 210.181 22.036 210.477 22.308C210.773 22.58 211.137 22.716 211.569 22.716C212.193 22.716 212.637 22.448 212.901 21.912H214.713C214.521 22.552 214.153 23.08 213.609 23.496C213.065 23.904 212.397 24.108 211.605 24.108C210.965 24.108 210.389 23.968 209.877 23.688C209.373 23.4 208.977 22.996 208.689 22.476C208.409 21.956 208.269 21.356 208.269 20.676C208.269 19.988 208.409 19.384 208.689 18.864C208.969 18.344 209.361 17.944 209.865 17.664C210.369 17.384 210.949 17.244 211.605 17.244C212.237 17.244 212.801 17.38 213.297 17.652C213.801 17.924 214.189 18.312 214.461 18.816C214.741 19.312 214.881 19.884 214.881 20.532ZM213.141 20.052C213.133 19.62 212.977 19.276 212.673 19.02C212.369 18.756 211.997 18.624 211.557 18.624C211.141 18.624 210.789 18.752 210.501 19.008C210.221 19.256 210.049 19.604 209.985 20.052H213.141Z" fill="#CB5F10"/>
<g clip-path="url(#clip0_413_7)">
<path d="M12.5505 10.4569V15.2034L15.8495 11.866V10.8278L12.5505 10.4569Z" fill="#CB5F10"/>
<path d="M21.3 6.97128L8.82121 20.4689H11.0444V24.3995L0 27.2177L12.2636 25.067V18.4665L21.7303 8.23205L21.3 6.97128Z" fill="#CB5F10"/>
<path d="M20.009 17.1316L20.0808 15.3517L21.7302 15.4258L21.6585 17.2058L20.009 17.1316Z" fill="#F3B180"/>
<path d="M54.2899 20.7655L54.3616 19.2823L55.7243 19.3565L55.6525 20.8397L54.2899 20.7655Z" fill="#F3B180"/>
<path d="M20.009 19.2823L20.0808 17.5024L21.7302 17.5765L21.6585 19.3564L20.009 19.2823Z" fill="#F3B180"/>
<path d="M55.9395 22.6938L56.0112 21.2105L57.3738 21.2847L57.3021 22.768L55.9395 22.6938Z" fill="#F3B180"/>
<path d="M22.0172 19.3565L22.0889 17.5766L23.7384 17.6507L23.6667 19.3565H22.0172Z" fill="#F3B180"/>
<path d="M54.2181 22.6196L54.2899 21.1364L55.6525 21.2105L55.5808 22.6938L54.2181 22.6196Z" fill="#F3B180"/>
<path d="M22.0889 17.2057L22.1606 15.4258L23.8101 15.5L23.7384 17.2799L22.0889 17.2057Z" fill="#F3B180"/>
<path d="M56.0828 20.8397L56.1545 19.3564L57.5171 19.4306L57.4454 20.9139L56.0828 20.8397Z" fill="#F3B180"/>
<path d="M22.0889 6.30383L32.9899 11.2727L39.8747 21.3589H40.4485L47.3333 13.201L56.1545 10.8278L47.1182 21.2105V22.7679L32.8464 21.878V20.7656L22.0889 6.30383Z" fill="#F3B180"/>
<path d="M41.6677 3.11483L54.5768 0L40.9505 16.1675L37.1495 15.8708L34.2091 11.4952L41.6677 3.11483Z" fill="#F3B180"/>
<path d="M60.6011 6.67465V7.63877L63.398 12.0885L63.6132 7.04547L60.6011 6.67465Z" fill="#CB5F10"/>
<path d="M55.6525 0.66745L54.6484 1.70573L63.6131 16.0191V18.5407L66.8404 18.7631L55.6525 0.66745Z" fill="#CB5F10"/>
<path d="M37.6515 25.9569C36.6475 25.9569 35.5717 25.9569 34.5677 26.0311C15.4192 26.6986 0 30.2584 0 30.2584C0 30.2584 15.4192 28.0335 34.5677 27.366C35.9303 27.2919 37.2212 27.2919 38.5838 27.2919C56.0828 27.2919 71.0717 31 71.0717 31C71.0717 31 55.5091 25.9569 37.6515 25.9569Z" fill="#CB5F10"/>
<path d="M57.3737 11.4211L56.4414 12.4593L62.8242 22.3971V27.7368L70.4262 30.4067L63.1828 27.2177L63.398 24.3995H65.6929L57.3737 11.4211Z" fill="#CB5F10"/>
</g>
<defs>
<clipPath id="clip0_413_7">
<rect width="71" height="31" fill="white"/>
</clipPath>
</defs>
</svg>
