<svg width="253" height="53" viewBox="0 0 253 53" fill="none" xmlns="http://www.w3.org/2000/svg">
<rect width="253" height="53" rx="12" fill="#759BE9"/>
<path d="M95.508 24.98V27.08H98.328V28.412H95.508V30.632H98.688V32H93.828V23.612H98.688V24.98H95.508ZM101.787 24.56C101.491 24.56 101.243 24.468 101.043 24.284C100.851 24.092 100.755 23.856 100.755 23.576C100.755 23.296 100.851 23.064 101.043 22.88C101.243 22.688 101.491 22.592 101.787 22.592C102.083 22.592 102.327 22.688 102.519 22.88C102.719 23.064 102.819 23.296 102.819 23.576C102.819 23.856 102.719 24.092 102.519 24.284C102.327 24.468 102.083 24.56 101.787 24.56ZM102.615 25.352V32H100.935V25.352H102.615ZM107.599 25.244C108.095 25.244 108.531 25.344 108.907 25.544C109.283 25.736 109.579 25.988 109.795 26.3V25.352H111.487V32.048C111.487 32.664 111.363 33.212 111.115 33.692C110.867 34.18 110.495 34.564 109.999 34.844C109.503 35.132 108.903 35.276 108.199 35.276C107.255 35.276 106.479 35.056 105.871 34.616C105.271 34.176 104.931 33.576 104.851 32.816H106.519C106.607 33.12 106.795 33.36 107.083 33.536C107.379 33.72 107.735 33.812 108.151 33.812C108.639 33.812 109.035 33.664 109.339 33.368C109.643 33.08 109.795 32.64 109.795 32.048V31.016C109.579 31.328 109.279 31.588 108.895 31.796C108.519 32.004 108.087 32.108 107.599 32.108C107.039 32.108 106.527 31.964 106.063 31.676C105.599 31.388 105.231 30.984 104.959 30.464C104.695 29.936 104.563 29.332 104.563 28.652C104.563 27.98 104.695 27.384 104.959 26.864C105.231 26.344 105.595 25.944 106.051 25.664C106.515 25.384 107.031 25.244 107.599 25.244ZM109.795 28.676C109.795 28.268 109.715 27.92 109.555 27.632C109.395 27.336 109.179 27.112 108.907 26.96C108.635 26.8 108.343 26.72 108.031 26.72C107.719 26.72 107.431 26.796 107.167 26.948C106.903 27.1 106.687 27.324 106.519 27.62C106.359 27.908 106.279 28.252 106.279 28.652C106.279 29.052 106.359 29.404 106.519 29.708C106.687 30.004 106.903 30.232 107.167 30.392C107.439 30.552 107.727 30.632 108.031 30.632C108.343 30.632 108.635 30.556 108.907 30.404C109.179 30.244 109.395 30.02 109.555 29.732C109.715 29.436 109.795 29.084 109.795 28.676ZM120.027 28.532C120.027 28.772 120.011 28.988 119.979 29.18H115.119C115.159 29.66 115.327 30.036 115.623 30.308C115.919 30.58 116.283 30.716 116.715 30.716C117.339 30.716 117.783 30.448 118.047 29.912H119.859C119.667 30.552 119.299 31.08 118.755 31.496C118.211 31.904 117.543 32.108 116.751 32.108C116.111 32.108 115.535 31.968 115.023 31.688C114.519 31.4 114.123 30.996 113.835 30.476C113.555 29.956 113.415 29.356 113.415 28.676C113.415 27.988 113.555 27.384 113.835 26.864C114.115 26.344 114.507 25.944 115.011 25.664C115.515 25.384 116.095 25.244 116.751 25.244C117.383 25.244 117.947 25.38 118.443 25.652C118.947 25.924 119.335 26.312 119.607 26.816C119.887 27.312 120.027 27.884 120.027 28.532ZM118.287 28.052C118.279 27.62 118.123 27.276 117.819 27.02C117.515 26.756 117.143 26.624 116.703 26.624C116.287 26.624 115.935 26.752 115.647 27.008C115.367 27.256 115.195 27.604 115.131 28.052H118.287ZM125.658 25.256C126.45 25.256 127.09 25.508 127.578 26.012C128.066 26.508 128.31 27.204 128.31 28.1V32H126.63V28.328C126.63 27.8 126.498 27.396 126.234 27.116C125.97 26.828 125.61 26.684 125.154 26.684C124.69 26.684 124.322 26.828 124.05 27.116C123.786 27.396 123.654 27.8 123.654 28.328V32H121.974V25.352H123.654V26.18C123.878 25.892 124.162 25.668 124.506 25.508C124.858 25.34 125.242 25.256 125.658 25.256ZM134.371 25.256C134.875 25.256 135.323 25.368 135.715 25.592C136.107 25.808 136.411 26.132 136.627 26.564C136.851 26.988 136.963 27.5 136.963 28.1V32H135.283V28.328C135.283 27.8 135.151 27.396 134.887 27.116C134.623 26.828 134.263 26.684 133.807 26.684C133.343 26.684 132.975 26.828 132.703 27.116C132.439 27.396 132.307 27.8 132.307 28.328V32H130.627V23.12H132.307V26.18C132.523 25.892 132.811 25.668 133.171 25.508C133.531 25.34 133.931 25.256 134.371 25.256ZM145.461 28.532C145.461 28.772 145.445 28.988 145.413 29.18H140.553C140.593 29.66 140.761 30.036 141.057 30.308C141.353 30.58 141.717 30.716 142.149 30.716C142.773 30.716 143.217 30.448 143.481 29.912H145.293C145.101 30.552 144.733 31.08 144.189 31.496C143.645 31.904 142.977 32.108 142.185 32.108C141.545 32.108 140.969 31.968 140.457 31.688C139.953 31.4 139.557 30.996 139.269 30.476C138.989 29.956 138.849 29.356 138.849 28.676C138.849 27.988 138.989 27.384 139.269 26.864C139.549 26.344 139.941 25.944 140.445 25.664C140.949 25.384 141.529 25.244 142.185 25.244C142.817 25.244 143.381 25.38 143.877 25.652C144.381 25.924 144.769 26.312 145.041 26.816C145.321 27.312 145.461 27.884 145.461 28.532ZM143.721 28.052C143.713 27.62 143.557 27.276 143.253 27.02C142.949 26.756 142.577 26.624 142.137 26.624C141.721 26.624 141.369 26.752 141.081 27.008C140.801 27.256 140.629 27.604 140.565 28.052H143.721ZM148.259 24.56C147.963 24.56 147.715 24.468 147.515 24.284C147.323 24.092 147.227 23.856 147.227 23.576C147.227 23.296 147.323 23.064 147.515 22.88C147.715 22.688 147.963 22.592 148.259 22.592C148.555 22.592 148.799 22.688 148.991 22.88C149.191 23.064 149.291 23.296 149.291 23.576C149.291 23.856 149.191 24.092 148.991 24.284C148.799 24.468 148.555 24.56 148.259 24.56ZM149.087 25.352V32H147.407V25.352H149.087ZM159.723 25.256C160.539 25.256 161.195 25.508 161.691 26.012C162.195 26.508 162.447 27.204 162.447 28.1V32H160.767V28.328C160.767 27.808 160.635 27.412 160.371 27.14C160.107 26.86 159.747 26.72 159.291 26.72C158.835 26.72 158.471 26.86 158.199 27.14C157.935 27.412 157.803 27.808 157.803 28.328V32H156.123V28.328C156.123 27.808 155.991 27.412 155.727 27.14C155.463 26.86 155.103 26.72 154.647 26.72C154.183 26.72 153.815 26.86 153.543 27.14C153.279 27.412 153.147 27.808 153.147 28.328V32H151.467V25.352H153.147V26.156C153.363 25.876 153.639 25.656 153.975 25.496C154.319 25.336 154.695 25.256 155.103 25.256C155.623 25.256 156.087 25.368 156.495 25.592C156.903 25.808 157.219 26.12 157.443 26.528C157.659 26.144 157.971 25.836 158.379 25.604C158.795 25.372 159.243 25.256 159.723 25.256ZM175.957 23.624L173.617 32H171.637L170.065 26.036L168.421 32L166.453 32.012L164.197 23.624H165.997L167.473 30.128L169.177 23.624H171.049L172.657 30.092L174.145 23.624H175.957ZM184.05 25.352V32H182.358V31.16C182.142 31.448 181.858 31.676 181.506 31.844C181.162 32.004 180.786 32.084 180.378 32.084C179.858 32.084 179.398 31.976 178.998 31.76C178.598 31.536 178.282 31.212 178.05 30.788C177.826 30.356 177.714 29.844 177.714 29.252V25.352H179.394V29.012C179.394 29.54 179.526 29.948 179.79 30.236C180.054 30.516 180.414 30.656 180.87 30.656C181.334 30.656 181.698 30.516 181.962 30.236C182.226 29.948 182.358 29.54 182.358 29.012V25.352H184.05ZM190.112 25.256C190.904 25.256 191.544 25.508 192.032 26.012C192.52 26.508 192.764 27.204 192.764 28.1V32H191.084V28.328C191.084 27.8 190.952 27.396 190.688 27.116C190.424 26.828 190.064 26.684 189.608 26.684C189.144 26.684 188.776 26.828 188.504 27.116C188.24 27.396 188.108 27.8 188.108 28.328V32H186.428V25.352H188.108V26.18C188.332 25.892 188.616 25.668 188.96 25.508C189.312 25.34 189.696 25.256 190.112 25.256ZM197.625 32.108C197.081 32.108 196.593 32.012 196.161 31.82C195.729 31.62 195.385 31.352 195.129 31.016C194.881 30.68 194.745 30.308 194.721 29.9H196.413C196.445 30.156 196.569 30.368 196.785 30.536C197.009 30.704 197.285 30.788 197.613 30.788C197.933 30.788 198.181 30.724 198.357 30.596C198.541 30.468 198.633 30.304 198.633 30.104C198.633 29.888 198.521 29.728 198.297 29.624C198.081 29.512 197.733 29.392 197.253 29.264C196.757 29.144 196.349 29.02 196.029 28.892C195.717 28.764 195.445 28.568 195.213 28.304C194.989 28.04 194.877 27.684 194.877 27.236C194.877 26.868 194.981 26.532 195.189 26.228C195.405 25.924 195.709 25.684 196.101 25.508C196.501 25.332 196.969 25.244 197.505 25.244C198.297 25.244 198.929 25.444 199.401 25.844C199.873 26.236 200.133 26.768 200.181 27.44H198.573C198.549 27.176 198.437 26.968 198.237 26.816C198.045 26.656 197.785 26.576 197.457 26.576C197.153 26.576 196.917 26.632 196.749 26.744C196.589 26.856 196.509 27.012 196.509 27.212C196.509 27.436 196.621 27.608 196.845 27.728C197.069 27.84 197.417 27.956 197.889 28.076C198.369 28.196 198.765 28.32 199.077 28.448C199.389 28.576 199.657 28.776 199.881 29.048C200.113 29.312 200.233 29.664 200.241 30.104C200.241 30.488 200.133 30.832 199.917 31.136C199.709 31.44 199.405 31.68 199.005 31.856C198.613 32.024 198.153 32.108 197.625 32.108ZM201.908 28.676C201.908 27.988 202.048 27.388 202.328 26.876C202.608 26.356 202.996 25.956 203.492 25.676C203.988 25.388 204.556 25.244 205.196 25.244C206.02 25.244 206.7 25.452 207.236 25.868C207.78 26.276 208.144 26.852 208.328 27.596H206.516C206.42 27.308 206.256 27.084 206.024 26.924C205.8 26.756 205.52 26.672 205.184 26.672C204.704 26.672 204.324 26.848 204.044 27.2C203.764 27.544 203.624 28.036 203.624 28.676C203.624 29.308 203.764 29.8 204.044 30.152C204.324 30.496 204.704 30.668 205.184 30.668C205.864 30.668 206.308 30.364 206.516 29.756H208.328C208.144 30.476 207.78 31.048 207.236 31.472C206.692 31.896 206.012 32.108 205.196 32.108C204.556 32.108 203.988 31.968 203.492 31.688C202.996 31.4 202.608 31 202.328 30.488C202.048 29.968 201.908 29.364 201.908 28.676ZM214.023 25.256C214.527 25.256 214.975 25.368 215.367 25.592C215.759 25.808 216.063 26.132 216.279 26.564C216.503 26.988 216.615 27.5 216.615 28.1V32H214.935V28.328C214.935 27.8 214.803 27.396 214.539 27.116C214.275 26.828 213.915 26.684 213.459 26.684C212.995 26.684 212.627 26.828 212.355 27.116C212.091 27.396 211.959 27.8 211.959 28.328V32H210.279V23.12H211.959V26.18C212.175 25.892 212.463 25.668 212.823 25.508C213.183 25.34 213.583 25.256 214.023 25.256ZM219.677 32.084C219.373 32.084 219.121 31.992 218.921 31.808C218.729 31.616 218.633 31.38 218.633 31.1C218.633 30.82 218.729 30.588 218.921 30.404C219.121 30.212 219.373 30.116 219.677 30.116C219.973 30.116 220.217 30.212 220.409 30.404C220.601 30.588 220.697 30.82 220.697 31.1C220.697 31.38 220.601 31.616 220.409 31.808C220.217 31.992 219.973 32.084 219.677 32.084ZM222.338 28.652C222.338 27.98 222.47 27.384 222.734 26.864C223.006 26.344 223.374 25.944 223.838 25.664C224.302 25.384 224.818 25.244 225.386 25.244C225.818 25.244 226.23 25.34 226.622 25.532C227.014 25.716 227.326 25.964 227.558 26.276V23.12H229.262V32H227.558V31.016C227.35 31.344 227.058 31.608 226.682 31.808C226.306 32.008 225.87 32.108 225.374 32.108C224.814 32.108 224.302 31.964 223.838 31.676C223.374 31.388 223.006 30.984 222.734 30.464C222.47 29.936 222.338 29.332 222.338 28.652ZM227.57 28.676C227.57 28.268 227.49 27.92 227.33 27.632C227.17 27.336 226.954 27.112 226.682 26.96C226.41 26.8 226.118 26.72 225.806 26.72C225.494 26.72 225.206 26.796 224.942 26.948C224.678 27.1 224.462 27.324 224.294 27.62C224.134 27.908 224.054 28.252 224.054 28.652C224.054 29.052 224.134 29.404 224.294 29.708C224.462 30.004 224.678 30.232 224.942 30.392C225.214 30.552 225.502 30.632 225.806 30.632C226.118 30.632 226.41 30.556 226.682 30.404C226.954 30.244 227.17 30.02 227.33 29.732C227.49 29.436 227.57 29.084 227.57 28.676ZM237.803 28.532C237.803 28.772 237.787 28.988 237.755 29.18H232.895C232.935 29.66 233.103 30.036 233.399 30.308C233.695 30.58 234.059 30.716 234.491 30.716C235.115 30.716 235.559 30.448 235.823 29.912H237.635C237.443 30.552 237.075 31.08 236.531 31.496C235.987 31.904 235.319 32.108 234.527 32.108C233.887 32.108 233.311 31.968 232.799 31.688C232.295 31.4 231.899 30.996 231.611 30.476C231.331 29.956 231.191 29.356 231.191 28.676C231.191 27.988 231.331 27.384 231.611 26.864C231.891 26.344 232.283 25.944 232.787 25.664C233.291 25.384 233.871 25.244 234.527 25.244C235.159 25.244 235.723 25.38 236.219 25.652C236.723 25.924 237.111 26.312 237.383 26.816C237.663 27.312 237.803 27.884 237.803 28.532ZM236.063 28.052C236.055 27.62 235.899 27.276 235.595 27.02C235.291 26.756 234.919 26.624 234.479 26.624C234.063 26.624 233.711 26.752 233.423 27.008C233.143 27.256 232.971 27.604 232.907 28.052H236.063Z" fill="white"/>
<g clip-path="url(#clip0_601_6)">
<path d="M17.5505 18.4569V23.2034L20.8495 19.866V18.8278L17.5505 18.4569Z" fill="white"/>
<path d="M26.3 14.9713L13.8212 28.4689H16.0444V32.3995L5 35.2177L17.2636 33.067V26.4665L26.7303 16.232L26.3 14.9713Z" fill="white"/>
<path d="M25.009 25.1316L25.0808 23.3517L26.7302 23.4258L26.6585 25.2058L25.009 25.1316Z" fill="white"/>
<path d="M59.2898 28.7655L59.3615 27.2823L60.7241 27.3565L60.6524 28.8397L59.2898 28.7655Z" fill="white"/>
<path d="M25.009 27.2823L25.0808 25.5024L26.7302 25.5765L26.6585 27.3564L25.009 27.2823Z" fill="white"/>
<path d="M60.9395 30.6938L61.0112 29.2105L62.3738 29.2847L62.3021 30.768L60.9395 30.6938Z" fill="white"/>
<path d="M27.0171 27.3565L27.0888 25.5766L28.7383 25.6507L28.6666 27.3565H27.0171Z" fill="white"/>
<path d="M59.2183 30.6196L59.29 29.1364L60.6526 29.2105L60.5809 30.6938L59.2183 30.6196Z" fill="white"/>
<path d="M27.0889 25.2057L27.1606 23.4258L28.8101 23.5L28.7384 25.2799L27.0889 25.2057Z" fill="white"/>
<path d="M61.0828 28.8397L61.1545 27.3564L62.5171 27.4306L62.4454 28.9139L61.0828 28.8397Z" fill="white"/>
<path d="M27.0889 14.3038L37.9899 19.2727L44.8747 29.3589H45.4485L52.3333 21.201L61.1545 18.8278L52.1182 29.2105V30.7679L37.8464 29.878V28.7656L27.0889 14.3038Z" fill="white"/>
<path d="M46.6676 11.1148L59.5767 8L45.9504 24.1675L42.1494 23.8708L39.209 19.4952L46.6676 11.1148Z" fill="white"/>
<path d="M65.6011 14.6747V15.6388L68.398 20.0885L68.6132 15.0455L65.6011 14.6747Z" fill="white"/>
<path d="M60.6525 8.66745L59.6484 9.70573L68.6131 24.0191V26.5407L71.8404 26.7631L60.6525 8.66745Z" fill="white"/>
<path d="M42.6515 33.9569C41.6475 33.9569 40.5717 33.9569 39.5677 34.0311C20.4192 34.6986 5 38.2584 5 38.2584C5 38.2584 20.4192 36.0335 39.5677 35.366C40.9303 35.2919 42.2212 35.2919 43.5838 35.2919C61.0828 35.2919 76.0717 39 76.0717 39C76.0717 39 60.5091 33.9569 42.6515 33.9569Z" fill="white"/>
<path d="M62.3737 19.4211L61.4414 20.4593L67.8242 30.3971V35.7368L75.4262 38.4067L68.1828 35.2177L68.398 32.3995H70.6929L62.3737 19.4211Z" fill="white"/>
</g>
<defs>
<clipPath id="clip0_601_6">
<rect width="71" height="31" fill="white" transform="translate(5 8)"/>
</clipPath>
</defs>
</svg>
