<svg width="74" height="48" viewBox="0 0 74 48" fill="none" xmlns="http://www.w3.org/2000/svg">
<path d="M4.463 34.905V36.13H6.108V36.907H4.463V38.202H6.318V39H3.483V34.107H6.318V34.905H4.463ZM8.12559 34.66C7.95292 34.66 7.80825 34.6063 7.69159 34.499C7.57959 34.387 7.52359 34.2493 7.52359 34.086C7.52359 33.9227 7.57959 33.7873 7.69159 33.68C7.80825 33.568 7.95292 33.512 8.12559 33.512C8.29825 33.512 8.44059 33.568 8.55259 33.68C8.66925 33.7873 8.72759 33.9227 8.72759 34.086C8.72759 34.2493 8.66925 34.387 8.55259 34.499C8.44059 34.6063 8.29825 34.66 8.12559 34.66ZM8.60859 35.122V39H7.62859V35.122H8.60859ZM11.5158 35.059C11.8052 35.059 12.0595 35.1173 12.2788 35.234C12.4982 35.346 12.6708 35.493 12.7968 35.675V35.122H13.7838V39.028C13.7838 39.3873 13.7115 39.707 13.5668 39.987C13.4222 40.2717 13.2052 40.4957 12.9158 40.659C12.6265 40.827 12.2765 40.911 11.8658 40.911C11.3152 40.911 10.8625 40.7827 10.5078 40.526C10.1578 40.2693 9.95949 39.9193 9.91283 39.476H10.8858C10.9372 39.6533 11.0468 39.7933 11.2148 39.896C11.3875 40.0033 11.5952 40.057 11.8378 40.057C12.1225 40.057 12.3535 39.9707 12.5308 39.798C12.7082 39.63 12.7968 39.3733 12.7968 39.028V38.426C12.6708 38.608 12.4958 38.7597 12.2718 38.881C12.0525 39.0023 11.8005 39.063 11.5158 39.063C11.1892 39.063 10.8905 38.979 10.6198 38.811C10.3492 38.643 10.1345 38.4073 9.97583 38.104C9.82183 37.796 9.74483 37.4437 9.74483 37.047C9.74483 36.655 9.82183 36.3073 9.97583 36.004C10.1345 35.7007 10.3468 35.4673 10.6128 35.304C10.8835 35.1407 11.1845 35.059 11.5158 35.059ZM12.7968 37.061C12.7968 36.823 12.7502 36.62 12.6568 36.452C12.5635 36.2793 12.4375 36.1487 12.2788 36.06C12.1202 35.9667 11.9498 35.92 11.7678 35.92C11.5858 35.92 11.4178 35.9643 11.2638 36.053C11.1098 36.1417 10.9838 36.2723 10.8858 36.445C10.7925 36.613 10.7458 36.8137 10.7458 37.047C10.7458 37.2803 10.7925 37.4857 10.8858 37.663C10.9838 37.8357 11.1098 37.9687 11.2638 38.062C11.4225 38.1553 11.5905 38.202 11.7678 38.202C11.9498 38.202 12.1202 38.1577 12.2788 38.069C12.4375 37.9757 12.5635 37.845 12.6568 37.677C12.7502 37.5043 12.7968 37.299 12.7968 37.061ZM18.766 36.977C18.766 37.117 18.7566 37.243 18.738 37.355H15.903C15.9263 37.635 16.0243 37.8543 16.197 38.013C16.3696 38.1717 16.582 38.251 16.834 38.251C17.198 38.251 17.457 38.0947 17.611 37.782H18.668C18.556 38.1553 18.3413 38.4633 18.024 38.706C17.7066 38.944 17.317 39.063 16.855 39.063C16.4816 39.063 16.1456 38.9813 15.847 38.818C15.553 38.65 15.322 38.4143 15.154 38.111C14.9906 37.8077 14.909 37.4577 14.909 37.061C14.909 36.6597 14.9906 36.3073 15.154 36.004C15.3173 35.7007 15.546 35.4673 15.84 35.304C16.134 35.1407 16.4723 35.059 16.855 35.059C17.2236 35.059 17.5526 35.1383 17.842 35.297C18.136 35.4557 18.3623 35.682 18.521 35.976C18.6843 36.2653 18.766 36.599 18.766 36.977ZM17.751 36.697C17.7463 36.445 17.6553 36.2443 17.478 36.095C17.3006 35.941 17.0836 35.864 16.827 35.864C16.5843 35.864 16.379 35.9387 16.211 36.088C16.0476 36.2327 15.9473 36.4357 15.91 36.697H17.751ZM22.0503 35.066C22.5123 35.066 22.8856 35.213 23.1703 35.507C23.4549 35.7963 23.5973 36.2023 23.5973 36.725V39H22.6173V36.858C22.6173 36.55 22.5403 36.3143 22.3863 36.151C22.2323 35.983 22.0223 35.899 21.7563 35.899C21.4856 35.899 21.2709 35.983 21.1123 36.151C20.9583 36.3143 20.8813 36.55 20.8813 36.858V39H19.9013V35.122H20.8813V35.605C21.0119 35.437 21.1776 35.3063 21.3783 35.213C21.5836 35.115 21.8076 35.066 22.0503 35.066ZM27.1332 35.066C27.4272 35.066 27.6885 35.1313 27.9172 35.262C28.1459 35.388 28.3232 35.577 28.4492 35.829C28.5799 36.0763 28.6452 36.375 28.6452 36.725V39H27.6652V36.858C27.6652 36.55 27.5882 36.3143 27.4342 36.151C27.2802 35.983 27.0702 35.899 26.8042 35.899C26.5335 35.899 26.3189 35.983 26.1602 36.151C26.0062 36.3143 25.9292 36.55 25.9292 36.858V39H24.9492V33.82H25.9292V35.605C26.0552 35.437 26.2232 35.3063 26.4332 35.213C26.6432 35.115 26.8765 35.066 27.1332 35.066ZM33.6021 36.977C33.6021 37.117 33.5928 37.243 33.5741 37.355H30.7391C30.7625 37.635 30.8605 37.8543 31.0331 38.013C31.2058 38.1717 31.4181 38.251 31.6701 38.251C32.0341 38.251 32.2931 38.0947 32.4471 37.782H33.5041C33.3921 38.1553 33.1775 38.4633 32.8601 38.706C32.5428 38.944 32.1531 39.063 31.6911 39.063C31.3178 39.063 30.9818 38.9813 30.6831 38.818C30.3891 38.65 30.1581 38.4143 29.9901 38.111C29.8268 37.8077 29.7451 37.4577 29.7451 37.061C29.7451 36.6597 29.8268 36.3073 29.9901 36.004C30.1535 35.7007 30.3821 35.4673 30.6761 35.304C30.9701 35.1407 31.3085 35.059 31.6911 35.059C32.0598 35.059 32.3888 35.1383 32.6781 35.297C32.9721 35.4557 33.1985 35.682 33.3571 35.976C33.5205 36.2653 33.6021 36.599 33.6021 36.977ZM32.5871 36.697C32.5825 36.445 32.4915 36.2443 32.3141 36.095C32.1368 35.941 31.9198 35.864 31.6631 35.864C31.4205 35.864 31.2151 35.9387 31.0471 36.088C30.8838 36.2327 30.7835 36.4357 30.7461 36.697H32.5871ZM35.2345 34.66C35.0618 34.66 34.9171 34.6063 34.8005 34.499C34.6885 34.387 34.6325 34.2493 34.6325 34.086C34.6325 33.9227 34.6885 33.7873 34.8005 33.68C34.9171 33.568 35.0618 33.512 35.2345 33.512C35.4071 33.512 35.5495 33.568 35.6615 33.68C35.7781 33.7873 35.8365 33.9227 35.8365 34.086C35.8365 34.2493 35.7781 34.387 35.6615 34.499C35.5495 34.6063 35.4071 34.66 35.2345 34.66ZM35.7175 35.122V39H34.7375V35.122H35.7175ZM41.9217 35.066C42.3977 35.066 42.7804 35.213 43.0697 35.507C43.3637 35.7963 43.5107 36.2023 43.5107 36.725V39H42.5307V36.858C42.5307 36.5547 42.4537 36.3237 42.2997 36.165C42.1457 36.0017 41.9357 35.92 41.6697 35.92C41.4037 35.92 41.1914 36.0017 41.0327 36.165C40.8787 36.3237 40.8017 36.5547 40.8017 36.858V39H39.8217V36.858C39.8217 36.5547 39.7447 36.3237 39.5907 36.165C39.4367 36.0017 39.2267 35.92 38.9607 35.92C38.69 35.92 38.4754 36.0017 38.3167 36.165C38.1627 36.3237 38.0857 36.5547 38.0857 36.858V39H37.1057V35.122H38.0857V35.591C38.2117 35.4277 38.3727 35.2993 38.5687 35.206C38.7694 35.1127 38.9887 35.066 39.2267 35.066C39.53 35.066 39.8007 35.1313 40.0387 35.262C40.2767 35.388 40.461 35.57 40.5917 35.808C40.7177 35.584 40.8997 35.4043 41.1377 35.269C41.3804 35.1337 41.6417 35.066 41.9217 35.066ZM45.8407 34.114V39H44.8607V34.114H45.8407ZM49.3779 35.066C49.8399 35.066 50.2132 35.213 50.4979 35.507C50.7826 35.7963 50.9249 36.2023 50.9249 36.725V39H49.9449V36.858C49.9449 36.55 49.8679 36.3143 49.7139 36.151C49.5599 35.983 49.3499 35.899 49.0839 35.899C48.8132 35.899 48.5986 35.983 48.4399 36.151C48.2859 36.3143 48.2089 36.55 48.2089 36.858V39H47.2289V35.122H48.2089V35.605C48.3396 35.437 48.5052 35.3063 48.7059 35.213C48.9112 35.115 49.1352 35.066 49.3779 35.066ZM54.0548 35.927H53.3758V39H52.3818V35.927H51.9408V35.122H52.3818V34.926C52.3818 34.45 52.5172 34.1 52.7878 33.876C53.0585 33.652 53.4668 33.547 54.0128 33.561V34.387C53.7748 34.3823 53.6092 34.422 53.5158 34.506C53.4225 34.59 53.3758 34.7417 53.3758 34.961V35.122H54.0548V35.927ZM56.8319 39.063C56.4586 39.063 56.1226 38.9813 55.8239 38.818C55.5252 38.65 55.2896 38.4143 55.1169 38.111C54.9489 37.8077 54.8649 37.4577 54.8649 37.061C54.8649 36.6643 54.9512 36.3143 55.1239 36.011C55.3012 35.7077 55.5416 35.4743 55.8449 35.311C56.1482 35.143 56.4866 35.059 56.8599 35.059C57.2332 35.059 57.5716 35.143 57.8749 35.311C58.1782 35.4743 58.4162 35.7077 58.5889 36.011C58.7662 36.3143 58.8549 36.6643 58.8549 37.061C58.8549 37.4577 58.7639 37.8077 58.5819 38.111C58.4046 38.4143 58.1619 38.65 57.8539 38.818C57.5506 38.9813 57.2099 39.063 56.8319 39.063ZM56.8319 38.209C57.0092 38.209 57.1749 38.167 57.3289 38.083C57.4876 37.9943 57.6136 37.8637 57.7069 37.691C57.8002 37.5183 57.8469 37.3083 57.8469 37.061C57.8469 36.6923 57.7489 36.41 57.5529 36.214C57.3616 36.0133 57.1259 35.913 56.8459 35.913C56.5659 35.913 56.3302 36.0133 56.1389 36.214C55.9522 36.41 55.8589 36.6923 55.8589 37.061C55.8589 37.4297 55.9499 37.7143 56.1319 37.915C56.3186 38.111 56.5519 38.209 56.8319 38.209ZM60.4278 39.049C60.2504 39.049 60.1034 38.9953 59.9868 38.888C59.8748 38.776 59.8188 38.6383 59.8188 38.475C59.8188 38.3117 59.8748 38.1763 59.9868 38.069C60.1034 37.957 60.2504 37.901 60.4278 37.901C60.6004 37.901 60.7428 37.957 60.8548 38.069C60.9668 38.1763 61.0228 38.3117 61.0228 38.475C61.0228 38.6383 60.9668 38.776 60.8548 38.888C60.7428 38.9953 60.6004 39.049 60.4278 39.049ZM61.9801 37.047C61.9801 36.655 62.0571 36.3073 62.2111 36.004C62.3698 35.7007 62.5845 35.4673 62.8551 35.304C63.1258 35.1407 63.4268 35.059 63.7581 35.059C64.0101 35.059 64.2505 35.115 64.4791 35.227C64.7078 35.3343 64.8898 35.479 65.0251 35.661V33.82H66.0191V39H65.0251V38.426C64.9038 38.6173 64.7335 38.7713 64.5141 38.888C64.2948 39.0047 64.0405 39.063 63.7511 39.063C63.4245 39.063 63.1258 38.979 62.8551 38.811C62.5845 38.643 62.3698 38.4073 62.2111 38.104C62.0571 37.796 61.9801 37.4437 61.9801 37.047ZM65.0321 37.061C65.0321 36.823 64.9855 36.62 64.8921 36.452C64.7988 36.2793 64.6728 36.1487 64.5141 36.06C64.3555 35.9667 64.1851 35.92 64.0031 35.92C63.8211 35.92 63.6531 35.9643 63.4991 36.053C63.3451 36.1417 63.2191 36.2723 63.1211 36.445C63.0278 36.613 62.9811 36.8137 62.9811 37.047C62.9811 37.2803 63.0278 37.4857 63.1211 37.663C63.2191 37.8357 63.3451 37.9687 63.4991 38.062C63.6578 38.1553 63.8258 38.202 64.0031 38.202C64.1851 38.202 64.3555 38.1577 64.5141 38.069C64.6728 37.9757 64.7988 37.845 64.8921 37.677C64.9855 37.5043 65.0321 37.299 65.0321 37.061ZM71.0013 36.977C71.0013 37.117 70.9919 37.243 70.9733 37.355H68.1383C68.1616 37.635 68.2596 37.8543 68.4323 38.013C68.6049 38.1717 68.8173 38.251 69.0693 38.251C69.4333 38.251 69.6923 38.0947 69.8463 37.782H70.9033C70.7913 38.1553 70.5766 38.4633 70.2593 38.706C69.9419 38.944 69.5523 39.063 69.0903 39.063C68.7169 39.063 68.3809 38.9813 68.0823 38.818C67.7883 38.65 67.5573 38.4143 67.3893 38.111C67.2259 37.8077 67.1443 37.4577 67.1443 37.061C67.1443 36.6597 67.2259 36.3073 67.3893 36.004C67.5526 35.7007 67.7813 35.4673 68.0753 35.304C68.3693 35.1407 68.7076 35.059 69.0903 35.059C69.4589 35.059 69.7879 35.1383 70.0773 35.297C70.3713 35.4557 70.5976 35.682 70.7563 35.976C70.9196 36.2653 71.0013 36.599 71.0013 36.977ZM69.9863 36.697C69.9816 36.445 69.8906 36.2443 69.7133 36.095C69.5359 35.941 69.3189 35.864 69.0623 35.864C68.8196 35.864 68.6143 35.9387 68.4463 36.088C68.2829 36.2327 68.1826 36.4357 68.1453 36.697H69.9863Z" fill="#307671"/>
<g clip-path="url(#clip0_301_2)">
<path d="M12.3737 10.1196V14.7129L15.6263 11.4832V10.4785L12.3737 10.1196Z" fill="#3C7670"/>
<path d="M21 6.7464L8.69697 19.8086H10.8889V23.6124L0 26.3397L12.0909 24.2584V17.8708L21.4242 7.9665L21 6.7464Z" fill="#3C7670"/>
<path d="M19.7273 16.579L19.798 14.8565L21.4242 14.9282L21.3535 16.6507L19.7273 16.579Z" fill="#9AC496"/>
<path d="M53.5252 20.0957L53.5959 18.6603L54.9394 18.732L54.8687 20.1675L53.5252 20.0957Z" fill="#9AC496"/>
<path d="M19.7273 18.6603L19.798 16.9378L21.4242 17.0096L21.3535 18.7321L19.7273 18.6603Z" fill="#9AC496"/>
<path d="M55.1515 21.9617L55.2222 20.5263L56.5657 20.5981L56.4949 22.0335L55.1515 21.9617Z" fill="#9AC496"/>
<path d="M21.7071 18.7321L21.7778 17.0096L23.404 17.0814L23.3333 18.7321H21.7071Z" fill="#9AC496"/>
<path d="M53.4545 21.8899L53.5252 20.4545L54.8687 20.5263L54.798 21.9617L53.4545 21.8899Z" fill="#9AC496"/>
<path d="M21.7778 16.6507L21.8485 14.9282L23.4748 15L23.404 16.7225L21.7778 16.6507Z" fill="#9AC496"/>
<path d="M55.2929 20.1674L55.3636 18.732L56.7071 18.8038L56.6364 20.2392L55.2929 20.1674Z" fill="#9AC496"/>
<path d="M21.7778 6.10049L32.5253 10.9091L39.3131 20.6699H39.8788L46.6667 12.7751L55.3636 10.4785L46.4546 20.5263V22.0335L32.3838 21.1723V20.0957L21.7778 6.10049Z" fill="#9AC496"/>
<path d="M41.0808 3.01435L53.8081 0L40.3737 15.6459L36.6263 15.3589L33.7273 11.1244L41.0808 3.01435Z" fill="#9AC496"/>
<path d="M59.7475 6.45935V7.39237L62.5051 11.6986L62.7172 6.8182L59.7475 6.45935Z" fill="#3C7670"/>
<path d="M54.8687 0.645905L53.8788 1.65069L62.7172 15.5024V17.9426L65.899 18.1579L54.8687 0.645905Z" fill="#3C7670"/>
<path d="M37.1212 25.1196C36.1313 25.1196 35.0707 25.1196 34.0808 25.1914C15.202 25.8373 0 29.2823 0 29.2823C0 29.2823 15.202 27.1292 34.0808 26.4833C35.4242 26.4115 36.697 26.4115 38.0404 26.4115C55.2929 26.4115 70.0707 30 70.0707 30C70.0707 30 54.7273 25.1196 37.1212 25.1196Z" fill="#3C7670"/>
<path d="M56.5656 11.0526L55.6465 12.0574L61.9394 21.6746V26.8421L69.4343 29.4258L62.2929 26.3397L62.505 23.6124H64.7677L56.5656 11.0526Z" fill="#3C7670"/>
</g>
<defs>
<clipPath id="clip0_301_2">
<rect width="70" height="30" fill="white"/>
</clipPath>
</defs>
</svg>
