<svg width="205" height="31" viewBox="0 0 205 31" fill="none" xmlns="http://www.w3.org/2000/svg">
<path d="M90.508 16.98V19.08H93.328V20.412H90.508V22.632H93.688V24H88.828V15.612H93.688V16.98H90.508ZM96.7867 16.56C96.4907 16.56 96.2427 16.468 96.0427 16.284C95.8507 16.092 95.7547 15.856 95.7547 15.576C95.7547 15.296 95.8507 15.064 96.0427 14.88C96.2427 14.688 96.4907 14.592 96.7867 14.592C97.0827 14.592 97.3267 14.688 97.5187 14.88C97.7187 15.064 97.8187 15.296 97.8187 15.576C97.8187 15.856 97.7187 16.092 97.5187 16.284C97.3267 16.468 97.0827 16.56 96.7867 16.56ZM97.6147 17.352V24H95.9347V17.352H97.6147ZM102.599 17.244C103.095 17.244 103.531 17.344 103.907 17.544C104.283 17.736 104.579 17.988 104.795 18.3V17.352H106.487V24.048C106.487 24.664 106.363 25.212 106.115 25.692C105.867 26.18 105.495 26.564 104.999 26.844C104.503 27.132 103.903 27.276 103.199 27.276C102.255 27.276 101.479 27.056 100.871 26.616C100.271 26.176 99.9306 25.576 99.8506 24.816H101.519C101.607 25.12 101.795 25.36 102.083 25.536C102.379 25.72 102.735 25.812 103.151 25.812C103.639 25.812 104.035 25.664 104.339 25.368C104.643 25.08 104.795 24.64 104.795 24.048V23.016C104.579 23.328 104.279 23.588 103.895 23.796C103.519 24.004 103.087 24.108 102.599 24.108C102.039 24.108 101.527 23.964 101.063 23.676C100.599 23.388 100.231 22.984 99.9586 22.464C99.6946 21.936 99.5626 21.332 99.5626 20.652C99.5626 19.98 99.6946 19.384 99.9586 18.864C100.231 18.344 100.595 17.944 101.051 17.664C101.515 17.384 102.031 17.244 102.599 17.244ZM104.795 20.676C104.795 20.268 104.715 19.92 104.555 19.632C104.395 19.336 104.179 19.112 103.907 18.96C103.635 18.8 103.343 18.72 103.031 18.72C102.719 18.72 102.431 18.796 102.167 18.948C101.903 19.1 101.687 19.324 101.519 19.62C101.359 19.908 101.279 20.252 101.279 20.652C101.279 21.052 101.359 21.404 101.519 21.708C101.687 22.004 101.903 22.232 102.167 22.392C102.439 22.552 102.727 22.632 103.031 22.632C103.343 22.632 103.635 22.556 103.907 22.404C104.179 22.244 104.395 22.02 104.555 21.732C104.715 21.436 104.795 21.084 104.795 20.676ZM115.027 20.532C115.027 20.772 115.011 20.988 114.979 21.18H110.119C110.159 21.66 110.327 22.036 110.623 22.308C110.919 22.58 111.283 22.716 111.715 22.716C112.339 22.716 112.783 22.448 113.047 21.912H114.859C114.667 22.552 114.299 23.08 113.755 23.496C113.211 23.904 112.543 24.108 111.751 24.108C111.111 24.108 110.535 23.968 110.023 23.688C109.519 23.4 109.123 22.996 108.835 22.476C108.555 21.956 108.415 21.356 108.415 20.676C108.415 19.988 108.555 19.384 108.835 18.864C109.115 18.344 109.507 17.944 110.011 17.664C110.515 17.384 111.095 17.244 111.751 17.244C112.383 17.244 112.947 17.38 113.443 17.652C113.947 17.924 114.335 18.312 114.607 18.816C114.887 19.312 115.027 19.884 115.027 20.532ZM113.287 20.052C113.279 19.62 113.123 19.276 112.819 19.02C112.515 18.756 112.143 18.624 111.703 18.624C111.287 18.624 110.935 18.752 110.647 19.008C110.367 19.256 110.195 19.604 110.131 20.052H113.287ZM120.658 17.256C121.45 17.256 122.09 17.508 122.578 18.012C123.066 18.508 123.31 19.204 123.31 20.1V24H121.63V20.328C121.63 19.8 121.498 19.396 121.234 19.116C120.97 18.828 120.61 18.684 120.154 18.684C119.69 18.684 119.322 18.828 119.05 19.116C118.786 19.396 118.654 19.8 118.654 20.328V24H116.974V17.352H118.654V18.18C118.878 17.892 119.162 17.668 119.506 17.508C119.858 17.34 120.242 17.256 120.658 17.256ZM129.371 17.256C129.875 17.256 130.323 17.368 130.715 17.592C131.107 17.808 131.411 18.132 131.627 18.564C131.851 18.988 131.963 19.5 131.963 20.1V24H130.283V20.328C130.283 19.8 130.151 19.396 129.887 19.116C129.623 18.828 129.263 18.684 128.807 18.684C128.343 18.684 127.975 18.828 127.703 19.116C127.439 19.396 127.307 19.8 127.307 20.328V24H125.627V15.12H127.307V18.18C127.523 17.892 127.811 17.668 128.171 17.508C128.531 17.34 128.931 17.256 129.371 17.256ZM140.461 20.532C140.461 20.772 140.445 20.988 140.413 21.18H135.553C135.593 21.66 135.761 22.036 136.057 22.308C136.353 22.58 136.717 22.716 137.149 22.716C137.773 22.716 138.217 22.448 138.481 21.912H140.293C140.101 22.552 139.733 23.08 139.189 23.496C138.645 23.904 137.977 24.108 137.185 24.108C136.545 24.108 135.969 23.968 135.457 23.688C134.953 23.4 134.557 22.996 134.269 22.476C133.989 21.956 133.849 21.356 133.849 20.676C133.849 19.988 133.989 19.384 134.269 18.864C134.549 18.344 134.941 17.944 135.445 17.664C135.949 17.384 136.529 17.244 137.185 17.244C137.817 17.244 138.381 17.38 138.877 17.652C139.381 17.924 139.769 18.312 140.041 18.816C140.321 19.312 140.461 19.884 140.461 20.532ZM138.721 20.052C138.713 19.62 138.557 19.276 138.253 19.02C137.949 18.756 137.577 18.624 137.137 18.624C136.721 18.624 136.369 18.752 136.081 19.008C135.801 19.256 135.629 19.604 135.565 20.052H138.721ZM143.259 16.56C142.963 16.56 142.715 16.468 142.515 16.284C142.323 16.092 142.227 15.856 142.227 15.576C142.227 15.296 142.323 15.064 142.515 14.88C142.715 14.688 142.963 14.592 143.259 14.592C143.555 14.592 143.799 14.688 143.991 14.88C144.191 15.064 144.291 15.296 144.291 15.576C144.291 15.856 144.191 16.092 143.991 16.284C143.799 16.468 143.555 16.56 143.259 16.56ZM144.087 17.352V24H142.407V17.352H144.087ZM154.723 17.256C155.539 17.256 156.195 17.508 156.691 18.012C157.195 18.508 157.447 19.204 157.447 20.1V24H155.767V20.328C155.767 19.808 155.635 19.412 155.371 19.14C155.107 18.86 154.747 18.72 154.291 18.72C153.835 18.72 153.471 18.86 153.199 19.14C152.935 19.412 152.803 19.808 152.803 20.328V24H151.123V20.328C151.123 19.808 150.991 19.412 150.727 19.14C150.463 18.86 150.103 18.72 149.647 18.72C149.183 18.72 148.815 18.86 148.543 19.14C148.279 19.412 148.147 19.808 148.147 20.328V24H146.467V17.352H148.147V18.156C148.363 17.876 148.639 17.656 148.975 17.496C149.319 17.336 149.695 17.256 150.103 17.256C150.623 17.256 151.087 17.368 151.495 17.592C151.903 17.808 152.219 18.12 152.443 18.528C152.659 18.144 152.971 17.836 153.379 17.604C153.795 17.372 154.243 17.256 154.723 17.256ZM161.441 15.624V24H159.761V15.624H161.441ZM167.505 17.256C168.297 17.256 168.937 17.508 169.425 18.012C169.913 18.508 170.157 19.204 170.157 20.1V24H168.477V20.328C168.477 19.8 168.345 19.396 168.081 19.116C167.817 18.828 167.457 18.684 167.001 18.684C166.537 18.684 166.169 18.828 165.897 19.116C165.633 19.396 165.501 19.8 165.501 20.328V24H163.821V17.352H165.501V18.18C165.725 17.892 166.009 17.668 166.353 17.508C166.705 17.34 167.089 17.256 167.505 17.256ZM175.523 18.732H174.359V24H172.655V18.732H171.899V17.352H172.655V17.016C172.655 16.2 172.887 15.6 173.351 15.216C173.815 14.832 174.515 14.652 175.451 14.676V16.092C175.043 16.084 174.759 16.152 174.599 16.296C174.439 16.44 174.359 16.7 174.359 17.076V17.352H175.523V18.732ZM180.283 24.108C179.643 24.108 179.067 23.968 178.555 23.688C178.043 23.4 177.639 22.996 177.343 22.476C177.055 21.956 176.911 21.356 176.911 20.676C176.911 19.996 177.059 19.396 177.355 18.876C177.659 18.356 178.071 17.956 178.591 17.676C179.111 17.388 179.691 17.244 180.331 17.244C180.971 17.244 181.551 17.388 182.071 17.676C182.591 17.956 182.999 18.356 183.295 18.876C183.599 19.396 183.751 19.996 183.751 20.676C183.751 21.356 183.595 21.956 183.283 22.476C182.979 22.996 182.563 23.4 182.035 23.688C181.515 23.968 180.931 24.108 180.283 24.108ZM180.283 22.644C180.587 22.644 180.871 22.572 181.135 22.428C181.407 22.276 181.623 22.052 181.783 21.756C181.943 21.46 182.023 21.1 182.023 20.676C182.023 20.044 181.855 19.56 181.519 19.224C181.191 18.88 180.787 18.708 180.307 18.708C179.827 18.708 179.423 18.88 179.095 19.224C178.775 19.56 178.615 20.044 178.615 20.676C178.615 21.308 178.771 21.796 179.083 22.14C179.403 22.476 179.803 22.644 180.283 22.644ZM186.448 24.084C186.144 24.084 185.892 23.992 185.692 23.808C185.5 23.616 185.404 23.38 185.404 23.1C185.404 22.82 185.5 22.588 185.692 22.404C185.892 22.212 186.144 22.116 186.448 22.116C186.744 22.116 186.988 22.212 187.18 22.404C187.372 22.588 187.468 22.82 187.468 23.1C187.468 23.38 187.372 23.616 187.18 23.808C186.988 23.992 186.744 24.084 186.448 24.084ZM189.109 20.652C189.109 19.98 189.241 19.384 189.505 18.864C189.777 18.344 190.145 17.944 190.609 17.664C191.073 17.384 191.589 17.244 192.157 17.244C192.589 17.244 193.001 17.34 193.393 17.532C193.785 17.716 194.097 17.964 194.329 18.276V15.12H196.033V24H194.329V23.016C194.121 23.344 193.829 23.608 193.453 23.808C193.077 24.008 192.641 24.108 192.145 24.108C191.585 24.108 191.073 23.964 190.609 23.676C190.145 23.388 189.777 22.984 189.505 22.464C189.241 21.936 189.109 21.332 189.109 20.652ZM194.341 20.676C194.341 20.268 194.261 19.92 194.101 19.632C193.941 19.336 193.725 19.112 193.453 18.96C193.181 18.8 192.889 18.72 192.577 18.72C192.265 18.72 191.977 18.796 191.713 18.948C191.449 19.1 191.233 19.324 191.065 19.62C190.905 19.908 190.825 20.252 190.825 20.652C190.825 21.052 190.905 21.404 191.065 21.708C191.233 22.004 191.449 22.232 191.713 22.392C191.985 22.552 192.273 22.632 192.577 22.632C192.889 22.632 193.181 22.556 193.453 22.404C193.725 22.244 193.941 22.02 194.101 21.732C194.261 21.436 194.341 21.084 194.341 20.676ZM204.574 20.532C204.574 20.772 204.558 20.988 204.526 21.18H199.666C199.706 21.66 199.874 22.036 200.17 22.308C200.466 22.58 200.83 22.716 201.262 22.716C201.886 22.716 202.33 22.448 202.594 21.912H204.406C204.214 22.552 203.846 23.08 203.302 23.496C202.758 23.904 202.09 24.108 201.298 24.108C200.658 24.108 200.082 23.968 199.57 23.688C199.066 23.4 198.67 22.996 198.382 22.476C198.102 21.956 197.962 21.356 197.962 20.676C197.962 19.988 198.102 19.384 198.382 18.864C198.662 18.344 199.054 17.944 199.558 17.664C200.062 17.384 200.642 17.244 201.298 17.244C201.93 17.244 202.494 17.38 202.99 17.652C203.494 17.924 203.882 18.312 204.154 18.816C204.434 19.312 204.574 19.884 204.574 20.532ZM202.834 20.052C202.826 19.62 202.67 19.276 202.366 19.02C202.062 18.756 201.69 18.624 201.25 18.624C200.834 18.624 200.482 18.752 200.194 19.008C199.914 19.256 199.742 19.604 199.678 20.052H202.834Z" fill="#307671"/>
<g clip-path="url(#clip0_501_6)">
<path d="M12.5505 10.4569V15.2034L15.8495 11.866V10.8278L12.5505 10.4569Z" fill="#3C7670"/>
<path d="M21.3 6.97128L8.82121 20.4689H11.0444V24.3995L0 27.2177L12.2636 25.067V18.4665L21.7303 8.23205L21.3 6.97128Z" fill="#3C7670"/>
<path d="M20.009 17.1316L20.0808 15.3517L21.7302 15.4258L21.6585 17.2058L20.009 17.1316Z" fill="#9AC496"/>
<path d="M54.2899 20.7655L54.3616 19.2823L55.7243 19.3565L55.6525 20.8397L54.2899 20.7655Z" fill="#9AC496"/>
<path d="M20.009 19.2823L20.0808 17.5024L21.7302 17.5765L21.6585 19.3564L20.009 19.2823Z" fill="#9AC496"/>
<path d="M55.9395 22.6938L56.0112 21.2105L57.3738 21.2847L57.3021 22.768L55.9395 22.6938Z" fill="#9AC496"/>
<path d="M22.0172 19.3565L22.0889 17.5766L23.7384 17.6507L23.6667 19.3565H22.0172Z" fill="#9AC496"/>
<path d="M54.2181 22.6196L54.2899 21.1364L55.6525 21.2105L55.5808 22.6938L54.2181 22.6196Z" fill="#9AC496"/>
<path d="M22.0889 17.2057L22.1606 15.4258L23.8101 15.5L23.7384 17.2799L22.0889 17.2057Z" fill="#9AC496"/>
<path d="M56.0828 20.8397L56.1545 19.3564L57.5171 19.4306L57.4454 20.9139L56.0828 20.8397Z" fill="#9AC496"/>
<path d="M22.0889 6.30383L32.9899 11.2727L39.8747 21.3589H40.4485L47.3333 13.201L56.1545 10.8278L47.1182 21.2105V22.7679L32.8464 21.878V20.7656L22.0889 6.30383Z" fill="#9AC496"/>
<path d="M41.6677 3.11483L54.5768 0L40.9505 16.1675L37.1495 15.8708L34.2091 11.4952L41.6677 3.11483Z" fill="#9AC496"/>
<path d="M60.6011 6.67465V7.63877L63.398 12.0885L63.6132 7.04547L60.6011 6.67465Z" fill="#3C7670"/>
<path d="M55.6525 0.66745L54.6484 1.70573L63.6131 16.0191V18.5407L66.8404 18.7631L55.6525 0.66745Z" fill="#3C7670"/>
<path d="M37.6515 25.9569C36.6475 25.9569 35.5717 25.9569 34.5677 26.0311C15.4192 26.6986 0 30.2584 0 30.2584C0 30.2584 15.4192 28.0335 34.5677 27.366C35.9303 27.2919 37.2212 27.2919 38.5838 27.2919C56.0828 27.2919 71.0717 31 71.0717 31C71.0717 31 55.5091 25.9569 37.6515 25.9569Z" fill="#3C7670"/>
<path d="M57.3737 11.4211L56.4414 12.4593L62.8242 22.3971V27.7368L70.4262 30.4067L63.1828 27.2177L63.398 24.3995H65.6929L57.3737 11.4211Z" fill="#3C7670"/>
</g>
<defs>
<clipPath id="clip0_501_6">
<rect width="71" height="31" fill="white"/>
</clipPath>
</defs>
</svg>
