<svg width="107" height="77" xmlns="http://www.w3.org/2000/svg"><g fill="none"><g fill="#FF901D"><path d="M7.687 14.755c2.54-2.748 5.2-5.22 8.13-7.516.345-.27.842.054.726.474-1.642 5.986-4.512 11.902-8.935 16.3-.2-3.08-.202-6.184.079-9.258zm-.079 9.26a68.133 68.133 0 01-6.726-9.628c-.226-.39-.828-.251-.85.198-.358 6.989 2.335 15.165 8.895 18.463-.654-2.972-1.125-5.996-1.32-9.033zm1.319 9.031a65.408 65.408 0 015.515-9.288c.25-.351.811-.19.83.24.256 6.036-.788 12.417-3.705 17.716-1.081-2.82-1.993-5.718-2.64-8.668zm2.64 8.67a71.227 71.227 0 01-9.251-7.02c-.335-.3-.861.013-.748.446 1.75 6.675 6.757 13.525 13.885 14.734-1.482-2.623-2.809-5.346-3.886-8.16z"/><path d="M15.452 49.875a64.043 64.043 0 012.568-10.403c.138-.406.719-.414.863-.01 2.023 5.663 2.843 12.052 1.622 17.924-1.855-2.38-3.572-4.883-5.053-7.511zm5.054 7.513A73.11 73.11 0 019.617 53.37c-.408-.188-.818.263-.582.643 3.637 5.882 10.445 10.973 17.617 10.096-2.202-2.092-4.282-4.326-6.146-6.72z"/><path d="M26.65 64.107a62.624 62.624 0 01-.634-10.734c.012-.428.566-.604.823-.26 3.622 4.87 6.324 10.786 6.97 16.783-2.518-1.755-4.936-3.674-7.16-5.789zm72.663-49.352a68.539 68.539 0 00-8.13-7.516c-.345-.27-.842.054-.726.474 1.642 5.986 4.512 11.902 8.935 16.3.2-3.08.202-6.184-.079-9.258zm.079 9.26a68.133 68.133 0 006.726-9.628c.226-.39.828-.251.85.198.358 6.989-2.335 15.165-8.895 18.463.654-2.972 1.125-5.996 1.32-9.033zm-1.319 9.031a65.408 65.408 0 00-5.515-9.288c-.25-.351-.811-.19-.83.24-.256 6.036.788 12.417 3.705 17.716 1.081-2.82 1.993-5.718 2.64-8.668zm-2.64 8.67a71.227 71.227 0 009.251-7.02c.335-.3.861.013.748.446-1.75 6.675-6.757 13.525-13.885 14.734 1.482-2.623 2.809-5.346 3.886-8.16z"/><path d="M91.548 49.875a64.043 64.043 0 00-2.568-10.403c-.138-.406-.719-.414-.863-.01-2.023 5.663-2.843 12.052-1.622 17.924 1.855-2.38 3.572-4.883 5.053-7.511zm-5.054 7.513a73.11 73.11 0 0010.889-4.018c.408-.188.818.263.582.643-3.637 5.882-10.445 10.973-17.617 10.096 2.202-2.092 4.282-4.326 6.146-6.72z"/><path d="M80.35 64.107c.516-3.604.735-7.12.634-10.734-.012-.428-.566-.604-.823-.26-3.622 4.87-6.324 10.786-6.97 16.783 2.518-1.755 4.936-3.674 7.16-5.789z"/></g><path d="M42.688 73.739c-2.885-1.425-5.522-2.976-7.839-4.608l-.002-.001c-2.586-1.82-4.917-3.723-6.93-5.657v-.002c-2.26-2.167-4.261-4.378-5.95-6.57l-.002-.002v-.001c-1.905-2.47-3.552-4.942-4.894-7.346l-.002-.003c-1.521-2.723-2.787-5.406-3.76-7.976l-.001-.003c-1.112-2.93-1.972-5.782-2.557-8.476v-.001c-.672-3.085-1.102-6.056-1.278-8.83v-.004c-.204-3.194-.179-6.238.076-9.048.003-.034.003-.068.003-.102a63.086 63.086 0 012.392-12.95 1.609 1.609 0 10-3.088-.913A66.307 66.307 0 006.33 15.003c-.002.032-.002.063-.002.094-.255 2.926-.279 6.076-.068 9.37v.002c.186 2.933.637 6.063 1.343 9.303l.001.008c.62 2.85 1.526 5.857 2.694 8.936v.002c1.03 2.718 2.363 5.547 3.962 8.408l.001.001.002.003c1.419 2.542 3.153 5.146 5.154 7.74 0 .002.002.002.002.003 1.786 2.318 3.894 4.648 6.266 6.924l.002.002c2.13 2.047 4.59 4.056 7.309 5.97 2.453 1.728 5.234 3.364 8.268 4.863a1.61 1.61 0 002.156-.733 1.614 1.614 0 00-.732-2.16zm57.984-58.643c0-.031 0-.062-.002-.093a66.289 66.289 0 00-2.526-13.756 1.61 1.61 0 10-3.088.913 63.088 63.088 0 012.392 12.949c0 .034 0 .068.004.102.254 2.81.28 5.854.075 9.05v.003c-.176 2.772-.605 5.742-1.277 8.83-.585 2.694-1.446 5.546-2.558 8.476l-.001.003c-.973 2.57-2.239 5.254-3.762 7.978v.001c-1.342 2.404-2.988 4.875-4.894 7.346l-.001.002c-1.69 2.193-3.692 4.403-5.95 6.571l-.002.002c-2.012 1.933-4.343 3.836-6.929 5.656l-.002.002c-2.317 1.633-4.954 3.183-7.84 4.608a1.613 1.613 0 00.714 3.059 1.6 1.6 0 00.71-.167c3.034-1.498 5.815-3.134 8.267-4.862l.002-.001c2.72-1.915 5.18-3.924 7.309-5.97l.002-.002c2.373-2.278 4.482-4.608 6.267-6.926 2.003-2.597 3.738-5.202 5.157-7.744l.002-.005c1.6-2.86 2.931-5.688 3.96-8.404v-.001c1.168-3.078 2.074-6.083 2.693-8.932v-.002c.707-3.246 1.16-6.38 1.346-9.315v-.006c.21-3.293.187-6.442-.068-9.365z" fill="#F7BC14"/><path d="M43.84 46.794a19.69 19.69 0 01-12.783-4.722A19.893 19.893 0 0124.06 26.91v-5.46c0-.63.246-1.224.692-1.67a2.338 2.338 0 011.669-.688l14.272.031a1.614 1.614 0 01-.003 3.23h-.004l-13.402-.03v4.587c0 4.898 2.137 9.528 5.863 12.704a16.459 16.459 0 0013.332 3.738c.166-.027.333-.055.501-.085a1.614 1.614 0 01.556 3.18 19.794 19.794 0 01-3.697.348zm18.32 0c-1.049 0-2.104-.084-3.156-.255-.178-.03-.359-.06-.54-.092a1.614 1.614 0 01.556-3.18c.168.03.335.057.5.084a16.46 16.46 0 0013.333-3.738 16.666 16.666 0 005.863-12.704v-4.587l-13.402.03h-.004c-.888 0-1.61-.72-1.612-1.611a1.613 1.613 0 011.61-1.619l14.272-.03h.006c.627 0 1.217.243 1.662.688.446.446.692 1.039.692 1.67v5.46c0 5.846-2.55 11.373-6.997 15.163a19.694 19.694 0 01-12.782 4.72z" fill="#FFB125"/><path d="M42 70h22c-9.113-11.06-8.162-27-8.162-27h-5.676S51.113 58.94 42 70z" fill="#FED130"/><path d="M55.966 43H50.38s.145 2.475-.228 6.15c-.71 7.007 1.077 14.075 5.294 19.798.261.355.532.706.813 1.052H64c-8.97-11.06-8.034-27-8.034-27z" fill="#F7BC14"/><path d="M37 14v14.102c0 8.344 3.957 16.19 10.66 21.14a8.988 8.988 0 0010.68 0A26.275 26.275 0 0069 28.101V14H37z" fill="#FED130"/><path d="M61.308 14v14.103c0 8.343-3.995 16.19-10.762 21.139a9.07 9.07 0 01-1.546.911 9.148 9.148 0 009.238-.911C65.005 44.293 69 36.446 69 28.102V14h-7.692z" fill="#F7BC14"/><path d="M70.068 17H35.932c-.515 0-.932-.437-.932-.977v-4.046c0-.54.417-.977.932-.977h34.136c.515 0 .932.437.932.977v4.046c0 .54-.417.977-.932.977z" fill="#FFB125"/><path d="M71.017 11H64v6h7.017a.98.98 0 00.983-.977v-4.047a.98.98 0 00-.983-.976z" fill="#FF901D"/><path d="M71.24 77H34.76a.77.77 0 01-.712-1.039l2.709-7.456a.76.76 0 01.712-.505h31.062a.76.76 0 01.712.505l2.71 7.456A.77.77 0 0171.24 77z" fill="#FFB125"/><path d="M71.952 75.961l-2.74-7.456a.768.768 0 00-.72-.505H61l3.306 9h6.925a.771.771 0 00.72-1.039z" fill="#FF901D"/></g></svg>