<svg width="514" height="718" xmlns="http://www.w3.org/2000/svg"><g fill="none" fill-rule="evenodd"><path d="M119.208 19.718L422.28 71.056c51.692 8.757 87.846 55.95 82.843 108.139L464.426 603.71c-3.17 33.065-28.841 59.513-61.797 63.667L113.79 703.783C58.996 710.69 8.977 671.87 2.07 617.073a100 100 0 01-.786-12.756l1.222-486.255c.138-55.228 45.022-99.887 100.25-99.748a100 100 0 0116.45 1.404z" stroke="#979797" fill="#629CED"/><path d="M162.89 88.717l213.39 36.143c51.693 8.756 87.846 55.95 82.843 108.14l-31.047 323.84c-3.17 33.065-28.842 59.513-61.798 63.666L157.79 646.784c-54.795 6.907-104.814-31.915-111.72-86.71a100 100 0 01-.784-12.756l.904-360.257c.139-55.228 45.023-99.887 100.251-99.748a100 100 0 0116.45 1.404z" fill="#FFF"/><g transform="translate(78 146)" fill-rule="nonzero"><path fill="#B4BFD1" d="M100 418H86V302h14z"/><path d="M134.407 272h-91.55c-14.077 0-25.593-11.797-25.593-26.21L0 107.22C0 92.797 11.516 81 25.593 81h91.539c14.077 0 25.593 11.797 25.593 26.22L160 245.79c0 14.413-11.516 26.21-25.593 26.21z" fill="#7F95BA"/><rect fill="#89A1C9" transform="rotate(180 92.5 289.5)" x="22" y="272" width="141" height="35" rx="13.77"/><path d="M93.699 409.09l59.339 15.75c1.289.352 2.115 1.58 1.938 2.88-.177 1.298-1.304 2.271-2.642 2.28H33.666c-1.338-.009-2.465-.982-2.642-2.28-.177-1.3.65-2.528 1.938-2.88l59.34-15.75c.457-.12.939-.12 1.397 0z" fill="#B6C2D6"/><path d="M130 40.306s4.926-3.615 5.699 1.183c1.142 7.084-1.088 14.157-4.557 16.511L130 40.306z" fill="#F2D1AC"/><path d="M131.214 59a1.07 1.07 0 01-1.028-.793 1.136 1.136 0 01.443-1.252c2.777-1.935 5.097-8.293 3.99-15.185-.127-.8-.372-1.278-.744-1.445-.852-.367-2.501.511-3.193 1a1.036 1.036 0 01-1.485-.26 1.145 1.145 0 01.25-1.551c.309-.234 3.044-2.223 5.205-1.245 1.185.568 1.98 1.765 2.075 3.123 1.064 7.048-1.064 14.696-4.928 17.408a1.034 1.034 0 01-.585.2z" fill="#365894"/><path d="M76.686 37.23v.541c.11 3.72 1.107 19.121 1.107 19.121l2.315 38.154s19.783 15.047 29.065 12.707 9.282-10.41 9.282-10.41V85.805c2.315-1.104 9.282-8.093 11.597-16.185 2.315-8.092 2.326-25.391 2.326-30.061 0-4.67-1.108-21.98-2.326-21.98-.244 0-.122-.464.221-1.237 1.263-2.86 5.539-9.936 5.539-12.64 0-3.467 2.315-1.105-9.282 2.318-11.597 3.422-23.228.298-30.106-1.193-10.445-2.307-19.727 6.944-22.053 12.718-1.562 3.875 2.315 17.355 2.315 19.684z" fill="#F2D1AC"/><path d="M76.686 37.219v.54C81.35 42.426 84.796 43 84.796 43c2.326-6.94 0-23.114 0-24.272a131.924 131.924 0 0022.046 2.317c7.555 0 18.157-3.034 23.43-4.711 1.263-2.858 5.54-9.93 5.54-12.633 0-3.464 2.315-1.103-9.284 2.317-11.6 3.42-23.22.309-30.1-1.18-10.447-2.306-19.73 6.94-22.057 12.71-1.562 3.872 2.315 17.343 2.315 19.67z" fill="#824E29"/><path d="M107.004 107.997c-10.129 0-26.723-12.532-27.484-13.116a1.102 1.102 0 01-.43-.804l-2.306-38.102c0-.706-1.104-17.37-1.104-19.696a41.568 41.568 0 00-.816-4.541c-1.424-6.856-2.516-12.741-1.413-15.497C75.691 10.5 85.158.337 96.611 2.883l1.51.342c6.974 1.576 17.51 3.967 27.981.826C132.038 2.277 134.19.833 134.93.36a1.292 1.292 0 011.555-.176c.44.318.623.884.453 1.4a5.142 5.142 0 00-.133 1.223c0 3.383-4.578 11.936-5.715 14.02a117.263 117.263 0 012.207 21.767c0 14.66-.795 24.854-2.361 30.321a33.748 33.748 0 01-11.508 16.477v10.923c0 .088-.121 8.972-10.084 11.463a9.94 9.94 0 01-2.34.22zm-25.741-14.57c2.814 2.082 19.628 14.195 27.583 12.211 8.231-2.06 8.408-9.004 8.408-9.324v-11.54a1.102 1.102 0 01.606-.992c2.207-1.102 8.827-7.902 11.034-15.43 1.037-3.626 2.272-11.716 2.272-29.759a114.07 114.07 0 00-2.283-21.702 1.101 1.101 0 01.11-.771c1.5-2.711 5.318-10.096 5.616-12.984a41.82 41.82 0 01-7.8 3.031c-11.034 3.307-21.913.838-29.117-.793l-1.49-.342c-9.742-2.15-18.569 6.558-20.776 12.036-.937 2.347.607 9.787 1.534 14.218a34.63 34.63 0 01.86 4.993c0 2.204 1.104 19.387 1.104 19.552l2.339 37.595z" fill="#365894"/><path d="M83 43.744c-1.104-1.072-6.942-7.86-9.249 0-2.307 7.86 1.347 12.867 2.307 13.478 3.465 2.241 5.783-1.072 5.783-1.072L83 43.744z" fill="#F2D1AC"/><path d="M78.431 59a5.15 5.15 0 01-2.93-.984c-1.498-1.029-5.08-6.787-2.714-15.295.727-2.65 1.932-4.204 3.56-4.617 2.866-.716 5.796 2.46 7.044 3.812l.293.324c.421.436.421 1.14 0 1.577a1.063 1.063 0 01-1.53 0l-.337-.358c-.824-.894-3.256-3.589-4.949-3.186-1.02.257-1.65 1.81-1.997 3.063-2.17 7.737 1.248 12.388 1.834 12.869.846.71 2.03.808 2.974.246a4.499 4.499 0 001.205-1.118 1.08 1.08 0 01.99-.59c.411.014.78.266.953.651.172.385.117.838-.141 1.168a6.14 6.14 0 01-1.921 1.823A4.571 4.571 0 0178.43 59zm32.809 28c-8.554 0-17.285-3.771-22.047-8.525-5.92-6.07-7.133-17.73-7.188-18.254a1.112 1.112 0 01.992-1.216 1.106 1.106 0 011.202.993c0 .112 1.19 11.37 6.614 16.848 5.733 5.814 17.97 10.042 27.736 6.695.375-.125.786-.04 1.081.226a1.125 1.125 0 01-.386 1.894A25.08 25.08 0 01111.24 87zm2.908-29c-.622 0-1.125-.483-1.125-1.08 0-.596.503-1.08 1.125-1.08.597 0 2.004-.205 2.443-.81.078-.097.292-.388 0-1.166C115.668 51.208 113 42.56 113 41.08c0-.597.504-1.08 1.126-1.08.621 0 1.125.483 1.125 1.08.929 4.092 2.09 8.133 3.478 12.104a3.128 3.128 0 01-.326 3.11c-1.227 1.652-3.917 1.706-4.255 1.706zm-3.564 10c-4.55-.087-8.914-1.89-12.265-5.07a1.158 1.158 0 010-1.595 1.08 1.08 0 01.778-.335c.292 0 .572.12.778.335 2.946 2.74 6.745 4.303 10.71 4.402 8.034 0 9.294-2.795 9.305-2.818.224-.57.846-.85 1.403-.634.54.212.829.822.658 1.392-.143.442-1.677 4.323-11.367 4.323zm3.292 5.99c-.177.002-.35-.04-.51-.122a4.285 4.285 0 00-3.72 0 1.06 1.06 0 01-.87.07 1.162 1.162 0 01-.658-.62c-.277-.603-.05-1.335.51-1.635a6.41 6.41 0 015.756 0c.464.256.706.822.585 1.369-.12.547-.572.934-1.093.938z" fill="#365894"/><path d="M98.592 65.998c-.54.027-1.032-.288-1.204-.769-1.205-3.552.674-5.554 1.867-6.108.592-.28 1.313-.057 1.614.497.3.553.068 1.23-.518 1.516-.18.09-1.554.905-.674 3.394.103.285.08.597-.062.866a1.18 1.18 0 01-.697.57 1.523 1.523 0 01-.326.034zM122.02 66c-.542 0-.982-.52-.982-1.16a12.273 12.273 0 00-.922-3.132 1.344 1.344 0 01.042-1.18c.195-.354.537-.556.894-.525.356.03.67.288.82.673A14.15 14.15 0 01123 64.84c0 .64-.44 1.16-.98 1.16zM85.081 41h-.174a1.1 1.1 0 01-.892-1.266c1.088-6.823 0-20.216 0-20.348-.012-.35.14-.683.411-.9.27-.217.627-.292.96-.2.12 0 12.047 3.3 22.745 2.2a82.058 82.058 0 0017.413-3.422 1.088 1.088 0 011.393.671 1.107 1.107 0 01-.664 1.409 83.438 83.438 0 01-17.935 3.532c-8.967.903-18.446-1.1-22.06-1.926.273 3.786.817 13.603-.12 19.359-.099.52-.552.895-1.077.891zm35.031-12a1.106 1.106 0 01-1.027-.72 1.215 1.215 0 01.242-1.276c.387-.409 3.87-4.004 6.567-4.004.611 0 1.106.523 1.106 1.167 0 .645-.495 1.168-1.106 1.168-1.271 0-3.692 1.949-5.008 3.326a1.077 1.077 0 01-.774.339z" fill="#365894"/><path d="M96.09 29c-.44.003-.838-.282-1.007-.72a1.234 1.234 0 01.237-1.276c2.095-1.968 4.616-3.333 7.331-3.968.58-.158 1.17.22 1.316.846.146.625-.205 1.26-.785 1.418-2.326.553-4.493 1.706-6.313 3.361a1.043 1.043 0 01-.78.339zM125 43.5c0 1.928-.9 3.5-2.006 3.5-1.105 0-1.994-1.516-1.994-3.5s.9-3.5 2.018-3.5c1.117 0 1.982 1.56 1.982 3.5z" fill="#365894"/><path d="M122.143 43h-.296a1.132 1.132 0 01-.695-.51 1.054 1.054 0 01-.112-.833c.182-1.171 1.008-2.156 2.16-2.577a4.155 4.155 0 013.479.884c.404.4.43 1.029.059 1.458a1.17 1.17 0 01-1.503.213c-.352-.262-1-.579-1.341-.47-.341.11-.49.47-.648 1.092a1.135 1.135 0 01-1.103.743zM103 43.5c0 1.928-.896 3.5-1.994 3.5C99.907 47 99 45.484 99 43.5s.896-3.5 2.006-3.5c1.11 0 1.994 1.56 1.994 3.5z" fill="#365894"/><path d="M100.082 42.992a1.33 1.33 0 01-.29 0 1.11 1.11 0 01-.664-.532 1.048 1.048 0 01-.075-.83c.18-1.159.992-2.134 2.125-2.55a4.07 4.07 0 013.423.875c.469.38.534 1.055.145 1.513-.39.457-1.09.524-1.566.151-.346-.27-.984-.583-1.32-.475-.335.108-.48.464-.637 1.08-.15.481-.622.8-1.141.768zM141.902 308H42.098c-.606 0-1.098-.448-1.098-1s.492-1 1.098-1h99.804c.606 0 1.098.448 1.098 1s-.492 1-1.098 1zM86 407c-.552 0-1-.491-1-1.097v-86.806c0-.606.448-1.097 1-1.097s1 .491 1 1.097v86.806c0 .606-.448 1.097-1 1.097zM65.912 82H24.088C23.487 82 23 81.552 23 81s.487-1 1.088-1h41.824c.601 0 1.088.448 1.088 1s-.487 1-1.088 1zm-25.75 219a1.089 1.089 0 01-.85-.405 1.096 1.096 0 01.13-1.563c4.927-3.958.883-18.828-.13-20.172a1.096 1.096 0 01.779-1.86c.293 0 .574.119.78.329 1.198 1.203 3.432 9.304 3.095 15.482-.207 3.717-1.276 6.374-3.183 7.905-.171.159-.39.258-.621.284zM28.86 252c-.623 0-1.128-.493-1.128-1.1 0-3.588-11.597-94.23-17.723-141.653a1.115 1.115 0 01.987-1.238 1.133 1.133 0 011.27.963C12.986 114.573 30 246.277 30 250.943A1.116 1.116 0 0128.86 252z" fill="#365894"/><path d="M56.807 240l93.212-13.837L188 198.489l-25.325-87.645-41.563-16.996-2.197-.892a19.678 19.678 0 01-9.207 9.841c-6.647 3.303-27.115-9.72-29.192-11.58a.925.925 0 01-.12-.187c-.583-.947-51.21 20.915-52.363 24.426C26.879 118.968 56.807 240 56.807 240z" fill="#0B2E4F"/><path d="M56.823 241a1.099 1.099 0 01-1.098-.837c-6.937-28.433-29.846-121.509-28.682-124.995.252-.747.9-2.715 25.795-13.975 11.547-5.222 25.246-10.995 27.255-11.182.413-.056.826.101 1.098.418 2.37 2.1 22.184 14.294 27.98 11.435a18.678 18.678 0 008.77-9.214 1.099 1.099 0 011.449-.638l43.687 17.879c.31.128.544.391.636.714l25.247 87.534a1.1 1.1 0 01-.417 1.188l-37.936 27.642a.987.987 0 01-.483.198l-93.137 13.821-.164.012zM29.15 115.872c-.11 4.992 16.828 75.55 28.54 122.796l91.875-13.634 37.1-27.027-24.927-86.28-42.25-17.274a20.874 20.874 0 01-9.231 9.38c-7.486 3.76-27.837-9.72-30.252-11.579-5.554 1.254-48.242 20.353-50.855 23.618zm50.372-24.135z" fill="#365894"/><path d="M80 92.066s12.984 39.453 21.803 65.511c4.262 12.576 7.533 22.036 7.914 22.423 1.374-6.973 3.085-11.758 4.568-22.003.13-.906.261-1.823.381-2.763 3.27-23.417 6.116-52.67 6.334-60.604l-2.18-.884a19.428 19.428 0 01-9.136 9.747 5.743 5.743 0 01-2.561.52 9.54 9.54 0 01-1.723-.122C96.843 102.786 82.507 93.525 80.73 92l-.73.066z" fill="#CEDAE8"/><path d="M119 197.143c1.087-1.136 26.192-2.273 30.747 1.083 4.556 3.355 10.253 8.03 10.253 8.03l-1.087 2.263c-2.283 1.082-37.586 0-37.586 0L119 197.143z" fill="#F2D1AC"/><path d="M146.828 210c-9.295 0-21.28-.343-26.367-.504h-.868L117 196.874l.417-.407c1.846-1.8 27.774-2.444 32.509 1.017a483.442 483.442 0 0110.382 7.887l.692.536-1.714 3.343-.296.193c-.956.407-5.955.557-12.162.557zm-25.4-2.615c12.974.397 33.046.75 36.254.15l.538-1.071c-1.67-1.286-6.031-4.65-9.634-7.297-3.604-2.647-24.742-2.143-29.147-1.286l1.988 9.504z" fill="#365894"/><path d="M33.12 114.164S25 111.857 25 124.572c0 14.062 5.765 86.713 6.92 92.485C33.076 222.83 54.596 224 61.88 224c10.375 0 53.02-4.625 53.02-4.625s-1.1-21.965 1.1-25.387c-10.364-1.103-44.944-1.103-57.619 0 0-1.103-2.982-40.199-5.765-48.566-6.822-20.85-16.042-27.793-16.042-27.793l-3.454-3.465z" fill="#0B2E4F"/><path d="M61.906 225c-1.196 0-29.406-.088-30.941-7.813C29.747 211.038 24 138.111 24 124.635c0-5.025 1.228-8.496 3.63-10.315a6.971 6.971 0 015.813-1.102 1.105 1.105 0 01.528 1.888c-.3.281-.733.37-1.12.228a4.819 4.819 0 00-3.926.794c-1.788 1.366-2.731 4.32-2.731 8.54 0 13.421 5.67 86.04 6.877 92.122.822 4.122 17.67 6.04 28.79 6.04 9.269 0 45.145-3.803 51.704-4.497-.22-4.75-.702-18.182.746-23.46-11.758-1.014-43.675-.959-55.795.143a1.094 1.094 0 01-.833-.286 1.104 1.104 0 01-.362-.816c0-1.421-2.961-39.923-5.693-48.122-6.624-20.166-15.563-27.14-15.65-27.207a1.105 1.105 0 01-.22-1.543 1.093 1.093 0 011.535-.22c.384.297 9.542 7.372 16.452 28.243 2.545 7.647 5.287 40.772 5.737 47.626 13.534-1.102 46.394-1.036 56.529.1.382.04.714.278.877.627.173.355.144.775-.076 1.102-1.536 2.303-1.404 16.386-.977 24.728a1.1 1.1 0 01-.976 1.102c-1.722.21-42.665 4.65-52.953 4.65z" fill="#365894"/><path d="M155.476 119s1.179 27.495 0 42.39c-1.18 14.896-2.476 20.616-2.476 19.467L155.476 119z" fill="#2F4869"/><path d="M153.24 182h-.132a1.101 1.101 0 01-.832-.368 1.087 1.087 0 01-.267-.865c-.002-.233.075-.46.22-.644.33-1.571 1.219-7.638 2.087-18.867 1.098-14.622 0-41.892 0-42.165 0-.602.491-1.091 1.098-1.091.606 0 1.098.489 1.098 1.091 0 .273 1.098 27.663 0 42.416-.571 7.398-1.098 12.222-1.472 14.96-.648 4.998-.812 5.533-1.8 5.533zm-50.348 8a1.105 1.105 0 01-1.108-.933c-.432-1.426-7.245-16.39-13.294-29.62-12.12-26.613-13.439-29.619-13.439-30.321 0-1.097 1.684-5.189 3.003-8.283l-7.833-.976a1.102 1.102 0 01-.964-1.01c0-.668-1.108-16.455 1.274-21.249a1.113 1.113 0 011.485-.493c.547.27.77.927.498 1.47-1.684 3.29-1.407 14.261-1.107 19.22l8.375 1.097c.343.045.644.245.816.542.172.297.194.656.06.972a85.649 85.649 0 00-3.324 8.677c.642 1.876 7.323 16.532 13.228 29.51 12.086 26.581 13.438 29.653 13.438 30.3 0 .606-.496 1.097-1.108 1.097zm16.188-1c-.596 0-1.08-.493-1.08-1.102 0-1.167 10.168-40.397 14.653-57.627l-4.388-11.204a1.11 1.11 0 01.595-1.432l4.754-1.939-4.257-15.236a1.118 1.118 0 01.231-1.11 1.067 1.067 0 011.07-.312c.387.105.684.42.774.817l4.527 16.172a1.107 1.107 0 01-.637 1.322l-4.647 1.906 4.117 10.51c.073.225.073.468 0 .693-5.781 22.232-14.469 55.887-14.685 57.506a1.091 1.091 0 01-1.026 1.036z" fill="#365894"/><path d="M123 195h-7.073a69.346 69.346 0 00-.914 12.647c.284 5.753.21 10.024.21 10.024L123 218v-23z" fill="#BFD1E3"/><path d="M123.834 218.924l-8.455-.326c-.631 0-1.143-.487-1.143-1.087 0 0 .069-4.26-.217-9.848a62.004 62.004 0 011.006-12.76c.095-.528.58-.91 1.142-.903h7.69c.631 0 1.143.487 1.143 1.087v22.826c0 .6-.512 1.087-1.143 1.087l-.023-.076zm-7.301-2.457l6.159.24v-20.555h-5.576a59.799 59.799 0 00-.823 11.38c.217 4.012.24 7.316.24 8.935z" fill="#365894"/><path d="M104.923 115.55l-3.51 42.035c4.171 12.572 7.371 22.028 7.744 22.415 1.344-6.97 3.019-11.754 4.47-21.995.128-.906.256-1.823.373-2.762l-6.624-39.693 6.133-3.569-6.858-7.943-.907-1.038-.79.939L98 112.18c.405.21 6.923 3.37 6.923 3.37z" fill="#D14B51"/><path d="M97.68 115.999c-1.038 0-2.98-.758-7.232-3.372a68.417 68.417 0 01-7.121-4.887 1.05 1.05 0 01-.327-.757c0-.285.118-.557.327-.758a1.132 1.132 0 011.556 0c1.17 1.131 10.335 7.16 12.521 7.597 1.104-1.355 4.836-6.892 7.078-10.328a1.11 1.11 0 01.839-.49c.347-.027.687.108.916.362l7.983 8.76 4.958-4.78a1.132 1.132 0 011.499.056 1.04 1.04 0 01.058 1.448l-5.775 5.591c-.217.208-.512.32-.817.31a1.12 1.12 0 01-.795-.363l-7.795-8.536c-1.855 2.817-5.797 8.75-6.79 9.72-.28.288-.675.443-1.083.427z" fill="#365894"/><path d="M260.335 219H130.248c-4.003 0-7.248-3.169-7.248-7.078V210h144v2.492c0 3.594-2.984 6.508-6.665 6.508z" fill="#6BA5FF"/><path d="M260.311 220H130.326c-4.6-.006-8.326-3.605-8.326-8.043v-1.897c0-.586.492-1.06 1.098-1.06h143.804c.606 0 1.098.474 1.098 1.06v2.458c-.006 4.105-3.434 7.441-7.689 7.482zm-136.114-8.88v.837c0 3.267 2.742 5.918 6.129 5.924H260.31c3.067-.006 5.552-2.404 5.558-5.363v-1.399H124.197z" fill="#365894"/><path d="M156.405 219h-26.381c-3.88 0-7.024-3.076-7.024-6.871v-1c0-.3.122-.587.338-.798.217-.212.51-.331.816-.331h33.263c.95 0 1.861.37 2.533 1.027a3.467 3.467 0 011.05 2.478v1.076c-.036 2.455-2.084 4.425-4.595 4.419z" fill="#87B6FF"/><path d="M156.39 220h-26.294c-4.469-.006-8.09-3.509-8.096-7.831v-.997c0-1.179.972-2.143 2.191-2.172h33.153c1.237 0 2.423.476 3.296 1.323a4.43 4.43 0 011.36 3.191v1.007c0 3.005-2.503 5.45-5.61 5.479zm-32.155-8.88v1.06c.006 3.151 2.646 5.705 5.905 5.711h26.294c1.914-.006 3.462-1.508 3.462-3.36v-1.006c0-1.319-1.101-2.39-2.465-2.395l-33.196-.01z" fill="#365894"/><path fill="#D14B51" d="M292.497 334L303 344.435 293.667 363 275 344.435z"/><path d="M293.626 364a1.108 1.108 0 01-.785-.319l-18.512-18.436a1.097 1.097 0 01.21-1.727l17.363-10.362a1.11 1.11 0 011.348.165l10.422 10.362c.34.335.425.85.21 1.276l-9.262 18.436c-.16.318-.464.54-.817.594l-.177.011zm-16.69-19.316l16.447 16.357 8.211-16.357-9.24-9.207-15.417 9.207z" fill="#365894"/><path fill="#D14B51" d="M206.745 407L209 418.333 191 424v-14.729z"/><path d="M191.12 425c-.243 0-.478-.075-.672-.214a1.057 1.057 0 01-.448-.858v-14.595c-.005-.538.406-.997.963-1.072l16.41-2.25c.59-.08 1.141.297 1.254.857l2.351 11.22c.112.536-.216 1.068-.761 1.232l-18.762 5.616a1.15 1.15 0 01-.335.064zm1.119-14.735v12.206l16.344-4.898-1.937-9.28-14.407 1.972z" fill="#365894"/><path d="M165.506 210h97.424a4.421 4.421 0 003.181-1.261 4.408 4.408 0 001.325-3.151L279 140.412a4.409 4.409 0 00-1.321-3.147 4.421 4.421 0 00-3.174-1.264H177.08a4.421 4.421 0 00-3.181 1.26 4.408 4.408 0 00-1.325 3.151L161 205.61a4.408 4.408 0 001.333 3.136 4.421 4.421 0 003.173 1.253z" fill="#87B6FF"/><path d="M262.863 211h-97.258a5.52 5.52 0 01-3.936-1.564 5.505 5.505 0 01-1.665-3.89 1.21 1.21 0 010-.198l11.533-64.993a5.512 5.512 0 015.601-5.354h97.258a5.52 5.52 0 013.956 1.582 5.505 5.505 0 011.645 3.926c.004.063.004.125 0 .188l-11.544 64.948a5.512 5.512 0 01-5.59 5.354zm-100.643-5.366a3.306 3.306 0 003.385 3.161h97.258a3.31 3.31 0 003.396-3.25 1.21 1.21 0 010-.197l11.522-64.993a3.306 3.306 0 00-3.385-3.161H177.16a3.31 3.31 0 00-3.396 3.304 1.18 1.18 0 010 .188l-11.544 64.948z" fill="#365894"/><path d="M212 259.647L208.543 293S96.704 275.742 95.537 274.6C94.37 273.458 84 268.847 84 268.847L194.683 247 212 259.647z" fill="#0B2E4F"/><path d="M208.444 293.998h-.165c-.286 0-28.25-4.379-55.993-8.757-56.476-8.943-56.993-9.458-57.455-9.917-.67-.635-6.21-3.284-11.178-5.473a1.094 1.094 0 01-.649-1.095c.053-.474.41-.86.88-.952l110.534-21.783c.3-.06.61.008.858.186l17.268 12.61c.318.228.49.608.45.996l-3.462 33.254c-.03.298-.18.571-.418.756-.198.128-.433.19-.67.175zM96.205 273.616c3.87 1.204 67.974 11.351 111.26 18.028l3.298-31.48-16.378-11.965-106.71 21.028a66.152 66.152 0 018.53 4.39z" fill="#365894"/><path d="M297 332.374L272.803 352s-73.693-75.032-78.345-100.421c-16.124 3.46-76.035 23.086-87.562 26.546-11.527 3.46-32.414 2.733-36.868-2.314a60.821 60.821 0 01-14.97-42.701l148.804-20.067a13.984 13.984 0 0113.374 7.251L297 332.374z" fill="#0B2E4F"/><path d="M272.727 353a1.098 1.098 0 01-.791-.33c-2.968-3.028-71.955-73.425-78.34-99.778-12.915 2.983-48.117 14.167-69.395 20.915a3404.427 3404.427 0 01-16.937 5.328c-11.792 3.545-33.125 2.873-37.983-2.63a62.555 62.555 0 01-15.233-43.428 1.1 1.1 0 01.945-.98l148.692-20.045a15.128 15.128 0 0114.452 7.705l79.66 111.91a1.102 1.102 0 01-.21 1.496l-24.178 19.595c-.194.155-.434.24-.682.242zM194.42 250.481c.219 0 .433.065.615.187.244.167.41.425.462.716 4.264 23.436 69.768 91.301 77.296 99.073l22.586-18.328-79.077-111.16-.066-.11a12.898 12.898 0 00-12.31-6.672L56.191 234.101a60.482 60.482 0 0014.739 40.961c3.89 4.404 23.915 5.504 35.708 1.982 2.945-.88 9.1-2.84 16.892-5.317 21.982-6.968 58.657-18.648 70.68-21.224l.21-.022z" fill="#365894"/><path d="M194.275 251.614c14.598-3.415 19.374 8.075 20.505 18.22 1.088 9.75-2.273 135.501-1.088 138.079v2.622c-1.142 0-31.904 1.465-31.904 1.465-1.469-21.592-5.776-81.598-5.7-97.571.076-17.053-1.088-25.889-1.088-25.889l19.275-36.926z" fill="#0B2E4F"/><path d="M182.01 413a1.104 1.104 0 01-1.105-1.023l-.641-9.088c-1.824-25.977-5.216-74.32-5.15-88.448a203.146 203.146 0 00-1.105-25.701 1.104 1.104 0 012.188-.297c0 .088 1.249 9.099 1.172 26.01-.067 14.038 3.315 62.338 5.15 88.282l.563 8.02c4.994-.23 25.239-1.177 30.278-1.386v-1.485c-.465-2.839-.266-19.09.53-64.782.586-33.524 1.193-68.214.63-73.066-.597-5.215-2.343-12.158-7.293-15.645-3.128-2.2-7.238-2.74-12.156-1.607a1.105 1.105 0 01-1.315-.825 1.096 1.096 0 01.829-1.32c5.592-1.287 10.299-.627 13.968 1.958 5.613 3.95 7.558 11.53 8.21 17.186.575 5.017 0 39.762-.619 73.352-.508 29.057-1.105 61.987-.596 64.32.042.116.064.239.066.363v2.618c0 .608-.495 1.1-1.105 1.1-.895 0-21.56.958-32.367 1.464h-.132z" fill="#365894"/><path d="M294.938 356.787c1.159-1.161 5.78-13.901 5.78-13.901s33.502-10.43 35.818-12.752c.817-.818 3.464 2.323 3.464 3.484 0 5.176-33.512 28.953-33.512 28.953l1.158 1.161S300.72 373 299.56 373c-1.158 0-11.56-12.74-11.56-13.901 0-1.162 6.938-2.312 6.938-2.312z" fill="#0B2E4F"/><path d="M299.615 374C297.626 374 287 360.57 287 359.061c0-.66 0-2.026 7.385-3.303a133.93 133.93 0 005.351-13.21 1.1 1.1 0 01.704-.672c15.989-4.965 33.769-11.009 35.23-12.407a1.657 1.657 0 011.912-.286c1.374.572 3.418 3.05 3.418 4.525 0 5.097-23.824 22.579-32.78 28.964l.23.231c.388.389.43 1.004.1 1.442-7.231 9.655-8.385 9.655-8.935 9.655zm-10.208-14.686a91.81 91.81 0 0010.22 12.32 73.727 73.727 0 006.593-7.861l-.473-.474a1.102 1.102 0 01.143-1.673c16.176-11.482 32.912-25.056 32.912-27.93a5.987 5.987 0 00-1.912-2.421c-3.813 2.63-28.868 10.535-35.275 12.528-1.505 4.128-4.68 12.583-5.824 13.728a1.098 1.098 0 01-.604.308c-1.973.287-3.91.781-5.78 1.475z" fill="#365894"/><path d="M197.158 423.501c1.64 0 12.31-4.501 12.31-4.501s34.517 16.082 37.797 16.071c1.108 0 .842 4.043 0 4.851-3.667 3.639-44.323-3.102-44.323-3.102v1.617s-11.49 1.65-12.31.84c-.82-.808-.865-15.371 0-16.18.864-.808 6.526.404 6.526.404z" fill="#0B2E4F"/><path d="M240.084 442c-10.449 0-28.036-2.652-35.935-3.935v.326c.005.546-.4 1.01-.95 1.087-11.981 1.718-12.798.924-13.239.533-1.258-1.229-1.302-16.404 0-17.643.298-.294 1.225-1.207 7.381.076 1.18-.142 6.819-2.305 11.75-4.348.288-.128.618-.128.905 0 13.152 6.13 34.865 15.86 37.16 15.892.699.006 1.32.44 1.556 1.087.574 1.37.276 4.523-.761 5.555-1.038 1.033-3.917 1.37-7.867 1.37zm-37.05-6.305h.188c19.628 3.261 41.143 5.435 43.173 3.403.386-.96.504-2.003.342-3.022-4.722-.816-30.783-12.85-37.237-15.85-2.968 1.25-10.603 4.348-12.236 4.348h-.232a22.828 22.828 0 00-5.44-.64 70.522 70.522 0 000 14.392 71.06 71.06 0 0010.306-.903v-.663c0-.6.494-1.087 1.103-1.087l.033.022z" fill="#365894"/><path d="M238 161l-.712.812-7.827 8.53-1.469 1.57a.344.344 0 01-.225.088l-2.542-.187a.25.25 0 01-.158-.087L223 168.838l.983-1.032 4.37-4.556a.637.637 0 01.295-.164l8.945-1.943.204-.066L238 161z" fill="#FFF"/><path d="M215.022 165.01l4.61 2.018 2.817 1.245a.84.84 0 01.26.215c1.554 2.146 3.098 4.292 4.642 6.439a.378.378 0 00.637 0l4.685-5.194a.4.4 0 01.184-.108l6.078-1.524H239c-.13.15-.248.28-.378.408l-5.862 6.278a.514.514 0 00-.162.408V176l-10.116-.633v-.558a.63.63 0 00-.108-.311l-7.288-9.358L215 165l.022.01zM249 181l-.54-.095c-2.069-.325-4.15-.669-6.23-.955a91.277 91.277 0 00-3.963-.468 90.852 90.852 0 00-3.798-.324c-2.08-.115-4.161-.21-6.242-.296-2.201-.076-4.502 0-6.759 0-1.442.048-2.884.115-4.337.181-1.453.067-2.598.115-3.897.191-1.475.086-2.94.191-4.404.296l-3.456.267a87.96 87.96 0 00-2.61.23l-3.665.362a.125.125 0 01-.099 0l1.299-.22c1.024-.162 2.048-.324 3.082-.467 1.475-.2 2.95-.391 4.404-.563a183.86 183.86 0 014.194-.44c1.21-.114 2.422-.219 3.622-.295a229.6 229.6 0 015.174-.296 104.76 104.76 0 013.841-.105c1.277-.01 2.764 0 4.14.067s3.016.181 4.513.296c2.202.162 4.403.458 6.605.782 2.967.445 5.906 1.018 8.807 1.718l.253.077.066.057zm-49-2.068l1.896-.463 5.193-1.264c.154 0 .208-.09.208-.26v-2.314c0-.158 0-.204-.197-.204h-1.424c3.013-3.16 5.993-6.277 9.017-9.427.11.316.22.598.307.892 0 0-.055.102-.099.147l-1.391 1.456-5.205 5.397a.493.493 0 00-.142.339v4.166c0 .192-.066.248-.241.282l-6.75 1.13-1.161.191-.011-.068zM238.762 161L247 173l-1.502-.075h-.728c-.239 0-.17-.065-.17-.183v-1.298a.72.72 0 00-.103-.344l-6.395-9.21-.102-.139.762-.751z" fill="#FFF"/><path d="M249 181l-.919-.29-4.099-1.275a.22.22 0 01-.15-.09.208.208 0 01-.034-.167v-3.353a.767.767 0 00-.114-.38l-4.594-6.55c-.114-.157-.126-.258 0-.38.127-.124.38-.325.586-.515l6.212 9.01h-1.584c-.115 0-.161 0-.161.145 0 .559-.092 1.118-.126 1.676 0 .056.091.146.16.168l2.997 1.219 1.734.693.092.089zm-41-10v-3h.372l1.48.164c.102 0 .13.061.139.174a.98.98 0 01-.316.87c-.54.533-1.052 1.096-1.563 1.649L208 171zm36.838-2c-.12-.218-.25-.436-.371-.667-.432-.763-.843-1.54-1.295-2.29a1.773 1.773 0 01-.15-1.043l.682.073 1.144.17c.12 0 .16 0 .15.193l-.12 3.552-.04.012zM213 172v-1h1v.99zm2.996 2H215v-1h.996c.01.346 0 .673 0 1zM213 172h1v1h-.99zm2-1h1v1h-.99l-.01-1zm24.95 4.04v.92h-.9v-.87l.9-.05zm-1.005-.075l-.9-.05v-.88h.91zm.08-.005l.05-.92h.9v.88zm-1 .985l.05-.9h.9c0 .31 0 .6-.05.91l-.9-.01z" fill="#FFF"/></g></g></svg>