<svg width="63" height="70" xmlns="http://www.w3.org/2000/svg"><g fill="none"><path d="M39.94 18.34a4.74 4.74 0 01-1-6.5c1.3-1.83 2.53-4 2.6-5.66.14-3.55-5.36-2.6-7-.8 0 0 .34-4.38-3.44-4.38s-3.44 4.38-3.44 4.38c-1.61-1.8-7.11-2.75-7 .8.07 1.66 1.3 3.83 2.59 5.66a4.74 4.74 0 01-1 6.5C14.37 24.41-2.42 40.09 1.61 62c.52 2.83 14.46 6.25 29.52 6.25 15.06 0 29-3.42 29.52-6.25 4.04-21.91-12.75-37.59-20.71-43.66z" fill="#FFF"/><path d="M31.13 69.22c-13.78 0-29.75-3-30.5-7.06C-3.53 39.58 14 23.44 21.72 17.55a3.72 3.72 0 00.77-5.13c-1.77-2.52-2.7-4.61-2.77-6.2a3 3 0 011.94-3.12 6.86 6.86 0 015.19.48A5 5 0 0128 1.27 4.11 4.11 0 0131.13 0a4.09 4.09 0 013.14 1.27 4.78 4.78 0 011.14 2.31 6.89 6.89 0 015.2-.48 3 3 0 011.93 3.12c-.06 1.59-1 3.68-2.77 6.2a3.74 3.74 0 00.78 5.13c7.72 5.89 25.25 22 21.09 44.61-.75 4.04-16.72 7.06-30.51 7.06zM23.47 4.77a2.91 2.91 0 00-1.06.23 1 1 0 00-.69 1.19c0 .82.48 2.38 2.41 5.13a5.72 5.72 0 01-1.2 7.87C15.5 24.81-1.36 40.31 2.6 61.79c.4 1.61 11.9 5.43 28.53 5.43 16.63 0 28.14-3.82 28.54-5.43 4-21.48-12.9-37-20.34-42.65a5.72 5.72 0 01-1.19-7.87c1.93-2.75 2.37-4.27 2.41-5.13A1.06 1.06 0 0039.86 5a5.12 5.12 0 00-4.54 1.1 1 1 0 01-1.74-.74 4.11 4.11 0 00-.78-2.69A2.14 2.14 0 0031.13 2a2.15 2.15 0 00-1.67.62 4.09 4.09 0 00-.77 2.69 1 1 0 01-.61 1A1 1 0 0127 6.05a5.37 5.37 0 00-3.53-1.28z" fill="#4470BF"/><path d="M43.66 19.37H18.6a1 1 0 010-2h25.06a1 1 0 010 2zm-2.82-4.19H21.43a1 1 0 010-2h19.41a1 1 0 010 2z" fill="#4470BF"/><path d="M29.65 14.91a1 1 0 01-.94-.65L27.13 10a1 1 0 01.6-1.29 1 1 0 011.28.6l1.57 4.28a1 1 0 01-.58 1.26 1 1 0 01-.35.06zm2.97 0a1 1 0 01-.94-1.34l1.58-4.28a1 1 0 111.87.69l-1.57 4.28a1 1 0 01-.94.65z" fill="#4470BF"/><path d="M22.91 40h-3.44v-2.5h2.91v-1.17a8.35 8.35 0 01.04-1.33h-3v-2.48H23c1.51-4 5.41-6.82 10.75-6.82 4.62 0 7.24 1.64 9.24 3.88l-3.52 2a7.23 7.23 0 00-5.83-2.67 6.22 6.22 0 00-5.83 3.59H36V35h-8.88a12.68 12.68 0 00-.12 1.34c.006.391.032.782.08 1.17H36V40h-8.2a6.4 6.4 0 006.2 3.74c2.54 0 4.06-1 5.8-2.79l3.33 1.88A11.37 11.37 0 0133.94 47c-5.61 0-9.59-2.85-11.03-7z" stroke="#4470BF" fill="#BFD1E3" stroke-linecap="round" stroke-linejoin="round"/><path fill="#3F68B0" d="M20.6 61.37l-3-4.12-1.11 1.17v2.95H14.1v-10h2.44v4.32l3.88-4.32h2.92l-4 4.23 4.16 5.78zm6.67-8.11v2.25h4.57v1.89h-4.57v4h-2.44v-10h7.62v1.9zm18.32 8.17h-2.24l-2.17-6.37L39 61.43h-2.24l-3.38-10.07H36l2 6.58 2.19-6.59h2.14l2.18 6.59 2-6.58H49z"/></g></svg>