<svg width="514" height="718" xmlns="http://www.w3.org/2000/svg"><g fill="none" fill-rule="evenodd"><path d="M394.792 19.718L91.72 71.056c-51.692 8.757-87.846 55.95-82.843 108.139L49.574 603.71c3.17 33.065 28.841 59.513 61.797 63.667l288.838 36.406c54.795 6.907 104.814-31.914 111.72-86.71a100 100 0 00.786-12.756l-1.222-486.255c-.138-55.228-45.022-99.887-100.25-99.748a100 100 0 00-16.45 1.404z" stroke="#979797" fill="#629CED"/><path d="M343.038 67.192l-214.99 38.785c-50.973 9.195-86.488 55.79-81.845 107.376l32.17 357.372c2.972 33.023 28.406 59.592 61.268 64.003l208.785 28.026c54.737 7.348 105.067-31.069 112.415-85.806a100 100 0 00.889-13.54l-.939-398.04c-.13-55.229-45.007-99.895-100.235-99.764a100 100 0 00-17.518 1.588z" fill="#FFF"/><g fill-rule="nonzero"><path d="M119.867 306c-.31.45-.171 6.849 0 7.298.172.45-2.752 3.435-2.86 6.41-.106 2.974.943 21.639.943 21.639s1.939 1.083 1.917.46c-.021-.624 5.27-25.984 5.27-25.984l1.863-9.404-7.133-.419zm10.223 1c.362.704 1.484 6.816 1.484 6.816s-2.02 6.396-1.483 8.801l3.805 17.056s3.18.735 3.103 0c-.078-.735-1.035-24.47-.976-25.206.058-.735-.264-6.68-.264-6.68l-5.688-.787" fill="#F2D1AC"/><path d="M119.684 345a4.602 4.602 0 01-2.222-.827 1.077 1.077 0 01-.529-.87c0-.807-1.058-19.71-.92-22.848.073-2.385 1.491-4.664 2.349-6.028.169-.269.37-.591.465-.774-.148-1.666-.37-7.318.17-8.167.208-.324.572-.508.952-.484l7.047.44c.307.017.59.167.78.412.188.246.263.562.204.868l-1.851 9.886c-2.043 10.381-5.1 26.178-5.186 27.156a1.269 1.269 0 01-1.259 1.236zm-.836-1.44zm1.947-36.398a60.72 60.72 0 00.117 6.287c.19.559-.127 1.074-.762 2.15-.635 1.074-1.968 3.137-2.032 4.932-.085 2.718.71 18.44.9 21.965.666-3.912 3.015-15.98 5.037-26.285l1.66-8.694-4.92-.355zm-1.957 6.545a.916.916 0 000 .354 2.183 2.183 0 010-.311v-.043zM136.957 341a13.918 13.918 0 01-2.764-.346 1.07 1.07 0 01-.826-.785s-3.656-14.601-4.244-17.01c-.587-2.41 1.088-7.71 1.578-9.082-.566-2.754-1.262-5.771-1.48-6.284a1.017 1.017 0 01.098-1.048c.227-.31.61-.478 1.001-.44l6.343.786c.517.064.915.473.947.974.087 1.404.391 6.075.293 6.85-.065 1.173.958 23.986 1.088 24.887a1.19 1.19 0 01-.413 1.048c-.152.199-.522.45-1.621.45zm-1.643-2.273c.533.084 1.088.147 1.436.168-.217-4.326-1.088-23.61-1.012-24.542 0-.408-.087-3.027-.25-5.593l-3.786-.482c.402 1.582.881 3.823 1.197 5.353.048.175.048.359 0 .534-.827 2.357-2.002 6.672-1.621 8.201l4.036 16.361z" fill="#365894"/><path d="M392.9 190.243s-3.02-4.074-2.896-5.05c.124-.978 16.676 2.015 18.566 3.48 1.89 1.466 2.929 5.872 2.191 7.888a72.193 72.193 0 01-4.444 8.127c-.187.25-6.968.312-6.968.312l-6.448-14.757z" fill="#FF931E"/><path d="M399.8 206a1.083 1.083 0 01-.994-.622l-6.656-14.613c-2.16-2.873-3.241-4.792-3.144-5.705.056-.423.35-.782.767-.933 1.956-.778 18.25 2.21 20.281 3.723 2.388 1.774 3.533 6.68 2.647 9.044a74.384 74.384 0 01-4.797 8.4c-.367.447-.519.633-8.093.706h-.01zm-8.309-19.965a40.082 40.082 0 002.464 3.589c.05.06.09.126.119.197l6.429 14.094c2.43 0 4.96-.103 5.888-.186a69.877 69.877 0 004.268-7.54c.605-1.587-.345-5.528-1.923-6.7-1.578-1.172-13.517-3.267-17.245-3.454z" fill="#365894"/><path d="M148.084 220.163s2.916-1.299 2.916-2.094c0-.796-3.771-3.76-5.958-4-2.187-.241-12.561-.189-15.477 6.094-2.915 6.282-2.736 11.811-6.771 13.36-4.036 1.55-4.606 4.315-2.863 6.41 1.743 2.093 8.884 5.067 8.884 5.067s6.635-4.314 6.55-5.047c-.085-.733 12.72-19.79 12.72-19.79z" fill="#FF931E"/><path d="M128.527 247a1.01 1.01 0 01-.398-.073c-.736-.324-7.157-3.128-8.987-5.348a4.513 4.513 0 01-1.023-4.034c.307-1.189 1.278-2.846 4.192-3.993 2.045-.823 2.802-3.221 3.793-6.546a49.354 49.354 0 012.198-6.255c3.068-6.734 13.415-6.974 16.032-6.672 2.239.261 6.666 3.357 6.666 5.025 0 .354 0 1.407-3.16 2.908-4.375 6.714-11.246 17.409-11.961 19.014 0 .636-.757 1.71-6.81 5.765a1.013 1.013 0 01-.542.209zm14.14-30.846c-3.404 0-10.367.855-12.483 5.546a44.347 44.347 0 00-2.096 5.941c-1.074 3.597-2.045 6.703-5.02 7.892-1.646.646-2.69 1.563-2.955 2.564-.153.786.071 1.6.603 2.19 1.156 1.417 5.562 3.575 7.699 4.523a40.745 40.745 0 005.51-4.17c.39-1.042 2.403-4.617 12.392-19.93.107-.17.26-.304.44-.386.72-.323 1.405-.722 2.045-1.189-.777-.886-3.251-2.731-4.683-2.898a12.449 12.449 0 00-1.452-.083zm-8.741 24.466a.847.847 0 00-.082.313 1.6 1.6 0 01.082-.344v.03z" fill="#365894"/><path d="M383.038 419.989a.864.864 0 01-.28 0 1.041 1.041 0 01-.627-.5 1.06 1.06 0 01-.09-.803l40.922-142.93c.077-.267.256-.493.498-.627a1.03 1.03 0 01.79-.087c.551.162.868.745.707 1.302l-40.922 142.888a1.04 1.04 0 01-.998.757z" fill="#779EED"/><path d="M379.234 308.99a1.08 1.08 0 01-1.223-.906 1.066 1.066 0 01.922-1.2l37.687-10.84a1.09 1.09 0 011.045.245c.278.26.395.644.305 1.01-.089.367-.37.658-.739.765l-37.697 10.852a.937.937 0 01-.3.074zm3.886-10.997a1.075 1.075 0 01-1.077-.763 1.056 1.056 0 01.732-1.313l37.848-10.875c.369-.106.767-.01 1.045.252.278.261.392.649.301 1.016-.091.368-.375.66-.744.765l-37.804 10.918c-.1.01-.201.01-.302 0zm-9.886 37.997c-.384.052-.767-.1-1.005-.399a1.045 1.045 0 01-.15-1.051 1.08 1.08 0 01.854-.654l37.693-10.844a1.076 1.076 0 011.33.716 1.049 1.049 0 01-.729 1.304l-37.693 10.844a.98.98 0 01-.3.084zm4.006-14.001a1.08 1.08 0 01-1.229-.9c-.086-.58.325-1.12.918-1.204l37.698-10.843a1.076 1.076 0 011.33.716 1.049 1.049 0 01-.73 1.304l-37.687 10.843a1.09 1.09 0 01-.3.084zM369.12 346a1.078 1.078 0 01-1.077-.761 1.037 1.037 0 01.09-.804c.137-.245.368-.427.643-.506l37.845-10.886a1.08 1.08 0 011.336.718 1.053 1.053 0 01-.733 1.309l-37.845 10.887a1.481 1.481 0 01-.259.042zm-6.89 25.99a1.077 1.077 0 01-1.22-.903c-.082-.58.33-1.116.921-1.197l37.599-10.814c.377-.15.81-.075 1.113.191.304.266.427.679.318 1.064-.11.385-.432.676-.832.75l-37.599 10.825a.978.978 0 01-.3.084zM349.12 421a1.075 1.075 0 01-1.077-.761 1.037 1.037 0 01.09-.803c.137-.246.368-.428.643-.506l37.838-10.886a1.082 1.082 0 011.341.713c.17.56-.156 1.148-.727 1.314l-37.85 10.886a1.48 1.48 0 01-.258.042zm16.003-61.001a1.076 1.076 0 01-1.077-.75 1.039 1.039 0 01.085-.811 1.07 1.07 0 01.648-.51l37.842-10.886c.37-.105.768-.01 1.047.251.278.261.393.648.301 1.015a1.066 1.066 0 01-.745.763l-37.842 10.886a.987.987 0 01-.259.042zm-6.89 23.991a1.08 1.08 0 01-1.222-.905c-.083-.58.33-1.117.922-1.199l37.683-10.841a1.09 1.09 0 01.823.083c.252.134.439.362.518.632.08.268.048.556-.09.8a1.069 1.069 0 01-.64.504l-37.693 10.841a.937.937 0 01-.3.085zM351.12 408a1.075 1.075 0 01-1.077-.761 1.037 1.037 0 01.09-.803c.137-.246.368-.428.643-.506l37.838-10.886c.37-.108.77-.014 1.05.246.279.26.396.646.306 1.014-.09.367-.372.66-.742.767l-37.85 10.886a1.382 1.382 0 01-.258.042zm2.113-12.01c-.383.052-.766-.1-1.004-.399a1.045 1.045 0 01-.15-1.051 1.08 1.08 0 01.854-.654l37.687-10.842a1.078 1.078 0 011.335.71 1.05 1.05 0 01-.724 1.309l-37.708 10.927a1.094 1.094 0 01-.29 0z" fill="#779EED"/><path d="M417.234 457.99a1.08 1.08 0 01-1.223-.905c-.083-.58.33-1.118.922-1.199l37.694-10.844c.368-.105.765-.01 1.042.25s.391.645.3 1.01a1.061 1.061 0 01-.742.76l-37.693 10.843a.98.98 0 01-.3.085zm-3-16a1.08 1.08 0 01-1.223-.905c-.083-.58.33-1.118.922-1.199l37.694-10.844c.273-.078.566-.047.816.088.25.134.434.36.514.627.08.268.048.556-.09.8a1.07 1.07 0 01-.64.505l-37.64 10.886a.984.984 0 01-.353.042zM411.12 426a1.078 1.078 0 01-1.077-.761 1.053 1.053 0 01.733-1.31l37.845-10.887c.37-.105.768-.01 1.047.251.278.26.393.647.301 1.014a1.066 1.066 0 01-.745.763l-37.845 10.887a1.481 1.481 0 01-.258.042zm-3.886-14.01a1.08 1.08 0 01-1.223-.905c-.083-.58.33-1.118.922-1.199l37.694-10.844c.273-.078.566-.047.816.088.25.134.434.36.514.627.08.268.048.556-.09.8a1.07 1.07 0 01-.64.505l-37.693 10.843a.98.98 0 01-.3.085zm-2-18a1.08 1.08 0 01-1.223-.906 1.067 1.067 0 01.922-1.2l37.693-10.842a1.076 1.076 0 011.33.716 1.05 1.05 0 01-.729 1.305l-37.693 10.842a.98.98 0 01-.3.085zM403.12 379a1.078 1.078 0 01-1.077-.761 1.037 1.037 0 01.09-.804c.137-.245.368-.427.643-.506l37.845-10.886a1.08 1.08 0 011.336.718 1.053 1.053 0 01-.733 1.309l-37.759 10.887a1.482 1.482 0 01-.345.042zm-2.887-15.01a1.08 1.08 0 01-1.222-.905c-.083-.58.33-1.118.922-1.199l37.694-10.844c.368-.105.765-.01 1.042.25s.391.645.3 1.01a1.061 1.061 0 01-.741.76l-37.683 10.843a1.09 1.09 0 01-.312.085zm-2.999-17a1.08 1.08 0 01-1.223-.906 1.066 1.066 0 01.922-1.2l37.69-10.84a1.076 1.076 0 011.331.704c.083.27.053.56-.084.808a1.07 1.07 0 01-.645.508l-37.69 10.841a.98.98 0 01-.301.085zM394.12 332a1.078 1.078 0 01-1.077-.761 1.037 1.037 0 01.09-.804c.137-.245.368-.427.643-.506l37.845-10.886a1.08 1.08 0 011.336.718 1.053 1.053 0 01-.733 1.309l-37.802 10.887c-.099.024-.2.038-.302.042zm-4-16a1.078 1.078 0 01-1.077-.761 1.037 1.037 0 01.09-.804c.137-.245.368-.427.643-.506l37.845-10.887c.37-.105.768-.01 1.047.251.278.26.393.647.301 1.014a1.066 1.066 0 01-.745.763l-37.845 10.887a1.13 1.13 0 01-.259.042zm-2-17a1.075 1.075 0 01-1.077-.761 1.053 1.053 0 01.733-1.31l37.838-10.885c.37-.108.77-.014 1.05.246.279.26.396.646.306 1.014-.09.367-.372.66-.742.767l-37.838 10.875a1.096 1.096 0 01-.27.053z" fill="#365894"/><path d="M457.935 462.997a1.04 1.04 0 01-1.038-.855l-33.88-185.894c-.067-.373.07-.753.357-.997a1.05 1.05 0 011.038-.188c.354.128.614.437.68.81l33.891 185.893a1.043 1.043 0 01-.83 1.21.568.568 0 01-.218.021z" fill="#365894"/><path d="M344.04 430.99a1.028 1.028 0 01-.292 0 1.052 1.052 0 01-.706-1.303l40.921-142.93a1.034 1.034 0 011.749-.433c.256.271.35.66.246 1.02l-40.952 142.89a1.041 1.041 0 01-.967.756z" fill="#779EED"/><path d="M420.935 473.997a1.04 1.04 0 01-1.038-.855l-33.88-185.894a1.055 1.055 0 112.076-.376l33.89 185.894a1.043 1.043 0 01-.83 1.21.568.568 0 01-.218.021z" fill="#365894"/><path d="M418.722 277.578s8.53-34.204 8.272-35.727c-.258-1.524-8.055-22.53-21.124-35.633-1.262-1.271-15.148 3.153-24.258 9.626l-18.612-.4 1.458 3.93 18.509 2.27 13.669-4.14 5.646 8.28s.413.326-2.74 4.392c-.424.547-10.785 5.99-18.21 9.363l1.862 4.907s16.379-5.4 18.22-6.599a56.624 56.624 0 006.74-5.485c-.216 5.36-.361 7.587-.361 7.587s-11.674 18.914-14 23.117c-2.327 4.203 2.678 22.571 2.678 22.571l2.409-.357-.434-17.023 14.279-15.026s-.817 14.459-.424 23.475c.393 9.015.093 24.294.093 24.294l3.598-1.177 2.73-22.245z" fill="#0B2E4F"/><path d="M413.168 302a1.048 1.048 0 01-.62-.21 1.05 1.05 0 01-.429-.861c0-.147.304-15.332-.094-24.153-.294-6.574.073-16.099.293-20.772l-12.237 12.633.43 16.571a1.05 1.05 0 01-.892 1.05l-2.454.358a1.049 1.049 0 01-1.164-.756c-.524-1.922-5.107-18.903-2.61-23.355 2.222-3.97 12.667-20.614 14.082-22.862 0-.577.126-2.1.242-4.81a49.21 49.21 0 01-5.118 3.918c-1.93 1.239-16.998 6.154-18.718 6.72-.529.172-1.1-.1-1.3-.619l-1.909-4.915a1.05 1.05 0 01.545-1.344c7.34-3.308 17.04-8.306 18.121-9.104a24.93 24.93 0 002.422-3.466l-5.023-7.267-13.14 3.896a.953.953 0 01-.419 0l-18.77-2.268a1.049 1.049 0 01-.86-.672l-1.479-3.927a1.048 1.048 0 011.007-1.418l18.54.388c8.588-5.933 23.563-11.383 25.67-9.304 13.77 13.652 21.488 34.822 21.708 36.188.262 1.596-5.768 25.728-8.39 36.103l-2.736 22.105a1.05 1.05 0 01-.714.872l-3.649 1.176a.849.849 0 01-.335.105zm.335-49.84a.964.964 0 01.42.085c.413.179.666.601.629 1.05 0 .147-.829 14.513-.43 23.365.325 7.299.189 18.808.126 22.872l1.604-.525 2.674-21.506a.526.526 0 010-.126c3.24-12.791 8.39-33.71 8.39-35.39-.231-1.25-7.897-21.832-20.974-34.854-1.845-.41-14.45 3.35-23.363 9.63a1.048 1.048 0 01-.62.19l-17.333-.368.702 1.88 17.922 2.163 13.632-4.043c.436-.131.906.034 1.164.41l5.726 8.274a1.2 1.2 0 01.199.515c0 .42.136 1.123-3.02 5.124-.703.893-11.535 6.301-17.942 9.252l1.185 3.056c6.417-2.1 16.075-5.398 17.281-6.175a56.053 56.053 0 006.701-5.366 1.048 1.048 0 011.762.809c-.22 5.303-.367 7.592-.367 7.613a1.051 1.051 0 01-.158.483c-.115.19-11.86 18.902-14.177 23.008-1.49 2.668.702 13.841 2.569 20.866l.608-.084-.42-16.077a1.05 1.05 0 01.294-.756l14.482-15.028c.188-.209.453-.334.734-.346zm-11.482-25.748a.945.945 0 00.22.241 1.05 1.05 0 01-.21-.22l-.01-.021z" fill="#365894"/><path d="M120 305.72s.676-25.484 6.53-29.292c13.193-8.558 2.671-18.664 2.162-30.433-.083-1.956 7.517-7.448 17.155-8.118l22.26-7.877 1.893 3.63-25.9 11.895-.592 10.775 4.159 4.007c.707.25 9.212 2.27 15.253 1.506l-.23 2.814s-12.892 2.563-15.19 1.82c-2.703-.93-4.512-1.244-5.479-1.694-.644 10.273-2.246 26.917-4.793 43.247L120 305.72z" fill="#0B2E4F"/><path d="M136.578 309h-.137l-17.521-2.238a1.05 1.05 0 01-.92-1.046c.074-2.656.878-26.144 7.127-30.129 8.533-5.438 6.619-11.273 4.23-18.667a39.973 39.973 0 01-2.464-10.835c-.138-2.97 8.649-8.491 18.27-9.192l22.512-7.833a1.062 1.062 0 011.29.502l1.914 3.629a1.05 1.05 0 01-.497 1.443l-25.79 11.619-.549 9.663 3.711 3.503c1.396.377 9.22 2.092 14.804 1.402a1.043 1.043 0 011.184 1.119l-.243 2.813a1.05 1.05 0 01-.846.941c-2.242.44-13.524 2.552-16.009 1.705-1.343-.45-2.464-.753-3.373-1.046l-.877-.24c-.709 10.248-2.306 26.228-4.811 41.956a1.053 1.053 0 01-1.005.931zm-16.431-4.183l15.543 1.987c2.516-16.053 4.081-32.22 4.716-42.135.022-.34.212-.65.507-.826.31-.164.683-.164.994 0 .656.222 1.328.397 2.01.523.93.25 2.114.575 3.499 1.046 1.385.47 8.818-.638 14.126-1.632l.074-.774a53.329 53.329 0 01-14.718-1.683 1.06 1.06 0 01-.37-.23l-4.23-4.006a1.04 1.04 0 01-.327-.816l.602-10.771c.023-.386.259-.728.614-.89l25.376-11.503-.983-1.85-21.771 7.57a1.174 1.174 0 01-.275.063c-9.622.649-16.241 5.815-16.463 7.06a38.876 38.876 0 002.368 10.238c2.39 7.258 4.854 14.756-5.043 21.072-4.43 2.793-5.964 19.996-6.25 27.536v.02z" fill="#365894"/><path d="M109.038 471.99a1.026 1.026 0 01-.29 0 1.04 1.04 0 01-.62-.503 1.06 1.06 0 01-.086-.8l40.924-142.931c.104-.36.39-.637.75-.726.36-.089.74.023.996.294.256.271.35.66.246 1.02l-40.924 142.89a1.04 1.04 0 01-.996.756z" fill="#779EED"/><path d="M104.23 362.99a1.077 1.077 0 01-1.22-.903c-.082-.58.33-1.116.921-1.197l37.599-10.814c.377-.15.81-.075 1.113.191.304.266.427.679.318 1.064-.11.385-.432.676-.832.75l-37.599 10.867a.98.98 0 01-.3.042zm4.894-11.991a1.076 1.076 0 01-1.077-.75 1.039 1.039 0 01.08-.808c.136-.248.367-.433.642-.513l37.845-10.884a1.082 1.082 0 011.341.713c.17.56-.156 1.15-.727 1.316l-37.845 10.884a1.13 1.13 0 01-.259.042zm-9.89 36.991a1.08 1.08 0 01-1.223-.91 1.07 1.07 0 01.922-1.206l37.693-10.831a1.075 1.075 0 011.33.719c.167.56-.16 1.148-.729 1.311l-37.714 10.874a1.577 1.577 0 01-.28.043zm3.001-14a1.081 1.081 0 01-1.224-.908 1.069 1.069 0 01.923-1.203l37.684-10.835a1.079 1.079 0 011.337.712 1.054 1.054 0 01-.725 1.314l-37.684 10.877a1.092 1.092 0 01-.311.043zm-8.001 25a1.08 1.08 0 01-1.223-.906 1.067 1.067 0 01.922-1.2l37.693-10.842a1.076 1.076 0 011.33.716 1.05 1.05 0 01-.729 1.305l-37.693 10.842a.98.98 0 01-.3.085zm-8 26a1.08 1.08 0 01-1.223-.905c-.083-.58.33-1.118.922-1.199l37.694-10.844a1.076 1.076 0 011.33.716c.08.267.048.555-.09.8a1.07 1.07 0 01-.64.504l-37.693 10.886a.984.984 0 01-.3.042zm-13 49a1.08 1.08 0 01-1.223-.906 1.067 1.067 0 01.922-1.2l37.693-10.842a1.076 1.076 0 011.33.716 1.05 1.05 0 01-.729 1.305l-37.693 10.842a.98.98 0 01-.3.085zm17-62a1.08 1.08 0 01-1.223-.906 1.066 1.066 0 01.922-1.2l37.69-10.84a1.076 1.076 0 011.331.704c.083.27.053.56-.084.808a1.07 1.07 0 01-.645.508l-37.69 10.841a.98.98 0 01-.301.085zm-7 24a1.08 1.08 0 01-1.223-.908 1.069 1.069 0 01.922-1.203l37.694-10.837c.368-.105.765-.01 1.042.25.277.261.391.648.3 1.014a1.063 1.063 0 01-.742.762l-37.693 10.88a.98.98 0 01-.3.042zm-7.112 25.007a1.075 1.075 0 01-1.076-.75 1.039 1.039 0 01.085-.81c.137-.249.37-.432.647-.51l37.806-10.879a1.097 1.097 0 011.367.708 1.069 1.069 0 01-.721 1.341l-37.806 10.878a.986.986 0 01-.302.022zM80.12 450a1.078 1.078 0 01-1.077-.761 1.037 1.037 0 01.09-.804c.137-.245.368-.427.643-.506l37.845-10.886a1.08 1.08 0 011.336.718 1.053 1.053 0 01-.733 1.309L80.39 449.957a1.481 1.481 0 01-.27.042z" fill="#779EED"/><path d="M141.12 511a1.078 1.078 0 01-1.077-.761 1.037 1.037 0 01.09-.804c.137-.245.368-.427.643-.506l37.845-10.887c.37-.105.768-.01 1.047.251.278.26.393.647.301 1.014a1.066 1.066 0 01-.745.763l-37.802 10.887c-.099.024-.2.038-.302.042zm-.999-16a1.076 1.076 0 01-1.077-.761 1.053 1.053 0 01.722-1.31l37.855-10.887c.37-.105.768-.01 1.047.251.278.26.393.647.301 1.014a1.066 1.066 0 01-.745.763l-37.79 10.887a1.098 1.098 0 01-.313.042zm-2.999-16.018c-.49.02-.933-.289-1.075-.752a1.046 1.046 0 01.08-.81c.136-.249.366-.434.64-.515l37.856-10.862a1.078 1.078 0 011.334.72c.08.27.048.56-.09.807a1.07 1.07 0 01-.641.507l-37.781 10.916a1.091 1.091 0 01-.323-.01zm-4.888-14.992a1.081 1.081 0 01-1.223-.91 1.071 1.071 0 01.922-1.208l37.694-10.83c.368-.106.765-.01 1.042.252.277.261.391.649.3 1.016a1.065 1.065 0 01-.742.765l-37.693 10.872a1.447 1.447 0 01-.3.043zM131.12 448a1.074 1.074 0 01-1.076-.763 1.056 1.056 0 01.721-1.313l37.858-10.882c.369-.106.767-.01 1.045.252.278.261.392.649.301 1.016a1.066 1.066 0 01-.744.765l-37.772 10.882a1.1 1.1 0 01-.333.042zm-3-16a1.075 1.075 0 01-1.076-.762 1.054 1.054 0 01.721-1.31l37.858-10.886a1.09 1.09 0 011.045.251c.278.261.392.648.301 1.015a1.065 1.065 0 01-.744.763l-37.803 10.886c-.1.024-.2.038-.302.042zm-3-16a1.075 1.075 0 01-1.077-.761 1.037 1.037 0 01.09-.803c.137-.246.368-.428.643-.506l37.838-10.886a1.082 1.082 0 011.341.713c.17.56-.156 1.148-.727 1.314l-37.774 10.886c-.11.027-.221.04-.334.042zm-2.886-15.01a1.08 1.08 0 01-1.223-.908 1.069 1.069 0 01.922-1.203l37.694-10.837a1.09 1.09 0 01.816.088c.25.135.434.361.514.63.08.268.048.557-.09.803a1.07 1.07 0 01-.64.505l-37.693 10.88a.98.98 0 01-.3.042zm-3-17a1.08 1.08 0 01-1.223-.906 1.067 1.067 0 01.922-1.2l37.693-10.842a1.076 1.076 0 011.33.716 1.05 1.05 0 01-.729 1.305l-37.693 10.842a.98.98 0 01-.3.085zm-3.001-16c-.383.052-.766-.1-1.004-.399a1.045 1.045 0 01-.15-1.051 1.08 1.08 0 01.854-.654l37.687-10.842a1.09 1.09 0 011.045.245c.278.259.395.644.305 1.01a1.06 1.06 0 01-.739.764l-37.686 10.885a1.093 1.093 0 01-.312.042zm-2.999-15a1.08 1.08 0 01-1.223-.906 1.066 1.066 0 01.922-1.2l37.69-10.84a1.076 1.076 0 011.331.704c.083.27.053.56-.084.808a1.07 1.07 0 01-.645.508l-37.69 10.841a.98.98 0 01-.301.085z" fill="#365894"/><path d="M182.925 516a1.04 1.04 0 01-1.038-.856l-33.87-185.896a1.055 1.055 0 112.075-.376l33.891 185.855a1.043 1.043 0 01-.83 1.21l-.228.063z" fill="#365894"/><path d="M70.04 482.99a1.028 1.028 0 01-.292 0 1.041 1.041 0 01-.62-.503 1.06 1.06 0 01-.086-.8l40.921-142.93c.16-.557.738-.877 1.289-.715.55.163.867.746.706 1.302l-40.921 142.89a1.04 1.04 0 01-.998.756z" fill="#779EED"/><path d="M145.965 526a1.04 1.04 0 01-1.039-.856l-33.91-185.896c-.066-.373.07-.753.358-.997a1.052 1.052 0 011.72.621l33.89 185.896a1.043 1.043 0 01-.832 1.211l-.187.021z" fill="#365894"/><path fill="#91BAE3" d="M213 569l-50-36.186V338l50 36.176z"/><path fill="#B1CAE3" d="M377 325l-164 48.533V568l164-49.78"/><path fill="#FFF" d="M213.233 374L377 325.244 311.193 296 163 337.563z"/><path d="M212.767 377c-.22 0-.435-.07-.613-.2l-49.73-36.848a1.057 1.057 0 01-.404-1.05c.072-.394.357-.711.737-.82l146.798-42.04a1.02 1.02 0 01.717.052l65.114 29.607c.396.179.64.588.612 1.026a1.049 1.049 0 01-.737.939l-162.235 49.292a.925.925 0 01-.26.042zm-47.433-37.468l47.63 35.26 159.056-48.345-62.33-28.262-144.356 41.347z" fill="#365894"/><path d="M361 322.654L279.513 347C252.083 343.979 232 334.224 232 322.654v-.464L310.09 300 361 322.654z" fill="#BFD1E3"/><path d="M212.747 559a1.036 1.036 0 01-.613-.209l-49.712-36.552a1.046 1.046 0 01.203-1.797c.34-.149.734-.104 1.032.118l49.329 36.25 161.671-48.765a1.047 1.047 0 01.602 2.002l-162.18 48.911c-.109.027-.22.041-.332.042z" fill="#C4D5E5"/><path d="M212.743 552c-.22 0-.435-.069-.613-.198l-49.708-36.556a1.046 1.046 0 01.202-1.796c.341-.15.735-.104 1.033.117l49.324 36.243L374.6 501.066a1.035 1.035 0 011.056.2 1.045 1.045 0 01-.454 1.791l-162.168 48.901a.935.935 0 01-.29.042z" fill="#C4D5E5"/><path d="M212.75 544a1.036 1.036 0 01-.613-.209l-49.711-36.553a1.051 1.051 0 01-.223-1.465 1.04 1.04 0 011.459-.224l49.327 36.25 161.668-48.754a1.038 1.038 0 011.014.238 1.049 1.049 0 01-.411 1.764l-162.22 48.9a.952.952 0 01-.29.053z" fill="#C4D5E5"/><path d="M212.756 535c-.22 0-.434-.069-.612-.198l-49.722-36.563a1.047 1.047 0 01-.218-1.46 1.037 1.037 0 011.454-.22l49.337 36.25 161.661-48.764a1.035 1.035 0 011.299.7 1.047 1.047 0 01-.696 1.303l-162.212 48.91a.935.935 0 01-.29.042z" fill="#C4D5E5"/><path d="M212.736 525.999c-.22 0-.434-.069-.612-.199l-49.698-36.544a1.05 1.05 0 01-.223-1.465 1.04 1.04 0 011.458-.224l49.314 36.242 161.624-48.743a1.035 1.035 0 011.056.2 1.045 1.045 0 01-.454 1.791l-162.133 48.9a.93.93 0 01-.332.042z" fill="#C4D5E5"/><path d="M212.747 518a1.036 1.036 0 01-.613-.209l-49.712-36.552a1.046 1.046 0 01.203-1.797c.34-.149.734-.104 1.032.118l49.329 36.25 161.671-48.765a1.047 1.047 0 01.602 2.002l-162.18 48.911c-.109.027-.22.041-.332.042z" fill="#C4D5E5"/><path d="M212.733 510.999a1.04 1.04 0 01-.613-.199l-49.698-36.554a1.046 1.046 0 01.202-1.797c.34-.148.734-.104 1.033.118l49.315 36.242 161.627-48.743a1.035 1.035 0 011.056.2 1.045 1.045 0 01-.454 1.791l-162.136 48.9a.93.93 0 01-.332.042z" fill="#C4D5E5"/><path d="M212.747 501c-.22 0-.435-.069-.613-.198l-49.712-36.56a1.046 1.046 0 01.203-1.798c.34-.149.734-.104 1.032.118l49.329 36.247 161.671-48.764a1.038 1.038 0 011.014.238 1.049 1.049 0 01-.411 1.764l-162.222 48.911a.934.934 0 01-.291.042z" fill="#C4D5E5"/><path d="M212.747 491.999c-.22 0-.435-.07-.613-.199l-49.712-36.562a1.047 1.047 0 01-.218-1.46 1.037 1.037 0 011.454-.219l49.327 36.25 161.672-48.764a1.035 1.035 0 011.298.7 1.047 1.047 0 01-.696 1.303l-162.18 48.909a.931.931 0 01-.332.042z" fill="#C4D5E5"/><path d="M212.736 484.999c-.22 0-.434-.069-.612-.199l-49.698-36.544a1.05 1.05 0 01-.223-1.465 1.04 1.04 0 011.458-.224l49.314 36.242 161.624-48.743a1.035 1.035 0 011.056.2 1.045 1.045 0 01-.454 1.791l-162.133 48.9a.93.93 0 01-.332.042z" fill="#C4D5E5"/><path d="M212.647 477a1.037 1.037 0 01-.613-.209l-49.755-36.568a1.046 1.046 0 01-.082-1.322 1.037 1.037 0 011.277-.336l49.37 36.265 161.812-48.785a1.047 1.047 0 01.603 2.003l-162.32 48.9a.953.953 0 01-.292.052z" fill="#C4D5E5"/><path d="M212.759 469c-.22 0-.435-.069-.613-.198l-49.703-36.526a1.046 1.046 0 01-.254-1.453c.33-.472.978-.586 1.448-.255l49.32 36.213 161.642-48.715a1.035 1.035 0 011.056.2 1.044 1.044 0 01-.454 1.79l-162.151 48.86a.932.932 0 01-.291.084z" fill="#C4D5E5"/><path d="M212.75 460a1.036 1.036 0 01-.612-.208l-49.712-36.568a1.05 1.05 0 01-.223-1.463 1.042 1.042 0 011.459-.224l49.327 36.213 161.67-48.705a1.035 1.035 0 011.298.698 1.041 1.041 0 01-.695 1.292l-162.22 48.86a.953.953 0 01-.292.105z" fill="#C4D5E5"/><path d="M212.747 450.989a1.04 1.04 0 01-.613-.199l-49.712-36.555a1.046 1.046 0 01.203-1.796c.34-.149.734-.104 1.032.118l49.329 36.242 161.671-48.754a1.046 1.046 0 01.602 2.002l-162.222 48.942a.93.93 0 01-.29 0z" fill="#C4D5E5"/><path d="M212.746 444c-.22 0-.435-.069-.613-.198l-49.707-36.546a1.05 1.05 0 01-.223-1.464 1.04 1.04 0 011.459-.225l49.281 36.296L374.6 393.066a1.035 1.035 0 011.056.2 1.045 1.045 0 01-.454 1.791l-162.164 48.89a.931.931 0 01-.291.053z" fill="#C4D5E5"/><path d="M212.757 435a1.036 1.036 0 01-.613-.209l-49.722-36.545a1.046 1.046 0 01-.218-1.46 1.037 1.037 0 011.454-.219l49.296 36.233 161.703-48.755a1.039 1.039 0 011.014.238 1.048 1.048 0 01-.411 1.764l-162.213 48.9a.952.952 0 01-.29.053z" fill="#C4D5E5"/><path d="M212.756 427c-.22 0-.434-.069-.612-.198l-49.722-36.563a1.047 1.047 0 01-.218-1.46 1.037 1.037 0 011.454-.22l49.337 36.25 161.661-48.764a1.035 1.035 0 011.299.7 1.047 1.047 0 01-.696 1.303l-162.212 48.91a.935.935 0 01-.29.042z" fill="#C4D5E5"/><path d="M212.75 417.99c-.22 0-.434-.069-.612-.198l-49.712-36.544a1.05 1.05 0 01-.223-1.466 1.04 1.04 0 011.459-.225l49.327 36.273 161.67-48.785a1.034 1.034 0 011.298.7 1.044 1.044 0 01-.695 1.294l-162.18 48.94a.93.93 0 01-.332.01z" fill="#C4D5E5"/><path d="M212.747 410c-.22 0-.435-.069-.613-.198l-49.712-36.57a1.046 1.046 0 01-.218-1.459 1.037 1.037 0 011.454-.219l49.328 36.236 161.671-48.745a1.046 1.046 0 01.602 2.002l-162.18 48.89c-.108.035-.22.056-.332.063z" fill="#C4D5E5"/><path d="M212.736 402.999c-.22 0-.434-.069-.612-.199l-49.698-36.544a1.05 1.05 0 01-.223-1.465 1.04 1.04 0 011.458-.224l49.314 36.242 161.624-48.743a1.035 1.035 0 011.056.2 1.045 1.045 0 01-.454 1.791l-162.133 48.9a.93.93 0 01-.332.042z" fill="#C4D5E5"/><path d="M212.747 393a1.036 1.036 0 01-.613-.209l-49.712-36.553a1.047 1.047 0 01-.218-1.46 1.037 1.037 0 011.454-.219l49.328 36.25 161.671-48.764a1.038 1.038 0 011.014.238 1.049 1.049 0 01-.411 1.764l-162.222 48.9a.952.952 0 01-.291.053z" fill="#C4D5E5"/><path d="M212.733 385.999a1.04 1.04 0 01-.613-.199l-49.698-36.554a1.047 1.047 0 01-.218-1.46 1.036 1.036 0 011.453-.219l49.315 36.242 161.627-48.743a1.035 1.035 0 011.056.2 1.045 1.045 0 01-.454 1.791l-162.136 48.9a.93.93 0 01-.332.042z" fill="#C4D5E5"/><path d="M212 568c-.552 0-1-.466-1-1.041V375.04c0-.575.448-1.041 1-1.041s1 .466 1 1.041v191.92c0 .575-.448 1.041-1 1.041zm.35-198c-.222 0-.44-.07-.62-.2l-39.3-28.79a1.052 1.052 0 01-.41-1.052c.073-.393.362-.711.746-.82l136.408-39.099a1.05 1.05 0 01.714.053l51.49 23.141a1.052 1.052 0 01-.125 1.967l-148.598 44.758a1.052 1.052 0 01-.304.042zm-36.946-29.453l37.146 27.212 145.393-43.779-48.56-21.805-133.98 38.372z" fill="#365894"/><path d="M212.735 568.988a1.033 1.033 0 01-.613-.21l-49.707-36.666a1.049 1.049 0 01-.415-.847V338.443c0-.578.465-1.046 1.038-1.046.574 0 1.039.468 1.039 1.046v192.299l48.897 36.05 160.948-48.688V326.046c0-.578.465-1.046 1.039-1.046.573 0 1.039.468 1.039 1.046V518.88c.02.477-.284.908-.738 1.046l-162.163 49.063a1.386 1.386 0 01-.364 0z" fill="#365894"/><path d="M295.616 328.396l10.384.69c-.062 1.691-1.014 3.268-2.856 4.73a25.359 25.359 0 01-8.016 3.843 51.312 51.312 0 01-10.717 2.088 57.713 57.713 0 01-11.319-.052 47.441 47.441 0 01-10.384-2.162l-6.51 2.089-3.884-2.256 5.649-1.785a21.765 21.765 0 01-1.288-.7c-.55-.313-.945-.574-1.184-.741l-5.649 1.775L246 333.68l6.51-2.088a5.93 5.93 0 01-1.723-4.888 7.466 7.466 0 013.25-4.647 26 26 0 017.882-3.77c3.56-1.1 7.231-1.8 10.945-2.088a54.73 54.73 0 0111.33.209l-1.548 4.427a34.207 34.207 0 00-13.946 1.045 12.575 12.575 0 00-5.42 2.945 3.24 3.24 0 00-.81 3.675l14.537-4.605 3.853 2.245-16.013 5.055c.24.177.634.417 1.184.741.55.324.976.554 1.288.7l16.012-5.055 3.853 2.246-14.538 4.595c2.76.609 5.587.865 8.411.762a30.094 30.094 0 008.172-1.347c4.036-1.281 6.165-3.095 6.387-5.441zm-67.606 28.695l4.99.35a3.312 3.312 0 01-1.378 2.387 12.16 12.16 0 01-3.873 1.938c-1.697.563-3.447.93-5.22 1.094a26.754 26.754 0 01-5.46 0 22.663 22.663 0 01-5.02-1.094l-3.132 1.094-1.858-1.094 2.735-.898c-.153-.08-.362-.2-.627-.361a4.94 4.94 0 01-.574-.373l-2.735.898-1.858-1.095 3.132-1.029a3.098 3.098 0 01-.835-2.474 3.811 3.811 0 011.576-2.343 12.597 12.597 0 013.81-1.894 23.28 23.28 0 015.282-1.094 25.471 25.471 0 015.481.098l-.741 2.244a15.737 15.737 0 00-6.744.515 6.01 6.01 0 00-2.63 1.489 1.687 1.687 0 00-.387 1.85l7.047-2.32 1.858 1.094-7.746 2.55c.115.088.313.209.574.373.261.164.48.274.626.35l7.746-2.55 1.858 1.094-7.046 2.321c1.334.3 2.697.43 4.06.383a14.376 14.376 0 003.957-.679c1.984-.722 3.017-1.63 3.132-2.824zM190.098 194L159 259.364l8.808-.905-1.89-1.852L211 288z" fill="#365894"/><path fill="#365894" d="M210.243 295L378 246.722 341.198 160 188 195.29z"/><path fill="#FFF" d="M191.925 202L166 256.017 211 287z"/><path d="M213 291l-48-33.168L192.631 200 213 291zm-45.412-33.869l42.177 29.13-17.885-79.901-24.292 50.771z" fill="#365894"/><path d="M319.031 548.992a1.31 1.31 0 01-.28 0 1.045 1.045 0 01-.713-1.283l44.906-164.832a1.04 1.04 0 01.722-.832 1.029 1.029 0 011.058.289c.269.292.349.713.206 1.085L320.024 548.22c-.12.454-.527.77-.993.772z" fill="#779EED"/><path d="M316.043 422c-.516-.006-.952-.365-1.03-.848-.08-.483.223-.95.713-1.102l40.876-11.996a1.1 1.1 0 011.052.206.967.967 0 01.317.972c-.09.354-.375.635-.746.732l-40.876 11.996a1.06 1.06 0 01-.306.04zm4.001-14c-.517-.006-.953-.365-1.032-.849-.078-.484.224-.95.715-1.103l40.935-12.012c.55-.143 1.122.153 1.29.67.17.517-.126 1.067-.666 1.242L320.35 407.96c-.1.027-.203.04-.307.04zm-12.011 42c-.514-.01-.946-.371-1.021-.853-.076-.482.226-.946.715-1.098l40.906-12.004c.557-.163 1.148.132 1.32.66.172.528-.14 1.087-.697 1.25L308.35 449.96a1.13 1.13 0 01-.317.04zm4-14c-.514-.01-.946-.371-1.021-.853-.076-.482.226-.946.715-1.098l40.906-12.004c.557-.163 1.148.132 1.32.66.172.528-.14 1.087-.697 1.25L312.35 435.96a1.13 1.13 0 01-.317.04zm-8.989 28c-.517-.006-.953-.365-1.032-.848-.078-.484.224-.95.715-1.103l40.906-12.004c.557-.163 1.148.132 1.32.66.172.528-.14 1.087-.697 1.25L303.35 463.96c-.1.027-.203.04-.306.04zm-8.011 29.999c-.514-.01-.946-.371-1.021-.853-.076-.482.226-.946.715-1.098l40.9-12.003c.56-.163 1.154.134 1.326.665.172.53-.142 1.092-.702 1.255l-40.9 12.004a1.134 1.134 0 01-.318.03zm-14.811 55.99c-.581.082-1.123-.297-1.21-.847-.087-.55.313-1.064.894-1.147l40.762-11.959c.548-.143 1.117.152 1.285.667.168.514-.126 1.062-.664 1.237l-40.762 11.959a1.106 1.106 0 01-.305.09zm18.811-69.99c-.514-.01-.946-.371-1.021-.853-.076-.482.226-.946.715-1.098l40.9-12.003c.56-.163 1.154.134 1.326.665.172.53-.142 1.092-.702 1.255l-40.9 12.004a1.134 1.134 0 01-.318.03zm-6.813 27.99c-.58.082-1.121-.297-1.208-.846-.087-.55.313-1.063.893-1.145l40.703-11.944c.363-.118.764-.04 1.048.205a.963.963 0 01.315.967 1.022 1.022 0 01-.743.729l-40.703 11.944a1.094 1.094 0 01-.305.09zm-9.006 29.001c-.58.08-1.119-.302-1.203-.852-.084-.55.318-1.06.899-1.14l40.702-11.954c.554-.162 1.142.133 1.314.658a.95.95 0 01-.043.824 1.043 1.043 0 01-.682.51l-40.703 11.953c-.094.013-.19.013-.284 0zm5.007-15.001c-.58.082-1.122-.297-1.21-.847-.086-.55.314-1.063.895-1.145l40.732-11.953c.555-.162 1.143.133 1.315.658.171.525-.14 1.082-.694 1.245l-40.733 11.952a1.018 1.018 0 01-.305.09z" fill="#779EED"/><path d="M357.215 593.99c-.58.08-1.12-.302-1.204-.852-.084-.55.318-1.06.9-1.14l40.728-11.954c.554-.162 1.142.133 1.314.658.171.525-.14 1.082-.694 1.245L357.531 593.9c-.1.045-.206.075-.316.09zm-3.012-17c-.58.075-1.115-.31-1.193-.86-.079-.551.328-1.057.91-1.131l40.719-11.954c.554-.163 1.143.132 1.314.657.171.525-.14 1.083-.694 1.245l-40.72 11.954c-.106.048-.22.078-.336.09zm-4.987-19c-.581.08-1.12-.302-1.205-.852-.084-.55.319-1.06.9-1.14l40.727-11.954c.555-.162 1.143.133 1.315.658.171.525-.14 1.082-.694 1.245L349.52 557.9a1.018 1.018 0 01-.305.09zm-1.001-18c-.58.08-1.12-.302-1.204-.852-.084-.55.318-1.06.899-1.14l40.698-11.944c.362-.118.764-.04 1.048.205a.963.963 0 01.315.967 1.022 1.022 0 01-.743.73L348.53 539.9c-.1.045-.206.075-.315.09zm-3.999-19c-.581.08-1.12-.302-1.205-.853-.084-.55.319-1.061.9-1.14l40.757-11.961c.548-.143 1.117.152 1.285.667.168.514-.126 1.062-.664 1.237l-40.757 11.96c-.1.045-.206.075-.316.09zm-3.996-19.001c-.58.082-1.121-.297-1.208-.846-.087-.55.313-1.063.893-1.145l40.703-11.944c.363-.118.764-.04 1.048.205a.963.963 0 01.315.967 1.022 1.022 0 01-.743.729l-40.703 11.944a1.017 1.017 0 01-.305.09zm-2.998-18a1.095 1.095 0 01-.99-.369.965.965 0 01-.158-.997c.139-.335.456-.574.832-.627l40.762-11.96c.548-.143 1.117.152 1.285.667.168.514-.126 1.062-.664 1.237l-40.762 11.96a1.019 1.019 0 01-.305.089zm-2.006-17.999c-.581.08-1.12-.302-1.205-.853-.084-.55.319-1.061.9-1.14l40.757-11.961c.548-.143 1.117.152 1.285.667.168.514-.126 1.062-.664 1.237l-40.757 11.96c-.1.045-.206.075-.316.09zM330.044 448c-.517-.006-.953-.365-1.032-.849-.078-.484.224-.95.715-1.103l40.935-12.012c.55-.143 1.122.153 1.29.67.17.517-.126 1.067-.666 1.242L330.35 447.96c-.1.027-.203.04-.307.04zm-1.012-18.015c-.514-.01-.945-.37-1.02-.851-.076-.482.226-.945.714-1.097l40.86-11.987a1.127 1.127 0 011.058.214.991.991 0 01.332.974c-.08.358-.357.647-.725.76l-40.86 11.987c-.119.02-.24.02-.359 0zm-4.817-17.995c-.58.08-1.12-.302-1.204-.852-.084-.55.318-1.06.9-1.14l40.728-11.954c.554-.162 1.142.133 1.314.658.171.525-.14 1.082-.694 1.245L324.531 411.9c-.1.045-.206.075-.316.09z" fill="#365894"/><path d="M401.932 600a1.051 1.051 0 01-1.052-.87l-37.865-216.887a1.063 1.063 0 01.371-.998 1.07 1.07 0 011.733.64l37.865 216.887a1.047 1.047 0 01-.862 1.217l-.19.011z" fill="#365894"/><path d="M277.03 560.988a.77.77 0 01-.268 0 1.036 1.036 0 01-.627-.49 1.055 1.055 0 01-.098-.794l44.928-164.935c.073-.268.248-.495.487-.632a1.029 1.029 0 011.413.391c.135.241.17.527.098.794l-44.939 164.893c-.12.454-.527.77-.993.773z" fill="#779EED"/><path d="M359.932 613a1.051 1.051 0 01-1.052-.86l-37.865-216.897a1.067 1.067 0 012.104-.357l37.865 216.886a1.047 1.047 0 01-.862 1.217l-.19.011zM191.578 258c-4.093 0-7.829-5.001-8.484-11.39-.399-3.919.481-7.544 2.364-9.677a5.228 5.228 0 013.97-1.933c4.094 0 7.82 5.001 8.474 11.39.41 3.93-.48 7.544-2.354 9.687a5.217 5.217 0 01-3.97 1.923zm-6.447-11.61c.532 5.159 3.48 9.509 6.447 9.509a3.194 3.194 0 002.446-1.23c1.473-1.68 2.18-4.77 1.842-8.059-.522-5.148-3.47-9.509-6.437-9.509a3.244 3.244 0 00-2.456 1.23c-1.474 1.68-2.18 4.77-1.842 8.059z" fill="#365894"/><path d="M196.916 251a1.19 1.19 0 01-.544-.126l-11.789-6.04c-.354-.165-.577-.491-.583-.848-.005-.358.209-.689.558-.863a1.199 1.199 0 011.113.029l11.778 6.03c.429.217.64.665.515 1.092-.125.427-.555.725-1.048.726z" fill="#365894"/><path d="M190 257c-.552 0-1-.469-1-1.048v-19.904c0-.579.448-1.048 1-1.048s1 .469 1 1.048v19.904c0 .579-.448 1.048-1 1.048z" fill="#365894"/><path fill="#FFF" d="M259 240.47L269.508 228l9.492 6.875v17.592L259 258z"/><path fill="#4470C0" d="M272 239l-6 2.048V251l6-2.036zm-14 19l-7-22 7 4.412z"/><path fill="#104373" d="M248 234.15L259.784 222l8.623 4.362L280 234.506l-2.044.398v-.428l-9.655-6.789L257.613 240z"/><path fill="#FFF" d="M268.003 239.81l1.045-.005.055 9.82-1.045.007zM315 224.475L325.513 212l9.487 6.878v17.597L315 242z"/><path fill="#4470C0" d="M329 222l-6 2.036V234l6-2.048zm-14 20l-7-22 7 4.415z"/><path fill="#104373" d="M305 217.15L316.791 205l8.61 4.362L337 217.506l-2.054.398v-.428l-9.641-6.789L314.62 223z"/><path fill="#FFF" d="M325.448 223.237l1.046-.006.054 9.821-1.045.006z"/><path d="M369.444 381.89s10.795-34.51 10.545-36.026c-.25-1.516.073-38.264 0-40.857-.094-3.451-5.366-19.786-6.489-25.841-1.331-7.132-4.274-21.166-4.274-21.166h-3.38s.895 16.366 1.872 23.864c.894 6.881 3.421 22.892 3.421 22.892l-19.425 1.945s-24.553-33.893-25.634-36.35l-2.08 1.045s14.34 39.906 28.286 50.458c2.59 9.736 3.67 25.035 3.67 25.035s-15.338 10.53-17.678 14.714c-2.34 4.183-6.395 19.764-7.092 23.006l3.203 2.207 11.97-19.054 17.085-6.201s-2.402 13.197-2.007 22.17c.395 8.972 3.255 26.269 3.255 26.269l3.556-.9 1.196-27.21z" fill="#0B2E4F"/><path d="M364.67 410.975a1.034 1.034 0 01-.571-.177 1.046 1.046 0 01-.457-.7c0-.178-2.856-17.446-3.25-26.383-.322-7.118 1.038-16.724 1.703-20.612l-15.046 5.477-11.754 18.741c-.151.238-.39.403-.665.46-.277.06-.565.003-.8-.156l-3.198-2.216a1.048 1.048 0 01-.425-1.046c.685-3.23 4.786-19.044 7.185-23.33 2.201-3.95 14.766-12.825 17.476-14.716-.229-2.864-1.32-15.439-3.5-23.884-13.914-10.923-27.724-49.064-28.305-50.695a1.048 1.048 0 01.498-1.285l2.077-1.046c.262-.113.558-.113.82 0 .268.095.485.295.602.554.758 1.715 15.306 22.076 25.14 35.664l17.713-1.777c-.581-3.731-2.502-16.044-3.25-21.814-.976-7.453-1.869-23.769-1.869-23.926a1.05 1.05 0 01.28-.784 1.14 1.14 0 01.77-.324h3.363a1.04 1.04 0 011.039.837c0 .135 2.949 14.11 4.267 21.166.499 2.665 1.838 7.452 3.115 12.093 1.703 6.105 3.313 11.864 3.365 13.902v13.045c-.052 10.567-.135 26.549 0 27.667.26 1.537-6.459 23.372-10.519 36.354l-1.152 27.061c-.02.465-.341.861-.79.972l-3.55.9c-.105.008-.21.001-.312-.022zm-1.246-50.506a1.05 1.05 0 011.018 1.286c0 .125-2.368 13.18-1.984 21.95.332 7.505 2.42 21.051 3.053 25.013l1.703-.429 1.132-26.424c-.01-.09-.01-.181 0-.271 4.008-12.784 10.383-33.689 10.487-35.601-.156-1.432-.104-12.543 0-27.93 0-6.459.062-12.051 0-12.97 0-1.788-1.765-7.955-3.292-13.4-1.308-4.684-2.658-9.523-3.167-12.272-1.131-6.052-3.447-17.205-4.101-20.31h-1.423c.229 3.816.987 16.422 1.797 22.662.882 6.783 3.395 22.692 3.416 22.849.04.284-.03.572-.197.805a1.04 1.04 0 01-.727.397l-19.397 1.954a1.036 1.036 0 01-.945-.428c-2.336-3.22-21.525-29.769-25.16-35.538l-.352.177c2.18 5.854 15.18 39.72 27.579 49.127.184.142.318.34.384.564 2.575 9.71 3.655 24.584 3.696 25.222.023.37-.151.723-.457.93-4.205 2.895-15.513 11.111-17.33 14.362-2.025 3.627-5.783 17.623-6.811 22.065l1.723 1.192 11.422-18.125a1.04 1.04 0 01.52-.429l17.06-6.198c.1-.1.22-.178.353-.23z" fill="#365894"/><path d="M140.855 276c0-.175-3.855-15-3.855-15l5 4.454L140.855 276z" fill="#BFD1E3"/><path d="M140.924 276a1.179 1.179 0 01-.448-.08l-9.826-4.003a1.013 1.013 0 01-.644-.809.968.968 0 01.442-.915c.316-.211.73-.252 1.087-.107l9.826 4.003c.464.194.72.657.616 1.115-.105.459-.542.79-1.053.796zm-.05-9.005a.97.97 0 01-.44-.11 18.919 18.919 0 01-5.833-5.465 8.654 8.654 0 01-1.576-3.06c-.125-.604.233-1.2.798-1.334.565-.132 1.124.25 1.248.853a7.115 7.115 0 001.228 2.186 16.78 16.78 0 005.117 4.853c.247.125.436.35.526.625.09.275.074.577-.045.84-.187.413-.596.657-1.023.612zM357.038 347c-.573 0-1.038-.4-1.038-.892-.001-.473.427-.865.975-.893l23.929-1.214c.37-.017.724.137.927.404a.788.788 0 01.057.893c-.168.284-.5.47-.87.488l-23.908 1.205-.072.009zm6.354 16.987c-.662.093-1.28-.332-1.378-.95-.1-.616.356-1.191 1.018-1.284l9.41-2.703c.636-.182 1.31.15 1.505.743.195.592-.162 1.22-.798 1.402l-9.41 2.692c-.109.05-.226.084-.347.1zM343.975 369c-.438.016-.828-.3-.941-.762a1.115 1.115 0 01.09-.783.959.959 0 01.569-.484l3.124-.936c.499-.145 1.01.176 1.148.72.14.546-.151 1.112-.65 1.266l-3.124.937c-.07.021-.143.035-.216.041zm63.089-135a1.09 1.09 0 01-.752-.293 1.024 1.024 0 010-1.472l6.83-6.912a1.1 1.1 0 011.526-.031c.43.4.444 1.064.032 1.482l-6.83 6.902a1.09 1.09 0 01-.806.324zm9.283 16a.658.658 0 01-.44-.212c-.197-.18-.32-.44-.344-.72-.182-.955-2.793-11.066-4.525-17.712a1.17 1.17 0 01.08-.807.982.982 0 01.57-.507.874.874 0 01.731.092c.223.137.387.367.456.639 2.64 10.143 3.826 14.595 4.266 16.63 1.827-1.123 5.74-3.646 8.39-5.3a.877.877 0 01.979-.03c.306.19.495.55.49.94-.005.389-.202.744-.513.924-7.72 4.94-9.46 6.063-10.14 6.063z" fill="#365894"/><path d="M414.936 249a1.07 1.07 0 01-.798-.357c-.404-.42-4.958-4.382-7.746-6.778a1.044 1.044 0 01.335-1.81 1.074 1.074 0 011.059.224c2.266 1.954 7.576 6.546 7.959 6.987.27.312.331.75.157 1.123a1.065 1.065 0 01-.966.611z" fill="#365894"/><path d="M413.185 255h-.094a1.19 1.19 0 01-1.088-1.277c.248-3.294.639-8.7.639-9.404a1.192 1.192 0 01.938-1.294 1.181 1.181 0 011.367.817c.095.286.142.43-.58 10.06a1.186 1.186 0 01-1.182 1.098z" fill="#365894"/><path d="M140.217 251c-.358-.509-3.708-4.503-3.708-4.503l-1.485-13.54s-2.377-1.186-2.858-2.119a3.323 3.323 0 01.717-3.295c1.27-.688 2.479.933 2.479.933l3.739-6.357 9.035-2.119s1.505 8.72 1.864 13.71c-.583 1.967-2.072 3.507-3.975 4.11l-2.95.816L140.217 251z" fill="#F2D1AC"/><path d="M140.199 252c-.328 0-.636-.16-.829-.433-.246-.338-2.373-2.894-3.652-4.426a.987.987 0 01-.245-.57l-1.432-12.928a7.9 7.9 0 01-2.731-2.218 4.19 4.19 0 01-.113-2.852 3.174 3.174 0 011.248-1.901 2.54 2.54 0 012.71.232l3.07-5.28c.142-.246.374-.422.644-.487l9.021-2.112a.996.996 0 01.788.152c.232.16.39.41.44.693.061.359 1.524 8.809 1.882 13.783-.518 2.502-2.339 4.5-4.726 5.187l-2.362.654-2.7 11.619c-.092.4-.4.708-.788.792l-.225.095zm-2.752-5.989l2.21 2.64 2.362-10.234a1.04 1.04 0 01.737-.771l2.946-.813c1.49-.48 2.675-1.652 3.201-3.169-.297-3.834-1.248-9.854-1.657-12.294l-7.538 1.764-3.52 5.957a1.018 1.018 0 01-.819.508 1.01 1.01 0 01-.868-.413s-.726-.888-1.176-.645c-.3.56-.408 1.207-.307 1.838a8.769 8.769 0 002.383 1.627c.318.158.534.473.573.834l1.473 13.171z" fill="#365894"/><path d="M143.46 257l-3.46-5.747 1.83-8.253c.815.818 1.553 1.72 2.206 2.693 4.734 10.256-.577 11.307-.577 11.307z" fill="#BFD1E3"/><path d="M143.443 257c-.342 0-.66-.176-.845-.466l-3.432-5.323a1.02 1.02 0 01-.141-.78l1.822-7.654c.085-.35.35-.629.694-.73a1.001 1.001 0 011.007.243 15.35 15.35 0 012.385 2.798c2.094 4.197 2.597 7.431 1.51 9.631a4.183 4.183 0 01-2.798 2.26l-.202.021zm-2.355-6.529l2.738 4.248c.354-.231.636-.558.815-.943.523-1.105.684-3.345-1.52-7.786a6.137 6.137 0 00-.745-.943l-1.288 5.424z" fill="#365894"/><path d="M163.38 261.67a26.948 26.948 0 003.184-1.927c.955-.86 2.054-2.05 2.577-1.67 1.027.768.545 2.716.545 2.716.174 0 8.42 3.475 7.189 5.289-1.027 1.445-5.885.86-7.867.45a47.807 47.807 0 01-6.008-2.05l.38-2.808z" fill="#F2D1AC"/><path d="M173.378 269a22.585 22.585 0 01-4.59-.547 44.264 44.264 0 01-6.16-2.32c-.433-.198-.686-.69-.617-1.194l.421-3.034c.05-.347.248-.65.534-.814a24.797 24.797 0 002.937-1.885l.4-.402c1.16-1.182 2.372-2.398 3.492-1.484.805.801 1.19 1.985 1.026 3.157 1.92.893 6.305 3.146 7.044 5.243.234.613.16 1.313-.195 1.852-.729 1.093-2.505 1.428-4.292 1.428zm-9.241-4.596a38.25 38.25 0 005.134 1.863c3.08.692 6.037.591 6.715.067-.585-1.116-4.877-3.514-6.53-4.172a.895.895 0 01-.586-.48 1.202 1.202 0 01-.082-.836 3.63 3.63 0 000-1.45c-.358.31-.701.64-1.026.992l-.421.413a20.81 20.81 0 01-2.937 1.997l-.267 1.606z" fill="#365894"/><path d="M170.887 233l5.827-2.736s-1.462-1.347-1.462-1.724S178 221 178 221a7.807 7.807 0 00-3.556 2.887 44.723 44.723 0 01-5.444 5.386l1.887 3.727z" fill="#F2D1AC"/><path d="M170.162 233.996c-.419 0-.804-.221-.996-.576l-2.039-3.699a1.033 1.033 0 01.303-1.332 45.169 45.169 0 005.7-5.16 9.29 9.29 0 014.48-3.198c.408-.096.838.033 1.114.334.276.3.352.724.197 1.095-1.12 2.793-2.43 5.884-2.8 6.929.344.381.719.738 1.12 1.066.282.241.417.602.358.96a1.075 1.075 0 01-.65.81s-5.6 2.44-6.316 2.707c-.15.056-.31.078-.47.064zm-.627-4.499l1.12 2.047 3.842-1.652c-.75-.8-.75-1.151-.75-1.375 0-.224 0-.47 1.68-4.552-.191.181-.37.394-.56.608a42.799 42.799 0 01-5.354 4.924h.022z" fill="#365894"/><path d="M371.998 303.88c.084-.842-2.831-5.726-3.185-6.228-.354-.5-.573-5.865-.573-5.865s.635-4.458 2.082-14.546c.23-1.642-3.956-7.241-3.956-7.241C364.91 271.749 352 281.837 352 281.837l1.999 2.378s-2.322 7.732-1.957 8.606c.364.875 7.204 3.328 7.589 4.575a50.643 50.643 0 011.374 7.604l5.07-.512 5.923-.608z" fill="#F2D1AC"/><path d="M360.006 306a1.035 1.035 0 01-1.038-.919 45.786 45.786 0 00-1.296-7.079 20.882 20.882 0 00-3.817-2.064c-2.583-1.218-3.444-1.661-3.734-2.353-.135-.31-.498-1.156 1.742-8.493l-1.618-1.858a1.028 1.028 0 01-.238-.784 1.03 1.03 0 01.394-.712c5.186-3.9 13.152-10.124 14.158-11.352a1.04 1.04 0 011.618 0c1.328 1.734 4.398 5.965 4.15 7.792-1.308 8.916-1.95 13.281-2.075 13.973.043 1.727.188 3.45.435 5.16.509.774 3.434 5.325 3.31 6.625a1.035 1.035 0 01-.934.929l-10.954 1.094-.103.041zm-7.925-13.23a29.23 29.23 0 002.666 1.352c3.164 1.486 4.574 2.24 4.896 3.23a42.43 42.43 0 011.286 6.543l8.64-.857a45.401 45.401 0 00-2.614-4.52c-.176-.237-.54-.743-.767-6.243a1.18 1.18 0 010-.197s.643-4.313 2.074-14.065c0-.61-1.338-2.962-3.039-5.305-2.749 2.446-10.02 8.019-12.685 10.052l1.275 1.475c.231.267.31.633.208.97a58.584 58.584 0 00-1.992 7.513l.052.052z" fill="#365894"/><path d="M325.344 272l-3.854-4.46s-1.957-3.248-1.385-3.865c.572-.617 3.573-1.305 2.65-4.45-1.004-3.571 4.315-3.723 5.318-2.62.16.172 2.238 2.973 1.887 4.693-.351 1.72-3.252 3.399-3.252 3.399l.613 6.069-1.977 1.234z" fill="#F2D1AC"/><path d="M323.872 273a1.122 1.122 0 01-.815-.354l-4.185-4.457-.108-.132c-2.543-3.891-1.685-4.75-1.359-5.054.291-.255.62-.47.978-.637 1.315-.697 2.174-1.273 1.641-2.84-.595-1.472.08-3.127 1.576-3.861 1.837-1.01 4.934-.829 6.021.273 0 0 2.837 3.244 2.315 5.59-.37 1.637-2.38 3.032-3.434 3.71l.587 5.437a.99.99 0 01-.511.96l-2.174 1.234a1.15 1.15 0 01-.532.131zm-3.26-6.065l3.51 3.75.771-.444-.587-5.439c-.057-.408.158-.808.544-1.01 1.087-.597 2.793-1.84 2.988-2.72.229-1.01-1.282-3.254-1.793-3.82a4.434 4.434 0 00-3.434.182c-.391.222-.75.586-.467 1.476 1.021 3.234-1.554 4.589-2.652 5.175l-.25.131c.328.95.777 1.859 1.337 2.71l.032.01z" fill="#365894"/><path d="M366.41 257a30.733 30.733 0 01-4.418-1.924 15.303 15.303 0 01-3.91-4.267c-.806-2.691 4.594.338 4.893 0 .74-.778.95-3.213.927-7.583 0-.246 4.683-.624 5.6.941 3.611 6.14-.442 8.504-.442 8.504l.696 3.695-3.347.634z" fill="#F2D1AC"/><path d="M366.744 258a.932.932 0 01-.366-.072 26.756 26.756 0 01-4.25-2.044c-1.16-.817-3.651-3.617-3.987-4.823a1.785 1.785 0 01.407-1.983c1.017-.89 2.705-.194 4.23.419l.305.123a30.88 30.88 0 00.376-6.378 1.102 1.102 0 01.946-1.083c.58-.153 4.932-.654 6.101 1.533 2.898 5.345.875 8.299-.203 9.372l.539 3.117a1.02 1.02 0 01-.803 1.185l-3.112.613-.183.021zm-6.539-7.246a16.326 16.326 0 003.051 3.465 23.691 23.691 0 003.539 1.696l1.84-.368-.467-2.698a1.024 1.024 0 01.467-1.022c.102-.071 2.847-2.044.061-7.154-.295-.541-2.166-.695-3.254-.623 0 4.609-.305 6.52-1.098 7.44-.56.634-1.24.358-2.38-.092a14.524 14.524 0 00-1.759-.644z" fill="#365894"/><path fill="#0B2E4F" d="M331.933 385l-3.146 6.698L319 390.41l9.2 10.59 6.8-13.987z"/><path d="M327.768 403.968c-.313 0-.61-.14-.81-.383l-9.72-11.805a1.073 1.073 0 01-.105-1.191 1.049 1.049 0 011.052-.543l9.552 1.33 3.008-6.743a1.046 1.046 0 011.557-.447l3.24 2.255c.426.295.577.858.358 1.33l-7.185 15.623c-.15.328-.455.556-.81.606l-.137-.032zm-7.174-11.443l6.922 8.412 6.164-13.252-1.472-1.063-2.81 6.317a1.05 1.05 0 01-1.051.606l-7.753-1.02z" fill="#365894"/><path d="M365.762 409.817s-7.615 5.518-7.76 5.651c-.146.133 11.998.532 11.998.532l-.414-7-3.824.817z" fill="#0B2E4F"/><path d="M369.855 418c-12.457-.48-12.457-.48-12.775-1.27-.165-.397-.07-.85.241-1.153.121-.117 2.705-2.272 7.697-6.401.13-.108.284-.185.45-.224l3.75-.918c.32-.08.661-.017.928.174.266.19.43.487.446.808l.407 7.863a1.05 1.05 0 01-.319.8c-.216.215-.516.33-.825.32zm-9.081-2.53l7.927.353-.286-5.399-2.199.534-5.442 4.513z" fill="#365894"/><path d="M119.435 343s5.821 7.32 5.556 8L115 347l2.12-5 2.315 1z" fill="#0B2E4F"/><path d="M124.891 352.967a1.113 1.113 0 01-.418-.087l-10.785-4.353a1.095 1.095 0 01-.605-.587 1.076 1.076 0 010-.827l2.28-5.441c.114-.268.332-.48.606-.588.271-.112.577-.112.848 0l2.5 1.088a1.1 1.1 0 01.441.327c6.61 8.455 6.39 9.195 6.158 9.794-.16.423-.568.704-1.025.707v-.033zm-9.374-6.007l6.907 2.764c-1.102-1.6-2.732-3.765-4.252-5.702l-1.223-.511-1.432 3.45z" fill="#365894"/><path d="M133.375 339.8a25.386 25.386 0 00-.375 3.28c0 .18 13 1.92 13 1.92l-8.821-6-3.804.8z" fill="#0B2E4F"/><path d="M145.986 346h-.153c-12.87-1.863-12.87-1.863-12.829-2.94.045-1.142.167-2.28.366-3.407.071-.384.365-.692.75-.787l3.452-.837a1.03 1.03 0 01.852.17l8.17 5.978a.985.985 0 01.325 1.185c-.149.38-.519.633-.933.638zm-10.932-3.686c1.33.249 4.243.697 7.105 1.125l-4.567-3.377-2.324.568c-.061.418-.132 1.016-.214 1.684z" fill="#365894"/><path d="M383 243.87s-3.7 1.693-4.052.934c-.35-.759-1.403-2.985-1.403-2.985s-7.616.061-6.417-1.088c1.2-1.149 2.728-5.13 4.188-4.699 1.46.431 2.93 2.709 2.93 2.709l2.694.338 2.06 4.792z" fill="#F2D1AC"/><path d="M379.351 247a1.85 1.85 0 01-.643-.111 1.389 1.389 0 01-.833-.768l-1.11-2.571c-6.049 0-6.46-.98-6.66-1.503a1.427 1.427 0 01.323-1.558c.446-.58.837-1.203 1.165-1.858 1.11-1.926 2.286-4.107 4.085-3.54a7.311 7.311 0 013.207 2.983l2.131.29c.395.055.73.318.877.69l2.031 5.208a1.114 1.114 0 01-.544 1.402 10.193 10.193 0 01-4.029 1.336zm-1.831-5.676c.445 0 .847.268 1.021.679l1.11 2.727a10.98 10.98 0 001.765-.635l-1.41-3.617-1.998-.278a1.11 1.11 0 01-.81-.534 7.194 7.194 0 00-2.109-2.393 11.41 11.41 0 00-1.61 2.448c-.265.468-.52.935-.787 1.347 1.583.2 3.178.286 4.772.256h.056z" fill="#365894"/><path d="M404.185 219c-.105-.306 2.518-7.197 2.58-7.734a61.952 61.952 0 00-2.15-6.25c.388 0 3.294-2.107 2.098-4.214-.65-1.054-2.665-.548-2.55-1.58.116-1.033.441-5.185-.66-6.007C402.4 192.393 393.44 189 393.44 189s-1.93 4.036-2.644 5.806c-2.602 6.544-1.973 9.61-.65 11.012 1.321 1.401 8.938 2.413 8.938 2.413l5.1 10.769z" fill="#F2D1AC"/><path d="M404.167 220a1.044 1.044 0 01-.951-.59l-4.826-10.175c-2.33-.337-7.647-1.232-8.973-2.665-2.027-2.17-1.88-6.246.449-12.113.7-1.78 2.57-5.698 2.653-5.867.235-.483.794-.71 1.295-.526 1.515.558 9.12 3.423 10.28 4.287 1.451 1.053 1.316 4.697 1.128 6.572h.177c.87.096 1.658.564 2.163 1.285a3.288 3.288 0 01-.136 3.497 6.375 6.375 0 01-1.525 1.696c1.963 5.15 1.9 5.635 1.87 5.899a26.984 26.984 0 01-1.15 3.465c-.522 1.464-1.295 3.665-1.41 4.213a1.053 1.053 0 01-.658.938 1.039 1.039 0 01-.386.084zm-10.175-29.63c-.606 1.275-1.703 3.645-2.194 4.867-2.611 6.614-1.66 9.037-.867 9.89.637.674 4.795 1.633 8.295 2.107.35.047.652.269.804.59l3.928 8.268c.188-.548.417-1.2.7-1.99.396-1.117.877-2.486 1.044-2.94-.157-.726-1.149-3.486-2.09-5.803-.11-.287-.09-.61.054-.88.145-.272.4-.466.699-.532a3.71 3.71 0 001.473-1.727 1.06 1.06 0 00-.073-.885c-.084-.137-.543-.242-.836-.305-.554-.127-2.006-.464-1.838-1.938.25-2.17.125-4.624-.272-5.056a93.268 93.268 0 00-8.827-3.666z" fill="#365894"/><path d="M412.047 301.342l-1.152 3.882s-5.883 3.263-5.895 4.492c-.012 1.228 11.94-1.92 11.998-1.931.058-.01-1.29-7.785-1.29-7.785l-3.661 1.342z" fill="#0B2E4F"/><path d="M406.869 311c-.94 0-1.214-.194-1.351-.297a1.195 1.195 0 01-.517-1.023c0-.44 0-1.729 5.55-5.115l.982-3.458c.086-.305.312-.554.612-.675l3.325-1.33c.29-.136.628-.136.918 0 .283.154.478.425.527.736 1.362 8.574 1.362 8.574.444 8.84-6.206 1.892-9.097 2.322-10.49 2.322zm6.564-8.809l-.96 3.366c-.07.246-.232.458-.454.594a34.617 34.617 0 00-3.947 2.721 76.851 76.851 0 007.82-1.8 685.96 685.96 0 00-.866-5.525l-1.593.644z" fill="#365894"/><path d="M399.652 286.17s1.568 2.968 1.322 3.861c-.247.894-4.963 1.438-4.963 1.438s-6.308 1.951-6.97 1.448c-.66-.503 6.723-5.566 7.115-6.43.392-.862 3.496-.318 3.496-.318z" fill="#0B2E4F"/><path d="M389.542 293.99c-.399.045-.8-.07-1.101-.316a1.229 1.229 0 01-.441-.856c0-.846.87-1.62 4.297-4.343 1-.747 1.952-1.547 2.853-2.395.617-1.295 2.853-1.193 4.638-.877.338.065.623.272.771.56.65 1.224 1.686 3.436 1.389 4.527-.11.418-.42 1.55-5.707 2.171-3.911 1.203-5.73 1.53-6.699 1.53zm7.514-6.89a18.478 18.478 0 01-3.305 2.925c-.54.428-1.256 1.02-1.906 1.54a64.637 64.637 0 003.823-1.071h.22a18.164 18.164 0 003.933-.836 12.767 12.767 0 00-.98-2.488 5.945 5.945 0 00-1.785-.07z" fill="#365894"/><path d="M367.974 298s11.441-7.207 11.847-8.582c.405-1.375.333-9.187-2.507-12.134-2.84-2.948-11.774-8.176-12.7-9.187-.926-1.01-.853 6.125.551 7.979s4.078 3.603 3.797 3.874c-.281.271-4.369 8.853-3.797 11.967a17.28 17.28 0 002.809 6.083z" fill="#824E29"/><path d="M367.727 300l-.569-.774a18.705 18.705 0 01-2.98-6.634c-.538-2.968 2.318-9.868 3.57-12.295-.176-.17-.404-.36-.6-.53a21.509 21.509 0 01-2.774-2.84c-1.314-1.77-1.976-8.479-.651-9.645a1.171 1.171 0 011.686.17c.29.307 2.018 1.473 3.56 2.512 3.218 2.173 7.243 4.875 9.044 6.815 3.218 3.391 3.249 11.743 2.752 13.386-.352 1.187-4.47 4.313-12.23 9.316l-.808.519zm2.07-19.077c-.59.975-4.026 8.775-3.56 11.308a15.168 15.168 0 002.07 4.94c4.842-3.18 9.871-6.72 10.534-7.664.31-1.324.186-8.616-2.277-11.223-1.676-1.77-5.743-4.515-8.713-6.518-1.21-.816-2.07-1.42-2.742-1.887 0 1.78.259 4.875.942 5.797a19.45 19.45 0 002.483 2.523c1.035.933 1.5 1.325 1.521 1.971v.456l-.258.297zm-.021.074l-.062.063a.183.183 0 00.041-.148l.021.085zm0-.053l-1.552-1.389a.742.742 0 00-.197.287c.057-.133.13-.257.218-.371l1.531 1.473z" fill="#365894"/><path fill="#BFD1E3" d="M415 243l-5-4.134.297-6.653 1.165-1.213z"/><path d="M141.5 229c-.276 0-.5-.256-.5-.571v-.858c0-.315.224-.571.5-.571s.5.256.5.571v.858c0 .315-.224.571-.5.571zm5-2c-.276 0-.5-.237-.5-.53v-.94c0-.293.224-.53.5-.53.274.006.495.24.5.53v.983a.522.522 0 01-.5.487z" fill="#365894"/><path fill="#F2D1AC" d="M398.66 196.06l-.32.88"/><path d="M398.754 196.992c-.084.01-.171.01-.256 0-.392-.102-.594-.412-.453-.694l.498-.954c.15-.273.575-.411.959-.312.384.1.588.402.46.68l-.498.966c-.127.197-.407.321-.71.314z" fill="#365894"/><path fill="#F2D1AC" d="M392.64 193.135l-.28.73"/><path d="M392.395 195.991a.295.295 0 01-.14 0 .526.526 0 01-.221-.316.892.892 0 01-.007-.46l.227-.874c.088-.282.304-.414.496-.3.19.112.293.431.233.73l-.227.874c-.062.218-.205.356-.36.346zm-30.635 86a1.14 1.14 0 01-.286 0 .705.705 0 01-.413-.332.523.523 0 01-.008-.476c.155-.317.346-.62.571-.907.23-.284.692-.361 1.037-.174.168.089.285.23.324.392a.526.526 0 01-.114.466 4.82 4.82 0 00-.42.683c-.13.218-.399.353-.692.348zM143.65 232a.68.68 0 01-.534-.23c-.203-.25-.133-.592.156-.77l1.302-.792-.99-2.484a.463.463 0 01.03-.418.618.618 0 01.374-.275.761.761 0 01.501.024.592.592 0 01.333.317l1.145 2.88c.09.229-.01.48-.247.616l-1.718 1.033a.764.764 0 01-.352.099zm.548 2a1.555 1.555 0 01-.993-.368c-.127-.106-.205-.302-.205-.515 0-.213.077-.41.204-.516a.301.301 0 01.408-.001c.54.316 1.152.213 1.628-.273a.587.587 0 01.139-.226c.184-.181.435-.112.561.154.1.27.073.6-.065.831-.467.584-1.061.908-1.677.914zm-4.611-7a.585.585 0 01-.46-.26c-.201-.3-.16-.733.095-.973l2.083-1.767.695 1.11s-1.79 1.493-2.048 1.74a.55.55 0 01-.365.15zm6.054-3a.8.8 0 01-.494-.147c-.223-.197-.189-.487.076-.654l1.722-1.086a.828.828 0 01.626-.088c.215.054.374.188.417.35.044.162-.036.33-.207.438l-1.722 1.04a.776.776 0 01-.418.147zm212.289 66a2.38 2.38 0 01-1.785-.924.515.515 0 01-.106-.554.579.579 0 01.479-.343.601.601 0 01.549.235c.42.5.77.521.992.489.817-.11 1.645-1.174 1.785-1.467a.572.572 0 01.537-.435.611.611 0 01.424.136.53.53 0 01.195.375c-.367 1.065-1.222 1.924-2.334 2.347a2.249 2.249 0 01-.736.141z" fill="#365894"/><path d="M395 195c-.61.94-3 3.729-3 3.729l1.505 1.271" fill="#F2D1AC"/><path d="M393.503 201a.802.802 0 01-.404-.116l-1.857-1.268a.484.484 0 01-.24-.359.496.496 0 01.164-.401s2.944-2.736 3.677-3.623c.195-.242.589-.306.878-.143.29.164.366.492.17.735-.606.739-2.527 2.513-3.348 3.327l1.352.908c.271.181.316.512.101.74a.712.712 0 01-.493.2z" fill="#365894"/><path d="M397 202.54s-3.556 1.333-5-.54" fill="#F2D1AC"/><path d="M393.494 203.994c-1.002.08-1.948-.694-2.436-1.995-.122-.324-.045-.734.173-.917.219-.174.492-.061.618.256.954 2.508 3.463.647 3.49.62.224-.159.492-.028.609.297.057.16.068.348.03.52a.664.664 0 01-.23.397c-.702.516-1.471.797-2.254.822zm7.51 24.006a1.022 1.022 0 01-.885-.58 1.164 1.164 0 01-.075-.828l3.001-10.832c.164-.565.716-.884 1.241-.715.255.083.47.272.595.526.126.255.153.553.075.828l-3.001 10.832c-.127.454-.513.766-.95.769z" fill="#365894"/><path fill="#BFD1E3" d="M401.495 223l1.505-4.354-2-3.646.209 7.631z"/><path d="M400.007 225a1.026 1.026 0 01-1.02-.826c-1.092-5.225-2.785-13.24-2.949-13.847a1.049 1.049 0 01.694-1.285.999.999 0 01.776.087c.238.133.413.357.49.623.244.868 2.703 12.646 2.978 13.983a1.046 1.046 0 01-.775 1.244.778.778 0 01-.194.02z" fill="#365894"/></g></g></svg>